<svg width="189" height="37" viewBox="0 0 189 37" fill="none" xmlns="http://www.w3.org/2000/svg">
<mask id="path-1-outside-1_97_91" maskUnits="userSpaceOnUse" x="0" y="2.02844" width="45" height="35" fill="black">
<rect fill="white" y="2.02844" width="45" height="35"/>
<path fill-rule="evenodd" clip-rule="evenodd" d="M12.0421 5.18631L5 11.3601H15.6902L12.0421 5.18631ZM5.79343 12.895L21.1087 31.1251L16.3976 12.895H5.79343ZM23.2358 31.3284L38.6752 12.895H27.9995L23.2358 31.3284ZM39.4663 11.3601L32.3859 5.13401L28.7068 11.3601H39.4663ZM30.6654 5.02844H23.9948L27.3301 10.6727L30.6654 5.02844ZM22.1851 5.02844H22.212L25.9534 11.3601H18.4436L22.1851 5.02844ZM20.4022 5.02844H13.7316L17.0669 10.6727L20.4022 5.02844ZM26.4141 12.895L22.1985 29.2077L17.9829 12.895H26.4141Z"/>
</mask>
<path fill-rule="evenodd" clip-rule="evenodd" d="M12.0421 5.18631L5 11.3601H15.6902L12.0421 5.18631ZM5.79343 12.895L21.1087 31.1251L16.3976 12.895H5.79343ZM23.2358 31.3284L38.6752 12.895H27.9995L23.2358 31.3284ZM39.4663 11.3601L32.3859 5.13401L28.7068 11.3601H39.4663ZM30.6654 5.02844H23.9948L27.3301 10.6727L30.6654 5.02844ZM22.1851 5.02844H22.212L25.9534 11.3601H18.4436L22.1851 5.02844ZM20.4022 5.02844H13.7316L17.0669 10.6727L20.4022 5.02844ZM26.4141 12.895L22.1985 29.2077L17.9829 12.895H26.4141Z" fill="#551018"/>
<path d="M12.0421 5.18631L13.5326 4.30556L12.4705 2.50827L10.9008 3.88449L12.0421 5.18631ZM5 11.3601L3.85869 10.0583L0.399028 13.0914H5V11.3601ZM15.6902 11.3601V13.0914H18.7242L17.1807 10.4794L15.6902 11.3601ZM5.79343 12.895V11.1638H2.07783L4.46786 14.0087L5.79343 12.895ZM21.1087 31.1251L19.7831 32.2388L22.7849 30.692L21.1087 31.1251ZM16.3976 12.895L18.0738 12.4619L17.7383 11.1638H16.3976V12.895ZM23.2358 31.3284L21.5596 30.8952L24.563 32.4401L23.2358 31.3284ZM38.6752 12.895L40.0025 14.0067L42.3836 11.1638H38.6752V12.895ZM27.9995 12.895V11.1638H26.6587L26.3233 12.4619L27.9995 12.895ZM39.4663 11.3601V13.0914H44.0568L40.6095 10.06L39.4663 11.3601ZM32.3859 5.13401L33.5291 3.83389L31.959 2.45323L30.8954 4.25325L32.3859 5.13401ZM28.7068 11.3601L27.2163 10.4794L25.6728 13.0914H28.7068V11.3601ZM30.6654 5.02844L32.1559 5.9092L33.6994 3.29716H30.6654V5.02844ZM23.9948 5.02844V3.29716H20.9609L22.5043 5.9092L23.9948 5.02844ZM27.3301 10.6727L25.8396 11.5535L27.3301 14.0759L28.8206 11.5535L27.3301 10.6727ZM22.212 5.02844L23.7025 4.14769L23.1999 3.29716H22.212V5.02844ZM22.1851 5.02844V3.29716H21.1972L20.6946 4.14769L22.1851 5.02844ZM25.9534 11.3601V13.0914H28.9874L27.4439 10.4794L25.9534 11.3601ZM18.4436 11.3601L16.9531 10.4794L15.4096 13.0914H18.4436V11.3601ZM20.4022 5.02844L21.8927 5.9092L23.4362 3.29716H20.4022V5.02844ZM13.7316 5.02844V3.29716H10.6977L12.2411 5.9092L13.7316 5.02844ZM17.0669 10.6727L15.5764 11.5535L17.0669 14.0759L18.5574 11.5535L17.0669 10.6727ZM22.1985 29.2077L20.5223 29.6409L22.1985 36.1271L23.8747 29.6409L22.1985 29.2077ZM26.4141 12.895L28.0903 13.3282L28.6497 11.1638H26.4141V12.895ZM17.9829 12.895V11.1638H15.7474L16.3067 13.3282L17.9829 12.895ZM10.9008 3.88449L3.85869 10.0583L6.14131 12.6619L13.1834 6.48813L10.9008 3.88449ZM5 13.0914H15.6902V9.62884H5V13.0914ZM17.1807 10.4794L13.5326 4.30556L10.5516 6.06707L14.1997 12.2409L17.1807 10.4794ZM4.46786 14.0087L19.7831 32.2388L22.4343 30.0115L7.11901 11.7814L4.46786 14.0087ZM22.7849 30.692L18.0738 12.4619L14.7214 13.3282L19.4325 31.5583L22.7849 30.692ZM16.3976 11.1638H5.79343V14.6263H16.3976V11.1638ZM24.563 32.4401L40.0025 14.0067L37.348 11.7834L21.9086 30.2168L24.563 32.4401ZM38.6752 11.1638H27.9995V14.6263H38.6752V11.1638ZM26.3233 12.4619L21.5596 30.8952L24.912 31.7616L29.6757 13.3282L26.3233 12.4619ZM40.6095 10.06L33.5291 3.83389L31.2426 6.43412L38.323 12.6602L40.6095 10.06ZM30.8954 4.25325L27.2163 10.4794L30.1973 12.2409L33.8764 6.01476L30.8954 4.25325ZM28.7068 13.0914H39.4663V9.62884H28.7068V13.0914ZM30.6654 3.29716H23.9948V6.75972H30.6654V3.29716ZM22.5043 5.9092L25.8396 11.5535L28.8206 9.79199L25.4853 4.14769L22.5043 5.9092ZM28.8206 11.5535L32.1559 5.9092L29.1749 4.14769L25.8396 9.79199L28.8206 11.5535ZM22.212 3.29716H22.1851V6.75972H22.212V3.29716ZM27.4439 10.4794L23.7025 4.14769L20.7215 5.9092L24.4629 12.2409L27.4439 10.4794ZM18.4436 13.0914H25.9534V9.62884H18.4436V13.0914ZM20.6946 4.14769L16.9531 10.4794L19.9341 12.2409L23.6756 5.9092L20.6946 4.14769ZM20.4022 3.29716H13.7316V6.75972H20.4022V3.29716ZM12.2411 5.9092L15.5764 11.5535L18.5574 9.79199L15.2221 4.14769L12.2411 5.9092ZM18.5574 11.5535L21.8927 5.9092L18.9117 4.14769L15.5764 9.79199L18.5574 11.5535ZM23.8747 29.6409L28.0903 13.3282L24.7379 12.4619L20.5223 28.7745L23.8747 29.6409ZM16.3067 13.3282L20.5223 29.6409L23.8747 28.7745L19.6591 12.4619L16.3067 13.3282ZM26.4141 11.1638H17.9829V14.6263H26.4141V11.1638Z" fill="#E3DFC5" mask="url(#path-1-outside-1_97_91)"/>
<path d="M54.0695 14.5442L52.0958 12.4407V9.06473H49.9664V26.1784H47.8629V9.06473H45.7074V14.5442L43.7078 16.6477V8.4155H54.0695V14.5442ZM63.5478 12.1551C63.5478 13.592 63.1583 14.9164 62.3792 16.1283C61.4963 17.5134 60.3796 18.2059 59.0292 18.2059H58.1982V26.1784H56.1466V8.4155H61.2366C61.6521 8.4155 62.0676 8.51072 62.4831 8.70116C62.9678 8.92623 63.2362 9.22054 63.2881 9.58411C63.4613 10.9345 63.5478 11.7915 63.5478 12.1551ZM61.4963 12.181C61.4963 11.5751 61.4097 10.5363 61.2366 9.06473H58.1982V17.5566H58.7955C59.5572 17.245 60.2151 16.4659 60.7691 15.2194C61.2539 14.1287 61.4963 13.1159 61.4963 12.181ZM73.0586 26.1784H65.6314V20.9586L67.683 23.0621V25.5292H70.9811V18.4396H70.9551C70.6262 18.4396 70.1328 18.5694 69.4749 18.8291H69.2671C68.9728 18.7772 68.4621 18.6473 67.7349 18.4396C66.3326 17.9722 65.6314 16.4227 65.6314 13.7911V8.4155H67.683V13.9729C67.683 15.1502 67.7696 16.0245 67.9427 16.5958C68.2024 17.4268 68.6785 17.9895 69.371 18.2838C70.4617 17.8163 71.0071 16.665 71.0071 14.8299V8.4155H73.0586V26.1784ZM83.1539 14.5442L81.0245 12.4407V9.06473H77.7264V16.2582H78.3237C78.3756 16.2582 78.4449 16.2495 78.5314 16.2322H78.843C79.0508 16.2322 79.3018 16.2582 79.5962 16.3101C79.7 16.3274 79.752 16.3447 79.752 16.3621C80.1848 16.414 80.6263 16.6218 81.0764 16.9853C82.4095 18.076 83.076 19.79 83.076 22.1272V25.2695C83.076 25.5811 82.799 25.8235 82.245 25.9966C81.8468 26.1178 81.44 26.1784 81.0245 26.1784H75.6748V8.4155H83.1539V14.5442ZM80.9985 22.1532C80.9985 20.4392 80.5051 18.9763 79.5182 17.7644C79.1893 17.3489 78.8604 17.0632 78.5314 16.9074H77.7004V25.5292H80.9985V22.1532ZM92.8899 26.1784H90.8384V22.1532C90.8384 20.872 90.5441 19.7034 89.9554 18.6473C89.4707 17.7644 88.9426 17.1844 88.3713 16.9074H87.5403V26.1784H85.4887V8.4155H87.5403V16.2582H88.1376C88.934 15.9292 89.6005 15.2454 90.1372 14.2066C90.6046 13.2717 90.8384 12.3368 90.8384 11.402V8.4155H92.8899V11.376C92.8899 12.5359 92.6216 13.592 92.0849 14.5442C91.4616 15.6522 90.6133 16.2582 89.5399 16.3621C90.6652 16.5006 91.5309 17.245 92.1368 18.5954C92.6389 19.6688 92.8899 20.8461 92.8899 22.1272V26.1784ZM104.498 17.1152C104.498 17.7557 103.892 18.1972 102.68 18.4396V25.0358L104.083 26.1784H99.2264L100.603 25.0358V20.4652L97.2787 23.7373V26.1784H95.2272V17.1411C95.2272 14.8385 95.911 13.0467 97.2787 11.7655C98.2309 10.8653 99.3389 10.3112 100.603 10.1035V9.27248L99.2264 8.4155H104.083L102.68 9.27248V15.8946C103.892 16.137 104.498 16.5438 104.498 17.1152ZM100.603 19.1927V18.4656C99.4774 18.2232 98.9148 17.7904 98.9148 17.1671C98.9148 16.5612 99.4774 16.137 100.603 15.8946V11.1423C99.3216 11.1423 98.404 11.8781 97.85 13.3496C97.4692 14.3711 97.2787 15.6436 97.2787 17.1671V22.5687L100.603 19.1927ZM125.156 10.4411L125.052 11.376C124.914 12.5533 124.611 13.5834 124.143 14.4663C123.52 15.6263 122.706 16.2582 121.702 16.3621C122.585 16.4659 123.364 17.0026 124.039 17.9722C124.818 19.0975 125.156 20.4825 125.052 22.1272L125 23.0102H122.949V22.283L122.975 22.4908C122.992 22.56 123.001 22.4475 123.001 22.1532C123.001 20.872 122.706 19.7034 122.118 18.6473C121.633 17.7644 121.105 17.1844 120.533 16.9074H119.702V16.2582H120.3C121.044 15.9466 121.676 15.254 122.196 14.1807C122.628 13.2977 122.897 12.3715 123.001 11.402L123.104 10.4411H125.156ZM120.508 10.3372L120.404 11.2721C120.265 12.4494 119.962 13.4795 119.495 14.3624C118.871 15.5224 118.058 16.1543 117.054 16.2582C117.937 16.3621 118.716 16.8988 119.391 17.8683C120.17 18.9936 120.508 20.3786 120.404 22.0233L120.352 22.9063H118.3V22.1792L118.326 22.3869C118.343 22.4562 118.352 22.3436 118.352 22.0493C118.352 20.7682 118.058 19.5996 117.469 18.5435C116.984 17.6605 116.456 17.0805 115.885 16.8035H115.054V16.1543H115.651C116.396 15.8427 117.028 15.1502 117.547 14.0768C117.98 13.1938 118.248 12.2676 118.352 11.2981L118.456 10.3372H120.508ZM135.615 17.1152C135.615 17.7557 135.01 18.1972 133.798 18.4396V25.0358L135.2 26.1784H130.344L131.72 25.0358V20.4652L128.396 23.7373V26.1784H126.345V17.1411C126.345 14.8385 127.028 13.0467 128.396 11.7655C129.348 10.8653 130.456 10.3112 131.72 10.1035V9.27248L130.344 8.4155H135.2L133.798 9.27248V15.8946C135.01 16.137 135.615 16.5438 135.615 17.1152ZM131.72 19.1927V18.4656C130.595 18.2232 130.032 17.7904 130.032 17.1671C130.032 16.5612 130.595 16.137 131.72 15.8946V11.1423C130.439 11.1423 129.521 11.8781 128.967 13.3496C128.587 14.3711 128.396 15.6436 128.396 17.1671V22.5687L131.72 19.1927ZM142.597 6.77944H139.532V5.40308H142.597V6.77944ZM144.908 26.1784H142.856V14.9597L139.403 19.3485V26.1784H137.351V8.4155H139.403V17.9202L142.856 13.5055V8.4155H144.908V26.1784ZM154.585 26.1784H152.533V22.2571C152.533 19.2273 151.988 17.4614 150.897 16.9594C150.239 17.2537 149.798 17.8596 149.573 18.7772C149.382 19.5563 149.287 20.7162 149.287 22.2571V26.1784H147.235V22.2571C147.235 20.7682 147.331 19.6342 147.521 18.8551C147.885 17.4181 148.577 16.6391 149.599 16.5179C148.595 16.3967 147.911 15.7561 147.547 14.5962C147.339 13.9036 147.235 12.8909 147.235 11.5578V8.4155H149.287V11.5578C149.287 12.9082 149.382 13.921 149.573 14.5962C149.798 15.3925 150.239 15.9206 150.897 16.1803C151.988 15.7128 152.533 14.1807 152.533 11.5837V8.4155H154.585V11.5837C154.585 14.7347 153.797 16.388 152.222 16.5438C153.797 16.7343 154.585 18.6473 154.585 22.283V26.1784ZM166.2 17.1152C166.2 17.7557 165.594 18.1972 164.382 18.4396V25.0358L165.785 26.1784H160.929L162.305 25.0358V20.4652L158.981 23.7373V26.1784H156.929V17.1411C156.929 14.8385 157.613 13.0467 158.981 11.7655C159.933 10.8653 161.041 10.3112 162.305 10.1035V9.27248L160.929 8.4155H165.785L164.382 9.27248V15.8946C165.594 16.137 166.2 16.5438 166.2 17.1152ZM162.305 19.1927V18.4656C161.18 18.2232 160.617 17.7904 160.617 17.1671C160.617 16.5612 161.18 16.137 162.305 15.8946V11.1423C161.024 11.1423 160.106 11.8781 159.552 13.3496C159.171 14.3711 158.981 15.6436 158.981 17.1671V22.5687L162.305 19.1927ZM177.207 17.1152C177.207 17.7557 176.601 18.1972 175.389 18.4396V25.0358L176.791 26.1784H171.935L173.311 25.0358V18.4656C172.186 18.2232 171.623 17.7904 171.623 17.1671C171.623 16.5612 172.186 16.137 173.311 15.8946V11.1423C172.03 11.1423 171.113 11.8781 170.559 13.3496C170.178 14.3711 169.987 15.6436 169.987 17.1671V26.1784H167.936V17.1411C167.936 14.8385 168.62 13.0467 169.987 11.7655C170.94 10.8653 172.048 10.3112 173.311 10.1035V9.27248L171.935 8.4155H176.791L175.389 9.27248V15.8946C176.601 16.137 177.207 16.5438 177.207 17.1152ZM187.746 16.8035H186.915C186.343 17.0805 185.815 17.6605 185.331 18.5435C184.742 19.5996 184.448 20.7682 184.448 22.0493C184.448 22.3436 184.456 22.4562 184.474 22.3869L184.5 22.1792V22.9063H182.448L182.396 22.0233C182.292 20.3786 182.63 18.9936 183.409 17.8683C184.084 16.8988 184.863 16.3621 185.746 16.2582C184.742 16.1543 183.928 15.5224 183.305 14.3624C182.838 13.4795 182.535 12.4494 182.396 11.2721L182.292 10.3372H184.344L184.448 11.2981C184.552 12.2676 184.82 13.1938 185.253 14.0768C185.772 15.1502 186.404 15.8427 187.148 16.1543H187.746V16.8035ZM183.097 16.9074H182.266C181.695 17.1844 181.167 17.7644 180.682 18.6473C180.093 19.7034 179.799 20.872 179.799 22.1532C179.799 22.4475 179.808 22.56 179.825 22.4908L179.851 22.283V23.0102H177.8L177.748 22.1272C177.644 20.4825 177.981 19.0975 178.76 17.9722C179.436 17.0026 180.215 16.4659 181.098 16.3621C180.093 16.2582 179.28 15.6263 178.657 14.4663C178.189 13.5834 177.886 12.5533 177.748 11.376L177.644 10.4411H179.695L179.799 11.402C179.903 12.3715 180.171 13.2977 180.604 14.1807C181.124 15.254 181.756 15.9466 182.5 16.2582H183.097V16.9074Z" fill="#551018"/>
<path d="M54.0695 14.5442L52.8069 15.7288L55.8008 18.9196V14.5442H54.0695ZM52.0958 12.4407H50.3645V13.1258L50.8333 13.6253L52.0958 12.4407ZM52.0958 9.06473H53.8271V7.33345H52.0958V9.06473ZM49.9664 9.06473V7.33345H48.2351V9.06473H49.9664ZM49.9664 26.1784V27.9097H51.6976V26.1784H49.9664ZM47.8629 26.1784H46.1316V27.9097H47.8629V26.1784ZM47.8629 9.06473H49.5941V7.33345H47.8629V9.06473ZM45.7074 9.06473V7.33345H43.9761V9.06473H45.7074ZM45.7074 14.5442L46.9622 15.737L47.4387 15.2358V14.5442H45.7074ZM43.7078 16.6477H41.9765V20.9817L44.9626 17.8405L43.7078 16.6477ZM43.7078 8.4155V6.68422H41.9765V8.4155H43.7078ZM54.0695 8.4155H55.8008V6.68422H54.0695V8.4155ZM55.332 13.3596L53.3584 11.2561L50.8333 13.6253L52.8069 15.7288L55.332 13.3596ZM53.8271 12.4407V9.06473H50.3645V12.4407H53.8271ZM52.0958 7.33345H49.9664V10.796H52.0958V7.33345ZM48.2351 9.06473V26.1784H51.6976V9.06473H48.2351ZM49.9664 24.4471H47.8629V27.9097H49.9664V24.4471ZM49.5941 26.1784V9.06473H46.1316V26.1784H49.5941ZM47.8629 7.33345H45.7074V10.796H47.8629V7.33345ZM43.9761 9.06473V14.5442H47.4387V9.06473H43.9761ZM44.4526 13.3514L42.453 15.4549L44.9626 17.8405L46.9622 15.737L44.4526 13.3514ZM45.4391 16.6477V8.4155H41.9765V16.6477H45.4391ZM43.7078 10.1468H54.0695V6.68422H43.7078V10.1468ZM52.3382 8.4155V14.5442H55.8008V8.4155H52.3382ZM62.3792 16.1283L60.9229 15.1921L60.9193 15.1977L62.3792 16.1283ZM58.1982 18.2059V16.4746H56.4669V18.2059H58.1982ZM58.1982 26.1784V27.9097H59.9294V26.1784H58.1982ZM56.1466 26.1784H54.4153V27.9097H56.1466V26.1784ZM56.1466 8.4155V6.68422H54.4153V8.4155H56.1466ZM62.4831 8.70116L63.2122 7.13086L63.2044 7.12731L62.4831 8.70116ZM63.2881 9.58411L65.0054 9.36395L65.0038 9.3516L65.002 9.33927L63.2881 9.58411ZM61.2366 9.06473L62.956 8.86244L62.7761 7.33345H61.2366V9.06473ZM58.1982 9.06473V7.33345H56.4669V9.06473H58.1982ZM58.1982 17.5566H56.4669V19.2879H58.1982V17.5566ZM58.7955 17.5566V19.2879H59.1359L59.451 19.159L58.7955 17.5566ZM60.7691 15.2194L62.3512 15.9226V15.9226L60.7691 15.2194ZM61.8165 12.1551C61.8165 13.2591 61.5229 14.2587 60.9229 15.1921L63.8355 17.0645C64.7936 15.5742 65.2791 13.9249 65.2791 12.1551H61.8165ZM60.9193 15.1977C60.275 16.2084 59.6543 16.4746 59.0292 16.4746V19.9372C61.1049 19.9372 62.7175 18.8183 63.8391 17.059L60.9193 15.1977ZM59.0292 16.4746H58.1982V19.9372H59.0292V16.4746ZM56.4669 18.2059V26.1784H59.9294V18.2059H56.4669ZM58.1982 24.4471H56.1466V27.9097H58.1982V24.4471ZM57.8779 26.1784V8.4155H54.4153V26.1784H57.8779ZM56.1466 10.1468H61.2366V6.68422H56.1466V10.1468ZM61.2366 10.1468C61.3791 10.1468 61.5497 10.1778 61.7617 10.275L63.2044 7.12731C62.5854 6.84362 61.925 6.68422 61.2366 6.68422V10.1468ZM61.754 10.2714C61.8552 10.3184 61.8324 10.3271 61.7686 10.2572C61.734 10.2192 61.6905 10.1613 61.652 10.0822C61.613 10.0021 61.5866 9.91549 61.5743 9.82895L65.002 9.33927C64.8335 8.15954 63.9678 7.48172 63.2121 7.13087L61.754 10.2714ZM61.5709 9.80427C61.7487 11.1908 61.8165 11.9258 61.8165 12.1551H65.2791C65.2791 11.6572 65.1738 10.6782 65.0054 9.36395L61.5709 9.80427ZM63.2275 12.181C63.2275 11.4626 63.129 10.3329 62.956 8.86244L59.5171 9.26701C59.6904 10.7398 59.765 11.6876 59.765 12.181H63.2275ZM61.2366 7.33345H58.1982V10.796H61.2366V7.33345ZM56.4669 9.06473V17.5566H59.9294V9.06473H56.4669ZM58.1982 19.2879H58.7955V15.8254H58.1982V19.2879ZM59.451 19.159C60.8257 18.5966 61.7281 17.3244 62.3512 15.9226L59.1871 14.5163C58.7021 15.6074 58.2888 15.8934 58.1399 15.9543L59.451 19.159ZM62.3512 15.9226C62.9081 14.6695 63.2275 13.4153 63.2275 12.181H59.765C59.765 12.8165 59.5996 13.588 59.1871 14.5163L62.3512 15.9226ZM73.0586 26.1784V27.9097H74.7899V26.1784H73.0586ZM65.6314 26.1784H63.9002V27.9097H65.6314V26.1784ZM65.6314 20.9586L66.8708 19.7498L63.9002 16.7039V20.9586H65.6314ZM67.683 23.0621H69.4143V22.3576L68.9224 21.8533L67.683 23.0621ZM67.683 25.5292H65.9517V27.2605H67.683V25.5292ZM70.9811 25.5292V27.2605H72.7124V25.5292H70.9811ZM70.9811 18.4396H72.7124V16.7083H70.9811V18.4396ZM69.4749 18.8291V20.5604H69.8042L70.1105 20.4395L69.4749 18.8291ZM69.2671 18.8291L68.9663 20.5341L69.1155 20.5604H69.2671V18.8291ZM67.7349 18.4396L67.1875 20.082L67.2232 20.0939L67.2593 20.1043L67.7349 18.4396ZM65.6314 8.4155V6.68422H63.9002V8.4155H65.6314ZM67.683 8.4155H69.4143V6.68422H67.683V8.4155ZM67.9427 16.5958L66.2858 17.0979L66.288 17.105L66.2902 17.1122L67.9427 16.5958ZM69.371 18.2838L68.6938 19.8771L69.3738 20.1661L70.053 19.8751L69.371 18.2838ZM71.0071 8.4155V6.68422H69.2758V8.4155H71.0071ZM73.0586 8.4155H74.7899V6.68422H73.0586V8.4155ZM73.0586 24.4471H65.6314V27.9097H73.0586V24.4471ZM67.3627 26.1784V20.9586H63.9002V26.1784H67.3627ZM64.392 22.1674L66.4436 24.2709L68.9224 21.8533L66.8708 19.7498L64.392 22.1674ZM65.9517 23.0621V25.5292H69.4143V23.0621H65.9517ZM67.683 27.2605H70.9811V23.7979H67.683V27.2605ZM72.7124 25.5292V18.4396H69.2498V25.5292H72.7124ZM70.9811 16.7083H70.9551V20.1709H70.9811V16.7083ZM70.9551 16.7083C70.2754 16.7083 69.5205 16.9499 68.8392 17.2188L70.1105 20.4395C70.3981 20.326 70.6182 20.2535 70.7789 20.2113C70.9515 20.1658 70.9974 20.1709 70.9551 20.1709V16.7083ZM69.4749 17.0979H69.2671V20.5604H69.4749V17.0979ZM69.568 17.1242C69.3727 17.0897 68.941 16.9836 68.2106 16.7749L67.2593 20.1043C67.9832 20.3111 68.573 20.4647 68.9663 20.5341L69.568 17.1242ZM68.2824 16.7972C68.0479 16.719 67.3627 16.32 67.3627 13.7911H63.9002C63.9002 16.5253 64.6173 19.2253 67.1875 20.082L68.2824 16.7972ZM67.3627 13.7911V8.4155H63.9002V13.7911H67.3627ZM65.6314 10.1468H67.683V6.68422H65.6314V10.1468ZM65.9517 8.4155V13.9729H69.4143V8.4155H65.9517ZM65.9517 13.9729C65.9517 15.1888 66.036 16.2733 66.2858 17.0979L69.5996 16.0937C69.5032 15.7756 69.4143 15.1115 69.4143 13.9729H65.9517ZM66.2902 17.1122C66.6749 18.3432 67.4581 19.352 68.6938 19.8771L70.0482 16.6904C69.8988 16.627 69.7299 16.5104 69.5952 16.0794L66.2902 17.1122ZM70.053 19.8751C72.0983 18.9985 72.7383 16.9288 72.7383 14.8299H69.2758C69.2758 16.4013 68.8251 16.6342 68.689 16.6925L70.053 19.8751ZM72.7383 14.8299V8.4155H69.2758V14.8299H72.7383ZM71.0071 10.1468H73.0586V6.68422H71.0071V10.1468ZM71.3273 8.4155V26.1784H74.7899V8.4155H71.3273ZM83.1539 14.5442L81.9373 15.7759L84.8852 18.6879V14.5442H83.1539ZM81.0245 12.4407H79.2932V13.1641L79.8078 13.6724L81.0245 12.4407ZM81.0245 9.06473H82.7557V7.33345H81.0245V9.06473ZM77.7264 9.06473V7.33345H75.9951V9.06473H77.7264ZM77.7264 16.2582H75.9951V17.9895H77.7264V16.2582ZM78.5314 16.2322V14.5009H78.36L78.1919 14.5346L78.5314 16.2322ZM79.5962 16.3101L79.2953 18.0151L79.3034 18.0165L79.3115 18.0178L79.5962 16.3101ZM79.752 16.3621H78.0207V17.898L79.5457 18.081L79.752 16.3621ZM81.0764 16.9853L82.1727 15.6454L82.1642 15.6385L81.0764 16.9853ZM82.245 25.9966L82.7491 27.6529L82.7614 27.6491L82.245 25.9966ZM75.6748 26.1784H73.9435V27.9097H75.6748V26.1784ZM75.6748 8.4155V6.68422H73.9435V8.4155H75.6748ZM83.1539 8.4155H84.8852V6.68422H83.1539V8.4155ZM79.5182 17.7644L78.1608 18.839L78.1682 18.8483L78.1758 18.8576L79.5182 17.7644ZM78.5314 16.9074L79.2726 15.3428L78.9207 15.1761H78.5314V16.9074ZM77.7004 16.9074V15.1761H75.9691V16.9074H77.7004ZM77.7004 25.5292H75.9691V27.2605H77.7004V25.5292ZM80.9985 25.5292V27.2605H82.7298V25.5292H80.9985ZM84.3706 13.3125L82.2411 11.209L79.8078 13.6724L81.9373 15.7759L84.3706 13.3125ZM82.7557 12.4407V9.06473H79.2932V12.4407H82.7557ZM81.0245 7.33345H77.7264V10.796H81.0245V7.33345ZM75.9951 9.06473V16.2582H79.4577V9.06473H75.9951ZM77.7264 17.9895H78.3237V14.5269H77.7264V17.9895ZM78.3237 17.9895C78.5414 17.9895 78.7385 17.9564 78.8709 17.9299L78.1919 14.5346C78.1797 14.537 78.1834 14.5358 78.1998 14.5338C78.2139 14.532 78.2583 14.5269 78.3237 14.5269V17.9895ZM78.5314 17.9635H78.843V14.5009H78.5314V17.9635ZM78.843 17.9635C78.9167 17.9635 79.0611 17.9737 79.2953 18.0151L79.897 14.6052C79.5425 14.5426 79.1849 14.5009 78.843 14.5009V17.9635ZM79.3115 18.0178C79.3398 18.0226 79.2712 18.0137 79.1655 17.9785C79.1246 17.9649 78.9647 17.9115 78.7819 17.7896C78.6877 17.7268 78.5203 17.602 78.3645 17.3943C78.1984 17.1729 78.0207 16.8196 78.0207 16.3621H81.4832C81.4832 15.4387 80.8136 14.9826 80.7026 14.9086C80.5068 14.778 80.3274 14.716 80.2605 14.6937C80.1029 14.6411 79.9564 14.615 79.8808 14.6024L79.3115 18.0178ZM79.5457 18.081C79.5659 18.0834 79.7107 18.1077 79.9886 18.3322L82.1642 15.6385C81.5419 15.1358 80.8036 14.7446 79.9582 14.6431L79.5457 18.081ZM79.9801 18.3253C80.7805 18.9801 81.3447 20.1126 81.3447 22.1272H84.8073C84.8073 19.4674 84.0385 17.1719 82.1727 15.6454L79.9801 18.3253ZM81.3447 22.1272V25.2695H84.8073V22.1272H81.3447ZM81.3447 25.2695C81.3447 25.0804 81.3892 24.8887 81.4756 24.716C81.5585 24.5501 81.6596 24.4421 81.7282 24.3821C81.8454 24.2795 81.8938 24.2925 81.7286 24.3442L82.7614 27.6491C83.1502 27.5276 83.6141 27.3329 84.0083 26.9879C84.4477 26.6034 84.8073 26.016 84.8073 25.2695H81.3447ZM81.7409 24.3404C81.5059 24.4119 81.2689 24.4471 81.0245 24.4471V27.9097C81.6111 27.9097 82.1878 27.8237 82.7491 27.6529L81.7409 24.3404ZM81.0245 24.4471H75.6748V27.9097H81.0245V24.4471ZM77.4061 26.1784V8.4155H73.9435V26.1784H77.4061ZM75.6748 10.1468H83.1539V6.68422H75.6748V10.1468ZM81.4227 8.4155V14.5442H84.8852V8.4155H81.4227ZM82.7298 22.1532C82.7298 20.0821 82.1238 18.2224 80.8607 16.6712L78.1758 18.8576C78.8863 19.7302 79.2672 20.7964 79.2672 22.1532H82.7298ZM80.8756 16.6898C80.4513 16.1538 79.926 15.6523 79.2726 15.3428L77.7903 18.472C77.7876 18.4707 77.8216 18.4866 77.8897 18.5457C77.9578 18.6049 78.0493 18.6981 78.1608 18.839L80.8756 16.6898ZM78.5314 15.1761H77.7004V18.6387H78.5314V15.1761ZM75.9691 16.9074V25.5292H79.4317V16.9074H75.9691ZM77.7004 27.2605H80.9985V23.7979H77.7004V27.2605ZM82.7298 25.5292V22.1532H79.2672V25.5292H82.7298ZM92.8899 26.1784V27.9097H94.6212V26.1784H92.8899ZM90.8384 26.1784H89.1071V27.9097H90.8384V26.1784ZM89.9554 18.6473L88.4378 19.4806L88.4432 19.4902L89.9554 18.6473ZM88.3713 16.9074L89.1266 15.3496L88.7689 15.1761H88.3713V16.9074ZM87.5403 16.9074V15.1761H85.809V16.9074H87.5403ZM87.5403 26.1784V27.9097H89.2716V26.1784H87.5403ZM85.4887 26.1784H83.7574V27.9097H85.4887V26.1784ZM85.4887 8.4155V6.68422H83.7574V8.4155H85.4887ZM87.5403 8.4155H89.2716V6.68422H87.5403V8.4155ZM87.5403 16.2582H85.809V17.9895H87.5403V16.2582ZM88.1376 16.2582V17.9895H88.481L88.7985 17.8583L88.1376 16.2582ZM90.1372 14.2066L91.6753 15.0013L91.6806 14.9911L91.6857 14.9809L90.1372 14.2066ZM90.8384 8.4155V6.68422H89.1071V8.4155H90.8384ZM92.8899 8.4155H94.6212V6.68422H92.8899V8.4155ZM92.0849 14.5442L90.5767 13.6941L90.5759 13.6954L92.0849 14.5442ZM89.5399 16.3621L89.3731 14.6388L89.3284 18.0804L89.5399 16.3621ZM92.1368 18.5954L90.5573 19.3042L90.5629 19.3166L90.5686 19.3289L92.1368 18.5954ZM92.8899 24.4471H90.8384V27.9097H92.8899V24.4471ZM92.5696 26.1784V22.1532H89.1071V26.1784H92.5696ZM92.5696 22.1532C92.5696 20.5952 92.2085 19.1337 91.4677 17.8045L88.4432 19.4902C88.8796 20.2732 89.1071 21.1489 89.1071 22.1532H92.5696ZM91.473 17.8142C90.909 16.7869 90.1604 15.8508 89.1266 15.3496L87.616 18.4652C87.7248 18.518 88.0323 18.7419 88.4378 19.4805L91.473 17.8142ZM88.3713 15.1761H87.5403V18.6387H88.3713V15.1761ZM85.809 16.9074V26.1784H89.2716V16.9074H85.809ZM87.5403 24.4471H85.4887V27.9097H87.5403V24.4471ZM87.22 26.1784V8.4155H83.7574V26.1784H87.22ZM85.4887 10.1468H87.5403V6.68422H85.4887V10.1468ZM85.809 8.4155V16.2582H89.2716V8.4155H85.809ZM87.5403 17.9895H88.1376V14.5269H87.5403V17.9895ZM88.7985 17.8583C90.0897 17.325 91.0179 16.2737 91.6753 15.0013L88.5991 13.4119C88.1831 14.2171 87.7783 14.5334 87.4766 14.658L88.7985 17.8583ZM91.6857 14.9809C92.259 13.8343 92.5696 12.6359 92.5696 11.402H89.1071C89.1071 12.0377 88.9503 12.7092 88.5887 13.4324L91.6857 14.9809ZM92.5696 11.402V8.4155H89.1071V11.402H92.5696ZM90.8384 10.1468H92.8899V6.68422H90.8384V10.1468ZM91.1587 8.4155V11.376H94.6212V8.4155H91.1587ZM91.1587 11.376C91.1587 12.257 90.9581 13.0174 90.5767 13.6941L93.5931 15.3943C94.285 14.1667 94.6212 12.8149 94.6212 11.376H91.1587ZM90.5759 13.6954C90.1733 14.4112 89.7767 14.5998 89.3731 14.6388L89.7067 18.0853C91.4499 17.9166 92.7499 16.8933 93.5938 15.393L90.5759 13.6954ZM89.3284 18.0804C89.6696 18.1224 90.1132 18.3145 90.5573 19.3042L93.7164 17.8866C92.9486 16.1755 91.6609 14.8788 89.7514 14.6438L89.3284 18.0804ZM90.5686 19.3289C90.9548 20.1545 91.1587 21.0787 91.1587 22.1272H94.6212C94.6212 20.6135 94.323 19.1831 93.705 17.8619L90.5686 19.3289ZM91.1587 22.1272V26.1784H94.6212V22.1272H91.1587ZM102.68 18.4396L102.341 16.7419L100.949 17.0203V18.4396H102.68ZM102.68 25.0358H100.949V25.8583L101.587 26.3779L102.68 25.0358ZM104.083 26.1784V27.9097H108.948L105.176 24.8363L104.083 26.1784ZM99.2264 26.1784L98.1205 24.8463L94.4306 27.9097H99.2264V26.1784ZM100.603 25.0358L101.709 26.3678L102.334 25.8486V25.0358H100.603ZM100.603 20.4652H102.334V16.3316L99.3882 19.2314L100.603 20.4652ZM97.2787 23.7373L96.0642 22.5035L95.5474 23.0122V23.7373H97.2787ZM97.2787 26.1784V27.9097H99.01V26.1784H97.2787ZM95.2272 26.1784H93.4959V27.9097H95.2272V26.1784ZM97.2787 11.7655L98.4623 13.0291L98.4681 13.0235L97.2787 11.7655ZM100.603 10.1035L100.884 11.8118L102.334 11.5734V10.1035H100.603ZM100.603 9.27248H102.334V8.311L101.518 7.8028L100.603 9.27248ZM99.2264 8.4155V6.68422H93.1704L98.3113 9.88517L99.2264 8.4155ZM104.083 8.4155L104.985 9.89277L110.236 6.68422H104.083V8.4155ZM102.68 9.27248L101.778 7.79521L100.949 8.30152V9.27248H102.68ZM102.68 15.8946H100.949V17.3139L102.341 17.5923L102.68 15.8946ZM100.603 19.1927L101.836 20.4074L102.334 19.902V19.1927H100.603ZM100.603 18.4656H102.334V17.0675L100.967 16.7731L100.603 18.4656ZM100.603 15.8946L100.967 17.5871L102.334 17.2927V15.8946H100.603ZM100.603 11.1423H102.334V9.41098H100.603V11.1423ZM97.85 13.3496L96.2298 12.7397L96.2279 12.7448L97.85 13.3496ZM97.2787 22.5687H95.5474V26.7946L98.5124 23.7834L97.2787 22.5687ZM102.767 17.1152C102.767 16.9893 102.8 16.8443 102.874 16.7124C102.943 16.5893 103.015 16.5338 103.024 16.5274C103.03 16.5235 102.988 16.5543 102.866 16.6001C102.746 16.645 102.575 16.695 102.341 16.7419L103.02 20.1373C103.732 19.9949 104.468 19.7598 105.063 19.326C105.727 18.8426 106.229 18.0881 106.229 17.1152H102.767ZM100.949 18.4396V25.0358H104.412V18.4396H100.949ZM101.587 26.3779L102.989 27.5206L105.176 24.8363L103.774 23.6936L101.587 26.3779ZM104.083 24.4471H99.2264V27.9097H104.083V24.4471ZM100.332 27.5105L101.709 26.3678L99.4969 23.7037L98.1205 24.8463L100.332 27.5105ZM102.334 25.0358V20.4652H98.8715V25.0358H102.334ZM99.3882 19.2314L96.0642 22.5035L98.4932 24.9711L101.817 21.699L99.3882 19.2314ZM95.5474 23.7373V26.1784H99.01V23.7373H95.5474ZM97.2787 24.4471H95.2272V27.9097H97.2787V24.4471ZM96.9584 26.1784V17.1411H93.4959V26.1784H96.9584ZM96.9584 17.1411C96.9584 15.1998 97.5214 13.9104 98.4623 13.0291L96.0952 10.502C94.3006 12.183 93.4959 14.4773 93.4959 17.1411H96.9584ZM98.4681 13.0235C99.1754 12.3549 99.9691 11.9622 100.884 11.8118L100.322 8.39514C98.7088 8.66032 97.2865 9.37564 96.0893 10.5075L98.4681 13.0235ZM102.334 10.1035V9.27248H98.8715V10.1035H102.334ZM101.518 7.8028L100.141 6.94582L98.3113 9.88517L99.6877 10.7422L101.518 7.8028ZM99.2264 10.1468H104.083V6.68422H99.2264V10.1468ZM103.18 6.93823L101.778 7.79521L103.583 10.7497L104.985 9.89277L103.18 6.93823ZM100.949 9.27248V15.8946H104.412V9.27248H100.949ZM102.341 17.5923C102.583 17.6407 102.764 17.6913 102.893 17.7377C102.957 17.7604 103.003 17.7804 103.035 17.7957C103.067 17.8112 103.08 17.8198 103.079 17.8189C103.077 17.818 103.057 17.8045 103.027 17.7748C102.997 17.7446 102.955 17.6969 102.913 17.6292C102.82 17.4797 102.767 17.2968 102.767 17.1152H106.229C106.229 16.0934 105.641 15.3689 105.009 14.9442C104.429 14.555 103.716 14.3361 103.02 14.197L102.341 17.5923ZM102.334 19.1927V18.4656H98.8715V19.1927H102.334ZM100.967 16.7731C100.757 16.7279 100.608 16.6809 100.507 16.6406C100.405 16.5996 100.377 16.5754 100.392 16.5869C100.411 16.6014 100.483 16.6625 100.548 16.7848C100.617 16.9139 100.646 17.0513 100.646 17.1671H97.1835C97.1835 18.0958 97.6412 18.8391 98.2812 19.3314C98.8545 19.7724 99.5624 20.0125 100.238 20.158L100.967 16.7731ZM100.646 17.1671C100.646 17.2958 100.613 17.4424 100.54 17.5767C100.471 17.7028 100.396 17.7641 100.379 17.777C100.365 17.7873 100.395 17.7623 100.5 17.7208C100.603 17.68 100.755 17.6328 100.967 17.5871L100.238 14.2022C99.5669 14.3467 98.8646 14.5824 98.2946 15.0121C97.6595 15.4908 97.1835 16.2276 97.1835 17.1671H100.646ZM102.334 15.8946V11.1423H98.8715V15.8946H102.334ZM100.603 9.41098C99.6059 9.41098 98.6647 9.7067 97.8707 10.3434C97.1012 10.9604 96.5805 11.8081 96.2298 12.7397L99.4703 13.9596C99.6736 13.4196 99.8886 13.1636 100.037 13.0448C100.16 12.9457 100.318 12.8735 100.603 12.8735V9.41098ZM96.2279 12.7448C95.7524 14.02 95.5474 15.513 95.5474 17.1671H99.01C99.01 15.7742 99.186 14.7222 99.4722 13.9545L96.2279 12.7448ZM95.5474 17.1671V22.5687H99.01V17.1671H95.5474ZM98.5124 23.7834L101.836 20.4074L99.3691 17.978L96.0451 21.354L98.5124 23.7834ZM125.156 10.4411L126.877 10.6323L127.09 8.70982H125.156V10.4411ZM125.052 11.376L126.772 11.5783L126.773 11.5672L125.052 11.376ZM124.143 14.4663L125.668 15.2858L125.673 15.2764L124.143 14.4663ZM121.702 16.3621L121.524 14.64L121.5 18.0815L121.702 16.3621ZM124.039 17.9722L125.463 16.9867L125.46 16.9827L124.039 17.9722ZM125.052 22.1272L123.324 22.0181L123.324 22.0256L125.052 22.1272ZM125 23.0102V24.7414H126.633L126.728 23.1118L125 23.0102ZM122.949 23.0102H121.217V24.7414H122.949V23.0102ZM122.949 22.283L124.667 22.0683L121.217 22.283H122.949ZM122.975 22.4908L121.257 22.7055L121.27 22.8093L121.295 22.9107L122.975 22.4908ZM122.118 18.6473L120.6 19.4806L120.605 19.4902L122.118 18.6473ZM120.533 16.9074L121.289 15.3496L120.931 15.1761H120.533V16.9074ZM119.702 16.9074H117.971V18.6387H119.702V16.9074ZM119.702 16.2582V14.5269H117.971V16.2582H119.702ZM120.3 16.2582V17.9895H120.648L120.968 17.8552L120.3 16.2582ZM122.196 14.1807L120.641 13.4186L120.637 13.4266L122.196 14.1807ZM123.001 11.402L121.279 11.2159L121.279 11.2175L123.001 11.402ZM123.104 10.4411V8.70982H121.55L121.383 10.255L123.104 10.4411ZM120.508 10.3372L122.228 10.5284L122.442 8.60594H120.508V10.3372ZM120.404 11.2721L122.123 11.4744L122.124 11.4633L120.404 11.2721ZM119.495 14.3624L121.02 15.1819L121.025 15.1725L119.495 14.3624ZM117.054 16.2582L116.875 14.5361L116.851 17.9776L117.054 16.2582ZM119.391 17.8683L120.814 16.8828L120.812 16.8789L119.391 17.8683ZM120.404 22.0233L118.676 21.9142L118.675 21.9217L120.404 22.0233ZM120.352 22.9063V24.6376H121.984L122.08 23.008L120.352 22.9063ZM118.3 22.9063H116.569V24.6376H118.3V22.9063ZM118.3 22.1792L120.018 21.9644L116.569 22.1792H118.3ZM118.326 22.3869L116.608 22.6016L116.621 22.7054L116.647 22.8068L118.326 22.3869ZM117.469 18.5435L115.951 19.3767L115.957 19.3864L117.469 18.5435ZM115.885 16.8035L116.64 15.2457L116.283 15.0723H115.885V16.8035ZM115.054 16.8035H113.323V18.5348H115.054V16.8035ZM115.054 16.1543V14.423H113.323V16.1543H115.054ZM115.651 16.1543V17.8856H115.999L116.32 17.7513L115.651 16.1543ZM117.547 14.0768L115.992 13.3147L115.989 13.3227L117.547 14.0768ZM118.352 11.2981L116.631 11.112L116.631 11.1136L118.352 11.2981ZM118.456 10.3372V8.60594H116.902L116.735 10.1511L118.456 10.3372ZM123.435 10.2499L123.331 11.1848L126.773 11.5672L126.877 10.6323L123.435 10.2499ZM123.333 11.1737C123.215 12.1772 122.964 12.9942 122.613 13.6563L125.673 15.2764C126.258 14.1726 126.613 12.9293 126.772 11.5783L123.333 11.1737ZM122.618 13.6469C122.174 14.4726 121.788 14.6127 121.524 14.64L121.88 18.0842C123.625 17.9037 124.865 16.7799 125.668 15.2858L122.618 13.6469ZM121.5 18.0815C121.743 18.1101 122.128 18.2575 122.619 18.9616L125.46 16.9827C124.6 15.7478 123.427 14.8218 121.904 14.6426L121.5 18.0815ZM122.616 18.9576C123.131 19.7011 123.409 20.6801 123.324 22.0181L126.78 22.2363C126.903 20.2849 126.506 18.4938 125.463 16.9867L122.616 18.9576ZM123.324 22.0256L123.272 22.9085L126.728 23.1118L126.78 22.2289L123.324 22.0256ZM125 21.2789H122.949V24.7414H125V21.2789ZM124.68 23.0102V22.283H121.217V23.0102H124.68ZM121.231 22.4978L121.257 22.7055L124.693 22.276L124.667 22.0683L121.231 22.4978ZM121.295 22.9107C121.304 22.9454 121.319 23.0031 121.343 23.0719C121.361 23.1223 121.413 23.2702 121.52 23.4377C121.574 23.5223 121.682 23.6764 121.859 23.8279C122.04 23.9816 122.375 24.2001 122.851 24.2367C123.906 24.3179 124.406 23.5061 124.471 23.3994C124.596 23.1906 124.646 23.0043 124.66 22.9511C124.682 22.8714 124.694 22.8054 124.7 22.7677C124.712 22.6913 124.718 22.6263 124.72 22.5911C124.73 22.46 124.732 22.2963 124.732 22.1532H121.269C121.269 22.3044 121.266 22.3441 121.268 22.3255C121.268 22.3185 121.272 22.2759 121.281 22.2163C121.286 22.187 121.296 22.128 121.316 22.0538C121.329 22.0061 121.378 21.824 121.501 21.6179C121.564 21.5139 122.063 20.7034 123.116 20.7844C123.591 20.8209 123.925 21.0391 124.105 21.192C124.282 21.3427 124.388 21.4956 124.441 21.5787C124.546 21.7433 124.597 21.8868 124.612 21.9314C124.634 21.9944 124.648 22.0448 124.654 22.0709L121.295 22.9107ZM124.732 22.1532C124.732 20.5952 124.371 19.1337 123.63 17.8045L120.605 19.4902C121.042 20.2732 121.269 21.1489 121.269 22.1532H124.732ZM123.635 17.8142C123.071 16.7869 122.323 15.8508 121.289 15.3496L119.778 18.4652C119.887 18.518 120.194 18.7419 120.6 19.4805L123.635 17.8142ZM120.533 15.1761H119.702V18.6387H120.533V15.1761ZM121.434 16.9074V16.2582H117.971V16.9074H121.434ZM119.702 17.9895H120.3V14.5269H119.702V17.9895ZM120.968 17.8552C122.252 17.3178 123.136 16.211 123.754 14.9347L120.637 13.4266C120.216 14.2971 119.836 14.5753 119.631 14.6612L120.968 17.8552ZM123.75 14.9427C124.271 13.88 124.596 12.7584 124.722 11.5864L121.279 11.2175C121.197 11.9845 120.986 12.7154 120.641 13.4186L123.75 14.9427ZM124.722 11.588L124.826 10.6272L121.383 10.255L121.279 11.2159L124.722 11.588ZM123.104 12.1724H125.156V8.70982H123.104V12.1724ZM118.787 10.146L118.683 11.0809L122.124 11.4633L122.228 10.5284L118.787 10.146ZM118.684 11.0698C118.566 12.0733 118.315 12.8903 117.965 13.5524L121.025 15.1725C121.609 14.0687 121.964 12.8254 122.123 11.4744L118.684 11.0698ZM117.97 13.543C117.526 14.3687 117.139 14.5088 116.875 14.5361L117.232 17.9803C118.976 17.7998 120.217 16.676 121.02 15.1819L117.97 13.543ZM116.851 17.9776C117.094 18.0062 117.48 18.1536 117.97 18.8577L120.812 16.8789C119.951 15.6439 118.779 14.7179 117.256 14.5388L116.851 17.9776ZM117.967 18.8537C118.482 19.5972 118.76 20.5762 118.676 21.9142L122.131 22.1325C122.255 20.1811 121.858 18.39 120.814 16.8828L117.967 18.8537ZM118.675 21.9217L118.623 22.8046L122.08 23.008L122.132 22.125L118.675 21.9217ZM120.352 21.175H118.3V24.6376H120.352V21.175ZM120.031 22.9063V22.1792H116.569V22.9063H120.031ZM116.582 22.3939L116.608 22.6016L120.044 22.1722L120.018 21.9644L116.582 22.3939ZM116.647 22.8068C116.655 22.8416 116.671 22.8992 116.695 22.968C116.712 23.0184 116.765 23.1663 116.872 23.3338C116.925 23.4184 117.033 23.5725 117.211 23.724C117.391 23.8777 117.726 24.0962 118.202 24.1329C119.257 24.214 119.758 23.4022 119.822 23.2955C119.947 23.0867 119.998 22.9004 120.012 22.8472C120.033 22.7675 120.045 22.7015 120.051 22.6638C120.063 22.5874 120.069 22.5224 120.072 22.4872C120.082 22.3562 120.083 22.1924 120.083 22.0493H116.621C116.621 22.2005 116.618 22.2402 116.619 22.2217C116.62 22.2146 116.623 22.1721 116.633 22.1124C116.637 22.0831 116.648 22.0241 116.668 21.9499C116.68 21.9023 116.729 21.7201 116.853 21.514C116.915 21.41 117.414 20.5995 118.468 20.6805C118.943 20.7171 119.277 20.9352 119.456 21.0881C119.633 21.2389 119.74 21.3918 119.793 21.4749C119.898 21.6394 119.948 21.783 119.964 21.8275C119.986 21.8905 119.999 21.9409 120.006 21.967L116.647 22.8068ZM120.083 22.0493C120.083 20.4913 119.722 19.0298 118.981 17.7006L115.957 19.3864C116.393 20.1693 116.621 21.045 116.621 22.0493H120.083ZM118.987 17.7103C118.423 16.683 117.674 15.7469 116.64 15.2457L115.13 18.3614C115.239 18.4141 115.546 18.638 115.952 19.3767L118.987 17.7103ZM115.885 15.0723H115.054V18.5348H115.885V15.0723ZM116.785 16.8035V16.1543H113.323V16.8035H116.785ZM115.054 17.8856H115.651V14.423H115.054V17.8856ZM116.32 17.7513C117.603 17.214 118.488 16.1071 119.105 14.8309L115.989 13.3227C115.567 14.1932 115.188 14.4714 114.983 14.5573L116.32 17.7513ZM119.102 14.8388C119.623 13.7761 119.948 12.6546 120.074 11.4825L116.631 11.1136C116.548 11.8806 116.337 12.6115 115.992 13.3147L119.102 14.8388ZM120.073 11.4842L120.177 10.5233L116.735 10.1511L116.631 11.112L120.073 11.4842ZM118.456 12.0685H120.508V8.60594H118.456V12.0685ZM133.798 18.4396L133.458 16.7419L132.066 17.0203V18.4396H133.798ZM133.798 25.0358H132.066V25.8583L132.704 26.3779L133.798 25.0358ZM135.2 26.1784V27.9097H140.066L136.294 24.8363L135.2 26.1784ZM130.344 26.1784L129.238 24.8463L125.548 27.9097H130.344V26.1784ZM131.72 25.0358L132.826 26.3678L133.451 25.8486V25.0358H131.72ZM131.72 20.4652H133.451V16.3316L130.506 19.2314L131.72 20.4652ZM128.396 23.7373L127.182 22.5035L126.665 23.0122V23.7373H128.396ZM128.396 26.1784V27.9097H130.127V26.1784H128.396ZM126.345 26.1784H124.613V27.9097H126.345V26.1784ZM128.396 11.7655L129.58 13.0291L129.585 13.0235L128.396 11.7655ZM131.72 10.1035L132.001 11.8118L133.451 11.5734V10.1035H131.72ZM131.72 9.27248H133.451V8.311L132.635 7.8028L131.72 9.27248ZM130.344 8.4155V6.68422H124.288L129.429 9.88517L130.344 8.4155ZM135.2 8.4155L136.103 9.89277L141.353 6.68422H135.2V8.4155ZM133.798 9.27248L132.895 7.79521L132.066 8.30152V9.27248H133.798ZM133.798 15.8946H132.066V17.3139L133.458 17.5923L133.798 15.8946ZM131.72 19.1927L132.954 20.4074L133.451 19.902V19.1927H131.72ZM131.72 18.4656H133.451V17.0675L132.085 16.7731L131.72 18.4656ZM131.72 15.8946L132.085 17.5871L133.451 17.2927V15.8946H131.72ZM131.72 11.1423H133.451V9.41098H131.72V11.1423ZM128.967 13.3496L127.347 12.7397L127.345 12.7448L128.967 13.3496ZM128.396 22.5687H126.665V26.7946L129.63 23.7834L128.396 22.5687ZM133.884 17.1152C133.884 16.9893 133.917 16.8443 133.991 16.7124C134.06 16.5893 134.133 16.5338 134.142 16.5274C134.147 16.5235 134.105 16.5543 133.983 16.6001C133.864 16.645 133.693 16.695 133.458 16.7419L134.137 20.1373C134.849 19.9949 135.585 19.7598 136.181 19.326C136.844 18.8426 137.347 18.0881 137.347 17.1152H133.884ZM132.066 18.4396V25.0358H135.529V18.4396H132.066ZM132.704 26.3779L134.106 27.5206L136.294 24.8363L134.891 23.6936L132.704 26.3779ZM135.2 24.4471H130.344V27.9097H135.2V24.4471ZM131.45 27.5105L132.826 26.3678L130.614 23.7037L129.238 24.8463L131.45 27.5105ZM133.451 25.0358V20.4652H129.989V25.0358H133.451ZM130.506 19.2314L127.182 22.5035L129.611 24.9711L132.935 21.699L130.506 19.2314ZM126.665 23.7373V26.1784H130.127V23.7373H126.665ZM128.396 24.4471H126.345V27.9097H128.396V24.4471ZM128.076 26.1784V17.1411H124.613V26.1784H128.076ZM128.076 17.1411C128.076 15.1998 128.639 13.9104 129.58 13.0291L127.213 10.502C125.418 12.183 124.613 14.4773 124.613 17.1411H128.076ZM129.585 13.0235C130.293 12.3549 131.086 11.9622 132.001 11.8118L131.439 8.39514C129.826 8.66032 128.404 9.37564 127.207 10.5075L129.585 13.0235ZM133.451 10.1035V9.27248H129.989V10.1035H133.451ZM132.635 7.8028L131.259 6.94582L129.429 9.88517L130.805 10.7422L132.635 7.8028ZM130.344 10.1468H135.2V6.68422H130.344V10.1468ZM134.297 6.93823L132.895 7.79521L134.7 10.7497L136.103 9.89277L134.297 6.93823ZM132.066 9.27248V15.8946H135.529V9.27248H132.066ZM133.458 17.5923C133.7 17.6407 133.881 17.6913 134.011 17.7377C134.074 17.7604 134.121 17.7804 134.153 17.7957C134.185 17.8112 134.197 17.8198 134.196 17.8189C134.195 17.818 134.175 17.8045 134.145 17.7748C134.114 17.7446 134.072 17.6969 134.03 17.6292C133.937 17.4797 133.884 17.2968 133.884 17.1152H137.347C137.347 16.0934 136.759 15.3689 136.126 14.9442C135.546 14.555 134.833 14.3361 134.137 14.197L133.458 17.5923ZM133.451 19.1927V18.4656H129.989V19.1927H133.451ZM132.085 16.7731C131.875 16.7279 131.725 16.6809 131.625 16.6406C131.522 16.5996 131.495 16.5754 131.51 16.5869C131.528 16.6014 131.6 16.6625 131.666 16.7848C131.734 16.9139 131.763 17.0513 131.763 17.1671H128.301C128.301 18.0958 128.758 18.8391 129.399 19.3314C129.972 19.7724 130.68 20.0125 131.356 20.158L132.085 16.7731ZM131.763 17.1671C131.763 17.2958 131.73 17.4424 131.657 17.5767C131.588 17.7028 131.513 17.7641 131.496 17.777C131.483 17.7873 131.512 17.7623 131.617 17.7208C131.721 17.68 131.873 17.6328 132.085 17.5871L131.356 14.2022C130.684 14.3467 129.982 14.5824 129.412 15.0121C128.777 15.4908 128.301 16.2276 128.301 17.1671H131.763ZM133.451 15.8946V11.1423H129.989V15.8946H133.451ZM131.72 9.41098C130.723 9.41098 129.782 9.7067 128.988 10.3434C128.219 10.9604 127.698 11.8081 127.347 12.7397L130.588 13.9596C130.791 13.4196 131.006 13.1636 131.154 13.0448C131.278 12.9457 131.436 12.8735 131.72 12.8735V9.41098ZM127.345 12.7448C126.87 14.02 126.665 15.513 126.665 17.1671H130.127C130.127 15.7742 130.303 14.7222 130.59 13.9545L127.345 12.7448ZM126.665 17.1671V22.5687H130.127V17.1671H126.665ZM129.63 23.7834L132.954 20.4074L130.486 17.978L127.162 21.354L129.63 23.7834ZM142.597 6.77944V8.51072H144.328V6.77944H142.597ZM139.532 6.77944H137.801V8.51072H139.532V6.77944ZM139.532 5.40308V3.6718H137.801V5.40308H139.532ZM142.597 5.40308H144.328V3.6718H142.597V5.40308ZM144.908 26.1784V27.9097H146.639V26.1784H144.908ZM142.856 26.1784H141.125V27.9097H142.856V26.1784ZM142.856 14.9597H144.588V9.9604L141.496 13.889L142.856 14.9597ZM139.403 19.3485L138.042 18.2778L137.671 18.749V19.3485H139.403ZM139.403 26.1784V27.9097H141.134V26.1784H139.403ZM137.351 26.1784H135.62V27.9097H137.351V26.1784ZM137.351 8.4155V6.68422H135.62V8.4155H137.351ZM139.403 8.4155H141.134V6.68422H139.403V8.4155ZM139.403 17.9202H137.671V22.9428L140.766 18.987L139.403 17.9202ZM142.856 13.5055L144.22 14.5722L144.588 14.1022V13.5055H142.856ZM142.856 8.4155V6.68422H141.125V8.4155H142.856ZM144.908 8.4155H146.639V6.68422H144.908V8.4155ZM142.597 5.04816H139.532V8.51072H142.597V5.04816ZM141.264 6.77944V5.40308H137.801V6.77944H141.264ZM139.532 7.13435H142.597V3.6718H139.532V7.13435ZM140.865 5.40308V6.77944H144.328V5.40308H140.865ZM144.908 24.4471H142.856V27.9097H144.908V24.4471ZM144.588 26.1784V14.9597H141.125V26.1784H144.588ZM141.496 13.889L138.042 18.2778L140.763 20.4192L144.217 16.0304L141.496 13.889ZM137.671 19.3485V26.1784H141.134V19.3485H137.671ZM139.403 24.4471H137.351V27.9097H139.403V24.4471ZM139.082 26.1784V8.4155H135.62V26.1784H139.082ZM137.351 10.1468H139.403V6.68422H137.351V10.1468ZM137.671 8.4155V17.9202H141.134V8.4155H137.671ZM140.766 18.987L144.22 14.5722L141.493 12.4387L138.039 16.8534L140.766 18.987ZM144.588 13.5055V8.4155H141.125V13.5055H144.588ZM142.856 10.1468H144.908V6.68422H142.856V10.1468ZM143.177 8.4155V26.1784H146.639V8.4155H143.177ZM154.585 26.1784V27.9097H156.316V26.1784H154.585ZM152.533 26.1784H150.802V27.9097H152.533V26.1784ZM150.897 16.9594L151.621 15.3867L150.907 15.0582L150.19 15.379L150.897 16.9594ZM149.573 18.7772L147.891 18.3648L147.891 18.3661L149.573 18.7772ZM149.287 26.1784V27.9097H151.018V26.1784H149.287ZM147.235 26.1784H145.504V27.9097H147.235V26.1784ZM147.521 18.8551L145.843 18.4304L145.839 18.444L147.521 18.8551ZM149.599 16.5179L149.803 18.2371L149.806 14.7991L149.599 16.5179ZM147.547 14.5962L145.889 15.0936L145.892 15.1038L145.895 15.114L147.547 14.5962ZM147.235 8.4155V6.68422H145.504V8.4155H147.235ZM149.287 8.4155H151.018V6.68422H149.287V8.4155ZM149.573 14.5962L147.906 15.0661L147.907 15.067L149.573 14.5962ZM150.897 16.1803L150.261 17.7906L150.924 18.0522L151.579 17.7716L150.897 16.1803ZM152.533 8.4155V6.68422H150.802V8.4155H152.533ZM154.585 8.4155H156.316V6.68422H154.585V8.4155ZM152.222 16.5438L152.051 14.821L152.014 18.2626L152.222 16.5438ZM154.585 24.4471H152.533V27.9097H154.585V24.4471ZM154.264 26.1784V22.2571H150.802V26.1784H154.264ZM154.264 22.2571C154.264 20.6646 154.124 19.2695 153.778 18.1495C153.438 17.0487 152.807 15.9326 151.621 15.3867L150.173 18.532C150.078 18.4881 150.265 18.5061 150.47 19.1712C150.669 19.8171 150.802 20.8198 150.802 22.2571H154.264ZM150.19 15.379C148.901 15.9557 148.201 17.1032 147.891 18.3648L151.254 19.1896C151.395 18.616 151.577 18.5516 151.604 18.5397L150.19 15.379ZM147.891 18.3661C147.65 19.3519 147.556 20.6799 147.556 22.2571H151.018C151.018 20.7526 151.115 19.7606 151.254 19.1883L147.891 18.3661ZM147.556 22.2571V26.1784H151.018V22.2571H147.556ZM149.287 24.4471H147.235V27.9097H149.287V24.4471ZM148.967 26.1784V22.2571H145.504V26.1784H148.967ZM148.967 22.2571C148.967 20.8102 149.062 19.8414 149.203 19.2662L145.839 18.444C145.599 19.4269 145.504 20.7261 145.504 22.2571H148.967ZM149.2 19.2798C149.34 18.724 149.507 18.4564 149.607 18.3433C149.676 18.2657 149.719 18.247 149.803 18.2371L149.395 14.7987C148.457 14.9099 147.643 15.3414 147.019 16.0429C146.427 16.7088 146.066 17.5492 145.843 18.4304L149.2 19.2798ZM149.806 14.7991C149.639 14.7789 149.568 14.7313 149.516 14.683C149.448 14.6187 149.318 14.456 149.199 14.0784L145.895 15.114C146.14 15.8963 146.534 16.6338 147.149 17.2101C147.781 17.8024 148.554 18.1357 149.391 18.2367L149.806 14.7991ZM149.205 14.0987C149.071 13.6504 148.967 12.8389 148.967 11.5578H145.504C145.504 12.9428 145.608 14.1569 145.889 15.0936L149.205 14.0987ZM148.967 11.5578V8.4155H145.504V11.5578H148.967ZM147.235 10.1468H149.287V6.68422H147.235V10.1468ZM147.556 8.4155V11.5578H151.018V8.4155H147.556ZM147.556 11.5578C147.556 12.9491 147.65 14.1555 147.906 15.0661L151.239 14.1262C151.115 13.6864 151.018 12.8672 151.018 11.5578H147.556ZM147.907 15.067C148.25 16.2833 149.012 17.2974 150.261 17.7906L151.533 14.5699C151.467 14.5438 151.345 14.5018 151.239 14.1253L147.907 15.067ZM151.579 17.7716C152.713 17.2855 153.383 16.3072 153.755 15.2611C154.122 14.2312 154.264 12.9765 154.264 11.5837H150.802C150.802 12.7879 150.672 13.5977 150.493 14.1C150.407 14.3421 150.324 14.4717 150.273 14.5337C150.249 14.5635 150.232 14.5773 150.225 14.5825C150.219 14.5873 150.217 14.5884 150.215 14.589L151.579 17.7716ZM154.264 11.5837V8.4155H150.802V11.5837H154.264ZM152.533 10.1468H154.585V6.68422H152.533V10.1468ZM152.853 8.4155V11.5837H156.316V8.4155H152.853ZM152.853 11.5837C152.853 13.0617 152.661 13.959 152.431 14.4423C152.25 14.8232 152.131 14.8131 152.051 14.821L152.392 18.2667C153.887 18.1188 154.951 17.2041 155.557 15.9316C156.114 14.7615 156.316 13.2567 156.316 11.5837H152.853ZM152.014 18.2626C152.058 18.268 152.074 18.2754 152.104 18.3029C152.153 18.3461 152.267 18.4733 152.393 18.7807C152.659 19.4262 152.853 20.5461 152.853 22.283H156.316C156.316 20.3842 156.117 18.7298 155.595 17.4623C155.046 16.1296 154.03 15.0186 152.429 14.8251L152.014 18.2626ZM152.853 22.283V26.1784H156.316V22.283H152.853ZM164.382 18.4396L164.043 16.7419L162.651 17.0203V18.4396H164.382ZM164.382 25.0358H162.651V25.8583L163.289 26.3779L164.382 25.0358ZM165.785 26.1784V27.9097H170.65L166.878 24.8363L165.785 26.1784ZM160.929 26.1784L159.823 24.8463L156.133 27.9097H160.929V26.1784ZM162.305 25.0358L163.411 26.3678L164.036 25.8486V25.0358H162.305ZM162.305 20.4652H164.036V16.3316L161.09 19.2314L162.305 20.4652ZM158.981 23.7373L157.766 22.5035L157.25 23.0122V23.7373H158.981ZM158.981 26.1784V27.9097H160.712V26.1784H158.981ZM156.929 26.1784H155.198V27.9097H156.929V26.1784ZM158.981 11.7655L160.164 13.0291L160.17 13.0235L158.981 11.7655ZM162.305 10.1035L162.586 11.8118L164.036 11.5734V10.1035H162.305ZM162.305 9.27248H164.036V8.311L163.22 7.8028L162.305 9.27248ZM160.929 8.4155V6.68422H154.873L160.013 9.88517L160.929 8.4155ZM165.785 8.4155L166.688 9.89277L171.938 6.68422H165.785V8.4155ZM164.382 9.27248L163.48 7.79521L162.651 8.30152V9.27248H164.382ZM164.382 15.8946H162.651V17.3139L164.043 17.5923L164.382 15.8946ZM162.305 19.1927L163.539 20.4074L164.036 19.902V19.1927H162.305ZM162.305 18.4656H164.036V17.0675L162.669 16.7731L162.305 18.4656ZM162.305 15.8946L162.669 17.5871L164.036 17.2927V15.8946H162.305ZM162.305 11.1423H164.036V9.41098H162.305V11.1423ZM159.552 13.3496L157.932 12.7397L157.93 12.7448L159.552 13.3496ZM158.981 22.5687H157.25V26.7946L160.214 23.7834L158.981 22.5687ZM164.469 17.1152C164.469 16.9893 164.502 16.8443 164.576 16.7124C164.645 16.5893 164.718 16.5338 164.726 16.5274C164.732 16.5235 164.69 16.5543 164.568 16.6001C164.449 16.645 164.277 16.695 164.043 16.7419L164.722 20.1373C165.434 19.9949 166.17 19.7598 166.765 19.326C167.429 18.8426 167.932 18.0881 167.932 17.1152H164.469ZM162.651 18.4396V25.0358H166.114V18.4396H162.651ZM163.289 26.3779L164.691 27.5206L166.878 24.8363L165.476 23.6936L163.289 26.3779ZM165.785 24.4471H160.929V27.9097H165.785V24.4471ZM162.034 27.5105L163.411 26.3678L161.199 23.7037L159.823 24.8463L162.034 27.5105ZM164.036 25.0358V20.4652H160.574V25.0358H164.036ZM161.09 19.2314L157.766 22.5035L160.195 24.9711L163.519 21.699L161.09 19.2314ZM157.25 23.7373V26.1784H160.712V23.7373H157.25ZM158.981 24.4471H156.929V27.9097H158.981V24.4471ZM158.661 26.1784V17.1411H155.198V26.1784H158.661ZM158.661 17.1411C158.661 15.1998 159.224 13.9104 160.164 13.0291L157.797 10.502C156.003 12.183 155.198 14.4773 155.198 17.1411H158.661ZM160.17 13.0235C160.877 12.3549 161.671 11.9622 162.586 11.8118L162.024 8.39514C160.411 8.66032 158.989 9.37564 157.791 10.5075L160.17 13.0235ZM164.036 10.1035V9.27248H160.574V10.1035H164.036ZM163.22 7.8028L161.844 6.94582L160.013 9.88517L161.39 10.7422L163.22 7.8028ZM160.929 10.1468H165.785V6.68422H160.929V10.1468ZM164.882 6.93823L163.48 7.79521L165.285 10.7497L166.688 9.89277L164.882 6.93823ZM162.651 9.27248V15.8946H166.114V9.27248H162.651ZM164.043 17.5923C164.285 17.6407 164.466 17.6913 164.595 17.7377C164.659 17.7604 164.706 17.7804 164.737 17.7957C164.769 17.8112 164.782 17.8198 164.781 17.8189C164.779 17.818 164.759 17.8045 164.729 17.7748C164.699 17.7446 164.657 17.6969 164.615 17.6292C164.522 17.4797 164.469 17.2968 164.469 17.1152H167.932C167.932 16.0934 167.343 15.3689 166.711 14.9442C166.131 14.555 165.418 14.3361 164.722 14.197L164.043 17.5923ZM164.036 19.1927V18.4656H160.574V19.1927H164.036ZM162.669 16.7731C162.459 16.7279 162.31 16.6809 162.209 16.6406C162.107 16.5996 162.08 16.5754 162.094 16.5869C162.113 16.6014 162.185 16.6625 162.25 16.7848C162.319 16.9139 162.348 17.0513 162.348 17.1671H158.886C158.886 18.0958 159.343 18.8391 159.983 19.3314C160.557 19.7724 161.265 20.0125 161.94 20.158L162.669 16.7731ZM162.348 17.1671C162.348 17.2958 162.315 17.4424 162.242 17.5767C162.173 17.7028 162.098 17.7641 162.081 17.777C162.067 17.7873 162.097 17.7623 162.202 17.7208C162.305 17.68 162.457 17.6328 162.669 17.5871L161.94 14.2022C161.269 14.3467 160.567 14.5824 159.997 15.0121C159.362 15.4908 158.886 16.2276 158.886 17.1671H162.348ZM164.036 15.8946V11.1423H160.574V15.8946H164.036ZM162.305 9.41098C161.308 9.41098 160.367 9.7067 159.573 10.3434C158.803 10.9604 158.283 11.8081 157.932 12.7397L161.172 13.9596C161.376 13.4196 161.591 13.1636 161.739 13.0448C161.862 12.9457 162.021 12.8735 162.305 12.8735V9.41098ZM157.93 12.7448C157.454 14.02 157.25 15.513 157.25 17.1671H160.712C160.712 15.7742 160.888 14.7222 161.174 13.9545L157.93 12.7448ZM157.25 17.1671V22.5687H160.712V17.1671H157.25ZM160.214 23.7834L163.539 20.4074L161.071 17.978L157.747 21.354L160.214 23.7834ZM175.389 18.4396L175.049 16.7419L173.658 17.0203V18.4396H175.389ZM175.389 25.0358H173.658V25.8583L174.295 26.3779L175.389 25.0358ZM176.791 26.1784V27.9097H181.657L177.885 24.8363L176.791 26.1784ZM171.935 26.1784L170.829 24.8463L167.139 27.9097H171.935V26.1784ZM173.311 25.0358L174.417 26.3678L175.043 25.8486V25.0358H173.311ZM173.311 18.4656H175.043V17.0675L173.676 16.7731L173.311 18.4656ZM173.311 15.8946L173.676 17.5871L175.043 17.2927V15.8946H173.311ZM173.311 11.1423H175.043V9.41098H173.311V11.1423ZM170.559 13.3496L168.938 12.7397L168.936 12.7448L170.559 13.3496ZM169.987 26.1784V27.9097H171.719V26.1784H169.987ZM167.936 26.1784H166.204V27.9097H167.936V26.1784ZM169.987 11.7655L171.171 13.0291L171.177 13.0235L169.987 11.7655ZM173.311 10.1035L173.592 11.8118L175.043 11.5734V10.1035H173.311ZM173.311 9.27248H175.043V8.311L174.226 7.8028L173.311 9.27248ZM171.935 8.4155V6.68422H165.879L171.02 9.88517L171.935 8.4155ZM176.791 8.4155L177.694 9.89277L182.944 6.68422H176.791V8.4155ZM175.389 9.27248L174.486 7.79521L173.658 8.30152V9.27248H175.389ZM175.389 15.8946H173.658V17.3139L175.049 17.5923L175.389 15.8946ZM175.475 17.1152C175.475 16.9893 175.509 16.8443 175.583 16.7124C175.651 16.5893 175.724 16.5338 175.733 16.5274C175.738 16.5235 175.696 16.5543 175.575 16.6001C175.455 16.645 175.284 16.695 175.049 16.7419L175.728 20.1373C176.44 19.9949 177.176 19.7598 177.772 19.326C178.435 18.8426 178.938 18.0881 178.938 17.1152H175.475ZM173.658 18.4396V25.0358H177.12V18.4396H173.658ZM174.295 26.3779L175.698 27.5206L177.885 24.8363L176.482 23.6936L174.295 26.3779ZM176.791 24.4471H171.935V27.9097H176.791V24.4471ZM173.041 27.5105L174.417 26.3678L172.205 23.7037L170.829 24.8463L173.041 27.5105ZM175.043 25.0358V18.4656H171.58V25.0358H175.043ZM173.676 16.7731C173.466 16.7279 173.316 16.6809 173.216 16.6406C173.113 16.5996 173.086 16.5754 173.101 16.5869C173.12 16.6014 173.192 16.6625 173.257 16.7848C173.326 16.9139 173.355 17.0513 173.355 17.1671H169.892C169.892 18.0958 170.35 18.8391 170.99 19.3314C171.563 19.7724 172.271 20.0125 172.947 20.158L173.676 16.7731ZM173.355 17.1671C173.355 17.2958 173.322 17.4424 173.248 17.5767C173.179 17.7028 173.105 17.7641 173.088 17.777C173.074 17.7873 173.103 17.7623 173.209 17.7208C173.312 17.68 173.464 17.6328 173.676 17.5871L172.947 14.2022C172.276 14.3467 171.573 14.5824 171.003 15.0121C170.368 15.4908 169.892 16.2276 169.892 17.1671H173.355ZM175.043 15.8946V11.1423H171.58V15.8946H175.043ZM173.311 9.41098C172.314 9.41098 171.373 9.7067 170.579 10.3434C169.81 10.9604 169.289 11.8081 168.938 12.7397L172.179 13.9596C172.382 13.4196 172.597 13.1636 172.745 13.0448C172.869 12.9457 173.027 12.8735 173.311 12.8735V9.41098ZM168.936 12.7448C168.461 14.02 168.256 15.513 168.256 17.1671H171.719C171.719 15.7742 171.895 14.7222 172.181 13.9545L168.936 12.7448ZM168.256 17.1671V26.1784H171.719V17.1671H168.256ZM169.987 24.4471H167.936V27.9097H169.987V24.4471ZM169.667 26.1784V17.1411H166.204V26.1784H169.667ZM169.667 17.1411C169.667 15.1998 170.23 13.9104 171.171 13.0291L168.804 10.502C167.009 12.183 166.204 14.4773 166.204 17.1411H169.667ZM171.177 13.0235C171.884 12.3549 172.678 11.9622 173.592 11.8118L173.031 8.39514C171.417 8.66032 169.995 9.37564 168.798 10.5075L171.177 13.0235ZM175.043 10.1035V9.27248H171.58V10.1035H175.043ZM174.226 7.8028L172.85 6.94582L171.02 9.88517L172.396 10.7422L174.226 7.8028ZM171.935 10.1468H176.791V6.68422H171.935V10.1468ZM175.888 6.93823L174.486 7.79521L176.292 10.7497L177.694 9.89277L175.888 6.93823ZM173.658 9.27248V15.8946H177.12V9.27248H173.658ZM175.049 17.5923C175.291 17.6407 175.472 17.6913 175.602 17.7377C175.666 17.7604 175.712 17.7804 175.744 17.7957C175.776 17.8112 175.789 17.8198 175.787 17.8189C175.786 17.818 175.766 17.8045 175.736 17.7748C175.705 17.7446 175.663 17.6969 175.621 17.6292C175.529 17.4797 175.475 17.2968 175.475 17.1152H178.938C178.938 16.0934 178.35 15.3689 177.717 14.9442C177.138 14.555 176.424 14.3361 175.728 14.197L175.049 17.5923ZM187.746 16.8035V18.5348H189.477V16.8035H187.746ZM186.915 16.8035V15.0723H186.517L186.159 15.2457L186.915 16.8035ZM185.331 18.5435L186.843 19.3864L186.848 19.3767L185.331 18.5435ZM184.474 22.3869L186.153 22.8068L186.179 22.7054L186.192 22.6016L184.474 22.3869ZM184.5 22.1792H186.231L182.782 21.9644L184.5 22.1792ZM184.5 22.9063V24.6376H186.231V22.9063H184.5ZM182.448 22.9063L180.72 23.008L180.816 24.6376H182.448V22.9063ZM182.396 22.0233L184.124 21.9217L184.124 21.9142L182.396 22.0233ZM183.409 17.8683L181.988 16.8789L181.985 16.8828L183.409 17.8683ZM185.746 16.2582L185.948 17.9776L185.924 14.5361L185.746 16.2582ZM183.305 14.3624L181.775 15.1725L181.78 15.1819L183.305 14.3624ZM182.396 11.2721L180.675 11.4633L180.677 11.4744L182.396 11.2721ZM182.292 10.3372V8.60594H180.358L180.572 10.5284L182.292 10.3372ZM184.344 10.3372L186.065 10.1511L185.898 8.60594H184.344V10.3372ZM184.448 11.2981L186.169 11.1136L186.169 11.112L184.448 11.2981ZM185.253 14.0768L186.811 13.3227L186.807 13.3147L185.253 14.0768ZM187.148 16.1543L186.48 17.7513L186.801 17.8856H187.148V16.1543ZM187.746 16.1543H189.477V14.423H187.746V16.1543ZM183.097 16.9074V18.6387H184.829V16.9074H183.097ZM182.266 16.9074V15.1761H181.869L181.511 15.3496L182.266 16.9074ZM180.682 18.6473L182.194 19.4903L182.2 19.4805L180.682 18.6473ZM179.825 22.4908L181.505 22.9107L181.53 22.8093L181.543 22.7055L179.825 22.4908ZM179.851 22.283H181.582L178.133 22.0683L179.851 22.283ZM179.851 23.0102V24.7414H181.582V23.0102H179.851ZM177.8 23.0102L176.071 23.1118L176.167 24.7414H177.8V23.0102ZM177.748 22.1272L179.476 22.0256L179.475 22.0181L177.748 22.1272ZM178.76 17.9722L177.34 16.9827L177.337 16.9867L178.76 17.9722ZM181.098 16.3621L181.3 18.0815L181.276 14.64L181.098 16.3621ZM178.657 14.4663L177.126 15.2764L177.131 15.2858L178.657 14.4663ZM177.748 11.376L176.027 11.5672L176.028 11.5783L177.748 11.376ZM177.644 10.4411V8.70982H175.709L175.923 10.6323L177.644 10.4411ZM179.695 10.4411L181.417 10.255L181.249 8.70982H179.695V10.4411ZM179.799 11.402L181.521 11.2175L181.52 11.2159L179.799 11.402ZM180.604 14.1807L182.163 13.4266L182.159 13.4186L180.604 14.1807ZM182.5 16.2582L181.831 17.8552L182.152 17.9895H182.5V16.2582ZM183.097 16.2582H184.829V14.5269H183.097V16.2582ZM187.746 15.0723H186.915V18.5348H187.746V15.0723ZM186.159 15.2457C185.126 15.7469 184.377 16.683 183.813 17.7103L186.848 19.3767C187.254 18.638 187.561 18.4141 187.67 18.3614L186.159 15.2457ZM183.818 17.7006C183.077 19.0298 182.716 20.4913 182.716 22.0493H186.179C186.179 21.045 186.406 20.1693 186.843 19.3864L183.818 17.7006ZM182.716 22.0493C182.716 22.1924 182.718 22.3562 182.728 22.4872C182.731 22.5224 182.736 22.5874 182.749 22.6638C182.755 22.7015 182.766 22.7675 182.788 22.8472C182.802 22.9004 182.852 23.0867 182.978 23.2955C183.042 23.4022 183.542 24.214 184.598 24.1329C185.074 24.0962 185.408 23.8777 185.589 23.724C185.767 23.5725 185.874 23.4184 185.928 23.3338C186.035 23.1663 186.088 23.0184 186.105 22.968C186.129 22.8992 186.145 22.8416 186.153 22.8068L182.794 21.967C182.801 21.9409 182.814 21.8905 182.836 21.8275C182.851 21.783 182.902 21.6394 183.007 21.4749C183.06 21.3918 183.167 21.2389 183.343 21.0881C183.523 20.9352 183.857 20.7171 184.332 20.6805C185.385 20.5995 185.884 21.41 185.947 21.514C186.07 21.7201 186.119 21.9023 186.132 21.95C186.152 22.0241 186.162 22.0832 186.167 22.1125C186.177 22.1721 186.18 22.2146 186.18 22.2217C186.182 22.2402 186.179 22.2005 186.179 22.0493H182.716ZM186.192 22.6016L186.217 22.3939L182.782 21.9644L182.756 22.1722L186.192 22.6016ZM182.768 22.1792V22.9063H186.231V22.1792H182.768ZM184.5 21.175H182.448V24.6376H184.5V21.175ZM184.176 22.8046L184.124 21.9217L180.668 22.125L180.72 23.008L184.176 22.8046ZM184.124 21.9142C184.039 20.5762 184.318 19.5972 184.832 18.8537L181.985 16.8828C180.942 18.39 180.545 20.1811 180.668 22.1325L184.124 21.9142ZM184.83 18.8577C185.32 18.1536 185.705 18.0062 185.948 17.9776L185.544 14.5388C184.021 14.7179 182.848 15.6439 181.988 16.8789L184.83 18.8577ZM185.924 14.5361C185.66 14.5088 185.274 14.3687 184.83 13.543L181.78 15.1819C182.583 16.676 183.824 17.7998 185.568 17.9803L185.924 14.5361ZM184.835 13.5524C184.485 12.8903 184.234 12.0733 184.116 11.0698L180.677 11.4744C180.836 12.8254 181.191 14.0687 181.775 15.1725L184.835 13.5524ZM184.117 11.0809L184.013 10.146L180.572 10.5284L180.675 11.4633L184.117 11.0809ZM182.292 12.0685H184.344V8.60594H182.292V12.0685ZM182.623 10.5233L182.726 11.4842L186.169 11.112L186.065 10.1511L182.623 10.5233ZM182.726 11.4825C182.852 12.6546 183.177 13.7761 183.698 14.8388L186.807 13.3147C186.463 12.6115 186.251 11.8806 186.169 11.1136L182.726 11.4825ZM183.694 14.8309C184.312 16.1071 185.196 17.214 186.48 17.7513L187.817 14.5573C187.612 14.4714 187.232 14.1932 186.811 13.3227L183.694 14.8309ZM187.148 17.8856H187.746V14.423H187.148V17.8856ZM186.014 16.1543V16.8035H189.477V16.1543H186.014ZM183.097 15.1761H182.266V18.6387H183.097V15.1761ZM181.511 15.3496C180.477 15.8508 179.729 16.7869 179.165 17.8142L182.2 19.4805C182.605 18.7419 182.913 18.518 183.022 18.4652L181.511 15.3496ZM179.17 17.8045C178.429 19.1337 178.068 20.5952 178.068 22.1532H181.53C181.53 21.1489 181.758 20.2732 182.194 19.4902L179.17 17.8045ZM178.068 22.1532C178.068 22.2963 178.069 22.46 178.079 22.5911C178.082 22.6263 178.088 22.6913 178.1 22.7677C178.106 22.8054 178.118 22.8714 178.139 22.9511C178.154 23.0043 178.204 23.1906 178.329 23.3994C178.393 23.5061 178.894 24.3179 179.949 24.2367C180.425 24.2001 180.76 23.9816 180.94 23.8279C181.118 23.6764 181.226 23.5223 181.28 23.4377C181.386 23.2702 181.439 23.1223 181.457 23.0719C181.481 23.0031 181.496 22.9454 181.505 22.9107L178.146 22.0709C178.152 22.0448 178.165 21.9944 178.187 21.9314C178.203 21.8868 178.254 21.7433 178.358 21.5787C178.411 21.4956 178.518 21.3427 178.695 21.192C178.875 21.0391 179.208 20.8209 179.684 20.7844C180.737 20.7034 181.236 21.5139 181.298 21.6179C181.422 21.824 181.471 22.0062 181.484 22.0538C181.503 22.128 181.514 22.187 181.519 22.2163C181.528 22.276 181.531 22.3185 181.532 22.3255C181.533 22.3441 181.53 22.3044 181.53 22.1532H178.068ZM181.543 22.7055L181.569 22.4978L178.133 22.0683L178.107 22.276L181.543 22.7055ZM178.12 22.283V23.0102H181.582V22.283H178.12ZM179.851 21.2789H177.8V24.7414H179.851V21.2789ZM179.528 22.9085L179.476 22.0256L176.019 22.2289L176.071 23.1118L179.528 22.9085ZM179.475 22.0181C179.391 20.6801 179.669 19.7011 180.184 18.9576L177.337 16.9867C176.294 18.4938 175.897 20.2849 176.02 22.2363L179.475 22.0181ZM180.181 18.9616C180.671 18.2575 181.057 18.1101 181.3 18.0815L180.895 14.6426C179.372 14.8218 178.2 15.7478 177.34 16.9827L180.181 18.9616ZM181.276 14.64C181.012 14.6127 180.625 14.4726 180.182 13.6469L177.131 15.2858C177.934 16.7799 179.175 17.9037 180.919 18.0842L181.276 14.64ZM180.187 13.6563C179.836 12.9942 179.585 12.1772 179.467 11.1737L176.028 11.5783C176.187 12.9293 176.542 14.1726 177.126 15.2764L180.187 13.6563ZM179.468 11.1848L179.364 10.2499L175.923 10.6323L176.027 11.5672L179.468 11.1848ZM177.644 12.1724H179.695V8.70982H177.644V12.1724ZM177.974 10.6272L178.078 11.588L181.52 11.2159L181.417 10.255L177.974 10.6272ZM178.078 11.5864C178.203 12.7584 178.529 13.88 179.05 14.9427L182.159 13.4186C181.814 12.7154 181.603 11.9845 181.521 11.2175L178.078 11.5864ZM179.046 14.9347C179.663 16.211 180.548 17.3178 181.831 17.8552L183.168 14.6612C182.963 14.5753 182.584 14.2971 182.163 13.4266L179.046 14.9347ZM182.5 17.9895H183.097V14.5269H182.5V17.9895ZM181.366 16.2582V16.9074H184.829V16.2582H181.366Z" fill="#E3DFC5"/>
</svg>
