<svg width="166" height="37" viewBox="0 0 166 37" fill="none" xmlns="http://www.w3.org/2000/svg">
<mask id="path-1-outside-1_97_163" maskUnits="userSpaceOnUse" x="0" y="2.02838" width="45" height="35" fill="black">
<rect fill="white" y="2.02838" width="45" height="35"/>
<path fill-rule="evenodd" clip-rule="evenodd" d="M12.042 5.18625L5 11.36H15.6901L12.042 5.18625ZM5.79328 12.8949L21.1086 31.125L16.3975 12.8949H5.79328ZM23.2356 31.3285L38.6752 12.8949H27.9993L23.2356 31.3285ZM39.4661 11.36L32.3857 5.13389L28.7067 11.36H39.4661ZM30.6652 5.02838H23.9948L27.33 10.6726L30.6652 5.02838ZM22.1849 5.02838H22.2119L25.9533 11.36H18.4435L22.1849 5.02838ZM20.402 5.02838H13.7316L17.0668 10.6726L20.402 5.02838ZM26.414 12.8949L22.1984 29.2076L17.9828 12.8949H26.414Z"/>
</mask>
<path fill-rule="evenodd" clip-rule="evenodd" d="M12.042 5.18625L5 11.36H15.6901L12.042 5.18625ZM5.79328 12.8949L21.1086 31.125L16.3975 12.8949H5.79328ZM23.2356 31.3285L38.6752 12.8949H27.9993L23.2356 31.3285ZM39.4661 11.36L32.3857 5.13389L28.7067 11.36H39.4661ZM30.6652 5.02838H23.9948L27.33 10.6726L30.6652 5.02838ZM22.1849 5.02838H22.2119L25.9533 11.36H18.4435L22.1849 5.02838ZM20.402 5.02838H13.7316L17.0668 10.6726L20.402 5.02838ZM26.414 12.8949L22.1984 29.2076L17.9828 12.8949H26.414Z" fill="#551018"/>
<path d="M12.042 5.18625L13.5325 4.3055L12.4704 2.50821L10.9007 3.88443L12.042 5.18625ZM5 11.36L3.85869 10.0582L0.399028 13.0913H5V11.36ZM15.6901 11.36V13.0913H18.7241L17.1806 10.4792L15.6901 11.36ZM5.79328 12.8949V11.1636H2.07767L4.4677 14.0085L5.79328 12.8949ZM21.1086 31.125L19.783 32.2387L22.7848 30.6919L21.1086 31.125ZM16.3975 12.8949L18.0737 12.4617L17.7382 11.1636H16.3975V12.8949ZM23.2356 31.3285L21.5594 30.8953L24.5629 32.4401L23.2356 31.3285ZM38.6752 12.8949L40.0024 14.0066L42.3836 11.1636H38.6752V12.8949ZM27.9993 12.8949V11.1636H26.6586L26.3231 12.4617L27.9993 12.8949ZM39.4661 11.36V13.0913H44.0567L40.6093 10.0599L39.4661 11.36ZM32.3857 5.13389L33.529 3.83378L31.9589 2.45312L30.8952 4.25314L32.3857 5.13389ZM28.7067 11.36L27.2162 10.4792L25.6727 13.0913H28.7067V11.36ZM30.6652 5.02838L32.1557 5.90914L33.6992 3.2971H30.6652V5.02838ZM23.9948 5.02838V3.2971H20.9608L22.5043 5.90914L23.9948 5.02838ZM27.33 10.6726L25.8395 11.5534L27.33 14.0757L28.8205 11.5534L27.33 10.6726ZM22.2119 5.02838L23.7024 4.14763L23.1998 3.2971H22.2119V5.02838ZM22.1849 5.02838V3.2971H21.197L20.6944 4.14763L22.1849 5.02838ZM25.9533 11.36V13.0913H28.9873L27.4438 10.4792L25.9533 11.36ZM18.4435 11.36L16.953 10.4792L15.4095 13.0913H18.4435V11.36ZM20.402 5.02838L21.8925 5.90914L23.436 3.2971H20.402V5.02838ZM13.7316 5.02838V3.2971H10.6976L12.2411 5.90914L13.7316 5.02838ZM17.0668 10.6726L15.5763 11.5534L17.0668 14.0757L18.5573 11.5534L17.0668 10.6726ZM22.1984 29.2076L20.5222 29.6407L22.1984 36.127L23.8746 29.6407L22.1984 29.2076ZM26.414 12.8949L28.0902 13.3281L28.6496 11.1636H26.414V12.8949ZM17.9828 12.8949V11.1636H15.7472L16.3066 13.3281L17.9828 12.8949ZM10.9007 3.88443L3.85869 10.0582L6.14131 12.6618L13.1833 6.48807L10.9007 3.88443ZM5 13.0913H15.6901V9.6287H5V13.0913ZM17.1806 10.4792L13.5325 4.3055L10.5515 6.06701L14.1996 12.2407L17.1806 10.4792ZM4.4677 14.0085L19.783 32.2387L22.4342 30.0114L7.11886 11.7813L4.4677 14.0085ZM22.7848 30.6919L18.0737 12.4617L14.7212 13.3281L19.4324 31.5582L22.7848 30.6919ZM16.3975 11.1636H5.79328V14.6262H16.3975V11.1636ZM24.5629 32.4401L40.0024 14.0066L37.348 11.7832L21.9084 30.2168L24.5629 32.4401ZM38.6752 11.1636H27.9993V14.6262H38.6752V11.1636ZM26.3231 12.4617L21.5594 30.8953L24.9118 31.7616L29.6756 13.3281L26.3231 12.4617ZM40.6093 10.0599L33.529 3.83378L31.2425 6.43401L38.3228 12.6601L40.6093 10.0599ZM30.8952 4.25314L27.2162 10.4792L30.1972 12.2407L33.8762 6.01465L30.8952 4.25314ZM28.7067 13.0913H39.4661V9.6287H28.7067V13.0913ZM30.6652 3.2971H23.9948V6.75966H30.6652V3.2971ZM22.5043 5.90914L25.8395 11.5534L28.8205 9.79185L25.4853 4.14763L22.5043 5.90914ZM28.8205 11.5534L32.1557 5.90914L29.1747 4.14763L25.8395 9.79185L28.8205 11.5534ZM22.2119 3.2971H22.1849V6.75966H22.2119V3.2971ZM27.4438 10.4792L23.7024 4.14763L20.7214 5.90914L24.4628 12.2407L27.4438 10.4792ZM18.4435 13.0913H25.9533V9.6287H18.4435V13.0913ZM20.6944 4.14763L16.953 10.4792L19.934 12.2407L23.6754 5.90914L20.6944 4.14763ZM20.402 3.2971H13.7316V6.75966H20.402V3.2971ZM12.2411 5.90914L15.5763 11.5534L18.5573 9.79185L15.2221 4.14763L12.2411 5.90914ZM18.5573 11.5534L21.8925 5.90914L18.9115 4.14763L15.5763 9.79185L18.5573 11.5534ZM23.8746 29.6407L28.0902 13.3281L24.7378 12.4617L20.5222 28.7744L23.8746 29.6407ZM16.3066 13.3281L20.5222 29.6407L23.8746 28.7744L19.659 12.4617L16.3066 13.3281ZM26.414 11.1636H17.9828V14.6262H26.414V11.1636Z" fill="#E3DFC5" mask="url(#path-1-outside-1_97_163)"/>
<path d="M51.7323 14.5442L49.6028 12.4407V9.06473H46.3047V16.2582H46.902C46.9539 16.2582 47.0232 16.2495 47.1097 16.2322H47.4214C47.6291 16.2322 47.8802 16.2582 48.1745 16.3101C48.2784 16.3274 48.3303 16.3447 48.3303 16.3621C48.7631 16.414 49.2046 16.6218 49.6547 16.9853C50.9878 18.076 51.6544 19.79 51.6544 22.1272V25.2695C51.6544 25.5811 51.3773 25.8235 50.8233 25.9966C50.4251 26.1178 50.0183 26.1784 49.6028 26.1784H44.2531V8.4155H51.7323V14.5442ZM49.5768 22.1532C49.5768 20.4392 49.0834 18.9763 48.0966 17.7644C47.7676 17.3489 47.4387 17.0632 47.1097 16.9074H46.2787V25.5292H49.5768V22.1532ZM61.9097 16.5958C61.9097 21.7204 61.1739 24.8107 59.7024 25.8668C59.5292 25.988 59.2349 26.1092 58.8194 26.2303C58.4039 26.3515 58.1096 26.4814 57.9365 26.6199H57.7287C57.5556 26.4814 57.2613 26.3515 56.8457 26.2303C56.4302 26.1092 56.1359 25.988 55.9628 25.8668C55.0625 25.2262 54.4046 23.7806 53.9891 21.5299C53.6948 19.9371 53.5477 18.2838 53.5477 16.5698C53.5477 11.8781 54.4826 9.15995 56.3523 8.4155H57.1314C57.4604 8.4155 57.6941 8.25103 57.8326 7.92208C57.9711 8.25103 58.2048 8.4155 58.5337 8.4155H59.3128C61.0441 9.10801 61.9097 11.8348 61.9097 16.5958ZM59.8582 16.5698C59.8755 13.5574 59.5985 11.4712 59.0272 10.3112C58.7848 9.82649 58.3866 9.43695 57.8326 9.14264C57.2266 9.43695 56.7765 9.91305 56.4822 10.5709C56.2744 10.9864 56.084 11.6357 55.9109 12.5186C55.7031 13.5574 55.5992 14.8905 55.5992 16.5179C55.5992 18.2145 55.7377 19.8073 56.0147 21.2962C56.3956 23.4257 57.0016 24.8453 57.8326 25.5551C59.1657 24.4125 59.8409 21.4174 59.8582 16.5698ZM73.8253 14.5442L71.8517 12.4407V9.06473H69.7222V26.1784H67.6187V9.06473H65.4632V14.5442L63.4636 16.6477V8.4155H73.8253V14.5442ZM83.3296 26.1784H75.9024V20.9586L77.954 23.0621V25.5292H81.2521V18.4396H81.2261C80.8972 18.4396 80.4038 18.5694 79.7459 18.8291H79.5381C79.2438 18.7772 78.7331 18.6473 78.0059 18.4396C76.6036 17.9722 75.9024 16.4227 75.9024 13.7911V8.4155H77.954V13.9729C77.954 15.1502 78.0406 16.0245 78.2137 16.5958C78.4734 17.4268 78.9495 17.9895 79.642 18.2838C80.7327 17.8163 81.2781 16.665 81.2781 14.8299V8.4155H83.3296V26.1784ZM93.7625 16.5958C93.7625 21.7204 93.0267 24.8107 91.5552 25.8668C91.382 25.988 91.0877 26.1092 90.6722 26.2303C90.2567 26.3515 89.9624 26.4814 89.7893 26.6199H89.5815C89.4084 26.4814 89.1141 26.3515 88.6985 26.2303C88.283 26.1092 87.9887 25.988 87.8156 25.8668C86.9153 25.2262 86.2574 23.7806 85.8419 21.5299C85.5476 19.9371 85.4005 18.2838 85.4005 16.5698C85.4005 11.8781 86.3354 9.15995 88.2051 8.4155H88.9842C89.3132 8.4155 89.5469 8.25103 89.6854 7.92208C89.8239 8.25103 90.0576 8.4155 90.3865 8.4155H91.1656C92.8969 9.10801 93.7625 11.8348 93.7625 16.5958ZM91.711 16.5698C91.7283 13.5574 91.4513 11.4712 90.88 10.3112C90.6376 9.82649 90.2394 9.43695 89.6854 9.14264C89.0794 9.43695 88.6293 9.91305 88.335 10.5709C88.1272 10.9864 87.9368 11.6357 87.7637 12.5186C87.5559 13.5574 87.452 14.8905 87.452 16.5179C87.452 18.2145 87.5905 19.8073 87.8675 21.2962C88.2484 23.4257 88.8544 24.8453 89.6854 25.5551C91.0185 24.4125 91.6937 21.4174 91.711 16.5698ZM103.341 14.5442L101.211 12.4407V9.06473H97.9133V16.2582H98.5106C98.5626 16.2582 98.6318 16.2495 98.7184 16.2322H99.03C99.2378 16.2322 99.4888 16.2582 99.7831 16.3101C99.887 16.3274 99.9389 16.3447 99.9389 16.3621C100.372 16.414 100.813 16.6218 101.263 16.9853C102.596 18.076 103.263 19.79 103.263 22.1272V25.2695C103.263 25.5811 102.986 25.8235 102.432 25.9966C102.034 26.1178 101.627 26.1784 101.211 26.1784H95.8618V8.4155H103.341V14.5442ZM101.185 22.1532C101.185 20.4392 100.692 18.9763 99.7052 17.7644C99.3763 17.3489 99.0473 17.0632 98.7184 16.9074H97.8874V25.5292H101.185V22.1532ZM113.233 26.1784H111.181V14.9597L107.727 19.3485V26.1784H105.676V8.4155H107.727V17.9202L111.181 13.5055V8.4155H113.233V26.1784ZM123.377 26.1784H121.325V15.6869L117.871 16.9074V26.1784H115.82V8.4155H117.871V15.7388L121.325 14.4923V8.4155H123.377V26.1784ZM133.755 23.4257C133.132 24.7241 132.249 25.6417 131.106 26.1784C130.898 26.2477 130.587 26.3948 130.171 26.6199C130.067 26.516 129.738 26.3862 129.184 26.2303C128.648 26.0745 128.319 25.9533 128.197 25.8668C127.245 25.157 126.518 23.7113 126.016 21.5299C125.635 19.9025 125.445 18.2492 125.445 16.5698C125.445 14.8039 125.644 13.2458 126.042 11.8954C126.596 9.95633 127.505 8.79638 128.769 8.4155H129.548C129.686 8.4155 129.894 8.25103 130.171 7.92208C130.465 8.25103 130.673 8.4155 130.794 8.4155H131.573C132.612 8.81369 133.235 10.1901 133.443 12.5446H131.418C131.314 11.5058 131.236 10.8826 131.184 10.6748C130.993 9.89574 130.656 9.37636 130.171 9.11667C129.15 9.53217 128.397 10.6229 127.912 12.3888C127.566 13.6526 127.401 15.0376 127.418 16.5438C127.436 18.1539 127.643 19.764 128.042 21.3741C128.544 23.469 129.254 24.8799 130.171 25.6071C131.002 24.9492 131.496 24.2221 131.651 23.4257H133.755ZM143.18 26.1784H141.128V22.1532C141.128 20.872 140.834 19.7034 140.245 18.6473C139.761 17.7644 139.233 17.1844 138.661 16.9074H137.83V26.1784H135.779V8.4155H137.83V16.2582H138.427C139.224 15.9292 139.89 15.2454 140.427 14.2066C140.895 13.2717 141.128 12.3368 141.128 11.402V8.4155H143.18V11.376C143.18 12.5359 142.911 13.592 142.375 14.5442C141.752 15.6522 140.903 16.2582 139.83 16.3621C140.955 16.5006 141.821 17.245 142.427 18.5954C142.929 19.6688 143.18 20.8461 143.18 22.1272V26.1784ZM154.788 17.1152C154.788 17.7557 154.182 18.1972 152.97 18.4396V25.0358L154.373 26.1784H149.516L150.893 25.0358V20.4652L147.569 23.7373V26.1784H145.517V17.1411C145.517 14.8385 146.201 13.0467 147.569 11.7655C148.521 10.8653 149.629 10.3112 150.893 10.1035V9.27248L149.516 8.4155H154.373L152.97 9.27248V15.8946C154.182 16.137 154.788 16.5438 154.788 17.1152ZM150.893 19.1927V18.4656C149.767 18.2232 149.205 17.7904 149.205 17.1671C149.205 16.5612 149.767 16.137 150.893 15.8946V11.1423C149.612 11.1423 148.694 11.8781 148.14 13.3496C147.759 14.3711 147.569 15.6436 147.569 17.1671V22.5687L150.893 19.1927ZM163.925 26.1784H161.873V16.9074H161.042C160.505 17.1671 159.977 17.8336 159.458 18.907C158.869 20.1189 158.575 21.3741 158.575 22.6726V26.1784H156.524V22.6466C156.524 21.3655 156.775 20.1103 157.277 18.8811C157.917 17.3402 158.783 16.5006 159.874 16.3621C158.956 16.2582 158.151 15.6176 157.458 14.4403C156.835 13.3843 156.524 12.3628 156.524 11.376C156.524 11.099 156.584 10.5796 156.705 9.81783C156.757 9.43695 157.026 9.09935 157.51 8.80504C157.926 8.54534 158.341 8.4155 158.757 8.4155H163.925V26.1784ZM161.873 16.2582V9.06473H158.757C158.636 10.0516 158.575 10.8306 158.575 11.402C158.575 12.2849 158.826 13.2198 159.328 14.2066C159.865 15.2627 160.514 15.9466 161.276 16.2582H161.873Z" fill="#551018"/>
<path d="M51.7323 14.5442L50.5156 15.7759L53.4635 18.6879V14.5442H51.7323ZM49.6028 12.4407H47.8715V13.1641L48.3861 13.6724L49.6028 12.4407ZM49.6028 9.06473H51.3341V7.33345H49.6028V9.06473ZM46.3047 9.06473V7.33345H44.5734V9.06473H46.3047ZM46.3047 16.2582H44.5734V17.9895H46.3047V16.2582ZM47.1097 16.2322V14.5009H46.9383L46.7702 14.5346L47.1097 16.2322ZM48.1745 16.3101L47.8736 18.0151L47.8817 18.0165L47.8899 18.0178L48.1745 16.3101ZM48.3303 16.3621H46.599V17.898L48.124 18.081L48.3303 16.3621ZM49.6547 16.9853L50.7511 15.6454L50.7426 15.6385L49.6547 16.9853ZM50.8233 25.9966L51.3274 27.6529L51.3397 27.6491L50.8233 25.9966ZM44.2531 26.1784H42.5219V27.9097H44.2531V26.1784ZM44.2531 8.4155V6.68422H42.5219V8.4155H44.2531ZM51.7323 8.4155H53.4635V6.68422H51.7323V8.4155ZM48.0966 17.7644L46.7392 18.839L46.7466 18.8483L46.7541 18.8576L48.0966 17.7644ZM47.1097 16.9074L47.8509 15.3428L47.4991 15.1761H47.1097V16.9074ZM46.2787 16.9074V15.1761H44.5475V16.9074H46.2787ZM46.2787 25.5292H44.5475V27.2605H46.2787V25.5292ZM49.5768 25.5292V27.2605H51.3081V25.5292H49.5768ZM52.9489 13.3125L50.8195 11.209L48.3861 13.6724L50.5156 15.7759L52.9489 13.3125ZM51.3341 12.4407V9.06473H47.8715V12.4407H51.3341ZM49.6028 7.33345H46.3047V10.796H49.6028V7.33345ZM44.5734 9.06473V16.2582H48.036V9.06473H44.5734ZM46.3047 17.9895H46.902V14.5269H46.3047V17.9895ZM46.902 17.9895C47.1197 17.9895 47.3168 17.9564 47.4493 17.9299L46.7702 14.5346C46.758 14.537 46.7617 14.5358 46.7781 14.5338C46.7923 14.532 46.8366 14.5269 46.902 14.5269V17.9895ZM47.1097 17.9635H47.4214V14.5009H47.1097V17.9635ZM47.4214 17.9635C47.4951 17.9635 47.6395 17.9737 47.8736 18.0151L48.4754 14.6052C48.1209 14.5426 47.7632 14.5009 47.4214 14.5009V17.9635ZM47.8899 18.0178C47.9181 18.0226 47.8495 18.0137 47.7439 17.9785C47.7029 17.9649 47.5431 17.9115 47.3602 17.7896C47.266 17.7268 47.0986 17.602 46.9428 17.3943C46.7767 17.1729 46.599 16.8196 46.599 16.3621H50.0616C50.0616 15.4387 49.3919 14.9826 49.2809 14.9086C49.0851 14.778 48.9057 14.716 48.8388 14.6937C48.6812 14.6411 48.5347 14.615 48.4591 14.6024L47.8899 18.0178ZM48.124 18.081C48.1443 18.0834 48.289 18.1077 48.5669 18.3322L50.7426 15.6385C50.1202 15.1358 49.382 14.7446 48.5366 14.6431L48.124 18.081ZM48.5584 18.3253C49.3588 18.9801 49.9231 20.1126 49.9231 22.1272H53.3856C53.3856 19.4674 52.6168 17.1719 50.751 15.6454L48.5584 18.3253ZM49.9231 22.1272V25.2695H53.3856V22.1272H49.9231ZM49.9231 25.2695C49.9231 25.0804 49.9676 24.8887 50.0539 24.716C50.1369 24.5501 50.2379 24.4421 50.3065 24.3821C50.4238 24.2795 50.4722 24.2925 50.3069 24.3442L51.3397 27.6491C51.7285 27.5276 52.1924 27.3329 52.5867 26.9879C53.026 26.6034 53.3856 26.016 53.3856 25.2695H49.9231ZM50.3193 24.3404C50.0842 24.4119 49.8472 24.4471 49.6028 24.4471V27.9097C50.1894 27.9097 50.7661 27.8237 51.3274 27.6529L50.3193 24.3404ZM49.6028 24.4471H44.2531V27.9097H49.6028V24.4471ZM45.9844 26.1784V8.4155H42.5219V26.1784H45.9844ZM44.2531 10.1468H51.7323V6.68422H44.2531V10.1468ZM50.001 8.4155V14.5442H53.4635V8.4155H50.001ZM51.3081 22.1532C51.3081 20.0821 50.7022 18.2224 49.4391 16.6712L46.7541 18.8576C47.4647 19.7302 47.8455 20.7964 47.8455 22.1532H51.3081ZM49.454 16.6898C49.0296 16.1538 48.5043 15.6523 47.8509 15.3428L46.3686 18.472C46.3659 18.4707 46.3999 18.4866 46.468 18.5457C46.5362 18.6049 46.6277 18.6981 46.7392 18.839L49.454 16.6898ZM47.1097 15.1761H46.2787V18.6387H47.1097V15.1761ZM44.5475 16.9074V25.5292H48.01V16.9074H44.5475ZM46.2787 27.2605H49.5768V23.7979H46.2787V27.2605ZM51.3081 25.5292V22.1532H47.8455V25.5292H51.3081ZM59.7024 25.8668L60.6952 27.2851L60.7035 27.2793L60.7118 27.2733L59.7024 25.8668ZM58.8194 26.2303L59.3042 27.8924L58.8194 26.2303ZM57.9365 26.6199V28.3512H58.5438L59.018 27.9718L57.9365 26.6199ZM57.7287 26.6199L56.6472 27.9718L57.1214 28.3512H57.7287V26.6199ZM55.9628 25.8668L54.959 27.2774L54.97 27.2851L55.9628 25.8668ZM53.9891 21.5299L55.6916 21.2156L55.6916 21.2153L53.9891 21.5299ZM56.3523 8.4155V6.68422H56.0204L55.7119 6.80702L56.3523 8.4155ZM57.8326 7.92208L59.4282 7.25025L57.8326 3.46069L56.237 7.25025L57.8326 7.92208ZM59.3128 8.4155L59.9558 6.80805L59.6462 6.68422H59.3128V8.4155ZM59.8582 16.5698L58.1269 16.5599L58.1269 16.5636L59.8582 16.5698ZM59.0272 10.3112L60.5803 9.54627L60.5757 9.537L59.0272 10.3112ZM57.8326 9.14264L58.6448 7.61372L57.8677 7.20088L57.0762 7.58534L57.8326 9.14264ZM56.4822 10.5709L58.0307 11.3452L58.0473 11.3119L58.0625 11.2779L56.4822 10.5709ZM55.9109 12.5186L57.6085 12.8582L57.6098 12.8517L55.9109 12.5186ZM56.0147 21.2962L57.719 20.9914L57.7168 20.9795L56.0147 21.2962ZM57.8326 25.5551L56.7081 26.8716L57.8345 27.8337L58.9593 26.8696L57.8326 25.5551ZM60.1785 16.5958C60.1785 19.0945 59.9972 20.9971 59.6737 22.356C59.3364 23.7726 58.9144 24.3013 58.6929 24.4602L60.7118 27.2733C61.9619 26.3762 62.6436 24.8317 63.0421 23.158C63.4543 21.4265 63.641 19.2216 63.641 16.5958H60.1785ZM58.7095 24.4485C58.7653 24.4094 58.7749 24.4138 58.6926 24.4477C58.6185 24.4782 58.5027 24.5193 58.3346 24.5683L59.3042 27.8924C59.7522 27.7617 60.2773 27.5776 60.6952 27.2851L58.7095 24.4485ZM58.3346 24.5683C57.869 24.7041 57.303 24.9095 56.8549 25.268L59.018 27.9718C58.9791 28.0029 58.9537 28.0175 58.951 28.0191C58.9476 28.021 58.9578 28.015 58.9858 28.0026C59.0444 27.9768 59.1462 27.9384 59.3042 27.8924L58.3346 24.5683ZM57.9365 24.8886H57.7287V28.3512H57.9365V24.8886ZM58.8102 25.268C58.3621 24.9095 57.7961 24.7041 57.3305 24.5683L56.361 27.8924C56.5189 27.9384 56.6207 27.9768 56.6793 28.0026C56.7074 28.015 56.7176 28.021 56.7142 28.0191C56.7115 28.0175 56.686 28.0029 56.6472 27.9718L58.8102 25.268ZM57.3305 24.5683C57.1625 24.5193 57.0466 24.4782 56.9726 24.4477C56.8902 24.4138 56.8998 24.4094 56.9556 24.4485L54.97 27.2851C55.3879 27.5776 55.913 27.7617 56.361 27.8924L57.3305 24.5683ZM56.9665 24.4561C56.8503 24.3734 56.6246 24.1446 56.37 23.585C56.119 23.0335 55.884 22.2573 55.6916 21.2156L52.2866 21.8442C52.5098 23.0532 52.8115 24.1251 53.2184 25.0193C53.6216 25.9053 54.1751 26.7196 54.9591 27.2774L56.9665 24.4561ZM55.6916 21.2153C55.4175 19.7321 55.2789 18.1843 55.2789 16.5698H51.8164C51.8164 18.3832 51.9721 20.1422 52.2867 21.8445L55.6916 21.2153ZM55.2789 16.5698C55.2789 14.3104 55.5077 12.6752 55.886 11.5755C56.2619 10.4826 56.7002 10.1405 56.9927 10.024L55.7119 6.80702C54.1347 7.43498 53.1707 8.82408 52.6117 10.4493C52.055 12.0677 51.8164 14.1375 51.8164 16.5698H55.2789ZM56.3523 10.1468H57.1314V6.68422H56.3523V10.1468ZM57.1314 10.1468C57.5969 10.1468 58.0987 10.0254 58.5497 9.708C58.9911 9.39742 59.2641 8.98353 59.4282 8.59392L56.237 7.25025C56.2625 7.18958 56.3494 7.0224 56.5571 6.8763C56.7743 6.72339 56.9949 6.68422 57.1314 6.68422V10.1468ZM56.237 8.59392C56.401 8.98353 56.6741 9.39742 57.1154 9.708C57.5664 10.0254 58.0683 10.1468 58.5337 10.1468V6.68422C58.6703 6.68422 58.8908 6.72339 59.1081 6.87629C59.3157 7.0224 59.4026 7.18958 59.4282 7.25025L56.237 8.59392ZM58.5337 10.1468H59.3128V6.68422H58.5337V10.1468ZM58.6698 10.023C58.8443 10.0927 59.2497 10.3675 59.6104 11.5038C59.9655 12.6226 60.1785 14.2916 60.1785 16.5958H63.641C63.641 14.1389 63.4211 12.0641 62.9106 10.4561C62.4057 8.86565 61.5126 7.43078 59.9558 6.80805L58.6698 10.023ZM61.5894 16.5798C61.6067 13.5655 61.349 11.1071 60.5803 9.54628L57.474 11.0762C57.848 11.8354 58.1442 13.5492 58.1269 16.5599L61.5894 16.5798ZM60.5757 9.537C60.1479 8.68153 59.465 8.04943 58.6448 7.61372L57.0203 10.6716C57.3082 10.8245 57.4216 10.9714 57.4787 11.0855L60.5757 9.537ZM57.0762 7.58534C56.0775 8.07041 55.3498 8.86261 54.9018 9.86395L58.0625 11.2779C58.2032 10.9635 58.3758 10.8035 58.589 10.6999L57.0762 7.58534ZM54.9337 9.79669C54.6182 10.4276 54.3926 11.2641 54.2119 12.1855L57.6098 12.8517C57.7754 12.0072 57.9306 11.5453 58.0307 11.3452L54.9337 9.79669ZM54.2132 12.1791C53.9746 13.3722 53.868 14.8302 53.868 16.5179H57.3305C57.3305 14.9508 57.4316 13.7426 57.6085 12.8582L54.2132 12.1791ZM53.868 16.5179C53.868 18.3083 54.0141 20.0079 54.3127 21.6129L57.7168 20.9795C57.4614 19.6067 57.3305 18.1208 57.3305 16.5179H53.868ZM54.3105 21.601C54.7032 23.7967 55.3907 25.7463 56.7081 26.8716L58.957 24.2387C58.6124 23.9444 58.088 23.0547 57.719 20.9914L54.3105 21.601ZM58.9593 26.8696C60.0524 25.9327 60.6628 24.4513 61.0277 22.8326C61.4041 21.1627 61.5806 19.0623 61.5894 16.576L58.1269 16.5636C58.1185 18.9249 57.9486 20.7459 57.6499 22.0711C57.3396 23.4474 56.9458 24.035 56.7059 24.2407L58.9593 26.8696ZM73.8253 14.5442L72.5628 15.7288L75.5566 18.9196V14.5442H73.8253ZM71.8517 12.4407H70.1204V13.1258L70.5891 13.6253L71.8517 12.4407ZM71.8517 9.06473H73.5829V7.33345H71.8517V9.06473ZM69.7222 9.06473V7.33345H67.9909V9.06473H69.7222ZM69.7222 26.1784V27.9097H71.4535V26.1784H69.7222ZM67.6187 26.1784H65.8874V27.9097H67.6187V26.1784ZM67.6187 9.06473H69.35V7.33345H67.6187V9.06473ZM65.4632 9.06473V7.33345H63.732V9.06473H65.4632ZM65.4632 14.5442L66.718 15.737L67.1945 15.2358V14.5442H65.4632ZM63.4636 16.6477H61.7323V20.9817L64.7184 17.8405L63.4636 16.6477ZM63.4636 8.4155V6.68422H61.7323V8.4155H63.4636ZM73.8253 8.4155H75.5566V6.68422H73.8253V8.4155ZM75.0879 13.3596L73.1142 11.2561L70.5891 13.6253L72.5628 15.7288L75.0879 13.3596ZM73.5829 12.4407V9.06473H70.1204V12.4407H73.5829ZM71.8517 7.33345H69.7222V10.796H71.8517V7.33345ZM67.9909 9.06473V26.1784H71.4535V9.06473H67.9909ZM69.7222 24.4471H67.6187V27.9097H69.7222V24.4471ZM69.35 26.1784V9.06473H65.8874V26.1784H69.35ZM67.6187 7.33345H65.4632V10.796H67.6187V7.33345ZM63.732 9.06473V14.5442H67.1945V9.06473H63.732ZM64.2085 13.3514L62.2088 15.4549L64.7184 17.8405L66.718 15.737L64.2085 13.3514ZM65.1949 16.6477V8.4155H61.7323V16.6477H65.1949ZM63.4636 10.1468H73.8253V6.68422H63.4636V10.1468ZM72.094 8.4155V14.5442H75.5566V8.4155H72.094ZM83.3296 26.1784V27.9097H85.0609V26.1784H83.3296ZM75.9024 26.1784H74.1712V27.9097H75.9024V26.1784ZM75.9024 20.9586L77.1418 19.7498L74.1712 16.7039V20.9586H75.9024ZM77.954 23.0621H79.6853V22.3576L79.1934 21.8533L77.954 23.0621ZM77.954 25.5292H76.2227V27.2605H77.954V25.5292ZM81.2521 25.5292V27.2605H82.9834V25.5292H81.2521ZM81.2521 18.4396H82.9834V16.7083H81.2521V18.4396ZM79.7459 18.8291V20.5604H80.0752L80.3815 20.4395L79.7459 18.8291ZM79.5381 18.8291L79.2373 20.5341L79.3865 20.5604H79.5381V18.8291ZM78.006 18.4396L77.4585 20.082L77.4942 20.0939L77.5303 20.1043L78.006 18.4396ZM75.9024 8.4155V6.68422H74.1712V8.4155H75.9024ZM77.954 8.4155H79.6853V6.68422H77.954V8.4155ZM78.2137 16.5958L76.5568 17.0979L76.559 17.105L76.5612 17.1122L78.2137 16.5958ZM79.642 18.2838L78.9648 19.8771L79.6449 20.1661L80.324 19.8751L79.642 18.2838ZM81.2781 8.4155V6.68422H79.5468V8.4155H81.2781ZM83.3296 8.4155H85.0609V6.68422H83.3296V8.4155ZM83.3296 24.4471H75.9024V27.9097H83.3296V24.4471ZM77.6337 26.1784V20.9586H74.1712V26.1784H77.6337ZM74.663 22.1674L76.7146 24.2709L79.1934 21.8533L77.1418 19.7498L74.663 22.1674ZM76.2227 23.0621V25.5292H79.6853V23.0621H76.2227ZM77.954 27.2605H81.2521V23.7979H77.954V27.2605ZM82.9834 25.5292V18.4396H79.5208V25.5292H82.9834ZM81.2521 16.7083H81.2261V20.1709H81.2521V16.7083ZM81.2261 16.7083C80.5465 16.7083 79.7915 16.9499 79.1102 17.2188L80.3815 20.4395C80.6691 20.326 80.8892 20.2535 81.05 20.2113C81.2225 20.1658 81.2684 20.1709 81.2261 20.1709V16.7083ZM79.7459 17.0979H79.5381V20.5604H79.7459V17.0979ZM79.839 17.1242C79.6437 17.0897 79.212 16.9836 78.4816 16.7749L77.5303 20.1043C78.2542 20.3111 78.844 20.4647 79.2373 20.5341L79.839 17.1242ZM78.5534 16.7972C78.3189 16.719 77.6337 16.32 77.6337 13.7911H74.1712C74.1712 16.5253 74.8883 19.2253 77.4585 20.082L78.5534 16.7972ZM77.6337 13.7911V8.4155H74.1712V13.7911H77.6337ZM75.9024 10.1468H77.954V6.68422H75.9024V10.1468ZM76.2227 8.4155V13.9729H79.6853V8.4155H76.2227ZM76.2227 13.9729C76.2227 15.1888 76.307 16.2733 76.5568 17.0979L79.8706 16.0937C79.7742 15.7756 79.6853 15.1115 79.6853 13.9729H76.2227ZM76.5612 17.1122C76.9459 18.3432 77.7292 19.352 78.9648 19.8771L80.3192 16.6904C80.1698 16.627 80.0009 16.5104 79.8662 16.0794L76.5612 17.1122ZM80.324 19.8751C82.3693 18.9985 83.0093 16.9288 83.0093 14.8299H79.5468C79.5468 16.4013 79.0961 16.6342 78.96 16.6925L80.324 19.8751ZM83.0093 14.8299V8.4155H79.5468V14.8299H83.0093ZM81.2781 10.1468H83.3296V6.68422H81.2781V10.1468ZM81.5984 8.4155V26.1784H85.0609V8.4155H81.5984ZM91.5552 25.8668L92.548 27.2851L92.5563 27.2793L92.5646 27.2733L91.5552 25.8668ZM90.6722 26.2303L91.157 27.8924L90.6722 26.2303ZM89.7893 26.6199V28.3512H90.3966L90.8708 27.9718L89.7893 26.6199ZM89.5815 26.6199L88.5 27.9718L88.9742 28.3512H89.5815V26.6199ZM87.8156 25.8668L86.8119 27.2774L86.8228 27.2851L87.8156 25.8668ZM85.8419 21.5299L87.5444 21.2156L87.5444 21.2153L85.8419 21.5299ZM88.2051 8.4155V6.68422H87.8732L87.5647 6.80702L88.2051 8.4155ZM89.6854 7.92208L91.281 7.25025L89.6854 3.46069L88.0898 7.25025L89.6854 7.92208ZM91.1656 8.4155L91.8086 6.80805L91.499 6.68422H91.1656V8.4155ZM91.711 16.5698L89.9797 16.5599L89.9797 16.5636L91.711 16.5698ZM90.88 10.3112L92.4331 9.54627L92.4285 9.537L90.88 10.3112ZM89.6854 9.14264L90.4976 7.61372L89.7205 7.20088L88.929 7.58534L89.6854 9.14264ZM88.335 10.5709L89.8835 11.3452L89.9001 11.3119L89.9153 11.2779L88.335 10.5709ZM87.7637 12.5186L89.4613 12.8582L89.4626 12.8517L87.7637 12.5186ZM87.8675 21.2962L89.5718 20.9914L89.5696 20.9795L87.8675 21.2962ZM89.6854 25.5551L88.5609 26.8716L89.6873 27.8337L90.8121 26.8696L89.6854 25.5551ZM92.0313 16.5958C92.0313 19.0945 91.85 20.9971 91.5265 22.356C91.1892 23.7726 90.7672 24.3013 90.5457 24.4602L92.5646 27.2733C93.8147 26.3762 94.4964 24.8317 94.8949 23.158C95.3072 21.4265 95.4938 19.2216 95.4938 16.5958H92.0313ZM90.5623 24.4485C90.6181 24.4094 90.6277 24.4138 90.5454 24.4477C90.4713 24.4782 90.3555 24.5193 90.1874 24.5683L91.157 27.8924C91.605 27.7617 92.1301 27.5776 92.548 27.2851L90.5623 24.4485ZM90.1875 24.5683C89.7218 24.7041 89.1558 24.9095 88.7077 25.268L90.8708 27.9718C90.8319 28.0029 90.8065 28.0175 90.8038 28.0191C90.8004 28.021 90.8106 28.015 90.8387 28.0026C90.8972 27.9768 90.999 27.9384 91.157 27.8924L90.1875 24.5683ZM89.7893 24.8886H89.5815V28.3512H89.7893V24.8886ZM90.663 25.268C90.2149 24.9095 89.6489 24.7041 89.1833 24.5683L88.2138 27.8924C88.3717 27.9384 88.4735 27.9768 88.5321 28.0026C88.5602 28.015 88.5704 28.021 88.567 28.0191C88.5643 28.0175 88.5388 28.0029 88.5 27.9718L90.663 25.268ZM89.1833 24.5683C89.0153 24.5193 88.8994 24.4782 88.8254 24.4477C88.743 24.4138 88.7526 24.4094 88.8084 24.4485L86.8228 27.2851C87.2407 27.5776 87.7658 27.7617 88.2138 27.8924L89.1833 24.5683ZM88.8193 24.4561C88.7031 24.3734 88.4774 24.1446 88.2228 23.585C87.9718 23.0335 87.7368 22.2573 87.5444 21.2156L84.1394 21.8442C84.3626 23.0532 84.6643 24.1251 85.0712 25.0193C85.4744 25.9053 86.0279 26.7196 86.8119 27.2774L88.8193 24.4561ZM87.5444 21.2153C87.2703 19.7321 87.1317 18.1843 87.1317 16.5698H83.6692C83.6692 18.3832 83.8249 20.1422 84.1395 21.8445L87.5444 21.2153ZM87.1317 16.5698C87.1317 14.3104 87.3605 12.6752 87.7388 11.5755C88.1147 10.4826 88.553 10.1405 88.8455 10.024L87.5647 6.80702C85.9875 7.43498 85.0235 8.82408 84.4645 10.4493C83.9078 12.0677 83.6692 14.1375 83.6692 16.5698H87.1317ZM88.2051 10.1468H88.9842V6.68422H88.2051V10.1468ZM88.9842 10.1468C89.4497 10.1468 89.9515 10.0254 90.4025 9.708C90.8439 9.39742 91.1169 8.98353 91.281 8.59392L88.0898 7.25025C88.1153 7.18958 88.2022 7.0224 88.4099 6.8763C88.6272 6.72339 88.8477 6.68422 88.9842 6.68422V10.1468ZM88.0898 8.59392C88.2538 8.98353 88.5269 9.39742 88.9682 9.708C89.4192 10.0254 89.9211 10.1468 90.3865 10.1468V6.68422C90.5231 6.68422 90.7436 6.72339 90.9609 6.87629C91.1685 7.0224 91.2554 7.18958 91.281 7.25025L88.0898 8.59392ZM90.3865 10.1468H91.1656V6.68422H90.3865V10.1468ZM90.5226 10.023C90.6971 10.0927 91.1025 10.3675 91.4632 11.5038C91.8183 12.6226 92.0313 14.2916 92.0313 16.5958H95.4938C95.4938 14.1389 95.2739 12.0641 94.7634 10.4561C94.2585 8.86565 93.3654 7.43078 91.8086 6.80805L90.5226 10.023ZM93.4422 16.5798C93.4595 13.5655 93.2018 11.1071 92.4331 9.54628L89.3269 11.0762C89.7008 11.8354 89.997 13.5492 89.9797 16.5599L93.4422 16.5798ZM92.4285 9.537C92.0007 8.68153 91.3178 8.04943 90.4976 7.61372L88.8731 10.6716C89.161 10.8245 89.2744 10.9714 89.3315 11.0855L92.4285 9.537ZM88.929 7.58534C87.9303 8.07041 87.2026 8.86261 86.7546 9.86395L89.9153 11.2779C90.056 10.9635 90.2286 10.8035 90.4418 10.6999L88.929 7.58534ZM86.7865 9.79669C86.471 10.4276 86.2454 11.2641 86.0647 12.1855L89.4626 12.8517C89.6282 12.0072 89.7834 11.5453 89.8835 11.3452L86.7865 9.79669ZM86.066 12.1791C85.8274 13.3722 85.7208 14.8302 85.7208 16.5179H89.1833C89.1833 14.9508 89.2844 13.7426 89.4613 12.8582L86.066 12.1791ZM85.7208 16.5179C85.7208 18.3083 85.8669 20.0079 86.1655 21.6129L89.5696 20.9795C89.3142 19.6067 89.1833 18.1208 89.1833 16.5179H85.7208ZM86.1633 21.601C86.556 23.7967 87.2435 25.7463 88.5609 26.8716L90.8098 24.2387C90.4652 23.9444 89.9408 23.0547 89.5718 20.9914L86.1633 21.601ZM90.8121 26.8696C91.9052 25.9327 92.5156 24.4513 92.8805 22.8326C93.2569 21.1627 93.4334 19.0623 93.4422 16.576L89.9797 16.5636C89.9713 18.9249 89.8014 20.7459 89.5027 22.0711C89.1924 23.4474 88.7986 24.035 88.5587 24.2407L90.8121 26.8696ZM103.341 14.5442L102.124 15.7759L105.072 18.6879V14.5442H103.341ZM101.211 12.4407H99.4801V13.1641L99.9948 13.6724L101.211 12.4407ZM101.211 9.06473H102.943V7.33345H101.211V9.06473ZM97.9133 9.06473V7.33345H96.1821V9.06473H97.9133ZM97.9133 16.2582H96.1821V17.9895H97.9133V16.2582ZM98.7184 16.2322V14.5009H98.547L98.3789 14.5346L98.7184 16.2322ZM99.7831 16.3101L99.4823 18.0151L99.4904 18.0165L99.4985 18.0178L99.7831 16.3101ZM99.9389 16.3621H98.2077V17.898L99.7327 18.081L99.9389 16.3621ZM101.263 16.9853L102.36 15.6454L102.351 15.6385L101.263 16.9853ZM102.432 25.9966L102.936 27.6529L102.948 27.6491L102.432 25.9966ZM95.8618 26.1784H94.1305V27.9097H95.8618V26.1784ZM95.8618 8.4155V6.68422H94.1305V8.4155H95.8618ZM103.341 8.4155H105.072V6.68422H103.341V8.4155ZM99.7052 17.7644L98.3478 18.839L98.3552 18.8483L98.3627 18.8576L99.7052 17.7644ZM98.7184 16.9074L99.4595 15.3428L99.1077 15.1761H98.7184V16.9074ZM97.8874 16.9074V15.1761H96.1561V16.9074H97.8874ZM97.8874 25.5292H96.1561V27.2605H97.8874V25.5292ZM101.185 25.5292V27.2605H102.917V25.5292H101.185ZM104.558 13.3125L102.428 11.209L99.9948 13.6724L102.124 15.7759L104.558 13.3125ZM102.943 12.4407V9.06473H99.4801V12.4407H102.943ZM101.211 7.33345H97.9133V10.796H101.211V7.33345ZM96.1821 9.06473V16.2582H99.6446V9.06473H96.1821ZM97.9133 17.9895H98.5106V14.5269H97.9133V17.9895ZM98.5106 17.9895C98.7284 17.9895 98.9255 17.9564 99.0579 17.9299L98.3789 14.5346C98.3667 14.537 98.3704 14.5358 98.3868 14.5338C98.4009 14.532 98.4452 14.5269 98.5106 14.5269V17.9895ZM98.7184 17.9635H99.03V14.5009H98.7184V17.9635ZM99.03 17.9635C99.1037 17.9635 99.2481 17.9737 99.4823 18.0151L100.084 14.6052C99.7295 14.5426 99.3718 14.5009 99.03 14.5009V17.9635ZM99.4985 18.0178C99.5268 18.0226 99.4581 18.0137 99.3525 17.9785C99.3116 17.9649 99.1517 17.9115 98.9689 17.7896C98.8747 17.7268 98.7072 17.602 98.5515 17.3943C98.3854 17.1729 98.2077 16.8196 98.2077 16.3621H101.67C101.67 15.4387 101.001 14.9826 100.89 14.9086C100.694 14.778 100.514 14.716 100.447 14.6937C100.29 14.6411 100.143 14.615 100.068 14.6024L99.4985 18.0178ZM99.7327 18.081C99.7529 18.0834 99.8976 18.1077 100.176 18.3322L102.351 15.6385C101.729 15.1358 100.991 14.7446 100.145 14.6431L99.7327 18.081ZM100.167 18.3253C100.967 18.9801 101.532 20.1126 101.532 22.1272H104.994C104.994 19.4674 104.225 17.1719 102.36 15.6454L100.167 18.3253ZM101.532 22.1272V25.2695H104.994V22.1272H101.532ZM101.532 25.2695C101.532 25.0804 101.576 24.8887 101.663 24.716C101.746 24.5501 101.847 24.4421 101.915 24.3821C102.032 24.2795 102.081 24.2925 101.916 24.3442L102.948 27.6491C103.337 27.5276 103.801 27.3329 104.195 26.9879C104.635 26.6034 104.994 26.016 104.994 25.2695H101.532ZM101.928 24.3404C101.693 24.4119 101.456 24.4471 101.211 24.4471V27.9097C101.798 27.9097 102.375 27.8237 102.936 27.6529L101.928 24.3404ZM101.211 24.4471H95.8618V27.9097H101.211V24.4471ZM97.5931 26.1784V8.4155H94.1305V26.1784H97.5931ZM95.8618 10.1468H103.341V6.68422H95.8618V10.1468ZM101.61 8.4155V14.5442H105.072V8.4155H101.61ZM102.917 22.1532C102.917 20.0821 102.311 18.2224 101.048 16.6712L98.3627 18.8576C99.0733 19.7302 99.4542 20.7964 99.4542 22.1532H102.917ZM101.063 16.6898C100.638 16.1538 100.113 15.6523 99.4595 15.3428L97.9772 18.472C97.9745 18.4707 98.0086 18.4866 98.0766 18.5457C98.1448 18.6049 98.2363 18.6981 98.3478 18.839L101.063 16.6898ZM98.7184 15.1761H97.8874V18.6387H98.7184V15.1761ZM96.1561 16.9074V25.5292H99.6186V16.9074H96.1561ZM97.8874 27.2605H101.185V23.7979H97.8874V27.2605ZM102.917 25.5292V22.1532H99.4542V25.5292H102.917ZM113.233 26.1784V27.9097H114.964V26.1784H113.233ZM111.181 26.1784H109.45V27.9097H111.181V26.1784ZM111.181 14.9597H112.912V9.9604L109.821 13.889L111.181 14.9597ZM107.727 19.3485L106.367 18.2778L105.996 18.749V19.3485H107.727ZM107.727 26.1784V27.9097H109.459V26.1784H107.727ZM105.676 26.1784H103.944V27.9097H105.676V26.1784ZM105.676 8.4155V6.68422H103.944V8.4155H105.676ZM107.727 8.4155H109.459V6.68422H107.727V8.4155ZM107.727 17.9202H105.996V22.9428L109.091 18.987L107.727 17.9202ZM111.181 13.5055L112.545 14.5722L112.912 14.1022V13.5055H111.181ZM111.181 8.4155V6.68422H109.45V8.4155H111.181ZM113.233 8.4155H114.964V6.68422H113.233V8.4155ZM113.233 24.4471H111.181V27.9097H113.233V24.4471ZM112.912 26.1784V14.9597H109.45V26.1784H112.912ZM109.821 13.889L106.367 18.2778L109.088 20.4192L112.542 16.0304L109.821 13.889ZM105.996 19.3485V26.1784H109.459V19.3485H105.996ZM107.727 24.4471H105.676V27.9097H107.727V24.4471ZM107.407 26.1784V8.4155H103.944V26.1784H107.407ZM105.676 10.1468H107.727V6.68422H105.676V10.1468ZM105.996 8.4155V17.9202H109.459V8.4155H105.996ZM109.091 18.987L112.545 14.5722L109.818 12.4387L106.364 16.8534L109.091 18.987ZM112.912 13.5055V8.4155H109.45V13.5055H112.912ZM111.181 10.1468H113.233V6.68422H111.181V10.1468ZM111.501 8.4155V26.1784H114.964V8.4155H111.501ZM123.377 26.1784V27.9097H125.108V26.1784H123.377ZM121.325 26.1784H119.594V27.9097H121.325V26.1784ZM121.325 15.6869H123.057V13.2389L120.749 14.0545L121.325 15.6869ZM117.871 16.9074L117.295 15.2751L116.14 15.683V16.9074H117.871ZM117.871 26.1784V27.9097H119.603V26.1784H117.871ZM115.82 26.1784H114.089V27.9097H115.82V26.1784ZM115.82 8.4155V6.68422H114.089V8.4155H115.82ZM117.871 8.4155H119.603V6.68422H117.871V8.4155ZM117.871 15.7388H116.14V18.2042L118.459 17.3673L117.871 15.7388ZM121.325 14.4923L121.913 16.1208L123.057 15.708V14.4923H121.325ZM121.325 8.4155V6.68422H119.594V8.4155H121.325ZM123.377 8.4155H125.108V6.68422H123.377V8.4155ZM123.377 24.4471H121.325V27.9097H123.377V24.4471ZM123.057 26.1784V15.6869H119.594V26.1784H123.057ZM120.749 14.0545L117.295 15.2751L118.448 18.5398L121.902 17.3192L120.749 14.0545ZM116.14 16.9074V26.1784H119.603V16.9074H116.14ZM117.871 24.4471H115.82V27.9097H117.871V24.4471ZM117.551 26.1784V8.4155H114.089V26.1784H117.551ZM115.82 10.1468H117.871V6.68422H115.82V10.1468ZM116.14 8.4155V15.7388H119.603V8.4155H116.14ZM118.459 17.3673L121.913 16.1208L120.738 12.8638L117.284 14.1103L118.459 17.3673ZM123.057 14.4923V8.4155H119.594V14.4923H123.057ZM121.325 10.1468H123.377V6.68422H121.325V10.1468ZM121.646 8.4155V26.1784H125.108V8.4155H121.646ZM133.755 23.4257L135.316 24.1749L136.506 21.6944H133.755V23.4257ZM131.106 26.1784L131.653 27.8208L131.75 27.7887L131.842 27.7454L131.106 26.1784ZM130.171 26.6199L128.947 27.8441L129.86 28.7573L130.996 28.1422L130.171 26.6199ZM129.184 26.2303L128.702 27.893L128.709 27.895L128.716 27.897L129.184 26.2303ZM128.197 25.8668L127.163 27.2548L127.177 27.2653L127.191 27.2756L128.197 25.8668ZM126.016 21.5299L127.703 21.1416L127.702 21.1354L126.016 21.5299ZM126.042 11.8954L127.703 12.385L127.705 12.378L127.707 12.371L126.042 11.8954ZM128.769 8.4155V6.68422H128.514L128.269 6.75786L128.769 8.4155ZM130.171 7.92208L131.461 6.76768L130.131 5.28138L128.847 6.80691L130.171 7.92208ZM131.573 8.4155L132.193 6.79892L131.894 6.68422H131.573V8.4155ZM133.443 12.5446V14.2759H135.334L135.168 12.3924L133.443 12.5446ZM131.418 12.5446L129.695 12.7169L129.851 14.2759H131.418V12.5446ZM131.184 10.6748L129.502 11.0859L129.504 11.0947L131.184 10.6748ZM130.171 9.11667L130.989 7.59058L130.272 7.20662L129.519 7.51299L130.171 9.11667ZM127.912 12.3888L126.242 11.9305L126.242 11.9313L127.912 12.3888ZM127.418 16.5438L129.15 16.5252L129.15 16.5239L127.418 16.5438ZM128.042 21.3741L129.725 20.9706L129.722 20.9585L128.042 21.3741ZM130.171 25.6071L129.096 26.964L130.171 27.8156L131.246 26.9645L130.171 25.6071ZM131.651 23.4257V21.6944H130.226L129.952 23.0932L131.651 23.4257ZM132.194 22.6765C131.718 23.669 131.101 24.2678 130.37 24.6114L131.842 27.7454C133.396 27.0156 134.545 25.7793 135.316 24.1749L132.194 22.6765ZM130.559 24.536C130.197 24.6563 129.773 24.8664 129.347 25.0976L130.996 28.1422C131.4 27.9233 131.599 27.839 131.653 27.8208L130.559 24.536ZM131.395 25.3957C131.063 25.063 130.641 24.897 130.482 24.8342C130.24 24.7386 129.956 24.649 129.653 24.5637L128.716 27.897C128.837 27.9312 128.94 27.9621 129.025 27.9896C129.11 28.0173 129.171 28.0392 129.211 28.0549C129.254 28.0721 129.255 28.0747 129.228 28.0605C129.214 28.0527 129.182 28.0347 129.139 28.0052C129.099 27.9773 129.028 27.9248 128.947 27.8441L131.395 25.3957ZM129.667 24.5677C129.418 24.4954 129.244 24.4389 129.134 24.3981C129.107 24.3884 129.087 24.3806 129.073 24.3748C129.058 24.3689 129.052 24.366 129.053 24.3663C129.053 24.3665 129.056 24.3679 129.062 24.3706C129.067 24.3733 129.076 24.3777 129.087 24.3839C129.107 24.3948 129.149 24.4191 129.204 24.458L127.191 27.2756C127.459 27.4672 127.769 27.5856 127.937 27.6471C128.155 27.7275 128.414 27.8095 128.702 27.893L129.667 24.5677ZM129.232 24.4787C128.796 24.1536 128.184 23.2322 127.703 21.1416L124.329 21.9182C124.852 24.1904 125.694 26.1603 127.163 27.2548L129.232 24.4787ZM127.702 21.1354C127.351 19.6379 127.176 18.117 127.176 16.5698H123.713C123.713 18.3813 123.919 20.1671 124.33 21.9245L127.702 21.1354ZM127.176 16.5698C127.176 14.9296 127.361 13.5421 127.703 12.385L124.381 11.4057C123.926 12.9495 123.713 14.6783 123.713 16.5698H127.176ZM127.707 12.371C128.189 10.6822 128.824 10.2069 129.268 10.0731L128.269 6.75786C126.186 7.38582 125.003 9.23045 124.377 11.4197L127.707 12.371ZM128.769 10.1468H129.548V6.68422H128.769V10.1468ZM129.548 10.1468C130.231 10.1468 130.713 9.78374 130.882 9.64955C131.116 9.46473 131.322 9.24305 131.495 9.03726L128.847 6.80691C128.743 6.93006 128.707 6.95509 128.733 6.93474C128.748 6.92315 128.812 6.87306 128.922 6.82084C129.027 6.77094 129.247 6.68422 129.548 6.68422V10.1468ZM128.881 9.07649C129.057 9.27303 129.258 9.47895 129.473 9.64955C129.581 9.73519 129.73 9.84177 129.913 9.93316C130.081 10.0172 130.392 10.1468 130.794 10.1468V6.68422C131.136 6.68422 131.376 6.7932 131.461 6.83616C131.562 6.88644 131.618 6.93133 131.622 6.93474C131.63 6.94087 131.58 6.90008 131.461 6.76768L128.881 9.07649ZM130.794 10.1468H131.573V6.68422H130.794V10.1468ZM130.954 10.0321C130.954 10.0322 130.955 10.0325 130.956 10.033C130.957 10.0335 130.959 10.0347 130.963 10.0373C130.97 10.0422 130.986 10.0547 131.011 10.081C131.062 10.1357 131.147 10.2488 131.243 10.4606C131.442 10.9 131.623 11.6169 131.719 12.6968L135.168 12.3924C135.055 11.1178 134.821 9.96919 134.397 9.03225C133.966 8.08129 133.272 7.21251 132.193 6.79892L130.954 10.0321ZM133.443 10.8133H131.418V14.2759H133.443V10.8133ZM133.14 12.3723C133.043 11.3969 132.954 10.6162 132.863 10.2549L129.504 11.0947C129.501 11.0808 129.522 11.1855 129.563 11.5128C129.6 11.8041 129.644 12.2037 129.695 12.7169L133.14 12.3723ZM132.866 10.2637C132.613 9.22963 132.074 8.17213 130.989 7.59058L129.354 10.6428C129.308 10.6182 129.306 10.5979 129.336 10.6445C129.373 10.7008 129.44 10.8327 129.502 11.0859L132.866 10.2637ZM129.519 7.51299C127.745 8.23469 126.776 9.98449 126.242 11.9305L129.581 12.8471C130.017 11.2613 130.555 10.8297 130.823 10.7203L129.519 7.51299ZM126.242 11.9313C125.847 13.3718 125.668 14.9199 125.687 16.5637L129.15 16.5239C129.134 15.1554 129.284 13.9334 129.582 12.8462L126.242 11.9313ZM125.687 16.5625C125.706 18.3104 125.932 20.0536 126.361 21.7898L129.722 20.9585C129.355 19.4744 129.165 17.9975 129.15 16.5252L125.687 16.5625ZM126.358 21.7776C126.884 23.9723 127.709 25.8646 129.096 26.964L131.246 24.2502C130.798 23.8953 130.203 22.9656 129.725 20.9706L126.358 21.7776ZM131.246 26.9645C132.3 26.1301 133.094 25.0702 133.35 23.7581L129.952 23.0932C129.897 23.374 129.705 23.7683 129.096 24.2497L131.246 26.9645ZM131.651 25.157H133.755V21.6944H131.651V25.157ZM143.18 26.1784V27.9097H144.911V26.1784H143.18ZM141.128 26.1784H139.397V27.9097H141.128V26.1784ZM140.245 18.6473L138.728 19.4806L138.733 19.4902L140.245 18.6473ZM138.661 16.9074L139.416 15.3496L139.059 15.1761H138.661V16.9074ZM137.83 16.9074V15.1761H136.099V16.9074H137.83ZM137.83 26.1784V27.9097H139.561V26.1784H137.83ZM135.779 26.1784H134.047V27.9097H135.779V26.1784ZM135.779 8.4155V6.68422H134.047V8.4155H135.779ZM137.83 8.4155H139.561V6.68422H137.83V8.4155ZM137.83 16.2582H136.099V17.9895H137.83V16.2582ZM138.427 16.2582V17.9895H138.771L139.088 17.8583L138.427 16.2582ZM140.427 14.2066L141.965 15.0013L141.97 14.9911L141.976 14.9809L140.427 14.2066ZM141.128 8.4155V6.68422H139.397V8.4155H141.128ZM143.18 8.4155H144.911V6.68422H143.18V8.4155ZM142.375 14.5442L140.867 13.6941L140.866 13.6954L142.375 14.5442ZM139.83 16.3621L139.663 14.6388L139.618 18.0804L139.83 16.3621ZM142.427 18.5954L140.847 19.3042L140.853 19.3166L140.859 19.3289L142.427 18.5954ZM143.18 24.4471H141.128V27.9097H143.18V24.4471ZM142.86 26.1784V22.1532H139.397V26.1784H142.86ZM142.86 22.1532C142.86 20.5952 142.498 19.1337 141.758 17.8045L138.733 19.4902C139.169 20.2732 139.397 21.1489 139.397 22.1532H142.86ZM141.763 17.8142C141.199 16.7869 140.45 15.8508 139.416 15.3496L137.906 18.4652C138.015 18.518 138.322 18.7419 138.728 19.4805L141.763 17.8142ZM138.661 15.1761H137.83V18.6387H138.661V15.1761ZM136.099 16.9074V26.1784H139.561V16.9074H136.099ZM137.83 24.4471H135.779V27.9097H137.83V24.4471ZM137.51 26.1784V8.4155H134.047V26.1784H137.51ZM135.779 10.1468H137.83V6.68422H135.779V10.1468ZM136.099 8.4155V16.2582H139.561V8.4155H136.099ZM137.83 17.9895H138.427V14.5269H137.83V17.9895ZM139.088 17.8583C140.38 17.325 141.308 16.2737 141.965 15.0013L138.889 13.4119C138.473 14.2171 138.068 14.5334 137.767 14.658L139.088 17.8583ZM141.976 14.9809C142.549 13.8343 142.86 12.6359 142.86 11.402H139.397C139.397 12.0377 139.24 12.7092 138.879 13.4324L141.976 14.9809ZM142.86 11.402V8.4155H139.397V11.402H142.86ZM141.128 10.1468H143.18V6.68422H141.128V10.1468ZM141.449 8.4155V11.376H144.911V8.4155H141.449ZM141.449 11.376C141.449 12.257 141.248 13.0174 140.867 13.6941L143.883 15.3943C144.575 14.1667 144.911 12.8149 144.911 11.376H141.449ZM140.866 13.6954C140.463 14.4112 140.067 14.5998 139.663 14.6388L139.997 18.0853C141.74 17.9166 143.04 16.8933 143.884 15.393L140.866 13.6954ZM139.618 18.0804C139.96 18.1224 140.403 18.3145 140.847 19.3042L144.006 17.8866C143.238 16.1755 141.951 14.8788 140.041 14.6438L139.618 18.0804ZM140.859 19.3289C141.245 20.1545 141.449 21.0787 141.449 22.1272H144.911C144.911 20.6135 144.613 19.1831 143.995 17.8619L140.859 19.3289ZM141.449 22.1272V26.1784H144.911V22.1272H141.449ZM152.97 18.4396L152.631 16.7419L151.239 17.0203V18.4396H152.97ZM152.97 25.0358H151.239V25.8583L151.877 26.3779L152.97 25.0358ZM154.373 26.1784V27.9097H159.238L155.466 24.8363L154.373 26.1784ZM149.516 26.1784L148.41 24.8463L144.721 27.9097H149.516V26.1784ZM150.893 25.0358L151.999 26.3678L152.624 25.8486V25.0358H150.893ZM150.893 20.4652H152.624V16.3316L149.678 19.2314L150.893 20.4652ZM147.569 23.7373L146.354 22.5035L145.837 23.0122V23.7373H147.569ZM147.569 26.1784V27.9097H149.3V26.1784H147.569ZM145.517 26.1784H143.786V27.9097H145.517V26.1784ZM147.569 11.7655L148.752 13.0291L148.758 13.0235L147.569 11.7655ZM150.893 10.1035L151.173 11.8118L152.624 11.5734V10.1035H150.893ZM150.893 9.27248H152.624V8.311L151.808 7.8028L150.893 9.27248ZM149.516 8.4155V6.68422H143.46L148.601 9.88517L149.516 8.4155ZM154.373 8.4155L155.275 9.89277L160.526 6.68422H154.373V8.4155ZM152.97 9.27248L152.067 7.79521L151.239 8.30152V9.27248H152.97ZM152.97 15.8946H151.239V17.3139L152.631 17.5923L152.97 15.8946ZM150.893 19.1927L152.126 20.4074L152.624 19.902V19.1927H150.893ZM150.893 18.4656H152.624V17.0675L151.257 16.7731L150.893 18.4656ZM150.893 15.8946L151.257 17.5871L152.624 17.2927V15.8946H150.893ZM150.893 11.1423H152.624V9.41098H150.893V11.1423ZM148.14 13.3496L146.52 12.7397L146.518 12.7448L148.14 13.3496ZM147.569 22.5687H145.837V26.7946L148.802 23.7834L147.569 22.5687ZM153.057 17.1152C153.057 16.9893 153.09 16.8443 153.164 16.7124C153.233 16.5893 153.305 16.5338 153.314 16.5274C153.319 16.5235 153.278 16.5543 153.156 16.6001C153.036 16.645 152.865 16.695 152.631 16.7419L153.31 20.1373C154.022 19.9949 154.758 19.7598 155.353 19.326C156.016 18.8426 156.519 18.0881 156.519 17.1152H153.057ZM151.239 18.4396V25.0358H154.701V18.4396H151.239ZM151.877 26.3779L153.279 27.5206L155.466 24.8363L154.064 23.6936L151.877 26.3779ZM154.373 24.4471H149.516V27.9097H154.373V24.4471ZM150.622 27.5105L151.999 26.3678L149.787 23.7037L148.41 24.8463L150.622 27.5105ZM152.624 25.0358V20.4652H149.161V25.0358H152.624ZM149.678 19.2314L146.354 22.5035L148.783 24.9711L152.107 21.699L149.678 19.2314ZM145.837 23.7373V26.1784H149.3V23.7373H145.837ZM147.569 24.4471H145.517V27.9097H147.569V24.4471ZM147.248 26.1784V17.1411H143.786V26.1784H147.248ZM147.248 17.1411C147.248 15.1998 147.811 13.9104 148.752 13.0291L146.385 10.502C144.59 12.183 143.786 14.4773 143.786 17.1411H147.248ZM148.758 13.0235C149.465 12.3549 150.259 11.9622 151.173 11.8118L150.612 8.39514C148.999 8.66032 147.576 9.37564 146.379 10.5075L148.758 13.0235ZM152.624 10.1035V9.27248H149.161V10.1035H152.624ZM151.808 7.8028L150.431 6.94582L148.601 9.88517L149.978 10.7422L151.808 7.8028ZM149.516 10.1468H154.373V6.68422H149.516V10.1468ZM153.47 6.93823L152.067 7.79521L153.873 10.7497L155.275 9.89277L153.47 6.93823ZM151.239 9.27248V15.8946H154.701V9.27248H151.239ZM152.631 17.5923C152.873 17.6407 153.054 17.6913 153.183 17.7377C153.247 17.7604 153.293 17.7804 153.325 17.7957C153.357 17.8112 153.37 17.8198 153.369 17.8189C153.367 17.818 153.347 17.8045 153.317 17.7748C153.286 17.7446 153.245 17.6969 153.203 17.6292C153.11 17.4797 153.057 17.2968 153.057 17.1152H156.519C156.519 16.0934 155.931 15.3689 155.299 14.9442C154.719 14.555 154.006 14.3361 153.31 14.197L152.631 17.5923ZM152.624 19.1927V18.4656H149.161V19.1927H152.624ZM151.257 16.7731C151.047 16.7279 150.898 16.6809 150.797 16.6406C150.695 16.5996 150.667 16.5754 150.682 16.5869C150.701 16.6014 150.773 16.6625 150.838 16.7848C150.907 16.9139 150.936 17.0513 150.936 17.1671H147.473C147.473 18.0958 147.931 18.8391 148.571 19.3314C149.144 19.7724 149.852 20.0125 150.528 20.158L151.257 16.7731ZM150.936 17.1671C150.936 17.2958 150.903 17.4424 150.83 17.5767C150.761 17.7028 150.686 17.7641 150.669 17.777C150.655 17.7873 150.685 17.7623 150.79 17.7208C150.893 17.68 151.045 17.6328 151.257 17.5871L150.528 14.2022C149.857 14.3467 149.154 14.5824 148.585 15.0121C147.949 15.4908 147.473 16.2276 147.473 17.1671H150.936ZM152.624 15.8946V11.1423H149.161V15.8946H152.624ZM150.893 9.41098C149.896 9.41098 148.955 9.7067 148.161 10.3434C147.391 10.9604 146.87 11.8081 146.52 12.7397L149.76 13.9596C149.963 13.4196 150.179 13.1636 150.327 13.0448C150.45 12.9457 150.608 12.8735 150.893 12.8735V9.41098ZM146.518 12.7448C146.042 14.02 145.837 15.513 145.837 17.1671H149.3C149.3 15.7742 149.476 14.7222 149.762 13.9545L146.518 12.7448ZM145.837 17.1671V22.5687H149.3V17.1671H145.837ZM148.802 23.7834L152.126 20.4074L149.659 17.978L146.335 21.354L148.802 23.7834ZM163.925 26.1784V27.9097H165.656V26.1784H163.925ZM161.873 26.1784H160.142V27.9097H161.873V26.1784ZM161.873 16.9074H163.604V15.1761H161.873V16.9074ZM161.042 16.9074V15.1761H160.645L160.288 15.349L161.042 16.9074ZM159.458 18.907L161.015 19.6634L161.016 19.6611L159.458 18.907ZM158.575 26.1784V27.9097H160.306V26.1784H158.575ZM156.524 26.1784H154.792V27.9097H156.524V26.1784ZM157.277 18.8811L155.678 18.2165L155.674 18.2264L157.277 18.8811ZM159.874 16.3621L160.092 18.0795L160.068 14.6418L159.874 16.3621ZM157.458 14.4403L158.951 13.5626L158.949 13.5604L157.458 14.4403ZM156.705 9.81783L158.415 10.0898L158.418 10.0708L158.421 10.0518L156.705 9.81783ZM157.51 8.80504L158.409 10.2849L158.418 10.2791L158.428 10.2732L157.51 8.80504ZM163.925 8.4155H165.656V6.68422H163.925V8.4155ZM161.873 16.2582V17.9895H163.604V16.2582H161.873ZM161.873 9.06473H163.604V7.33345H161.873V9.06473ZM158.757 9.06473V7.33345H157.225L157.038 8.8537L158.757 9.06473ZM159.328 14.2066L160.872 13.4223L160.871 13.4216L159.328 14.2066ZM161.276 16.2582L160.62 17.8606L160.935 17.9895H161.276V16.2582ZM163.925 24.4471H161.873V27.9097H163.925V24.4471ZM163.604 26.1784V16.9074H160.142V26.1784H163.604ZM161.873 15.1761H161.042V18.6387H161.873V15.1761ZM160.288 15.349C159.189 15.8808 158.446 17.024 157.9 18.153L161.016 19.6611C161.241 19.1967 161.44 18.8804 161.601 18.6772C161.767 18.4672 161.841 18.4442 161.796 18.4658L160.288 15.349ZM157.901 18.1506C157.202 19.5891 156.844 21.1021 156.844 22.6726H160.306C160.306 21.6461 160.537 20.6487 161.015 19.6634L157.901 18.1506ZM156.844 22.6726V26.1784H160.306V22.6726H156.844ZM158.575 24.4471H156.524V27.9097H158.575V24.4471ZM158.255 26.1784V22.6466H154.792V26.1784H158.255ZM158.255 22.6466C158.255 21.5981 158.459 20.5648 158.879 19.5357L155.674 18.2264C155.09 19.6557 154.792 21.1328 154.792 22.6466H158.255ZM158.875 19.5457C159.411 18.2565 159.898 18.1042 160.092 18.0795L159.655 14.6446C157.668 14.897 156.423 16.424 155.678 18.2165L158.875 19.5457ZM160.068 14.6418C159.914 14.6243 159.505 14.5049 158.951 13.5626L155.966 15.3181C156.797 16.7304 157.998 17.892 159.679 18.0824L160.068 14.6418ZM158.949 13.5604C158.446 12.7067 158.255 11.9864 158.255 11.376H154.792C154.792 12.7392 155.225 14.0618 155.967 15.3203L158.949 13.5604ZM158.255 11.376C158.255 11.256 158.291 10.8669 158.415 10.0898L154.996 9.54582C154.877 10.2923 154.792 10.942 154.792 11.376H158.255ZM158.421 10.0518C158.411 10.1229 158.391 10.1887 158.366 10.2452C158.341 10.3006 158.316 10.3374 158.301 10.3563C158.275 10.3892 158.289 10.3575 158.409 10.2849L156.612 7.32516C155.899 7.75785 155.141 8.47698 154.99 9.58391L158.421 10.0518ZM158.428 10.2732C158.618 10.1542 158.72 10.1468 158.757 10.1468V6.68422C157.963 6.68422 157.233 6.9365 156.593 7.33692L158.428 10.2732ZM158.757 10.1468H163.925V6.68422H158.757V10.1468ZM162.193 8.4155V26.1784H165.656V8.4155H162.193ZM163.604 16.2582V9.06473H160.142V16.2582H163.604ZM161.873 7.33345H158.757V10.796H161.873V7.33345ZM157.038 8.8537C156.914 9.86749 156.844 10.727 156.844 11.402H160.306C160.306 10.9342 160.357 10.2356 160.475 9.27575L157.038 8.8537ZM156.844 11.402C156.844 12.6183 157.19 13.822 157.785 14.9917L160.871 13.4216C160.462 12.6176 160.306 11.9515 160.306 11.402H156.844ZM157.785 14.991C158.428 16.2574 159.335 17.3349 160.62 17.8606L161.931 14.6558C161.693 14.5582 161.301 14.268 160.872 13.4223L157.785 14.991ZM161.276 17.9895H161.873V14.5269H161.276V17.9895Z" fill="#E3DFC5"/>
</svg>
