<svg width="228" height="37" viewBox="0 0 228 37" fill="none" xmlns="http://www.w3.org/2000/svg">
<mask id="path-1-outside-1_97_53" maskUnits="userSpaceOnUse" x="-4.26807" y="2.02838" width="45" height="35" fill="black">
<rect fill="white" x="-4.26807" y="2.02838" width="45" height="35"/>
<path fill-rule="evenodd" clip-rule="evenodd" d="M7.77388 5.1862L0.731934 11.3599H11.422L7.77388 5.1862ZM1.52504 12.8948L16.8405 31.1252L12.1293 12.8948H1.52504ZM18.9675 31.3284L34.4071 12.8948H23.7312L18.9675 31.3284ZM35.1978 11.3599L28.1176 5.13389L24.4386 11.3599H35.1978ZM26.3971 5.02838H19.7267L23.0619 10.6725L26.3971 5.02838ZM17.9167 5.02838H17.9438L21.6852 11.3599H14.1754L17.9167 5.02838ZM16.1339 5.02838H9.46349L12.7987 10.6725L16.1339 5.02838ZM22.1459 12.8948L17.9303 29.2075L13.7147 12.8948H22.1459Z"/>
</mask>
<path fill-rule="evenodd" clip-rule="evenodd" d="M7.77388 5.1862L0.731934 11.3599H11.422L7.77388 5.1862ZM1.52504 12.8948L16.8405 31.1252L12.1293 12.8948H1.52504ZM18.9675 31.3284L34.4071 12.8948H23.7312L18.9675 31.3284ZM35.1978 11.3599L28.1176 5.13389L24.4386 11.3599H35.1978ZM26.3971 5.02838H19.7267L23.0619 10.6725L26.3971 5.02838ZM17.9167 5.02838H17.9438L21.6852 11.3599H14.1754L17.9167 5.02838ZM16.1339 5.02838H9.46349L12.7987 10.6725L16.1339 5.02838ZM22.1459 12.8948L17.9303 29.2075L13.7147 12.8948H22.1459Z" fill="#551018"/>
<path d="M7.77388 5.1862L9.26438 4.30544L8.20234 2.50815L6.63257 3.88438L7.77388 5.1862ZM0.731934 11.3599L-0.409376 10.0581L-3.86904 13.0912H0.731934V11.3599ZM11.422 11.3599V13.0912H14.456L12.9125 10.4791L11.422 11.3599ZM1.52504 12.8948V11.1635H-2.19057L0.199465 14.0084L1.52504 12.8948ZM16.8405 31.1252L15.5149 32.2388L18.5167 30.692L16.8405 31.1252ZM12.1293 12.8948L13.8055 12.4616L13.4701 11.1635H12.1293V12.8948ZM18.9675 31.3284L17.2913 30.8952L20.2947 32.4401L18.9675 31.3284ZM34.4071 12.8948L35.7343 14.0065L38.1155 11.1635H34.4071V12.8948ZM23.7312 12.8948V11.1635H22.3905L22.055 12.4616L23.7312 12.8948ZM35.1978 11.3599V13.0912H39.7884L36.3411 10.0598L35.1978 11.3599ZM28.1176 5.13389L29.2608 3.83378L27.6907 2.45312L26.6271 4.25314L28.1176 5.13389ZM24.4386 11.3599L22.9481 10.4791L21.4046 13.0912H24.4386V11.3599ZM26.3971 5.02838L27.8876 5.90914L29.431 3.2971H26.3971V5.02838ZM19.7267 5.02838V3.2971H16.6927L18.2362 5.90914L19.7267 5.02838ZM23.0619 10.6725L21.5714 11.5533L23.0619 14.0756L24.5524 11.5533L23.0619 10.6725ZM17.9438 5.02838L19.4343 4.14763L18.9317 3.2971H17.9438V5.02838ZM17.9167 5.02838V3.2971H16.9288L16.4262 4.14763L17.9167 5.02838ZM21.6852 11.3599V13.0912H24.7192L23.1757 10.4791L21.6852 11.3599ZM14.1754 11.3599L12.6849 10.4791L11.1414 13.0912H14.1754V11.3599ZM16.1339 5.02838L17.6244 5.90914L19.1678 3.2971H16.1339V5.02838ZM9.46349 5.02838V3.2971H6.4295L7.97298 5.90914L9.46349 5.02838ZM12.7987 10.6725L11.3082 11.5533L12.7987 14.0757L14.2892 11.5533L12.7987 10.6725ZM17.9303 29.2075L16.2541 29.6407L17.9303 36.1269L19.6065 29.6407L17.9303 29.2075ZM22.1459 12.8948L23.8221 13.328L24.3814 11.1635H22.1459V12.8948ZM13.7147 12.8948V11.1635H11.4791L12.0385 13.328L13.7147 12.8948ZM6.63257 3.88438L-0.409376 10.0581L1.87324 12.6617L8.91519 6.48802L6.63257 3.88438ZM0.731934 13.0912H11.422V9.62862H0.731934V13.0912ZM12.9125 10.4791L9.26438 4.30544L6.28338 6.06695L9.93149 12.2406L12.9125 10.4791ZM0.199465 14.0084L15.5149 32.2388L18.1661 30.0115L2.85062 11.7812L0.199465 14.0084ZM18.5167 30.692L13.8055 12.4616L10.4531 13.328L15.1643 31.5583L18.5167 30.692ZM12.1293 11.1635H1.52504V14.6261H12.1293V11.1635ZM20.2947 32.4401L35.7343 14.0065L33.0799 11.7831L17.6403 30.2168L20.2947 32.4401ZM34.4071 11.1635H23.7312V14.6261H34.4071V11.1635ZM22.055 12.4616L17.2913 30.8952L20.6437 31.7616L25.4074 13.328L22.055 12.4616ZM36.3411 10.0598L29.2608 3.83378L26.9743 6.43401L34.0546 12.66L36.3411 10.0598ZM26.6271 4.25314L22.9481 10.4791L25.9291 12.2406L29.6081 6.01465L26.6271 4.25314ZM24.4386 13.0912H35.1978V9.62862H24.4386V13.0912ZM26.3971 3.2971H19.7267V6.75966H26.3971V3.2971ZM18.2362 5.90914L21.5714 11.5533L24.5524 9.79176L21.2172 4.14763L18.2362 5.90914ZM24.5524 11.5533L27.8876 5.90914L24.9066 4.14763L21.5714 9.79176L24.5524 11.5533ZM17.9438 3.2971H17.9167V6.75966H17.9438V3.2971ZM23.1757 10.4791L19.4343 4.14763L16.4533 5.90914L20.1947 12.2406L23.1757 10.4791ZM14.1754 13.0912H21.6852V9.62862H14.1754V13.0912ZM16.4262 4.14763L12.6849 10.4791L15.6659 12.2406L19.4072 5.90914L16.4262 4.14763ZM16.1339 3.2971H9.46349V6.75966H16.1339V3.2971ZM7.97298 5.90914L11.3082 11.5533L14.2892 9.79177L10.954 4.14763L7.97298 5.90914ZM14.2892 11.5533L17.6244 5.90914L14.6434 4.14763L11.3082 9.79177L14.2892 11.5533ZM19.6065 29.6407L23.8221 13.328L20.4697 12.4616L16.2541 28.7743L19.6065 29.6407ZM12.0385 13.328L16.2541 29.6407L19.6065 28.7743L15.3909 12.4616L12.0385 13.328ZM22.1459 11.1635H13.7147V14.6261H22.1459V11.1635Z" fill="#E3DFC5" mask="url(#path-1-outside-1_97_53)"/>
<path d="M49.8009 14.5442L47.8273 12.4407V9.06473H45.6978V26.1784H43.5943V9.06473H41.4389V14.5442L39.4392 16.6477V8.4155H49.8009V14.5442ZM59.2793 12.1551C59.2793 13.592 58.8897 14.9164 58.1107 16.1283C57.2277 17.5134 56.111 18.2059 54.7606 18.2059H53.9296V26.1784H51.8781V8.4155H56.968C57.3835 8.4155 57.799 8.51072 58.2145 8.70116C58.6993 8.92623 58.9676 9.22054 59.0196 9.58411C59.1927 10.9345 59.2793 11.7915 59.2793 12.1551ZM57.2277 12.181C57.2277 11.5751 57.1411 10.5363 56.968 9.06473H53.9296V17.5566H54.5269C55.2887 17.245 55.9466 16.4659 56.5006 15.2194C56.9853 14.1287 57.2277 13.1159 57.2277 12.181ZM68.7901 26.1784H61.3629V20.9586L63.4144 23.0621V25.5292H66.7125V18.4396H66.6866C66.3576 18.4396 65.8642 18.5694 65.2063 18.8291H64.9986C64.7043 18.7772 64.1935 18.6473 63.4664 18.4396C62.0641 17.9722 61.3629 16.4227 61.3629 13.7911V8.4155H63.4144V13.9729C63.4144 15.1502 63.501 16.0245 63.6741 16.5958C63.9338 17.4268 64.4099 17.9895 65.1024 18.2838C66.1931 17.8163 66.7385 16.665 66.7385 14.8299V8.4155H68.7901V26.1784ZM78.8854 14.5442L76.7559 12.4407V9.06473H73.4578V16.2582H74.0551C74.107 16.2582 74.1763 16.2495 74.2629 16.2322H74.5745C74.7822 16.2322 75.0333 16.2582 75.3276 16.3101C75.4315 16.3274 75.4834 16.3447 75.4834 16.3621C75.9162 16.414 76.3577 16.6218 76.8078 16.9853C78.1409 18.076 78.8075 19.79 78.8075 22.1272V25.2695C78.8075 25.5811 78.5305 25.8235 77.9765 25.9966C77.5783 26.1178 77.1714 26.1784 76.7559 26.1784H71.4063V8.4155H78.8854V14.5442ZM76.7299 22.1532C76.7299 20.4392 76.2365 18.9763 75.2497 17.7644C74.9207 17.3489 74.5918 17.0632 74.2629 16.9074H73.4319V25.5292H76.7299V22.1532ZM88.6214 26.1784H86.5698V22.1532C86.5698 20.872 86.2755 19.7034 85.6869 18.6473C85.2021 17.7644 84.6741 17.1844 84.1027 16.9074H83.2717V26.1784H81.2202V8.4155H83.2717V16.2582H83.869C84.6654 15.9292 85.3319 15.2454 85.8686 14.2066C86.3361 13.2717 86.5698 12.3368 86.5698 11.402V8.4155H88.6214V11.376C88.6214 12.5359 88.353 13.592 87.8163 14.5442C87.1931 15.6522 86.3447 16.2582 85.2714 16.3621C86.3967 16.5006 87.2623 17.245 87.8683 18.5954C88.3703 19.6688 88.6214 20.8461 88.6214 22.1272V26.1784ZM100.23 17.1152C100.23 17.7557 99.6236 18.1972 98.4117 18.4396V25.0358L99.8141 26.1784H94.9579L96.3342 25.0358V20.4652L93.0102 23.7373V26.1784H90.9586V17.1411C90.9586 14.8385 91.6425 13.0467 93.0102 11.7655C93.9624 10.8653 95.0704 10.3112 96.3342 10.1035V9.27248L94.9579 8.4155H99.8141L98.4117 9.27248V15.8946C99.6236 16.137 100.23 16.5438 100.23 17.1152ZM96.3342 19.1927V18.4656C95.2089 18.2232 94.6462 17.7904 94.6462 17.1671C94.6462 16.5612 95.2089 16.137 96.3342 15.8946V11.1423C95.0531 11.1423 94.1355 11.8781 93.5815 13.3496C93.2006 14.3711 93.0102 15.6436 93.0102 17.1671V22.5687L96.3342 19.1927ZM120.887 10.4411L120.784 11.376C120.645 12.5533 120.342 13.5834 119.875 14.4663C119.251 15.6263 118.438 16.2582 117.434 16.3621C118.317 16.4659 119.096 17.0026 119.771 17.9722C120.55 19.0975 120.887 20.4825 120.784 22.1272L120.732 23.0102H118.68V22.283L118.706 22.4908C118.723 22.56 118.732 22.4475 118.732 22.1532C118.732 20.872 118.438 19.7034 117.849 18.6473C117.364 17.7644 116.836 17.1844 116.265 16.9074H115.434V16.2582H116.031C116.776 15.9466 117.408 15.254 117.927 14.1807C118.36 13.2977 118.628 12.3715 118.732 11.402L118.836 10.4411H120.887ZM116.239 10.3372L116.135 11.2721C115.997 12.4494 115.694 13.4795 115.226 14.3624C114.603 15.5224 113.789 16.1543 112.785 16.2582C113.668 16.3621 114.447 16.8988 115.122 17.8683C115.901 18.9936 116.239 20.3786 116.135 22.0233L116.083 22.9063H114.032V22.1792L114.058 22.3869C114.075 22.4562 114.084 22.3436 114.084 22.0493C114.084 20.7682 113.789 19.5996 113.201 18.5435C112.716 17.6605 112.188 17.0805 111.616 16.8035H110.785V16.1543H111.383C112.127 15.8427 112.759 15.1502 113.278 14.0768C113.711 13.1938 113.98 12.2676 114.084 11.2981L114.187 10.3372H116.239ZM133.918 16.5958C133.918 21.7204 133.182 24.8107 131.711 25.8668C131.537 25.988 131.243 26.1092 130.828 26.2303C130.412 26.3515 130.118 26.4814 129.945 26.6199H129.737C129.564 26.4814 129.269 26.3515 128.854 26.2303C128.438 26.1092 128.144 25.988 127.971 25.8668C127.071 25.2262 126.413 23.7806 125.997 21.5299C125.703 19.9371 125.556 18.2838 125.556 16.5698C125.556 11.8781 126.491 9.15995 128.36 8.4155H129.14C129.469 8.4155 129.702 8.25103 129.841 7.92208C129.979 8.25103 130.213 8.4155 130.542 8.4155H131.321C133.052 9.10801 133.918 11.8348 133.918 16.5958ZM131.866 16.5698C131.884 13.5574 131.607 11.4712 131.035 10.3112C130.793 9.82649 130.395 9.43695 129.841 9.14264C129.235 9.43695 128.785 9.91305 128.49 10.5709C128.283 10.9864 128.092 11.6357 127.919 12.5186C127.711 13.5574 127.607 14.8905 127.607 16.5179C127.607 18.2145 127.746 19.8073 128.023 21.2962C128.404 23.4257 129.01 24.8453 129.841 25.5551C131.174 24.4125 131.849 21.4174 131.866 16.5698ZM133.918 16.5958C133.918 21.7204 133.182 24.8107 131.711 25.8668C131.537 25.988 131.243 26.1092 130.828 26.2303C130.412 26.3515 130.118 26.4814 129.945 26.6199H129.737C129.564 26.4814 129.269 26.3515 128.854 26.2303C128.438 26.1092 128.144 25.988 127.971 25.8668C126.517 24.8107 125.712 21.9714 125.556 17.3489L124.128 17.5826V26.1784H122.076V8.4155H124.128V16.2842L125.556 16.0504C125.625 11.6703 126.56 9.12532 128.36 8.4155H129.14C129.469 8.4155 129.702 8.25103 129.841 7.92208C129.979 8.25103 130.213 8.4155 130.542 8.4155H131.321C133.052 9.10801 133.918 11.8348 133.918 16.5958ZM131.866 16.5698C131.884 13.5574 131.607 11.4712 131.035 10.3112C130.793 9.82649 130.395 9.43695 129.841 9.14264C129.235 9.43695 128.785 9.91305 128.49 10.5709C128.283 10.9864 128.092 11.6357 127.919 12.5186C127.711 13.5574 127.607 14.8905 127.607 16.5179C127.607 18.2145 127.746 19.8073 128.023 21.2962C128.404 23.4257 129.01 24.8453 129.841 25.5551C131.174 24.4125 131.849 21.4174 131.866 16.5698ZM143.504 14.5442L141.374 12.4407V9.06473H138.076V16.2582H138.674C138.726 16.2582 138.795 16.2495 138.881 16.2322H139.193C139.401 16.2322 139.652 16.2582 139.946 16.3101C140.05 16.3274 140.102 16.3447 140.102 16.3621C140.535 16.414 140.976 16.6218 141.426 16.9853C142.76 18.076 143.426 19.79 143.426 22.1272V25.2695C143.426 25.5811 143.149 25.8235 142.595 25.9966C142.197 26.1178 141.79 26.1784 141.374 26.1784H136.025V8.4155H143.504V14.5442ZM141.349 22.1532C141.349 20.4392 140.855 18.9763 139.868 17.7644C139.539 17.3489 139.21 17.0632 138.881 16.9074H138.05V25.5292H141.349V22.1532ZM153.396 26.1784H151.344V14.9597L147.89 19.3485V26.1784H145.839V8.4155H147.89V17.9202L151.344 13.5055V8.4155H153.396V26.1784ZM165.254 17.1152C165.254 17.7557 164.648 18.1972 163.436 18.4396V25.0358L164.838 26.1784H159.982L161.359 25.0358V18.4656C160.233 18.2232 159.671 17.7904 159.671 17.1671C159.671 16.5612 160.233 16.137 161.359 15.8946V11.1423C160.077 11.1423 159.16 11.8781 158.606 13.3496C158.225 14.3711 158.035 15.6436 158.035 17.1671V26.1784H155.983V17.1411C155.983 14.8385 156.667 13.0467 158.035 11.7655C158.987 10.8653 160.095 10.3112 161.359 10.1035V9.27248L159.982 8.4155H164.838L163.436 9.27248V15.8946C164.648 16.137 165.254 16.5438 165.254 17.1152ZM174.494 26.1784H166.989V8.4155H174.494V14.5442L172.365 12.4407V9.06473H169.067V16.0764H171.067C171.586 16.0764 172.062 16.3188 172.495 16.8035C172.876 17.2364 173.144 17.7298 173.3 18.2838H171.378C171.378 17.9029 171.222 17.548 170.911 17.219C170.616 16.8901 170.279 16.7256 169.898 16.7256H169.067V25.5292H172.365V22.1532L174.494 20.0497V26.1784ZM182.329 6.77944H179.264V5.40308H182.329V6.77944ZM184.64 26.1784H182.588V14.9597L179.134 19.3485V26.1784H177.083V8.4155H179.134V17.9202L182.588 13.5055V8.4155H184.64V26.1784ZM194.784 26.1784H192.733V15.6869L189.279 16.9074V26.1784H187.227V8.4155H189.279V15.7388L192.733 14.4923V8.4155H194.784V26.1784ZM206.642 17.1152C206.642 17.7557 206.036 18.1972 204.824 18.4396V25.0358L206.227 26.1784H201.371L202.747 25.0358V20.4652L199.423 23.7373V26.1784H197.371V17.1411C197.371 14.8385 198.055 13.0467 199.423 11.7655C200.375 10.8653 201.483 10.3112 202.747 10.1035V9.27248L201.371 8.4155H206.227L204.824 9.27248V15.8946C206.036 16.137 206.642 16.5438 206.642 17.1152ZM202.747 19.1927V18.4656C201.622 18.2232 201.059 17.7904 201.059 17.1671C201.059 16.5612 201.622 16.137 202.747 15.8946V11.1423C201.466 11.1423 200.548 11.8781 199.994 13.3496C199.613 14.3711 199.423 15.6436 199.423 17.1671V22.5687L202.747 19.1927ZM215.779 26.1784H213.727V16.9074H212.896C212.36 17.1671 211.832 17.8336 211.312 18.907C210.724 20.1189 210.429 21.3741 210.429 22.6726V26.1784H208.378V22.6466C208.378 21.3655 208.629 20.1103 209.131 18.8811C209.771 17.3402 210.637 16.5006 211.728 16.3621C210.81 16.2582 210.005 15.6176 209.313 14.4403C208.689 13.3843 208.378 12.3628 208.378 11.376C208.378 11.099 208.438 10.5796 208.56 9.81783C208.611 9.43695 208.88 9.09935 209.365 8.80504C209.78 8.54534 210.196 8.4155 210.611 8.4155H215.779V26.1784ZM213.727 16.2582V9.06473H210.611C210.49 10.0516 210.429 10.8306 210.429 11.402C210.429 12.2849 210.68 13.2198 211.182 14.2066C211.719 15.2627 212.368 15.9466 213.13 16.2582H213.727ZM227.173 16.8035H226.342C225.771 17.0805 225.243 17.6605 224.758 18.5435C224.17 19.5996 223.875 20.7682 223.875 22.0493C223.875 22.3436 223.884 22.4562 223.901 22.3869L223.927 22.1792V22.9063H221.876L221.824 22.0233C221.72 20.3786 222.057 18.9936 222.837 17.8683C223.512 16.8988 224.291 16.3621 225.174 16.2582C224.17 16.1543 223.356 15.5224 222.733 14.3624C222.265 13.4795 221.962 12.4494 221.824 11.2721L221.72 10.3372H223.771L223.875 11.2981C223.979 12.2676 224.247 13.1938 224.68 14.0768C225.2 15.1502 225.832 15.8427 226.576 16.1543H227.173V16.8035ZM222.525 16.9074H221.694C221.123 17.1844 220.594 17.7644 220.11 18.6473C219.521 19.7034 219.227 20.872 219.227 22.1532C219.227 22.4475 219.235 22.56 219.253 22.4908L219.279 22.283V23.0102H217.227L217.175 22.1272C217.071 20.4825 217.409 19.0975 218.188 17.9722C218.863 17.0026 219.642 16.4659 220.525 16.3621C219.521 16.2582 218.707 15.6263 218.084 14.4663C217.617 13.5834 217.314 12.5533 217.175 11.376L217.071 10.4411H219.123L219.227 11.402C219.331 12.3715 219.599 13.2977 220.032 14.1807C220.551 15.254 221.183 15.9466 221.928 16.2582H222.525V16.9074Z" fill="#551018"/>
<path d="M49.8009 14.5442L48.5384 15.7288L51.5322 18.9196V14.5442H49.8009ZM47.8273 12.4407H46.096V13.1258L46.5647 13.6253L47.8273 12.4407ZM47.8273 9.06473H49.5585V7.33345H47.8273V9.06473ZM45.6978 9.06473V7.33345H43.9665V9.06473H45.6978ZM45.6978 26.1784V27.9097H47.4291V26.1784H45.6978ZM43.5943 26.1784H41.863V27.9097H43.5943V26.1784ZM43.5943 9.06473H45.3256V7.33345H43.5943V9.06473ZM41.4389 9.06473V7.33345H39.7076V9.06473H41.4389ZM41.4389 14.5442L42.6936 15.737L43.1701 15.2358V14.5442H41.4389ZM39.4392 16.6477H37.708V20.9817L40.694 17.8405L39.4392 16.6477ZM39.4392 8.4155V6.68422H37.708V8.4155H39.4392ZM49.8009 8.4155H51.5322V6.68422H49.8009V8.4155ZM51.0635 13.3596L49.0898 11.2561L46.5647 13.6253L48.5384 15.7288L51.0635 13.3596ZM49.5585 12.4407V9.06473H46.096V12.4407H49.5585ZM47.8273 7.33345H45.6978V10.796H47.8273V7.33345ZM43.9665 9.06473V26.1784H47.4291V9.06473H43.9665ZM45.6978 24.4471H43.5943V27.9097H45.6978V24.4471ZM45.3256 26.1784V9.06473H41.863V26.1784H45.3256ZM43.5943 7.33345H41.4389V10.796H43.5943V7.33345ZM39.7076 9.06473V14.5442H43.1701V9.06473H39.7076ZM40.1841 13.3514L38.1844 15.4549L40.694 17.8405L42.6936 15.737L40.1841 13.3514ZM41.1705 16.6477V8.4155H37.708V16.6477H41.1705ZM39.4392 10.1468H49.8009V6.68422H39.4392V10.1468ZM48.0696 8.4155V14.5442H51.5322V8.4155H48.0696ZM58.1107 16.1283L56.6543 15.1921L56.6508 15.1977L58.1107 16.1283ZM53.9296 18.2059V16.4746H52.1983V18.2059H53.9296ZM53.9296 26.1784V27.9097H55.6609V26.1784H53.9296ZM51.8781 26.1784H50.1468V27.9097H51.8781V26.1784ZM51.8781 8.4155V6.68422H50.1468V8.4155H51.8781ZM58.2145 8.70116L58.9436 7.13086L58.9359 7.12731L58.2145 8.70116ZM59.0196 9.58411L60.7368 9.36395L60.7352 9.3516L60.7335 9.33927L59.0196 9.58411ZM56.968 9.06473L58.6874 8.86244L58.5075 7.33345H56.968V9.06473ZM53.9296 9.06473V7.33345H52.1983V9.06473H53.9296ZM53.9296 17.5566H52.1983V19.2879H53.9296V17.5566ZM54.5269 17.5566V19.2879H54.8673L55.1824 19.159L54.5269 17.5566ZM56.5006 15.2194L58.0826 15.9226V15.9226L56.5006 15.2194ZM57.548 12.1551C57.548 13.2591 57.2544 14.2587 56.6543 15.1921L59.567 17.0645C60.5251 15.5742 61.0105 13.9249 61.0105 12.1551H57.548ZM56.6508 15.1977C56.0064 16.2084 55.3857 16.4746 54.7606 16.4746V19.9372C56.8363 19.9372 58.449 18.8183 59.5705 17.059L56.6508 15.1977ZM54.7606 16.4746H53.9296V19.9372H54.7606V16.4746ZM52.1983 18.2059V26.1784H55.6609V18.2059H52.1983ZM53.9296 24.4471H51.8781V27.9097H53.9296V24.4471ZM53.6093 26.1784V8.4155H50.1468V26.1784H53.6093ZM51.8781 10.1468H56.968V6.68422H51.8781V10.1468ZM56.968 10.1468C57.1106 10.1468 57.2812 10.1778 57.4932 10.275L58.9359 7.12731C58.3169 6.84362 57.6565 6.68422 56.968 6.68422V10.1468ZM57.4855 10.2714C57.5867 10.3184 57.5638 10.3271 57.5 10.2572C57.4654 10.2192 57.4219 10.1613 57.3834 10.0822C57.3444 10.0021 57.3181 9.91549 57.3057 9.82895L60.7335 9.33927C60.5649 8.15954 59.6993 7.48172 58.9436 7.13087L57.4855 10.2714ZM57.3024 9.80427C57.4801 11.1908 57.548 11.9258 57.548 12.1551H61.0105C61.0105 11.6572 60.9053 10.6782 60.7368 9.36395L57.3024 9.80427ZM58.959 12.181C58.959 11.4626 58.8604 10.3329 58.6874 8.86244L55.2486 9.26701C55.4219 10.7398 55.4964 11.6876 55.4964 12.181H58.959ZM56.968 7.33345H53.9296V10.796H56.968V7.33345ZM52.1983 9.06473V17.5566H55.6609V9.06473H52.1983ZM53.9296 19.2879H54.5269V15.8254H53.9296V19.2879ZM55.1824 19.159C56.5571 18.5966 57.4596 17.3244 58.0826 15.9226L54.9185 14.5163C54.4335 15.6074 54.0202 15.8934 53.8714 15.9543L55.1824 19.159ZM58.0826 15.9226C58.6396 14.6695 58.959 13.4153 58.959 12.181H55.4964C55.4964 12.8165 55.3311 13.588 54.9185 14.5163L58.0826 15.9226ZM68.7901 26.1784V27.9097H70.5213V26.1784H68.7901ZM61.3629 26.1784H59.6316V27.9097H61.3629V26.1784ZM61.3629 20.9586L62.6023 19.7498L59.6316 16.7039V20.9586H61.3629ZM63.4144 23.0621H65.1457V22.3576L64.6539 21.8533L63.4144 23.0621ZM63.4144 25.5292H61.6832V27.2605H63.4144V25.5292ZM66.7125 25.5292V27.2605H68.4438V25.5292H66.7125ZM66.7125 18.4396H68.4438V16.7083H66.7125V18.4396ZM65.2063 18.8291V20.5604H65.5357L65.842 20.4395L65.2063 18.8291ZM64.9986 18.8291L64.6977 20.5341L64.847 20.5604H64.9986V18.8291ZM63.4664 18.4396L62.9189 20.082L62.9546 20.0939L62.9908 20.1043L63.4664 18.4396ZM61.3629 8.4155V6.68422H59.6316V8.4155H61.3629ZM63.4144 8.4155H65.1457V6.68422H63.4144V8.4155ZM63.6741 16.5958L62.0173 17.0979L62.0194 17.105L62.0217 17.1122L63.6741 16.5958ZM65.1024 18.2838L64.4253 19.8771L65.1053 20.1661L65.7844 19.8751L65.1024 18.2838ZM66.7385 8.4155V6.68422H65.0072V8.4155H66.7385ZM68.7901 8.4155H70.5213V6.68422H68.7901V8.4155ZM68.7901 24.4471H61.3629V27.9097H68.7901V24.4471ZM63.0942 26.1784V20.9586H59.6316V26.1784H63.0942ZM60.1235 22.1674L62.175 24.2709L64.6539 21.8533L62.6023 19.7498L60.1235 22.1674ZM61.6832 23.0621V25.5292H65.1457V23.0621H61.6832ZM63.4144 27.2605H66.7125V23.7979H63.4144V27.2605ZM68.4438 25.5292V18.4396H64.9813V25.5292H68.4438ZM66.7125 16.7083H66.6866V20.1709H66.7125V16.7083ZM66.6866 16.7083C66.0069 16.7083 65.2519 16.9499 64.5707 17.2188L65.842 20.4395C66.1296 20.326 66.3497 20.2535 66.5104 20.2113C66.683 20.1658 66.7288 20.1709 66.6866 20.1709V16.7083ZM65.2063 17.0979H64.9986V20.5604H65.2063V17.0979ZM65.2994 17.1242C65.1041 17.0897 64.6724 16.9836 63.942 16.7749L62.9908 20.1043C63.7146 20.3111 64.3044 20.4647 64.6977 20.5341L65.2994 17.1242ZM64.0139 16.7972C63.7793 16.719 63.0942 16.32 63.0942 13.7911H59.6316C59.6316 16.5253 60.3488 19.2253 62.9189 20.082L64.0139 16.7972ZM63.0942 13.7911V8.4155H59.6316V13.7911H63.0942ZM61.3629 10.1468H63.4144V6.68422H61.3629V10.1468ZM61.6832 8.4155V13.9729H65.1457V8.4155H61.6832ZM61.6832 13.9729C61.6832 15.1888 61.7674 16.2733 62.0173 17.0979L65.331 16.0937C65.2346 15.7756 65.1457 15.1115 65.1457 13.9729H61.6832ZM62.0217 17.1122C62.4064 18.3432 63.1896 19.352 64.4253 19.8771L65.7796 16.6904C65.6303 16.627 65.4613 16.5104 65.3266 16.0794L62.0217 17.1122ZM65.7844 19.8751C67.8298 18.9985 68.4698 16.9288 68.4698 14.8299H65.0072C65.0072 16.4013 64.5565 16.6342 64.4205 16.6925L65.7844 19.8751ZM68.4698 14.8299V8.4155H65.0072V14.8299H68.4698ZM66.7385 10.1468H68.7901V6.68422H66.7385V10.1468ZM67.0588 8.4155V26.1784H70.5213V8.4155H67.0588ZM78.8854 14.5442L77.6687 15.7759L80.6167 18.6879V14.5442H78.8854ZM76.7559 12.4407H75.0246V13.1641L75.5392 13.6724L76.7559 12.4407ZM76.7559 9.06473H78.4872V7.33345H76.7559V9.06473ZM73.4578 9.06473V7.33345H71.7265V9.06473H73.4578ZM73.4578 16.2582H71.7265V17.9895H73.4578V16.2582ZM74.2629 16.2322V14.5009H74.0914L73.9233 14.5346L74.2629 16.2322ZM75.3276 16.3101L75.0267 18.0151L75.0348 18.0165L75.043 18.0178L75.3276 16.3101ZM75.4834 16.3621H73.7521V17.898L75.2771 18.081L75.4834 16.3621ZM76.8078 16.9853L77.9042 15.6454L77.8957 15.6385L76.8078 16.9853ZM77.9765 25.9966L78.4805 27.6529L78.4929 27.6491L77.9765 25.9966ZM71.4063 26.1784H69.675V27.9097H71.4063V26.1784ZM71.4063 8.4155V6.68422H69.675V8.4155H71.4063ZM78.8854 8.4155H80.6167V6.68422H78.8854V8.4155ZM75.2497 17.7644L73.8923 18.839L73.8997 18.8483L73.9072 18.8576L75.2497 17.7644ZM74.2629 16.9074L75.004 15.3428L74.6522 15.1761H74.2629V16.9074ZM73.4319 16.9074V15.1761H71.7006V16.9074H73.4319ZM73.4319 25.5292H71.7006V27.2605H73.4319V25.5292ZM76.7299 25.5292V27.2605H78.4612V25.5292H76.7299ZM80.102 13.3125L77.9726 11.209L75.5392 13.6724L77.6687 15.7759L80.102 13.3125ZM78.4872 12.4407V9.06473H75.0246V12.4407H78.4872ZM76.7559 7.33345H73.4578V10.796H76.7559V7.33345ZM71.7265 9.06473V16.2582H75.1891V9.06473H71.7265ZM73.4578 17.9895H74.0551V14.5269H73.4578V17.9895ZM74.0551 17.9895C74.2729 17.9895 74.4699 17.9564 74.6024 17.9299L73.9233 14.5346C73.9111 14.537 73.9148 14.5358 73.9313 14.5338C73.9454 14.532 73.9897 14.5269 74.0551 14.5269V17.9895ZM74.2629 17.9635H74.5745V14.5009H74.2629V17.9635ZM74.5745 17.9635C74.6482 17.9635 74.7926 17.9737 75.0267 18.0151L75.6285 14.6052C75.274 14.5426 74.9163 14.5009 74.5745 14.5009V17.9635ZM75.043 18.0178C75.0713 18.0226 75.0026 18.0137 74.897 17.9785C74.856 17.9649 74.6962 17.9115 74.5133 17.7896C74.4192 17.7268 74.2517 17.602 74.096 17.3943C73.9299 17.1729 73.7521 16.8196 73.7521 16.3621H77.2147C77.2147 15.4387 76.5451 14.9826 76.434 14.9086C76.2382 14.778 76.0589 14.716 75.9919 14.6937C75.8344 14.6411 75.6878 14.615 75.6122 14.6024L75.043 18.0178ZM75.2771 18.081C75.2974 18.0834 75.4421 18.1077 75.72 18.3322L77.8957 15.6385C77.2733 15.1358 76.5351 14.7446 75.6897 14.6431L75.2771 18.081ZM75.7115 18.3253C76.5119 18.9801 77.0762 20.1126 77.0762 22.1272H80.5387C80.5387 19.4674 79.7699 17.1719 77.9042 15.6454L75.7115 18.3253ZM77.0762 22.1272V25.2695H80.5387V22.1272H77.0762ZM77.0762 25.2695C77.0762 25.0804 77.1207 24.8887 77.207 24.716C77.29 24.5501 77.391 24.4421 77.4597 24.3821C77.5769 24.2795 77.6253 24.2925 77.4601 24.3442L78.4929 27.6491C78.8816 27.5276 79.3456 27.3329 79.7398 26.9879C80.1792 26.6034 80.5387 26.016 80.5387 25.2695H77.0762ZM77.4724 24.3404C77.2373 24.4119 77.0003 24.4471 76.7559 24.4471V27.9097C77.3425 27.9097 77.9192 27.8237 78.4805 27.6529L77.4724 24.3404ZM76.7559 24.4471H71.4063V27.9097H76.7559V24.4471ZM73.1375 26.1784V8.4155H69.675V26.1784H73.1375ZM71.4063 10.1468H78.8854V6.68422H71.4063V10.1468ZM77.1541 8.4155V14.5442H80.6167V8.4155H77.1541ZM78.4612 22.1532C78.4612 20.0821 77.8553 18.2224 76.5922 16.6712L73.9072 18.8576C74.6178 19.7302 74.9987 20.7964 74.9987 22.1532H78.4612ZM76.6071 16.6898C76.1827 16.1538 75.6575 15.6523 75.004 15.3428L73.5217 18.472C73.519 18.4707 73.553 18.4866 73.6211 18.5457C73.6893 18.6049 73.7808 18.6981 73.8923 18.839L76.6071 16.6898ZM74.2629 15.1761H73.4319V18.6387H74.2629V15.1761ZM71.7006 16.9074V25.5292H75.1631V16.9074H71.7006ZM73.4319 27.2605H76.7299V23.7979H73.4319V27.2605ZM78.4612 25.5292V22.1532H74.9987V25.5292H78.4612ZM88.6214 26.1784V27.9097H90.3527V26.1784H88.6214ZM86.5698 26.1784H84.8385V27.9097H86.5698V26.1784ZM85.6869 18.6473L84.1692 19.4806L84.1746 19.4902L85.6869 18.6473ZM84.1027 16.9074L84.8581 15.3496L84.5003 15.1761H84.1027V16.9074ZM83.2717 16.9074V15.1761H81.5405V16.9074H83.2717ZM83.2717 26.1784V27.9097H85.003V26.1784H83.2717ZM81.2202 26.1784H79.4889V27.9097H81.2202V26.1784ZM81.2202 8.4155V6.68422H79.4889V8.4155H81.2202ZM83.2717 8.4155H85.003V6.68422H83.2717V8.4155ZM83.2717 16.2582H81.5405V17.9895H83.2717V16.2582ZM83.869 16.2582V17.9895H84.2125L84.53 17.8583L83.869 16.2582ZM85.8686 14.2066L87.4068 15.0013L87.412 14.9911L87.4171 14.9809L85.8686 14.2066ZM86.5698 8.4155V6.68422H84.8385V8.4155H86.5698ZM88.6214 8.4155H90.3527V6.68422H88.6214V8.4155ZM87.8163 14.5442L86.3081 13.6941L86.3074 13.6954L87.8163 14.5442ZM85.2714 16.3621L85.1046 14.6388L85.0599 18.0804L85.2714 16.3621ZM87.8683 18.5954L86.2887 19.3042L86.2943 19.3166L86.3001 19.3289L87.8683 18.5954ZM88.6214 24.4471H86.5698V27.9097H88.6214V24.4471ZM88.3011 26.1784V22.1532H84.8385V26.1784H88.3011ZM88.3011 22.1532C88.3011 20.5952 87.94 19.1337 87.1991 17.8045L84.1746 19.4902C84.611 20.2732 84.8385 21.1489 84.8385 22.1532H88.3011ZM87.2045 17.8142C86.6405 16.7869 85.8918 15.8508 84.8581 15.3496L83.3474 18.4652C83.4563 18.518 83.7637 18.7419 84.1693 19.4805L87.2045 17.8142ZM84.1027 15.1761H83.2717V18.6387H84.1027V15.1761ZM81.5405 16.9074V26.1784H85.003V16.9074H81.5405ZM83.2717 24.4471H81.2202V27.9097H83.2717V24.4471ZM82.9514 26.1784V8.4155H79.4889V26.1784H82.9514ZM81.2202 10.1468H83.2717V6.68422H81.2202V10.1468ZM81.5405 8.4155V16.2582H85.003V8.4155H81.5405ZM83.2717 17.9895H83.869V14.5269H83.2717V17.9895ZM84.53 17.8583C85.8211 17.325 86.7493 16.2737 87.4068 15.0013L84.3305 13.4119C83.9146 14.2171 83.5097 14.5334 83.2081 14.658L84.53 17.8583ZM87.4171 14.9809C87.9904 13.8343 88.3011 12.6359 88.3011 11.402H84.8385C84.8385 12.0377 84.6817 12.7092 84.3201 13.4324L87.4171 14.9809ZM88.3011 11.402V8.4155H84.8385V11.402H88.3011ZM86.5698 10.1468H88.6214V6.68422H86.5698V10.1468ZM86.8901 8.4155V11.376H90.3527V8.4155H86.8901ZM86.8901 11.376C86.8901 12.257 86.6896 13.0174 86.3081 13.6941L89.3245 15.3943C90.0165 14.1667 90.3527 12.8149 90.3527 11.376H86.8901ZM86.3074 13.6954C85.9048 14.4112 85.5082 14.5998 85.1046 14.6388L85.4381 18.0853C87.1813 17.9166 88.4814 16.8933 89.3253 15.393L86.3074 13.6954ZM85.0599 18.0804C85.4011 18.1224 85.8447 18.3145 86.2887 19.3042L89.4478 17.8866C88.68 16.1755 87.3923 14.8788 85.4828 14.6438L85.0599 18.0804ZM86.3001 19.3289C86.6862 20.1545 86.8901 21.0787 86.8901 22.1272H90.3527C90.3527 20.6135 90.0545 19.1831 89.4365 17.8619L86.3001 19.3289ZM86.8901 22.1272V26.1784H90.3527V22.1272H86.8901ZM98.4118 18.4396L98.0722 16.7419L96.6805 17.0203V18.4396H98.4118ZM98.4118 25.0358H96.6805V25.8583L97.3181 26.3779L98.4118 25.0358ZM99.8141 26.1784V27.9097H104.68L100.908 24.8363L99.8141 26.1784ZM94.9579 26.1784L93.852 24.8463L90.1621 27.9097H94.9579V26.1784ZM96.3342 25.0358L97.4401 26.3678L98.0655 25.8486V25.0358H96.3342ZM96.3342 20.4652H98.0655V16.3316L95.1197 19.2314L96.3342 20.4652ZM93.0102 23.7373L91.7956 22.5035L91.2789 23.0122V23.7373H93.0102ZM93.0102 26.1784V27.9097H94.7414V26.1784H93.0102ZM90.9586 26.1784H89.2273V27.9097H90.9586V26.1784ZM93.0102 11.7655L94.1937 13.0291L94.1996 13.0235L93.0102 11.7655ZM96.3342 10.1035L96.615 11.8118L98.0655 11.5734V10.1035H96.3342ZM96.3342 9.27248H98.0655V8.311L97.2493 7.8028L96.3342 9.27248ZM94.9579 8.4155V6.68422H88.9018L94.0428 9.88517L94.9579 8.4155ZM99.8141 8.4155L100.717 9.89277L105.967 6.68422H99.8141V8.4155ZM98.4118 9.27248L97.509 7.79521L96.6805 8.30152V9.27248H98.4118ZM98.4118 15.8946H96.6805V17.3139L98.0722 17.5923L98.4118 15.8946ZM96.3342 19.1927L97.5679 20.4074L98.0655 19.902V19.1927H96.3342ZM96.3342 18.4656H98.0655V17.0675L96.6987 16.7731L96.3342 18.4656ZM96.3342 15.8946L96.6987 17.5871L98.0655 17.2927V15.8946H96.3342ZM96.3342 11.1423H98.0655V9.41098H96.3342V11.1423ZM93.5815 13.3496L91.9612 12.7397L91.9593 12.7448L93.5815 13.3496ZM93.0102 22.5687H91.2789V26.7946L94.2438 23.7834L93.0102 22.5687ZM98.4983 17.1152C98.4983 16.9893 98.5315 16.8443 98.6054 16.7124C98.6744 16.5893 98.7469 16.5338 98.7557 16.5274C98.761 16.5235 98.7193 16.5543 98.5975 16.6001C98.4779 16.645 98.3067 16.695 98.0722 16.7419L98.7513 20.1373C99.4632 19.9949 100.199 19.7598 100.795 19.326C101.458 18.8426 101.961 18.0881 101.961 17.1152H98.4983ZM96.6805 18.4396V25.0358H100.143V18.4396H96.6805ZM97.3181 26.3779L98.7205 27.5206L100.908 24.8363L99.5053 23.6936L97.3181 26.3779ZM99.8141 24.4471H94.9579V27.9097H99.8141V24.4471ZM96.0637 27.5105L97.4401 26.3678L95.2284 23.7037L93.852 24.8463L96.0637 27.5105ZM98.0655 25.0358V20.4652H94.6029V25.0358H98.0655ZM95.1197 19.2314L91.7956 22.5035L94.2247 24.9711L97.5487 21.699L95.1197 19.2314ZM91.2789 23.7373V26.1784H94.7414V23.7373H91.2789ZM93.0102 24.4471H90.9586V27.9097H93.0102V24.4471ZM92.6899 26.1784V17.1411H89.2273V26.1784H92.6899ZM92.6899 17.1411C92.6899 15.1998 93.2529 13.9104 94.1937 13.0291L91.8266 10.502C90.032 12.183 89.2273 14.4773 89.2273 17.1411H92.6899ZM94.1996 13.0235C94.9068 12.3549 95.7005 11.9622 96.615 11.8118L96.0534 8.39514C94.4403 8.66032 93.0179 9.37564 91.8208 10.5075L94.1996 13.0235ZM98.0655 10.1035V9.27248H94.6029V10.1035H98.0655ZM97.2493 7.8028L95.8729 6.94582L94.0428 9.88517L95.4191 10.7422L97.2493 7.8028ZM94.9579 10.1468H99.8141V6.68422H94.9579V10.1468ZM98.9113 6.93823L97.509 7.79521L99.3145 10.7497L100.717 9.89277L98.9113 6.93823ZM96.6805 9.27248V15.8946H100.143V9.27248H96.6805ZM98.0722 17.5923C98.3144 17.6407 98.4951 17.6913 98.6248 17.7377C98.6886 17.7604 98.7349 17.7804 98.7667 17.7957C98.7987 17.8112 98.8114 17.8198 98.8101 17.8189C98.8087 17.818 98.7887 17.8045 98.7586 17.7748C98.728 17.7446 98.6861 17.6969 98.6442 17.6292C98.5516 17.4797 98.4983 17.2968 98.4983 17.1152H101.961C101.961 16.0934 101.373 15.3689 100.74 14.9442C100.161 14.555 99.4472 14.3361 98.7513 14.197L98.0722 17.5923ZM98.0655 19.1927V18.4656H94.6029V19.1927H98.0655ZM96.6987 16.7731C96.4887 16.7279 96.3394 16.6809 96.2387 16.6406C96.1363 16.5996 96.1089 16.5754 96.1238 16.5869C96.1426 16.6014 96.2145 16.6625 96.2797 16.7848C96.3485 16.9139 96.3775 17.0513 96.3775 17.1671H92.9149C92.9149 18.0958 93.3726 18.8391 94.0126 19.3314C94.586 19.7724 95.2939 20.0125 95.9697 20.158L96.6987 16.7731ZM96.3775 17.1671C96.3775 17.2958 96.3444 17.4424 96.2711 17.5767C96.2022 17.7028 96.1275 17.7641 96.1104 17.777C96.0967 17.7873 96.1263 17.7623 96.2316 17.7208C96.3348 17.68 96.4866 17.6328 96.6987 17.5871L95.9697 14.2022C95.2984 14.3467 94.596 14.5824 94.0261 15.0121C93.3909 15.4908 92.9149 16.2276 92.9149 17.1671H96.3775ZM98.0655 15.8946V11.1423H94.6029V15.8946H98.0655ZM96.3342 9.41098C95.3374 9.41098 94.3962 9.7067 93.6021 10.3434C92.8327 10.9604 92.3119 11.8081 91.9612 12.7397L95.2017 13.9596C95.405 13.4196 95.6201 13.1636 95.7682 13.0448C95.8918 12.9457 96.0499 12.8735 96.3342 12.8735V9.41098ZM91.9593 12.7448C91.4838 14.02 91.2789 15.513 91.2789 17.1671H94.7414C94.7414 15.7742 94.9174 14.7222 95.2037 13.9545L91.9593 12.7448ZM91.2789 17.1671V22.5687H94.7414V17.1671H91.2789ZM94.2438 23.7834L97.5679 20.4074L95.1006 17.978L91.7765 21.354L94.2438 23.7834ZM120.887 10.4411L122.608 10.6323L122.822 8.70982H120.887V10.4411ZM120.784 11.376L122.503 11.5783L122.504 11.5672L120.784 11.376ZM119.875 14.4663L121.4 15.2858L121.405 15.2764L119.875 14.4663ZM117.434 16.3621L117.255 14.64L117.231 18.0815L117.434 16.3621ZM119.771 17.9722L121.194 16.9867L121.191 16.9827L119.771 17.9722ZM120.784 22.1272L119.056 22.0181L119.055 22.0256L120.784 22.1272ZM120.732 23.0102V24.7414H122.364L122.46 23.1118L120.732 23.0102ZM118.68 23.0102H116.949V24.7414H118.68V23.0102ZM118.68 22.283L120.398 22.0683L116.949 22.283H118.68ZM118.706 22.4908L116.988 22.7055L117.001 22.8093L117.026 22.9107L118.706 22.4908ZM117.849 18.6473L116.331 19.4806L116.337 19.4902L117.849 18.6473ZM116.265 16.9074L117.02 15.3496L116.663 15.1761H116.265V16.9074ZM115.434 16.9074H113.703V18.6387H115.434V16.9074ZM115.434 16.2582V14.5269H113.703V16.2582H115.434ZM116.031 16.2582V17.9895H116.379L116.7 17.8552L116.031 16.2582ZM117.927 14.1807L116.372 13.4186L116.369 13.4266L117.927 14.1807ZM118.732 11.402L117.011 11.2159L117.011 11.2175L118.732 11.402ZM118.836 10.4411V8.70982H117.282L117.115 10.255L118.836 10.4411ZM116.239 10.3372L117.96 10.5284L118.173 8.60594H116.239V10.3372ZM116.135 11.2721L117.855 11.4744L117.856 11.4633L116.135 11.2721ZM115.226 14.3624L116.751 15.1819L116.756 15.1725L115.226 14.3624ZM112.785 16.2582L112.607 14.5361L112.583 17.9776L112.785 16.2582ZM115.122 17.8683L116.546 16.8828L116.543 16.8789L115.122 17.8683ZM116.135 22.0233L114.407 21.9142L114.407 21.9217L116.135 22.0233ZM116.083 22.9063V24.6376H117.716L117.811 23.008L116.083 22.9063ZM114.032 22.9063H112.3V24.6376H114.032V22.9063ZM114.032 22.1792L115.749 21.9644L112.3 22.1792H114.032ZM114.058 22.3869L112.34 22.6016L112.353 22.7054L112.378 22.8068L114.058 22.3869ZM113.201 18.5435L111.683 19.3767L111.688 19.3864L113.201 18.5435ZM111.616 16.8035L112.372 15.2457L112.014 15.0723H111.616V16.8035ZM110.785 16.8035H109.054V18.5348H110.785V16.8035ZM110.785 16.1543V14.423H109.054V16.1543H110.785ZM111.383 16.1543V17.8856H111.73L112.051 17.7513L111.383 16.1543ZM113.278 14.0768L111.724 13.3147L111.72 13.3227L113.278 14.0768ZM114.084 11.2981L112.362 11.112L112.362 11.1136L114.084 11.2981ZM114.187 10.3372V8.60594H112.633L112.466 10.1511L114.187 10.3372ZM119.167 10.2499L119.063 11.1848L122.504 11.5672L122.608 10.6323L119.167 10.2499ZM119.064 11.1737C118.946 12.1772 118.695 12.9942 118.345 13.6563L121.405 15.2764C121.989 14.1726 122.344 12.9293 122.503 11.5783L119.064 11.1737ZM118.35 13.6469C117.906 14.4726 117.519 14.6127 117.255 14.64L117.612 18.0842C119.356 17.9037 120.597 16.7799 121.4 15.2858L118.35 13.6469ZM117.231 18.0815C117.474 18.1101 117.86 18.2575 118.35 18.9616L121.191 16.9827C120.331 15.7478 119.159 14.8218 117.636 14.6426L117.231 18.0815ZM118.347 18.9576C118.862 19.7011 119.14 20.6801 119.056 22.0181L122.511 22.2363C122.635 20.2849 122.238 18.4938 121.194 16.9867L118.347 18.9576ZM119.055 22.0256L119.003 22.9085L122.46 23.1118L122.512 22.2289L119.055 22.0256ZM120.732 21.2789H118.68V24.7414H120.732V21.2789ZM120.411 23.0102V22.283H116.949V23.0102H120.411ZM116.962 22.4978L116.988 22.7055L120.424 22.276L120.398 22.0683L116.962 22.4978ZM117.026 22.9107C117.035 22.9454 117.051 23.0031 117.075 23.0719C117.092 23.1223 117.145 23.2702 117.252 23.4377C117.305 23.5223 117.413 23.6764 117.591 23.8279C117.771 23.9816 118.106 24.2001 118.582 24.2367C119.637 24.3179 120.138 23.5061 120.202 23.3994C120.327 23.1906 120.378 23.0043 120.392 22.9511C120.413 22.8714 120.425 22.8054 120.431 22.7677C120.443 22.6913 120.449 22.6263 120.452 22.5911C120.462 22.46 120.463 22.2963 120.463 22.1532H117.001C117.001 22.3044 116.998 22.3441 116.999 22.3255C117 22.3185 117.003 22.2759 117.013 22.2163C117.017 22.187 117.028 22.128 117.048 22.0538C117.06 22.0061 117.109 21.824 117.233 21.6179C117.295 21.5139 117.794 20.7034 118.848 20.7844C119.323 20.8209 119.657 21.0391 119.836 21.192C120.013 21.3427 120.12 21.4956 120.173 21.5787C120.277 21.7433 120.328 21.8868 120.344 21.9314C120.366 21.9944 120.379 22.0448 120.386 22.0709L117.026 22.9107ZM120.463 22.1532C120.463 20.5952 120.102 19.1337 119.361 17.8045L116.337 19.4902C116.773 20.2732 117.001 21.1489 117.001 22.1532H120.463ZM119.367 17.8142C118.803 16.7869 118.054 15.8508 117.02 15.3496L115.51 18.4652C115.618 18.518 115.926 18.7419 116.331 19.4805L119.367 17.8142ZM116.265 15.1761H115.434V18.6387H116.265V15.1761ZM117.165 16.9074V16.2582H113.703V16.9074H117.165ZM115.434 17.9895H116.031V14.5269H115.434V17.9895ZM116.7 17.8552C117.983 17.3178 118.868 16.211 119.485 14.9347L116.369 13.4266C115.947 14.2971 115.568 14.5753 115.363 14.6612L116.7 17.8552ZM119.482 14.9427C120.002 13.88 120.328 12.7584 120.453 11.5864L117.011 11.2175C116.928 11.9845 116.717 12.7154 116.372 13.4186L119.482 14.9427ZM120.453 11.588L120.557 10.6272L117.115 10.255L117.011 11.2159L120.453 11.588ZM118.836 12.1724H120.887V8.70982H118.836V12.1724ZM114.518 10.146L114.414 11.0809L117.856 11.4633L117.96 10.5284L114.518 10.146ZM114.416 11.0698C114.298 12.0733 114.047 12.8903 113.696 13.5524L116.756 15.1725C117.341 14.0687 117.696 12.8254 117.855 11.4744L114.416 11.0698ZM113.701 13.543C113.257 14.3687 112.871 14.5088 112.607 14.5361L112.963 17.9803C114.708 17.7998 115.948 16.676 116.751 15.1819L113.701 13.543ZM112.583 17.9776C112.826 18.0062 113.211 18.1536 113.702 18.8577L116.543 16.8789C115.683 15.6439 114.51 14.7179 112.987 14.5388L112.583 17.9776ZM113.699 18.8537C114.214 19.5972 114.492 20.5762 114.407 21.9142L117.863 22.1325C117.986 20.1811 117.589 18.39 116.546 16.8828L113.699 18.8537ZM114.407 21.9217L114.355 22.8046L117.811 23.008L117.863 22.125L114.407 21.9217ZM116.083 21.175H114.032V24.6376H116.083V21.175ZM115.763 22.9063V22.1792H112.3V22.9063H115.763ZM112.314 22.3939L112.34 22.6016L115.775 22.1722L115.749 21.9644L112.314 22.3939ZM112.378 22.8068C112.387 22.8416 112.402 22.8992 112.426 22.968C112.444 23.0184 112.496 23.1663 112.603 23.3338C112.657 23.4184 112.765 23.5725 112.942 23.724C113.123 23.8777 113.458 24.0962 113.934 24.1329C114.989 24.214 115.489 23.4022 115.553 23.2955C115.679 23.0867 115.729 22.9004 115.743 22.8472C115.765 22.7675 115.776 22.7015 115.783 22.6638C115.795 22.5874 115.801 22.5224 115.803 22.4872C115.813 22.3562 115.815 22.1924 115.815 22.0493H112.352C112.352 22.2005 112.349 22.2402 112.351 22.2217C112.351 22.2146 112.355 22.1721 112.364 22.1124C112.369 22.0831 112.379 22.0241 112.399 21.9499C112.412 21.9023 112.461 21.7201 112.584 21.514C112.647 21.41 113.146 20.5995 114.199 20.6805C114.674 20.7171 115.008 20.9352 115.188 21.0881C115.365 21.2389 115.471 21.3918 115.524 21.4749C115.629 21.6394 115.68 21.783 115.695 21.8275C115.717 21.8905 115.731 21.9409 115.737 21.967L112.378 22.8068ZM115.815 22.0493C115.815 20.4913 115.454 19.0298 114.713 17.7006L111.688 19.3864C112.125 20.1693 112.352 21.045 112.352 22.0493H115.815ZM114.718 17.7103C114.154 16.683 113.406 15.7469 112.372 15.2457L110.861 18.3614C110.97 18.4141 111.277 18.638 111.683 19.3767L114.718 17.7103ZM111.616 15.0723H110.785V18.5348H111.616V15.0723ZM112.517 16.8035V16.1543H109.054V16.8035H112.517ZM110.785 17.8856H111.383V14.423H110.785V17.8856ZM112.051 17.7513C113.335 17.214 114.219 16.1071 114.837 14.8309L111.72 13.3227C111.299 14.1932 110.919 14.4714 110.714 14.5573L112.051 17.7513ZM114.833 14.8388C115.354 13.7761 115.679 12.6546 115.805 11.4825L112.362 11.1136C112.28 11.8806 112.069 12.6115 111.724 13.3147L114.833 14.8388ZM115.805 11.4842L115.909 10.5233L112.466 10.1511L112.362 11.112L115.805 11.4842ZM114.187 12.0685H116.239V8.60594H114.187V12.0685ZM131.711 25.8668L132.703 27.2851L132.712 27.2793L132.72 27.2733L131.711 25.8668ZM130.828 26.2303L131.312 27.8924L130.828 26.2303ZM129.945 26.6199V28.3512H130.552L131.026 27.9718L129.945 26.6199ZM129.737 26.6199L128.655 27.9718L129.13 28.3512H129.737V26.6199ZM128.854 26.2303L129.339 24.5683L128.854 26.2303ZM127.971 25.8668L126.967 27.2774L126.978 27.2851L127.971 25.8668ZM125.997 21.5299L127.7 21.2156L127.7 21.2153L125.997 21.5299ZM128.36 8.4155V6.68422H128.029L127.72 6.80702L128.36 8.4155ZM129.841 7.92208L131.436 7.25025L129.841 3.46069L128.245 7.25025L129.841 7.92208ZM131.321 8.4155L131.964 6.80805L131.654 6.68422H131.321V8.4155ZM131.866 16.5698L130.135 16.5599L130.135 16.5636L131.866 16.5698ZM131.035 10.3112L132.588 9.54627L132.584 9.537L131.035 10.3112ZM129.841 9.14264L130.653 7.61372L129.876 7.20088L129.084 7.58534L129.841 9.14264ZM128.49 10.5709L130.039 11.3452L130.055 11.3119L130.071 11.2779L128.49 10.5709ZM127.919 12.5186L129.617 12.8582L129.618 12.8517L127.919 12.5186ZM128.023 21.2962L129.727 20.9914L129.725 20.9795L128.023 21.2962ZM129.841 25.5551L128.716 26.8716L129.843 27.8337L130.967 26.8696L129.841 25.5551ZM131.711 25.8668L132.703 27.2851L132.712 27.2793L132.72 27.2733L131.711 25.8668ZM130.828 26.2303L131.312 27.8924L130.828 26.2303ZM129.945 26.6199V28.3512H130.552L131.026 27.9718L129.945 26.6199ZM129.737 26.6199L128.655 27.9718L129.13 28.3512H129.737V26.6199ZM128.854 26.2303L129.339 24.5683L128.854 26.2303ZM127.971 25.8668L126.954 27.2676L126.966 27.2765L126.978 27.2851L127.971 25.8668ZM125.556 17.3489L127.286 17.2906L127.22 15.3223L125.276 15.6403L125.556 17.3489ZM124.128 17.5826L123.848 15.8741L122.396 16.1116V17.5826H124.128ZM124.128 26.1784V27.9097H125.859V26.1784H124.128ZM122.076 26.1784H120.345V27.9097H122.076V26.1784ZM122.076 8.4155V6.68422H120.345V8.4155H122.076ZM124.128 8.4155H125.859V6.68422H124.128V8.4155ZM124.128 16.2842H122.396V18.3218L124.407 17.9927L124.128 16.2842ZM125.556 16.0504L125.835 17.759L127.264 17.5252L127.287 16.0778L125.556 16.0504ZM128.36 8.4155V6.68422H128.032L127.726 6.80486L128.36 8.4155ZM129.841 7.92208L131.436 7.25025L129.841 3.46069L128.245 7.25025L129.841 7.92208ZM131.321 8.4155L131.964 6.80805L131.654 6.68422H131.321V8.4155ZM131.866 16.5698L130.135 16.5599L130.135 16.5636L131.866 16.5698ZM131.035 10.3112L132.588 9.54627L132.584 9.537L131.035 10.3112ZM129.841 9.14264L130.653 7.61372L129.876 7.20088L129.084 7.58534L129.841 9.14264ZM128.49 10.5709L130.039 11.3452L130.055 11.3119L130.071 11.2779L128.49 10.5709ZM127.919 12.5186L129.617 12.8582L129.618 12.8517L127.919 12.5186ZM128.023 21.2962L129.727 20.9914L129.725 20.9795L128.023 21.2962ZM129.841 25.5551L128.716 26.8716L129.843 27.8337L130.967 26.8696L129.841 25.5551ZM132.187 16.5958C132.187 19.0945 132.005 20.9971 131.682 22.356C131.345 23.7726 130.923 24.3013 130.701 24.4602L132.72 27.2733C133.97 26.3762 134.652 24.8317 135.05 23.158C135.463 21.4265 135.649 19.2216 135.649 16.5958H132.187ZM130.718 24.4485C130.773 24.4094 130.783 24.4138 130.701 24.4477C130.627 24.4782 130.511 24.5193 130.343 24.5683L131.312 27.8924C131.76 27.7617 132.285 27.5776 132.703 27.2851L130.718 24.4485ZM130.343 24.5683C129.877 24.7041 129.311 24.9095 128.863 25.268L131.026 27.9718C130.987 28.0029 130.962 28.0175 130.959 28.0191C130.956 28.021 130.966 28.015 130.994 28.0026C131.053 27.9768 131.154 27.9384 131.312 27.8924L130.343 24.5683ZM129.945 24.8886H129.737V28.3512H129.945V24.8886ZM130.818 25.268C130.37 24.9095 129.804 24.7041 129.339 24.5683L128.369 27.8924C128.527 27.9384 128.629 27.9768 128.687 28.0026C128.716 28.015 128.726 28.021 128.722 28.0191C128.72 28.0175 128.694 28.0029 128.655 27.9718L130.818 25.268ZM129.339 24.5683C129.171 24.5193 129.055 24.4782 128.981 24.4477C128.898 24.4138 128.908 24.4094 128.964 24.4485L126.978 27.2851C127.396 27.5776 127.921 27.7617 128.369 27.8924L129.339 24.5683ZM128.975 24.4561C128.858 24.3734 128.633 24.1446 128.378 23.585C128.127 23.0335 127.892 22.2573 127.7 21.2156L124.295 21.8442C124.518 23.0532 124.82 24.1251 125.227 25.0193C125.63 25.9053 126.183 26.7196 126.967 27.2774L128.975 24.4561ZM127.7 21.2153C127.426 19.7321 127.287 18.1843 127.287 16.5698H123.825C123.825 18.3832 123.98 20.1422 124.295 21.8445L127.7 21.2153ZM127.287 16.5698C127.287 14.3104 127.516 12.6752 127.894 11.5755C128.27 10.4826 128.708 10.1405 129.001 10.024L127.72 6.80702C126.143 7.43498 125.179 8.82408 124.62 10.4493C124.063 12.0677 123.825 14.1375 123.825 16.5698H127.287ZM128.36 10.1468H129.14V6.68422H128.36V10.1468ZM129.14 10.1468C129.605 10.1468 130.107 10.0254 130.558 9.70799C130.999 9.39742 131.272 8.98353 131.436 8.59392L128.245 7.25025C128.271 7.18958 128.358 7.0224 128.565 6.8763C128.783 6.72339 129.003 6.68422 129.14 6.68422V10.1468ZM128.245 8.59392C128.409 8.98353 128.682 9.39742 129.124 9.708C129.575 10.0254 130.076 10.1468 130.542 10.1468V6.68422C130.678 6.68422 130.899 6.72339 131.116 6.87629C131.324 7.0224 131.411 7.18958 131.436 7.25025L128.245 8.59392ZM130.542 10.1468H131.321V6.68422H130.542V10.1468ZM130.678 10.023C130.852 10.0927 131.258 10.3675 131.619 11.5038C131.974 12.6226 132.187 14.2916 132.187 16.5958H135.649C135.649 14.1389 135.429 12.0641 134.919 10.4561C134.414 8.86565 133.521 7.43078 131.964 6.80805L130.678 10.023ZM133.598 16.5798C133.615 13.5655 133.357 11.1071 132.588 9.54628L129.482 11.0762C129.856 11.8354 130.152 13.5492 130.135 16.5599L133.598 16.5798ZM132.584 9.537C132.156 8.68153 131.473 8.04943 130.653 7.61372L129.028 10.6716C129.316 10.8245 129.43 10.9714 129.487 11.0855L132.584 9.537ZM129.084 7.58534C128.086 8.07041 127.358 8.86261 126.91 9.86395L130.071 11.2779C130.211 10.9635 130.384 10.8035 130.597 10.6999L129.084 7.58534ZM126.942 9.79669C126.626 10.4276 126.401 11.2641 126.22 12.1855L129.618 12.8517C129.784 12.0072 129.939 11.5453 130.039 11.3452L126.942 9.79669ZM126.221 12.1791C125.983 13.3722 125.876 14.8302 125.876 16.5179H129.339C129.339 14.9508 129.44 13.7426 129.617 12.8582L126.221 12.1791ZM125.876 16.5179C125.876 18.3083 126.022 20.0079 126.321 21.6129L129.725 20.9795C129.47 19.6067 129.339 18.1208 129.339 16.5179H125.876ZM126.319 21.601C126.711 23.7967 127.399 25.7463 128.716 26.8716L130.965 24.2387C130.621 23.9444 130.096 23.0547 129.727 20.9914L126.319 21.601ZM130.967 26.8696C132.061 25.9327 132.671 24.4513 133.036 22.8326C133.412 21.1627 133.589 19.0623 133.598 16.576L130.135 16.5636C130.127 18.9249 129.957 20.7459 129.658 22.0711C129.348 23.4474 128.954 24.035 128.714 24.2407L130.967 26.8696ZM132.187 16.5958C132.187 19.0945 132.005 20.9971 131.682 22.356C131.345 23.7726 130.923 24.3013 130.701 24.4602L132.72 27.2733C133.97 26.3762 134.652 24.8317 135.05 23.158C135.463 21.4265 135.649 19.2216 135.649 16.5958H132.187ZM130.718 24.4485C130.773 24.4094 130.783 24.4138 130.701 24.4477C130.627 24.4782 130.511 24.5193 130.343 24.5683L131.312 27.8924C131.76 27.7617 132.285 27.5776 132.703 27.2851L130.718 24.4485ZM130.343 24.5683C129.877 24.7041 129.311 24.9095 128.863 25.268L131.026 27.9718C130.987 28.0029 130.962 28.0175 130.959 28.0191C130.956 28.021 130.966 28.015 130.994 28.0026C131.053 27.9768 131.154 27.9384 131.312 27.8924L130.343 24.5683ZM129.945 24.8886H129.737V28.3512H129.945V24.8886ZM130.818 25.268C130.37 24.9095 129.804 24.7041 129.339 24.5683L128.369 27.8924C128.527 27.9384 128.629 27.9768 128.687 28.0026C128.716 28.015 128.726 28.021 128.722 28.0191C128.72 28.0175 128.694 28.0029 128.655 27.9718L130.818 25.268ZM129.339 24.5683C129.171 24.5193 129.055 24.4782 128.981 24.4477C128.898 24.4138 128.908 24.4094 128.964 24.4485L126.978 27.2851C127.396 27.5776 127.921 27.7617 128.369 27.8924L129.339 24.5683ZM128.988 24.4659C128.721 24.2717 128.301 23.74 127.942 22.473C127.593 21.2418 127.362 19.5312 127.286 17.2906L123.826 17.4072C123.906 19.7891 124.155 21.8094 124.611 23.4175C125.057 24.9898 125.767 26.4058 126.954 27.2676L128.988 24.4659ZM125.276 15.6403L123.848 15.8741L124.407 19.2912L125.835 19.0574L125.276 15.6403ZM122.396 17.5826V26.1784H125.859V17.5826H122.396ZM124.128 24.4471H122.076V27.9097H124.128V24.4471ZM123.807 26.1784V8.4155H120.345V26.1784H123.807ZM122.076 10.1468H124.128V6.68422H122.076V10.1468ZM122.396 8.4155V16.2842H125.859V8.4155H122.396ZM124.407 17.9927L125.835 17.759L125.276 14.3419L123.848 14.5756L124.407 17.9927ZM127.287 16.0778C127.32 13.9778 127.562 12.4661 127.934 11.4536C128.302 10.4526 128.716 10.1364 128.995 10.0261L127.726 6.80486C126.205 7.40446 125.251 8.7156 124.684 10.2596C124.121 11.7921 123.861 13.743 123.825 16.0231L127.287 16.0778ZM128.36 10.1468H129.14V6.68422H128.36V10.1468ZM129.14 10.1468C129.605 10.1468 130.107 10.0254 130.558 9.70799C130.999 9.39742 131.272 8.98353 131.436 8.59392L128.245 7.25025C128.271 7.18958 128.358 7.0224 128.565 6.8763C128.783 6.72339 129.003 6.68422 129.14 6.68422V10.1468ZM128.245 8.59392C128.409 8.98353 128.682 9.39742 129.124 9.708C129.575 10.0254 130.076 10.1468 130.542 10.1468V6.68422C130.678 6.68422 130.899 6.72339 131.116 6.87629C131.324 7.0224 131.411 7.18958 131.436 7.25025L128.245 8.59392ZM130.542 10.1468H131.321V6.68422H130.542V10.1468ZM130.678 10.023C130.852 10.0927 131.258 10.3675 131.619 11.5038C131.974 12.6226 132.187 14.2916 132.187 16.5958H135.649C135.649 14.1389 135.429 12.0641 134.919 10.4561C134.414 8.86565 133.521 7.43078 131.964 6.80805L130.678 10.023ZM133.598 16.5798C133.615 13.5655 133.357 11.1071 132.588 9.54628L129.482 11.0762C129.856 11.8354 130.152 13.5492 130.135 16.5599L133.598 16.5798ZM132.584 9.537C132.156 8.68153 131.473 8.04943 130.653 7.61372L129.028 10.6716C129.316 10.8245 129.43 10.9714 129.487 11.0855L132.584 9.537ZM129.084 7.58534C128.086 8.07041 127.358 8.86261 126.91 9.86395L130.071 11.2779C130.211 10.9635 130.384 10.8035 130.597 10.6999L129.084 7.58534ZM126.942 9.79669C126.626 10.4276 126.401 11.2641 126.22 12.1855L129.618 12.8517C129.784 12.0072 129.939 11.5453 130.039 11.3452L126.942 9.79669ZM126.221 12.1791C125.983 13.3722 125.876 14.8302 125.876 16.5179H129.339C129.339 14.9508 129.44 13.7426 129.617 12.8582L126.221 12.1791ZM125.876 16.5179C125.876 18.3083 126.022 20.0079 126.321 21.6129L129.725 20.9795C129.47 19.6067 129.339 18.1208 129.339 16.5179H125.876ZM126.319 21.601C126.711 23.7967 127.399 25.7463 128.716 26.8716L130.965 24.2387C130.621 23.9444 130.096 23.0547 129.727 20.9914L126.319 21.601ZM130.967 26.8696C132.061 25.9327 132.671 24.4513 133.036 22.8326C133.412 21.1627 133.589 19.0623 133.598 16.576L130.135 16.5636C130.127 18.9249 129.957 20.7459 129.658 22.0711C129.348 23.4474 128.954 24.035 128.714 24.2407L130.967 26.8696ZM143.504 14.5442L142.287 15.7759L145.235 18.6879V14.5442H143.504ZM141.374 12.4407H139.643V13.1641L140.158 13.6724L141.374 12.4407ZM141.374 9.06473H143.106V7.33345H141.374V9.06473ZM138.076 9.06473V7.33345H136.345V9.06473H138.076ZM138.076 16.2582H136.345V17.9895H138.076V16.2582ZM138.881 16.2322V14.5009H138.71L138.542 14.5346L138.881 16.2322ZM139.946 16.3101L139.645 18.0151L139.653 18.0165L139.662 18.0178L139.946 16.3101ZM140.102 16.3621H138.371V17.898L139.896 18.081L140.102 16.3621ZM141.426 16.9853L142.523 15.6454L142.514 15.6385L141.426 16.9853ZM142.595 25.9966L143.099 27.6529L143.111 27.6491L142.595 25.9966ZM136.025 26.1784H134.294V27.9097H136.025V26.1784ZM136.025 8.4155V6.68422H134.294V8.4155H136.025ZM143.504 8.4155H145.235V6.68422H143.504V8.4155ZM139.868 17.7644L138.511 18.839L138.518 18.8483L138.526 18.8576L139.868 17.7644ZM138.881 16.9074L139.623 15.3428L139.271 15.1761H138.881V16.9074ZM138.05 16.9074V15.1761H136.319V16.9074H138.05ZM138.05 25.5292H136.319V27.2605H138.05V25.5292ZM141.349 25.5292V27.2605H143.08V25.5292H141.349ZM144.721 13.3125L142.591 11.209L140.158 13.6724L142.287 15.7759L144.721 13.3125ZM143.106 12.4407V9.06473H139.643V12.4407H143.106ZM141.374 7.33345H138.076V10.796H141.374V7.33345ZM136.345 9.06473V16.2582H139.808V9.06473H136.345ZM138.076 17.9895H138.674V14.5269H138.076V17.9895ZM138.674 17.9895C138.891 17.9895 139.089 17.9564 139.221 17.9299L138.542 14.5346C138.53 14.537 138.533 14.5358 138.55 14.5338C138.564 14.532 138.608 14.5269 138.674 14.5269V17.9895ZM138.881 17.9635H139.193V14.5009H138.881V17.9635ZM139.193 17.9635C139.267 17.9635 139.411 17.9737 139.645 18.0151L140.247 14.6052C139.893 14.5426 139.535 14.5009 139.193 14.5009V17.9635ZM139.662 18.0178C139.69 18.0226 139.621 18.0137 139.516 17.9785C139.475 17.9649 139.315 17.9115 139.132 17.7896C139.038 17.7268 138.87 17.602 138.715 17.3943C138.548 17.1729 138.371 16.8196 138.371 16.3621H141.833C141.833 15.4387 141.164 14.9826 141.053 14.9086C140.857 14.778 140.677 14.716 140.611 14.6937C140.453 14.6411 140.306 14.615 140.231 14.6024L139.662 18.0178ZM139.896 18.081C139.916 18.0834 140.061 18.1077 140.339 18.3322L142.514 15.6385C141.892 15.1358 141.154 14.7446 140.308 14.6431L139.896 18.081ZM140.33 18.3253C141.13 18.9801 141.695 20.1126 141.695 22.1272H145.157C145.157 19.4674 144.389 17.1719 142.523 15.6454L140.33 18.3253ZM141.695 22.1272V25.2695H145.157V22.1272H141.695ZM141.695 25.2695C141.695 25.0804 141.739 24.8887 141.826 24.716C141.909 24.5501 142.01 24.4421 142.078 24.3821C142.195 24.2795 142.244 24.2925 142.079 24.3442L143.111 27.6491C143.5 27.5276 143.964 27.3329 144.358 26.9879C144.798 26.6034 145.157 26.016 145.157 25.2695H141.695ZM142.091 24.3404C141.856 24.4119 141.619 24.4471 141.374 24.4471V27.9097C141.961 27.9097 142.538 27.8237 143.099 27.6529L142.091 24.3404ZM141.374 24.4471H136.025V27.9097H141.374V24.4471ZM137.756 26.1784V8.4155H134.294V26.1784H137.756ZM136.025 10.1468H143.504V6.68422H136.025V10.1468ZM141.773 8.4155V14.5442H145.235V8.4155H141.773ZM143.08 22.1532C143.08 20.0821 142.474 18.2224 141.211 16.6712L138.526 18.8576C139.236 19.7302 139.617 20.7964 139.617 22.1532H143.08ZM141.226 16.6898C140.801 16.1538 140.276 15.6523 139.623 15.3428L138.14 18.472C138.138 18.4707 138.172 18.4866 138.24 18.5457C138.308 18.6049 138.399 18.6981 138.511 18.839L141.226 16.6898ZM138.881 15.1761H138.05V18.6387H138.881V15.1761ZM136.319 16.9074V25.5292H139.782V16.9074H136.319ZM138.05 27.2605H141.349V23.7979H138.05V27.2605ZM143.08 25.5292V22.1532H139.617V25.5292H143.08ZM153.396 26.1784V27.9097H155.127V26.1784H153.396ZM151.344 26.1784H149.613V27.9097H151.344V26.1784ZM151.344 14.9597H153.075V9.9604L149.984 13.889L151.344 14.9597ZM147.89 19.3485L146.53 18.2778L146.159 18.749V19.3485H147.89ZM147.89 26.1784V27.9097H149.622V26.1784H147.89ZM145.839 26.1784H144.107V27.9097H145.839V26.1784ZM145.839 8.4155V6.68422H144.107V8.4155H145.839ZM147.89 8.4155H149.622V6.68422H147.89V8.4155ZM147.89 17.9202H146.159V22.9428L149.254 18.987L147.89 17.9202ZM151.344 13.5055L152.708 14.5722L153.075 14.1022V13.5055H151.344ZM151.344 8.4155V6.68422H149.613V8.4155H151.344ZM153.396 8.4155H155.127V6.68422H153.396V8.4155ZM153.396 24.4471H151.344V27.9097H153.396V24.4471ZM153.075 26.1784V14.9597H149.613V26.1784H153.075ZM149.984 13.889L146.53 18.2778L149.251 20.4192L152.705 16.0304L149.984 13.889ZM146.159 19.3485V26.1784H149.622V19.3485H146.159ZM147.89 24.4471H145.839V27.9097H147.89V24.4471ZM147.57 26.1784V8.4155H144.107V26.1784H147.57ZM145.839 10.1468H147.89V6.68422H145.839V10.1468ZM146.159 8.4155V17.9202H149.622V8.4155H146.159ZM149.254 18.987L152.708 14.5722L149.981 12.4387L146.527 16.8534L149.254 18.987ZM153.075 13.5055V8.4155H149.613V13.5055H153.075ZM151.344 10.1468H153.396V6.68422H151.344V10.1468ZM151.664 8.4155V26.1784H155.127V8.4155H151.664ZM163.436 18.4396L163.097 16.7419L161.705 17.0203V18.4396H163.436ZM163.436 25.0358H161.705V25.8583L162.342 26.3779L163.436 25.0358ZM164.838 26.1784V27.9097H169.704L165.932 24.8363L164.838 26.1784ZM159.982 26.1784L158.876 24.8463L155.186 27.9097H159.982V26.1784ZM161.359 25.0358L162.464 26.3678L163.09 25.8486V25.0358H161.359ZM161.359 18.4656H163.09V17.0675L161.723 16.7731L161.359 18.4656ZM161.359 15.8946L161.723 17.5871L163.09 17.2927V15.8946H161.359ZM161.359 11.1423H163.09V9.41098H161.359V11.1423ZM158.606 13.3496L156.986 12.7397L156.984 12.7448L158.606 13.3496ZM158.035 26.1784V27.9097H159.766V26.1784H158.035ZM155.983 26.1784H154.252V27.9097H155.983V26.1784ZM158.035 11.7655L159.218 13.0291L159.224 13.0235L158.035 11.7655ZM161.359 10.1035L161.639 11.8118L163.09 11.5734V10.1035H161.359ZM161.359 9.27248H163.09V8.311L162.274 7.8028L161.359 9.27248ZM159.982 8.4155V6.68422H153.926L159.067 9.88517L159.982 8.4155ZM164.838 8.4155L165.741 9.89277L170.992 6.68422H164.838V8.4155ZM163.436 9.27248L162.533 7.79521L161.705 8.30152V9.27248H163.436ZM163.436 15.8946H161.705V17.3139L163.097 17.5923L163.436 15.8946ZM163.523 17.1152C163.523 16.9893 163.556 16.8443 163.63 16.7124C163.699 16.5893 163.771 16.5338 163.78 16.5274C163.785 16.5235 163.744 16.5543 163.622 16.6001C163.502 16.645 163.331 16.695 163.097 16.7419L163.776 20.1373C164.488 19.9949 165.224 19.7598 165.819 19.326C166.482 18.8426 166.985 18.0881 166.985 17.1152H163.523ZM161.705 18.4396V25.0358H165.167V18.4396H161.705ZM162.342 26.3779L163.745 27.5206L165.932 24.8363L164.53 23.6936L162.342 26.3779ZM164.838 24.4471H159.982V27.9097H164.838V24.4471ZM161.088 27.5105L162.464 26.3678L160.253 23.7037L158.876 24.8463L161.088 27.5105ZM163.09 25.0358V18.4656H159.627V25.0358H163.09ZM161.723 16.7731C161.513 16.7279 161.364 16.6809 161.263 16.6406C161.161 16.5996 161.133 16.5754 161.148 16.5869C161.167 16.6014 161.239 16.6625 161.304 16.7848C161.373 16.9139 161.402 17.0513 161.402 17.1671H157.939C157.939 18.0958 158.397 18.8391 159.037 19.3314C159.61 19.7724 160.318 20.0125 160.994 20.158L161.723 16.7731ZM161.402 17.1671C161.402 17.2958 161.369 17.4424 161.295 17.5767C161.227 17.7028 161.152 17.7641 161.135 17.777C161.121 17.7873 161.151 17.7623 161.256 17.7208C161.359 17.68 161.511 17.6328 161.723 17.5871L160.994 14.2022C160.323 14.3467 159.62 14.5824 159.05 15.0121C158.415 15.4908 157.939 16.2276 157.939 17.1671H161.402ZM163.09 15.8946V11.1423H159.627V15.8946H163.09ZM161.359 9.41098C160.362 9.41098 159.421 9.7067 158.626 10.3434C157.857 10.9604 157.336 11.8081 156.986 12.7397L160.226 13.9596C160.429 13.4196 160.644 13.1636 160.793 13.0448C160.916 12.9457 161.074 12.8735 161.359 12.8735V9.41098ZM156.984 12.7448C156.508 14.02 156.303 15.513 156.303 17.1671H159.766C159.766 15.7742 159.942 14.7222 160.228 13.9545L156.984 12.7448ZM156.303 17.1671V26.1784H159.766V17.1671H156.303ZM158.035 24.4471H155.983V27.9097H158.035V24.4471ZM157.714 26.1784V17.1411H154.252V26.1784H157.714ZM157.714 17.1411C157.714 15.1998 158.277 13.9104 159.218 13.0291L156.851 10.502C155.056 12.183 154.252 14.4773 154.252 17.1411H157.714ZM159.224 13.0235C159.931 12.3549 160.725 11.9622 161.639 11.8118L161.078 8.39514C159.465 8.66032 158.042 9.37564 156.845 10.5075L159.224 13.0235ZM163.09 10.1035V9.27248H159.627V10.1035H163.09ZM162.274 7.8028L160.897 6.94582L159.067 9.88517L160.443 10.7422L162.274 7.8028ZM159.982 10.1468H164.838V6.68422H159.982V10.1468ZM163.936 6.93823L162.533 7.79521L164.339 10.7497L165.741 9.89277L163.936 6.93823ZM161.705 9.27248V15.8946H165.167V9.27248H161.705ZM163.097 17.5923C163.339 17.6407 163.519 17.6913 163.649 17.7377C163.713 17.7604 163.759 17.7804 163.791 17.7957C163.823 17.8112 163.836 17.8198 163.834 17.8189C163.833 17.818 163.813 17.8045 163.783 17.7748C163.752 17.7446 163.71 17.6969 163.669 17.6292C163.576 17.4797 163.523 17.2968 163.523 17.1152H166.985C166.985 16.0934 166.397 15.3689 165.765 14.9442C165.185 14.555 164.472 14.3361 163.776 14.197L163.097 17.5923ZM174.494 26.1784V27.9097H176.226V26.1784H174.494ZM166.989 26.1784H165.258V27.9097H166.989V26.1784ZM166.989 8.4155V6.68422H165.258V8.4155H166.989ZM174.494 8.4155H176.226V6.68422H174.494V8.4155ZM174.494 14.5442L173.278 15.7759L176.226 18.6879V14.5442H174.494ZM172.365 12.4407H170.634V13.1641L171.148 13.6724L172.365 12.4407ZM172.365 9.06473H174.096V7.33345H172.365V9.06473ZM169.067 9.06473V7.33345H167.336V9.06473H169.067ZM169.067 16.0764H167.336V17.8077H169.067V16.0764ZM172.495 16.8035L173.795 15.6598L173.786 15.6505L172.495 16.8035ZM173.3 18.2838V20.0151H175.585L174.967 17.815L173.3 18.2838ZM171.378 18.2838H169.647V20.0151H171.378V18.2838ZM170.911 17.219L169.621 18.3735L169.637 18.3918L169.654 18.4097L170.911 17.219ZM169.067 16.7256V14.9944H167.336V16.7256H169.067ZM169.067 25.5292H167.336V27.2605H169.067V25.5292ZM172.365 25.5292V27.2605H174.096V25.5292H172.365ZM172.365 22.1532L171.148 20.9215L170.634 21.4298V22.1532H172.365ZM174.494 20.0497H176.226V15.906L173.278 18.818L174.494 20.0497ZM174.494 24.4471H166.989V27.9097H174.494V24.4471ZM168.721 26.1784V8.4155H165.258V26.1784H168.721ZM166.989 10.1468H174.494V6.68422H166.989V10.1468ZM172.763 8.4155V14.5442H176.226V8.4155H172.763ZM175.711 13.3125L173.582 11.209L171.148 13.6724L173.278 15.7759L175.711 13.3125ZM174.096 12.4407V9.06473H170.634V12.4407H174.096ZM172.365 7.33345H169.067V10.796H172.365V7.33345ZM167.336 9.06473V16.0764H170.798V9.06473H167.336ZM169.067 17.8077H171.067V14.3451H169.067V17.8077ZM171.067 17.8077C171.06 17.8077 171.05 17.8068 171.038 17.804C171.027 17.8012 171.023 17.7987 171.028 17.801C171.038 17.8062 171.1 17.8407 171.203 17.9566L173.786 15.6505C173.114 14.8972 172.198 14.3451 171.067 14.3451V17.8077ZM171.195 17.9473C171.405 18.1858 171.548 18.4486 171.633 18.7525L174.967 17.815C174.74 17.0109 174.346 16.2869 173.795 15.6598L171.195 17.9473ZM173.3 16.5525H171.378V20.0151H173.3V16.5525ZM173.109 18.2838C173.109 17.3779 172.722 16.614 172.168 16.0284L169.654 18.4097C169.695 18.4534 169.691 18.461 169.676 18.4279C169.669 18.4115 169.661 18.389 169.655 18.3617C169.649 18.3342 169.647 18.3075 169.647 18.2838H173.109ZM172.201 16.0646C171.636 15.4329 170.851 14.9944 169.898 14.9944V18.4569C169.83 18.4569 169.749 18.4399 169.679 18.4054C169.614 18.3737 169.597 18.3473 169.621 18.3735L172.201 16.0646ZM169.898 14.9944H169.067V18.4569H169.898V14.9944ZM167.336 16.7256V25.5292H170.798V16.7256H167.336ZM169.067 27.2605H172.365V23.7979H169.067V27.2605ZM174.096 25.5292V22.1532H170.634V25.5292H174.096ZM173.582 23.3849L175.711 21.2814L173.278 18.818L171.148 20.9215L173.582 23.3849ZM172.763 20.0497V26.1784H176.226V20.0497H172.763ZM182.329 6.77944V8.51072H184.06V6.77944H182.329ZM179.264 6.77944H177.533V8.51072H179.264V6.77944ZM179.264 5.40308V3.6718H177.533V5.40308H179.264ZM182.329 5.40308H184.06V3.6718H182.329V5.40308ZM184.64 26.1784V27.9097H186.371V26.1784H184.64ZM182.588 26.1784H180.857V27.9097H182.588V26.1784ZM182.588 14.9597H184.32V9.9604L181.228 13.889L182.588 14.9597ZM179.134 19.3485L177.774 18.2778L177.403 18.749V19.3485H179.134ZM179.134 26.1784V27.9097H180.866V26.1784H179.134ZM177.083 26.1784H175.352V27.9097H177.083V26.1784ZM177.083 8.4155V6.68422H175.352V8.4155H177.083ZM179.134 8.4155H180.866V6.68422H179.134V8.4155ZM179.134 17.9202H177.403V22.9428L180.498 18.987L179.134 17.9202ZM182.588 13.5055L183.952 14.5722L184.32 14.1022V13.5055H182.588ZM182.588 8.4155V6.68422H180.857V8.4155H182.588ZM184.64 8.4155H186.371V6.68422H184.64V8.4155ZM182.329 5.04816H179.264V8.51072H182.329V5.04816ZM180.996 6.77944V5.40308H177.533V6.77944H180.996ZM179.264 7.13435H182.329V3.6718H179.264V7.13435ZM180.597 5.40308V6.77944H184.06V5.40308H180.597ZM184.64 24.4471H182.588V27.9097H184.64V24.4471ZM184.32 26.1784V14.9597H180.857V26.1784H184.32ZM181.228 13.889L177.774 18.2778L180.495 20.4192L183.949 16.0304L181.228 13.889ZM177.403 19.3485V26.1784H180.866V19.3485H177.403ZM179.134 24.4471H177.083V27.9097H179.134V24.4471ZM178.814 26.1784V8.4155H175.352V26.1784H178.814ZM177.083 10.1468H179.134V6.68422H177.083V10.1468ZM177.403 8.4155V17.9202H180.866V8.4155H177.403ZM180.498 18.987L183.952 14.5722L181.225 12.4387L177.771 16.8534L180.498 18.987ZM184.32 13.5055V8.4155H180.857V13.5055H184.32ZM182.588 10.1468H184.64V6.68422H182.588V10.1468ZM182.909 8.4155V26.1784H186.371V8.4155H182.909ZM194.784 26.1784V27.9097H196.515V26.1784H194.784ZM192.733 26.1784H191.001V27.9097H192.733V26.1784ZM192.733 15.6869H194.464V13.2389L192.156 14.0545L192.733 15.6869ZM189.279 16.9074L188.702 15.2751L187.547 15.683V16.9074H189.279ZM189.279 26.1784V27.9097H191.01V26.1784H189.279ZM187.227 26.1784H185.496V27.9097H187.227V26.1784ZM187.227 8.4155V6.68422H185.496V8.4155H187.227ZM189.279 8.4155H191.01V6.68422H189.279V8.4155ZM189.279 15.7388H187.547V18.2042L189.866 17.3673L189.279 15.7388ZM192.733 14.4923L193.32 16.1208L194.464 15.708V14.4923H192.733ZM192.733 8.4155V6.68422H191.001V8.4155H192.733ZM194.784 8.4155H196.515V6.68422H194.784V8.4155ZM194.784 24.4471H192.733V27.9097H194.784V24.4471ZM194.464 26.1784V15.6869H191.001V26.1784H194.464ZM192.156 14.0545L188.702 15.2751L189.855 18.5398L193.309 17.3192L192.156 14.0545ZM187.547 16.9074V26.1784H191.01V16.9074H187.547ZM189.279 24.4471H187.227V27.9097H189.279V24.4471ZM188.958 26.1784V8.4155H185.496V26.1784H188.958ZM187.227 10.1468H189.279V6.68422H187.227V10.1468ZM187.547 8.4155V15.7388H191.01V8.4155H187.547ZM189.866 17.3673L193.32 16.1208L192.145 12.8638L188.691 14.1103L189.866 17.3673ZM194.464 14.4923V8.4155H191.001V14.4923H194.464ZM192.733 10.1468H194.784V6.68422H192.733V10.1468ZM193.053 8.4155V26.1784H196.515V8.4155H193.053ZM204.824 18.4396L204.485 16.7419L203.093 17.0203V18.4396H204.824ZM204.824 25.0358H203.093V25.8583L203.731 26.3779L204.824 25.0358ZM206.227 26.1784V27.9097H211.092L207.32 24.8363L206.227 26.1784ZM201.371 26.1784L200.265 24.8463L196.575 27.9097H201.371V26.1784ZM202.747 25.0358L203.853 26.3678L204.478 25.8486V25.0358H202.747ZM202.747 20.4652H204.478V16.3316L201.532 19.2314L202.747 20.4652ZM199.423 23.7373L198.208 22.5035L197.692 23.0122V23.7373H199.423ZM199.423 26.1784V27.9097H201.154V26.1784H199.423ZM197.371 26.1784H195.64V27.9097H197.371V26.1784ZM199.423 11.7655L200.606 13.0291L200.612 13.0235L199.423 11.7655ZM202.747 10.1035L203.028 11.8118L204.478 11.5734V10.1035H202.747ZM202.747 9.27248H204.478V8.311L203.662 7.8028L202.747 9.27248ZM201.371 8.4155V6.68422H195.315L200.455 9.88517L201.371 8.4155ZM206.227 8.4155L207.13 9.89277L212.38 6.68422H206.227V8.4155ZM204.824 9.27248L203.922 7.79521L203.093 8.30152V9.27248H204.824ZM204.824 15.8946H203.093V17.3139L204.485 17.5923L204.824 15.8946ZM202.747 19.1927L203.981 20.4074L204.478 19.902V19.1927H202.747ZM202.747 18.4656H204.478V17.0675L203.111 16.7731L202.747 18.4656ZM202.747 15.8946L203.111 17.5871L204.478 17.2927V15.8946H202.747ZM202.747 11.1423H204.478V9.41098H202.747V11.1423ZM199.994 13.3496L198.374 12.7397L198.372 12.7448L199.994 13.3496ZM199.423 22.5687H197.692V26.7946L200.657 23.7834L199.423 22.5687ZM204.911 17.1152C204.911 16.9893 204.944 16.8443 205.018 16.7124C205.087 16.5893 205.16 16.5338 205.168 16.5274C205.174 16.5235 205.132 16.5543 205.01 16.6001C204.891 16.645 204.719 16.695 204.485 16.7419L205.164 20.1373C205.876 19.9949 206.612 19.7598 207.207 19.326C207.871 18.8426 208.374 18.0881 208.374 17.1152H204.911ZM203.093 18.4396V25.0358H206.556V18.4396H203.093ZM203.731 26.3779L205.133 27.5206L207.32 24.8363L205.918 23.6936L203.731 26.3779ZM206.227 24.4471H201.371V27.9097H206.227V24.4471ZM202.476 27.5105L203.853 26.3678L201.641 23.7037L200.265 24.8463L202.476 27.5105ZM204.478 25.0358V20.4652H201.016V25.0358H204.478ZM201.532 19.2314L198.208 22.5035L200.637 24.9711L203.961 21.699L201.532 19.2314ZM197.692 23.7373V26.1784H201.154V23.7373H197.692ZM199.423 24.4471H197.371V27.9097H199.423V24.4471ZM199.103 26.1784V17.1411H195.64V26.1784H199.103ZM199.103 17.1411C199.103 15.1998 199.666 13.9104 200.606 13.0291L198.239 10.502C196.445 12.183 195.64 14.4773 195.64 17.1411H199.103ZM200.612 13.0235C201.32 12.3549 202.113 11.9622 203.028 11.8118L202.466 8.39514C200.853 8.66032 199.431 9.37564 198.233 10.5075L200.612 13.0235ZM204.478 10.1035V9.27248H201.016V10.1035H204.478ZM203.662 7.8028L202.286 6.94582L200.455 9.88517L201.832 10.7422L203.662 7.8028ZM201.371 10.1468H206.227V6.68422H201.371V10.1468ZM205.324 6.93823L203.922 7.79521L205.727 10.7497L207.13 9.89277L205.324 6.93823ZM203.093 9.27248V15.8946H206.556V9.27248H203.093ZM204.485 17.5923C204.727 17.6407 204.908 17.6913 205.037 17.7377C205.101 17.7604 205.148 17.7804 205.179 17.7957C205.211 17.8112 205.224 17.8198 205.223 17.8189C205.221 17.818 205.201 17.8045 205.171 17.7748C205.141 17.7446 205.099 17.6969 205.057 17.6292C204.964 17.4797 204.911 17.2968 204.911 17.1152H208.374C208.374 16.0934 207.785 15.3689 207.153 14.9442C206.573 14.555 205.86 14.3361 205.164 14.197L204.485 17.5923ZM204.478 19.1927V18.4656H201.016V19.1927H204.478ZM203.111 16.7731C202.901 16.7279 202.752 16.6809 202.651 16.6406C202.549 16.5996 202.522 16.5754 202.536 16.5869C202.555 16.6014 202.627 16.6625 202.692 16.7848C202.761 16.9139 202.79 17.0513 202.79 17.1671H199.328C199.328 18.0958 199.785 18.8391 200.425 19.3314C200.999 19.7724 201.707 20.0125 202.382 20.158L203.111 16.7731ZM202.79 17.1671C202.79 17.2958 202.757 17.4424 202.684 17.5767C202.615 17.7028 202.54 17.7641 202.523 17.777C202.509 17.7873 202.539 17.7623 202.644 17.7208C202.748 17.68 202.899 17.6328 203.111 17.5871L202.382 14.2022C201.711 14.3467 201.009 14.5824 200.439 15.0121C199.804 15.4908 199.328 16.2276 199.328 17.1671H202.79ZM204.478 15.8946V11.1423H201.016V15.8946H204.478ZM202.747 9.41098C201.75 9.41098 200.809 9.7067 200.015 10.3434C199.245 10.9604 198.725 11.8081 198.374 12.7397L201.614 13.9596C201.818 13.4196 202.033 13.1636 202.181 13.0448C202.304 12.9457 202.463 12.8735 202.747 12.8735V9.41098ZM198.372 12.7448C197.897 14.02 197.692 15.513 197.692 17.1671H201.154C201.154 15.7742 201.33 14.7222 201.616 13.9545L198.372 12.7448ZM197.692 17.1671V22.5687H201.154V17.1671H197.692ZM200.657 23.7834L203.981 20.4074L201.513 17.978L198.189 21.354L200.657 23.7834ZM215.779 26.1784V27.9097H217.51V26.1784H215.779ZM213.727 26.1784H211.996V27.9097H213.727V26.1784ZM213.727 16.9074H215.459V15.1761H213.727V16.9074ZM212.896 16.9074V15.1761H212.5L212.142 15.349L212.896 16.9074ZM211.312 18.907L212.87 19.6634L212.871 19.6611L211.312 18.907ZM210.429 26.1784V27.9097H212.161V26.1784H210.429ZM208.378 26.1784H206.646V27.9097H208.378V26.1784ZM209.131 18.8811L207.532 18.2165L207.528 18.2264L209.131 18.8811ZM211.728 16.3621L211.946 18.0795L211.923 14.6418L211.728 16.3621ZM209.313 14.4403L210.805 13.5626L210.804 13.5604L209.313 14.4403ZM208.56 9.81783L210.269 10.0898L210.272 10.0708L210.275 10.0518L208.56 9.81783ZM209.365 8.80504L210.263 10.2849L210.273 10.2791L210.282 10.2732L209.365 8.80504ZM215.779 8.4155H217.51V6.68422H215.779V8.4155ZM213.727 16.2582V17.9895H215.459V16.2582H213.727ZM213.727 9.06473H215.459V7.33345H213.727V9.06473ZM210.611 9.06473V7.33345H209.079L208.893 8.8537L210.611 9.06473ZM211.182 14.2066L212.726 13.4223L212.725 13.4216L211.182 14.2066ZM213.13 16.2582L212.475 17.8606L212.79 17.9895H213.13V16.2582ZM215.779 24.4471H213.727V27.9097H215.779V24.4471ZM215.459 26.1784V16.9074H211.996V26.1784H215.459ZM213.727 15.1761H212.896V18.6387H213.727V15.1761ZM212.142 15.349C211.043 15.8808 210.3 17.024 209.754 18.153L212.871 19.6611C213.095 19.1967 213.294 18.8804 213.455 18.6772C213.621 18.4672 213.695 18.4442 213.65 18.4658L212.142 15.349ZM209.755 18.1506C209.056 19.5891 208.698 21.1021 208.698 22.6726H212.161C212.161 21.6461 212.391 20.6487 212.87 19.6634L209.755 18.1506ZM208.698 22.6726V26.1784H212.161V22.6726H208.698ZM210.429 24.4471H208.378V27.9097H210.429V24.4471ZM210.109 26.1784V22.6466H206.646V26.1784H210.109ZM210.109 22.6466C210.109 21.5981 210.313 20.5648 210.734 19.5357L207.528 18.2264C206.944 19.6557 206.646 21.1328 206.646 22.6466H210.109ZM210.729 19.5457C211.265 18.2565 211.752 18.1042 211.946 18.0795L211.51 14.6446C209.522 14.897 208.277 16.424 207.532 18.2165L210.729 19.5457ZM211.923 14.6418C211.768 14.6243 211.359 14.5049 210.805 13.5626L207.82 15.3181C208.651 16.7304 209.852 17.892 211.533 18.0824L211.923 14.6418ZM210.804 13.5604C210.3 12.7067 210.109 11.9864 210.109 11.376H206.646C206.646 12.7392 207.079 14.0618 207.822 15.3203L210.804 13.5604ZM210.109 11.376C210.109 11.256 210.146 10.8669 210.269 10.0898L206.85 9.54582C206.731 10.2923 206.646 10.942 206.646 11.376H210.109ZM210.275 10.0518C210.265 10.1229 210.246 10.1887 210.22 10.2452C210.196 10.3006 210.17 10.3374 210.155 10.3563C210.129 10.3892 210.144 10.3575 210.263 10.2849L208.466 7.32516C207.753 7.75785 206.995 8.47698 206.844 9.58391L210.275 10.0518ZM210.282 10.2732C210.473 10.1542 210.574 10.1468 210.611 10.1468V6.68422C209.817 6.68422 209.088 6.9365 208.447 7.33692L210.282 10.2732ZM210.611 10.1468H215.779V6.68422H210.611V10.1468ZM214.048 8.4155V26.1784H217.51V8.4155H214.048ZM215.459 16.2582V9.06473H211.996V16.2582H215.459ZM213.727 7.33345H210.611V10.796H213.727V7.33345ZM208.893 8.8537C208.768 9.86749 208.698 10.727 208.698 11.402H212.161C212.161 10.9342 212.212 10.2356 212.329 9.27575L208.893 8.8537ZM208.698 11.402C208.698 12.6183 209.044 13.822 209.639 14.9917L212.725 13.4216C212.316 12.6176 212.161 11.9515 212.161 11.402H208.698ZM209.639 14.991C210.283 16.2574 211.19 17.3349 212.475 17.8606L213.786 14.6558C213.547 14.5582 213.156 14.268 212.726 13.4223L209.639 14.991ZM213.13 17.9895H213.727V14.5269H213.13V17.9895ZM227.173 16.8035V18.5348H228.905V16.8035H227.173ZM226.342 16.8035V15.0723H225.945L225.587 15.2457L226.342 16.8035ZM224.758 18.5435L226.27 19.3864L226.276 19.3767L224.758 18.5435ZM223.901 22.3869L225.581 22.8068L225.606 22.7054L225.619 22.6016L223.901 22.3869ZM223.927 22.1792H225.658L222.209 21.9644L223.927 22.1792ZM223.927 22.9063V24.6376H225.658V22.9063H223.927ZM221.876 22.9063L220.147 23.008L220.243 24.6376H221.876V22.9063ZM221.824 22.0233L223.552 21.9217L223.552 21.9142L221.824 22.0233ZM222.837 17.8683L221.416 16.8789L221.413 16.8828L222.837 17.8683ZM225.174 16.2582L225.376 17.9776L225.352 14.5361L225.174 16.2582ZM222.733 14.3624L221.203 15.1725L221.208 15.1819L222.733 14.3624ZM221.824 11.2721L220.103 11.4633L220.104 11.4744L221.824 11.2721ZM221.72 10.3372V8.60594H219.786L219.999 10.5284L221.72 10.3372ZM223.771 10.3372L225.493 10.1511L225.326 8.60594H223.771V10.3372ZM223.875 11.2981L225.597 11.1136L225.597 11.112L223.875 11.2981ZM224.68 14.0768L226.239 13.3227L226.235 13.3147L224.68 14.0768ZM226.576 16.1543L225.908 17.7513L226.228 17.8856H226.576V16.1543ZM227.173 16.1543H228.905V14.423H227.173V16.1543ZM222.525 16.9074V18.6387H224.256V16.9074H222.525ZM221.694 16.9074V15.1761H221.296L220.939 15.3496L221.694 16.9074ZM220.11 18.6473L221.622 19.4903L221.627 19.4805L220.11 18.6473ZM219.253 22.4908L220.932 22.9107L220.958 22.8093L220.971 22.7055L219.253 22.4908ZM219.279 22.283H221.01L217.561 22.0683L219.279 22.283ZM219.279 23.0102V24.7414H221.01V23.0102H219.279ZM217.227 23.0102L215.499 23.1118L215.595 24.7414H217.227V23.0102ZM217.175 22.1272L218.904 22.0256L218.903 22.0181L217.175 22.1272ZM218.188 17.9722L216.767 16.9827L216.765 16.9867L218.188 17.9722ZM220.525 16.3621L220.728 18.0815L220.703 14.64L220.525 16.3621ZM218.084 14.4663L216.554 15.2764L216.559 15.2858L218.084 14.4663ZM217.175 11.376L215.454 11.5672L215.456 11.5783L217.175 11.376ZM217.071 10.4411V8.70982H215.137L215.351 10.6323L217.071 10.4411ZM219.123 10.4411L220.844 10.255L220.677 8.70982H219.123V10.4411ZM219.227 11.402L220.948 11.2175L220.948 11.2159L219.227 11.402ZM220.032 14.1807L221.59 13.4266L221.586 13.4186L220.032 14.1807ZM221.928 16.2582L221.259 17.8552L221.58 17.9895H221.928V16.2582ZM222.525 16.2582H224.256V14.5269H222.525V16.2582ZM227.173 15.0723H226.342V18.5348H227.173V15.0723ZM225.587 15.2457C224.553 15.7469 223.805 16.683 223.241 17.7103L226.276 19.3767C226.681 18.638 226.989 18.4141 227.098 18.3614L225.587 15.2457ZM223.246 17.7006C222.505 19.0298 222.144 20.4913 222.144 22.0493H225.607C225.607 21.045 225.834 20.1693 226.27 19.3864L223.246 17.7006ZM222.144 22.0493C222.144 22.1924 222.146 22.3562 222.156 22.4872C222.158 22.5224 222.164 22.5874 222.176 22.6638C222.182 22.7015 222.194 22.7675 222.215 22.8472C222.23 22.9004 222.28 23.0867 222.405 23.2955C222.469 23.4022 222.97 24.214 224.025 24.1329C224.501 24.0962 224.836 23.8777 225.016 23.724C225.194 23.5725 225.302 23.4184 225.356 23.3338C225.462 23.1663 225.515 23.0184 225.533 22.968C225.557 22.8992 225.572 22.8416 225.581 22.8068L222.222 21.967C222.228 21.9409 222.241 21.8905 222.263 21.8275C222.279 21.783 222.33 21.6394 222.435 21.4749C222.487 21.3918 222.594 21.2389 222.771 21.0881C222.951 20.9352 223.284 20.7171 223.76 20.6805C224.813 20.5995 225.312 21.41 225.374 21.514C225.498 21.7201 225.547 21.9023 225.56 21.95C225.58 22.0241 225.59 22.0832 225.595 22.1125C225.604 22.1721 225.607 22.2146 225.608 22.2217C225.609 22.2402 225.607 22.2005 225.607 22.0493H222.144ZM225.619 22.6016L225.645 22.3939L222.209 21.9644L222.183 22.1722L225.619 22.6016ZM222.196 22.1792V22.9063H225.658V22.1792H222.196ZM223.927 21.175H221.876V24.6376H223.927V21.175ZM223.604 22.8046L223.552 21.9217L220.095 22.125L220.147 23.008L223.604 22.8046ZM223.552 21.9142C223.467 20.5762 223.745 19.5972 224.26 18.8537L221.413 16.8828C220.37 18.39 219.973 20.1811 220.096 22.1325L223.552 21.9142ZM224.257 18.8577C224.748 18.1536 225.133 18.0062 225.376 17.9776L224.971 14.5388C223.449 14.7179 222.276 15.6439 221.416 16.8789L224.257 18.8577ZM225.352 14.5361C225.088 14.5088 224.701 14.3687 224.258 13.543L221.208 15.1819C222.01 16.676 223.251 17.7998 224.996 17.9803L225.352 14.5361ZM224.263 13.5524C223.912 12.8903 223.661 12.0733 223.543 11.0698L220.104 11.4744C220.263 12.8254 220.618 14.0687 221.203 15.1725L224.263 13.5524ZM223.544 11.0809L223.441 10.146L219.999 10.5284L220.103 11.4633L223.544 11.0809ZM221.72 12.0685H223.771V8.60594H221.72V12.0685ZM222.05 10.5233L222.154 11.4842L225.597 11.112L225.493 10.1511L222.05 10.5233ZM222.154 11.4825C222.279 12.6546 222.605 13.7761 223.126 14.8388L226.235 13.3147C225.89 12.6115 225.679 11.8806 225.597 11.1136L222.154 11.4825ZM223.122 14.8309C223.739 16.1071 224.624 17.214 225.908 17.7513L227.245 14.5573C227.039 14.4714 226.66 14.1932 226.239 13.3227L223.122 14.8309ZM226.576 17.8856H227.173V14.423H226.576V17.8856ZM225.442 16.1543V16.8035H228.905V16.1543H225.442ZM222.525 15.1761H221.694V18.6387H222.525V15.1761ZM220.939 15.3496C219.905 15.8508 219.156 16.7869 218.592 17.8142L221.627 19.4805C222.033 18.7419 222.34 18.518 222.449 18.4652L220.939 15.3496ZM218.598 17.8045C217.857 19.1337 217.496 20.5952 217.496 22.1532H220.958C220.958 21.1489 221.186 20.2732 221.622 19.4902L218.598 17.8045ZM217.496 22.1532C217.496 22.2963 217.497 22.46 217.507 22.5911C217.51 22.6263 217.515 22.6913 217.528 22.7677C217.534 22.8054 217.546 22.8714 217.567 22.9511C217.581 23.0043 217.632 23.1906 217.757 23.3994C217.821 23.5061 218.321 24.3179 219.377 24.2367C219.853 24.2001 220.188 23.9816 220.368 23.8279C220.546 23.6764 220.653 23.5223 220.707 23.4377C220.814 23.2702 220.867 23.1223 220.884 23.0719C220.908 23.0031 220.924 22.9454 220.932 22.9107L217.573 22.0709C217.58 22.0448 217.593 21.9944 217.615 21.9314C217.63 21.8868 217.681 21.7433 217.786 21.5787C217.839 21.4956 217.946 21.3427 218.123 21.192C218.302 21.0391 218.636 20.8209 219.111 20.7844C220.165 20.7034 220.664 21.5139 220.726 21.6179C220.85 21.824 220.898 22.0062 220.911 22.0538C220.931 22.128 220.941 22.187 220.946 22.2163C220.956 22.276 220.959 22.3185 220.959 22.3255C220.961 22.3441 220.958 22.3044 220.958 22.1532H217.496ZM220.971 22.7055L220.997 22.4978L217.561 22.0683L217.535 22.276L220.971 22.7055ZM217.547 22.283V23.0102H221.01V22.283H217.547ZM219.279 21.2789H217.227V24.7414H219.279V21.2789ZM218.955 22.9085L218.904 22.0256L215.447 22.2289L215.499 23.1118L218.955 22.9085ZM218.903 22.0181C218.819 20.6801 219.097 19.7011 219.611 18.9576L216.765 16.9867C215.721 18.4938 215.324 20.2849 215.447 22.2363L218.903 22.0181ZM219.609 18.9616C220.099 18.2575 220.485 18.1101 220.728 18.0815L220.323 14.6426C218.8 14.8218 217.627 15.7478 216.767 16.9827L219.609 18.9616ZM220.703 14.64C220.44 14.6127 220.053 14.4726 219.609 13.6469L216.559 15.2858C217.362 16.7799 218.603 17.9037 220.347 18.0842L220.703 14.64ZM219.614 13.6563C219.264 12.9942 219.013 12.1772 218.895 11.1737L215.456 11.5783C215.615 12.9293 215.97 14.1726 216.554 15.2764L219.614 13.6563ZM218.896 11.1848L218.792 10.2499L215.351 10.6323L215.455 11.5672L218.896 11.1848ZM217.071 12.1724H219.123V8.70982H217.071V12.1724ZM217.402 10.6272L217.506 11.588L220.948 11.2159L220.844 10.255L217.402 10.6272ZM217.505 11.5864C217.631 12.7584 217.956 13.88 218.477 14.9427L221.586 13.4186C221.242 12.7154 221.03 11.9845 220.948 11.2175L217.505 11.5864ZM218.473 14.9347C219.091 16.211 219.975 17.3178 221.259 17.8552L222.596 14.6612C222.391 14.5753 222.011 14.2971 221.59 13.4266L218.473 14.9347ZM221.928 17.9895H222.525V14.5269H221.928V17.9895ZM220.794 16.2582V16.9074H224.256V16.2582H220.794Z" fill="#E3DFC5"/>
</svg>
