<svg width="194" height="37" viewBox="0 0 194 37" fill="none" xmlns="http://www.w3.org/2000/svg">
<path d="M9.47658 26.8172H7.42501V9.70352H3.97112V26.8172H1.91955V9.05429H9.47658V26.8172ZM19.465 12.7939C19.465 14.2308 19.0754 15.5552 18.2964 16.7671C17.4134 18.1522 16.2967 18.8447 14.9463 18.8447H14.1153V26.8172H12.0638V9.05429H17.1537C17.5692 9.05429 17.9847 9.14951 18.4002 9.33995C18.885 9.56502 19.1533 9.85934 19.2053 10.2229C19.3784 11.5733 19.465 12.4303 19.465 12.7939ZM17.4134 12.8198C17.4134 12.2139 17.3268 11.1751 17.1537 9.70352H14.1153V18.1954H14.7126C15.4744 17.8838 16.1323 17.1047 16.6863 15.8582C17.171 14.7675 17.4134 13.7547 17.4134 12.8198ZM29.1056 26.8172H27.0541V15.5985L23.6002 19.9873V26.8172H21.5486V9.05429H23.6002V18.559L27.0541 14.1442V9.05429H29.1056V26.8172ZM39.2498 26.8172H37.1983V15.5985L33.7444 19.9873V26.8172H31.6928V9.05429H33.7444V18.559L37.1983 14.1442V9.05429H39.2498V26.8172ZM49.6277 24.0645C49.0045 25.3629 48.1215 26.2805 46.9789 26.8172C46.7711 26.8865 46.4595 27.0336 46.044 27.2587C45.9401 27.1548 45.6112 27.025 45.0572 26.8691C44.5205 26.7133 44.1915 26.5921 44.0703 26.5056C43.1181 25.7957 42.391 24.3501 41.8889 22.1687C41.5081 20.5413 41.3176 18.8879 41.3176 17.2086C41.3176 15.4427 41.5167 13.8846 41.9149 12.5342C42.4689 10.5951 43.3778 9.43517 44.6417 9.05429H45.4207C45.5592 9.05429 45.767 8.88982 46.044 8.56088C46.3383 8.88982 46.5461 9.05429 46.6673 9.05429H47.4463C48.4851 9.45249 49.1084 10.8289 49.3161 13.1834H47.2905C47.1866 12.1446 47.1087 11.5214 47.0568 11.3136C46.8664 10.5345 46.5288 10.0152 46.044 9.75546C45.0225 10.171 44.2694 11.2617 43.7847 13.0276C43.4384 14.2914 43.274 15.6764 43.2913 17.1826C43.3086 18.7927 43.5163 20.4028 43.9145 22.0129C44.4166 24.1078 45.1264 25.5187 46.044 26.2459C46.875 25.588 47.3684 24.8609 47.5242 24.0645H49.6277ZM59.0527 26.8172H57.0012V22.792C57.0012 21.5108 56.7068 20.3422 56.1182 19.2861C55.6335 18.4032 55.1054 17.8232 54.5341 17.5462H53.7031V26.8172H51.6515V9.05429H53.7031V16.897H54.3004C55.0968 16.568 55.7633 15.8842 56.3 14.8454C56.7674 13.9105 57.0012 12.9756 57.0012 12.0407V9.05429H59.0527V12.0148C59.0527 13.1747 58.7844 14.2308 58.2477 15.183C57.6244 16.291 56.7761 16.897 55.7027 17.0009C56.828 17.1394 57.6937 17.8838 58.2996 19.2342C58.8017 20.3076 59.0527 21.4849 59.0527 22.766V26.8172ZM80.3123 11.0799L80.2085 12.0148C80.07 13.192 79.767 14.2222 79.2995 15.1051C78.6763 16.2651 77.8626 16.897 76.8584 17.0009C77.7414 17.1047 78.5205 17.6414 79.1957 18.6109C79.9747 19.7363 80.3123 21.1213 80.2085 22.766L80.1565 23.649H78.105V22.9218L78.1309 23.1296C78.1482 23.1988 78.1569 23.0863 78.1569 22.792C78.1569 21.5108 77.8626 20.3422 77.2739 19.2861C76.7892 18.4032 76.2611 17.8232 75.6898 17.5462H74.8588V16.897H75.4561C76.2006 16.5853 76.8325 15.8928 77.3519 14.8194C77.7847 13.9365 78.053 13.0103 78.1569 12.0407L78.2608 11.0799H80.3123ZM75.6639 10.976L75.56 11.9109C75.4215 13.0882 75.1185 14.1183 74.6511 15.0012C74.0278 16.1612 73.2141 16.7931 72.21 16.897C73.0929 17.0009 73.872 17.5376 74.5472 18.5071C75.3263 19.6324 75.6639 21.0174 75.56 22.6621L75.508 23.5451H73.4565V22.8179L73.4824 23.0257C73.4998 23.095 73.5084 22.9824 73.5084 22.6881C73.5084 21.407 73.2141 20.2383 72.6255 19.1823C72.1407 18.2993 71.6127 17.7193 71.0413 17.4423H70.2103V16.7931H70.8076C71.5521 16.4815 72.184 15.789 72.7034 14.7156C73.1362 13.8326 73.4045 12.9064 73.5084 11.9369L73.6123 10.976H75.6639ZM89.2396 17.2086C89.2396 18.8879 89.0492 20.55 88.6683 22.1947C88.1663 24.3588 87.4391 25.7957 86.4869 26.5056C85.9156 26.6787 85.2577 26.9297 84.5133 27.2587C84.3401 27.1202 84.0285 26.973 83.5784 26.8172C83.0244 26.5402 82.6089 26.2892 82.3318 26.0641C81.8125 25.6313 81.345 24.9647 80.9295 24.0645H83.033C83.5351 25.1032 84.0458 25.8304 84.5652 26.2459C85.4655 25.5014 86.1666 24.1164 86.6687 22.0908C87.0669 20.498 87.266 18.9226 87.266 17.3644H86.409C86.0281 17.3644 85.6819 17.5289 85.3702 17.8578C85.0759 18.1868 84.9288 18.5417 84.9288 18.9226H83.007C83.1629 18.3686 83.4399 17.8665 83.8381 17.4164C84.2536 16.9489 84.721 16.7152 85.2404 16.7152H87.266C87.266 13.4085 86.3917 11.0885 84.6431 9.75546C83.8813 10.4826 83.4226 11.6252 83.2667 13.1834H81.2411C81.4489 10.8115 82.0981 9.43517 83.1888 9.05429H84.1757C84.2968 9.05429 84.444 8.88982 84.6171 8.56088C84.7729 8.88982 84.9201 9.05429 85.0586 9.05429H85.8377C87.1188 9.43517 88.0451 10.5951 88.6164 12.5342C89.0319 13.8846 89.2396 15.4427 89.2396 17.2086ZM98.8204 15.183L96.691 13.0795V9.70352H93.3929V16.897H93.9902C94.0421 16.897 94.1114 16.8883 94.1979 16.871H94.5096C94.7173 16.871 94.9683 16.897 95.2627 16.9489C95.3665 16.9662 95.4185 16.9835 95.4185 17.0009C95.8513 17.0528 96.2928 17.2605 96.7429 17.6241C98.076 18.7148 98.7425 20.4288 98.7425 22.766V25.9083C98.7425 26.2199 98.4655 26.4623 97.9115 26.6354C97.5133 26.7566 97.1065 26.8172 96.691 26.8172H91.3413V9.05429H98.8204V15.183ZM96.665 22.792C96.665 21.078 96.1716 19.6151 95.1848 18.4032C94.8558 17.9877 94.5269 17.702 94.1979 17.5462H93.3669V26.168H96.665V22.792ZM108.66 26.8172H101.155V9.05429H108.66V15.183L106.531 13.0795V9.70352H103.233V16.7152H105.232C105.752 16.7152 106.228 16.9576 106.661 17.4423C107.042 17.8752 107.31 18.3686 107.466 18.9226H105.544C105.544 18.5417 105.388 18.1868 105.077 17.8578C104.782 17.5289 104.445 17.3644 104.064 17.3644H103.233V26.168H106.531V22.792L108.66 20.6885V26.8172ZM120.52 17.754C120.52 18.3945 119.914 18.836 118.702 19.0784V25.6746L120.104 26.8172H115.248L116.624 25.6746V19.1044C115.499 18.862 114.936 18.4292 114.936 17.8059C114.936 17.2 115.499 16.7758 116.624 16.5334V11.7811C115.343 11.7811 114.426 12.5168 113.872 13.9884C113.491 15.0099 113.3 16.2824 113.3 17.8059V26.8172H111.249V17.7799C111.249 15.4773 111.933 13.6855 113.3 12.4043C114.252 11.504 115.36 10.95 116.624 10.7423V9.91127L115.248 9.05429H120.104L118.702 9.91127V16.5334C119.914 16.7758 120.52 17.1826 120.52 17.754ZM129.656 26.8172H127.605V17.5462H126.774C126.237 17.8059 125.709 18.4724 125.19 19.5458C124.601 20.7577 124.307 22.0129 124.307 23.3114V26.8172H122.255V23.2854C122.255 22.0042 122.506 20.7491 123.008 19.5199C123.649 17.979 124.514 17.1394 125.605 17.0009C124.688 16.897 123.883 16.2564 123.19 15.0791C122.567 14.0231 122.255 13.0016 122.255 12.0148C122.255 11.7378 122.316 11.2184 122.437 10.4566C122.489 10.0757 122.757 9.73815 123.242 9.44383C123.658 9.18414 124.073 9.05429 124.489 9.05429H129.656V26.8172ZM127.605 16.897V9.70352H124.489C124.367 10.6903 124.307 11.4694 124.307 12.0407C124.307 12.9237 124.558 13.8586 125.06 14.8454C125.597 15.9015 126.246 16.5853 127.008 16.897H127.605ZM139.337 26.8172H137.285V22.8959C137.285 19.8661 136.74 18.1002 135.649 17.5981C134.991 17.8925 134.55 18.4984 134.325 19.416C134.134 20.1951 134.039 21.355 134.039 22.8959V26.8172H131.988V22.8959C131.988 21.407 132.083 20.273 132.273 19.4939C132.637 18.0569 133.329 17.2779 134.351 17.1567C133.347 17.0355 132.663 16.3949 132.299 15.235C132.091 14.5424 131.988 13.5296 131.988 12.1966V9.05429H134.039V12.1966C134.039 13.547 134.134 14.5598 134.325 15.235C134.55 16.0313 134.991 16.5594 135.649 16.8191C136.74 16.3516 137.285 14.8194 137.285 12.2225V9.05429H139.337V12.2225C139.337 15.3735 138.549 17.0268 136.974 17.1826C138.549 17.3731 139.337 19.2861 139.337 22.9218V26.8172ZM150.485 17.4423H149.654C149.083 17.7193 148.554 18.2993 148.07 19.1823C147.481 20.2383 147.187 21.407 147.187 22.6881C147.187 22.9824 147.195 23.095 147.213 23.0257L147.239 22.8179V23.5451H145.187L145.135 22.6621C145.031 21.0174 145.369 19.6324 146.148 18.5071C146.823 17.5376 147.602 17.0009 148.485 16.897C147.481 16.7931 146.667 16.1612 146.044 15.0012C145.577 14.1183 145.274 13.0882 145.135 11.9109L145.031 10.976H147.083L147.187 11.9369C147.291 12.9064 147.559 13.8326 147.992 14.7156C148.511 15.789 149.143 16.4815 149.888 16.7931H150.485V17.4423ZM145.836 17.5462H145.005C144.434 17.8232 143.906 18.4032 143.421 19.2861C142.833 20.3422 142.538 21.5108 142.538 22.792C142.538 23.0863 142.547 23.1988 142.564 23.1296L142.59 22.9218V23.649H140.539L140.487 22.766C140.383 21.1213 140.72 19.7363 141.5 18.6109C142.175 17.6414 142.954 17.1047 143.837 17.0009C142.833 16.897 142.019 16.2651 141.396 15.1051C140.928 14.2222 140.625 13.192 140.487 12.0148L140.383 11.0799H142.434L142.538 12.0407C142.642 13.0103 142.911 13.9365 143.343 14.8194C143.863 15.8928 144.495 16.5853 145.239 16.897H145.836V17.5462Z" fill="#551018"/>
<path d="M9.47658 26.8172V28.5485H11.2079V26.8172H9.47658ZM7.42501 26.8172H5.69374V28.5485H7.42501V26.8172ZM7.42501 9.70352H9.15629V7.97224H7.42501V9.70352ZM3.97112 9.70352V7.97224H2.23984V9.70352H3.97112ZM3.97112 26.8172V28.5485H5.70239V26.8172H3.97112ZM1.91955 26.8172H0.188274V28.5485H1.91955V26.8172ZM1.91955 9.05429V7.32301H0.188274V9.05429H1.91955ZM9.47658 9.05429H11.2079V7.32301H9.47658V9.05429ZM9.47658 25.0859H7.42501V28.5485H9.47658V25.0859ZM9.15629 26.8172V9.70352H5.69374V26.8172H9.15629ZM7.42501 7.97224H3.97112V11.4348H7.42501V7.97224ZM2.23984 9.70352V26.8172H5.70239V9.70352H2.23984ZM3.97112 25.0859H1.91955V28.5485H3.97112V25.0859ZM3.65083 26.8172V9.05429H0.188274V26.8172H3.65083ZM1.91955 10.7856H9.47658V7.32301H1.91955V10.7856ZM7.7453 9.05429V26.8172H11.2079V9.05429H7.7453ZM18.2964 16.7671L16.84 15.8309L16.8365 15.8365L18.2964 16.7671ZM14.1153 18.8447V17.1134H12.384V18.8447H14.1153ZM14.1153 26.8172V28.5485H15.8466V26.8172H14.1153ZM12.0638 26.8172H10.3325V28.5485H12.0638V26.8172ZM12.0638 9.05429V7.32301H10.3325V9.05429H12.0638ZM18.4002 9.33995L19.1293 7.76965L19.1216 7.76611L18.4002 9.33995ZM19.2053 10.2229L20.9225 10.0027L20.9209 9.99039L20.9192 9.97806L19.2053 10.2229ZM17.1537 9.70352L18.8731 9.50124L18.6933 7.97224H17.1537V9.70352ZM14.1153 9.70352V7.97224H12.384V9.70352H14.1153ZM14.1153 18.1954H12.384V19.9267H14.1153V18.1954ZM14.7126 18.1954V19.9267H15.053L15.3681 19.7978L14.7126 18.1954ZM16.6863 15.8582L18.2683 16.5614V16.5614L16.6863 15.8582ZM17.7337 12.7939C17.7337 13.8979 17.4401 14.8975 16.84 15.8309L19.7527 17.7033C20.7108 16.213 21.1962 14.5637 21.1962 12.7939H17.7337ZM16.8365 15.8365C16.1921 16.8472 15.5714 17.1134 14.9463 17.1134V20.5759C17.022 20.5759 18.6347 19.4571 19.7562 17.6978L16.8365 15.8365ZM14.9463 17.1134H14.1153V20.5759H14.9463V17.1134ZM12.384 18.8447V26.8172H15.8466V18.8447H12.384ZM14.1153 25.0859H12.0638V28.5485H14.1153V25.0859ZM13.795 26.8172V9.05429H10.3325V26.8172H13.795ZM12.0638 10.7856H17.1537V7.32301H12.0638V10.7856ZM17.1537 10.7856C17.2963 10.7856 17.4669 10.8166 17.6789 10.9138L19.1216 7.76611C18.5026 7.48241 17.8422 7.32301 17.1537 7.32301V10.7856ZM17.6712 10.9102C17.7724 10.9572 17.7495 10.9659 17.6857 10.8959C17.6512 10.858 17.6076 10.8001 17.5691 10.721C17.5301 10.6409 17.5038 10.5543 17.4914 10.4677L20.9192 9.97806C20.7506 8.79833 19.885 8.12051 19.1293 7.76967L17.6712 10.9102ZM17.4881 10.4431C17.6658 11.8296 17.7337 12.5646 17.7337 12.7939H21.1962C21.1962 12.296 21.091 11.317 20.9225 10.0027L17.4881 10.4431ZM19.1447 12.8198C19.1447 12.1013 19.0461 10.9717 18.8731 9.50124L15.4343 9.90581C15.6076 11.3786 15.6821 12.3264 15.6821 12.8198H19.1447ZM17.1537 7.97224H14.1153V11.4348H17.1537V7.97224ZM12.384 9.70352V18.1954H15.8466V9.70352H12.384ZM14.1153 19.9267H14.7126V16.4642H14.1153V19.9267ZM15.3681 19.7978C16.7428 19.2354 17.6453 17.9632 18.2683 16.5614L15.1042 15.1551C14.6192 16.2462 14.2059 16.5322 14.0571 16.5931L15.3681 19.7978ZM18.2683 16.5614C18.8253 15.3083 19.1447 14.0541 19.1447 12.8198H15.6821C15.6821 13.4553 15.5168 14.2268 15.1042 15.1551L18.2683 16.5614ZM29.1056 26.8172V28.5485H30.8369V26.8172H29.1056ZM27.0541 26.8172H25.3228V28.5485H27.0541V26.8172ZM27.0541 15.5985H28.7853V10.5992L25.6936 14.5278L27.0541 15.5985ZM23.6002 19.9873L22.2397 18.9166L21.8689 19.3878V19.9873H23.6002ZM23.6002 26.8172V28.5485H25.3314V26.8172H23.6002ZM21.5486 26.8172H19.8173V28.5485H21.5486V26.8172ZM21.5486 9.05429V7.32301H19.8173V9.05429H21.5486ZM23.6002 9.05429H25.3314V7.32301H23.6002V9.05429ZM23.6002 18.559H21.8689V23.5816L24.9637 19.6258L23.6002 18.559ZM27.0541 14.1442L28.4176 15.211L28.7853 14.741V14.1442H27.0541ZM27.0541 9.05429V7.32301H25.3228V9.05429H27.0541ZM29.1056 9.05429H30.8369V7.32301H29.1056V9.05429ZM29.1056 25.0859H27.0541V28.5485H29.1056V25.0859ZM28.7853 26.8172V15.5985H25.3228V26.8172H28.7853ZM25.6936 14.5278L22.2397 18.9166L24.9606 21.058L28.4145 16.6692L25.6936 14.5278ZM21.8689 19.9873V26.8172H25.3314V19.9873H21.8689ZM23.6002 25.0859H21.5486V28.5485H23.6002V25.0859ZM23.2799 26.8172V9.05429H19.8173V26.8172H23.2799ZM21.5486 10.7856H23.6002V7.32301H21.5486V10.7856ZM21.8689 9.05429V18.559H25.3314V9.05429H21.8689ZM24.9637 19.6258L28.4176 15.211L25.6905 13.0775L22.2366 17.4922L24.9637 19.6258ZM28.7853 14.1442V9.05429H25.3228V14.1442H28.7853ZM27.0541 10.7856H29.1056V7.32301H27.0541V10.7856ZM27.3743 9.05429V26.8172H30.8369V9.05429H27.3743ZM39.2498 26.8172V28.5485H40.9811V26.8172H39.2498ZM37.1983 26.8172H35.467V28.5485H37.1983V26.8172ZM37.1983 15.5985H38.9295V10.5992L35.8378 14.5278L37.1983 15.5985ZM33.7444 19.9873L32.3839 18.9166L32.0131 19.3878V19.9873H33.7444ZM33.7444 26.8172V28.5485H35.4756V26.8172H33.7444ZM31.6928 26.8172H29.9615V28.5485H31.6928V26.8172ZM31.6928 9.05429V7.32301H29.9615V9.05429H31.6928ZM33.7444 9.05429H35.4756V7.32301H33.7444V9.05429ZM33.7444 18.559H32.0131V23.5816L35.1079 19.6258L33.7444 18.559ZM37.1983 14.1442L38.5618 15.211L38.9295 14.741V14.1442H37.1983ZM37.1983 9.05429V7.32301H35.467V9.05429H37.1983ZM39.2498 9.05429H40.9811V7.32301H39.2498V9.05429ZM39.2498 25.0859H37.1983V28.5485H39.2498V25.0859ZM38.9295 26.8172V15.5985H35.467V26.8172H38.9295ZM35.8378 14.5278L32.3839 18.9166L35.1049 21.058L38.5588 16.6692L35.8378 14.5278ZM32.0131 19.9873V26.8172H35.4756V19.9873H32.0131ZM33.7444 25.0859H31.6928V28.5485H33.7444V25.0859ZM33.4241 26.8172V9.05429H29.9615V26.8172H33.4241ZM31.6928 10.7856H33.7444V7.32301H31.6928V10.7856ZM32.0131 9.05429V18.559H35.4756V9.05429H32.0131ZM35.1079 19.6258L38.5618 15.211L35.8347 13.0775L32.3808 17.4922L35.1079 19.6258ZM38.9295 14.1442V9.05429H35.467V14.1442H38.9295ZM37.1983 10.7856H39.2498V7.32301H37.1983V10.7856ZM37.5185 9.05429V26.8172H40.9811V9.05429H37.5185ZM49.6277 24.0645L51.1885 24.8136L52.3792 22.3332H49.6277V24.0645ZM46.9789 26.8172L47.5264 28.4596L47.6229 28.4275L47.7149 28.3842L46.9789 26.8172ZM46.044 27.2587L44.8198 28.4829L45.733 29.3961L46.8686 28.781L46.044 27.2587ZM45.0572 26.8691L44.5745 28.5318L44.5814 28.5338L44.5884 28.5358L45.0572 26.8691ZM44.0703 26.5056L43.0356 27.8936L43.0497 27.9041L43.0641 27.9144L44.0703 26.5056ZM41.8889 22.1687L43.5761 21.7804L43.5747 21.7742L41.8889 22.1687ZM41.9149 12.5342L43.5755 13.0238L43.5776 13.0168L43.5796 13.0098L41.9149 12.5342ZM44.6417 9.05429V7.32301H44.3865L44.1421 7.39666L44.6417 9.05429ZM46.044 8.56088L47.3342 7.40647L46.0044 5.92018L44.7197 7.4457L46.044 8.56088ZM47.4463 9.05429L48.066 7.43772L47.7668 7.32301H47.4463V9.05429ZM49.3161 13.1834V14.9147H51.2069L51.0407 13.0312L49.3161 13.1834ZM47.2905 13.1834L45.5678 13.3557L45.7237 14.9147H47.2905V13.1834ZM47.0568 11.3136L45.375 11.7247L45.3772 11.7335L47.0568 11.3136ZM46.044 9.75546L46.8615 8.22937L46.1448 7.84541L45.3917 8.15179L46.044 9.75546ZM43.7847 13.0276L42.1152 12.5693L42.1149 12.5701L43.7847 13.0276ZM43.2913 17.1826L45.0224 17.164L45.0224 17.1627L43.2913 17.1826ZM43.9145 22.0129L45.5982 21.6094L45.5952 21.5973L43.9145 22.0129ZM46.044 26.2459L44.9687 27.6028L46.0435 28.4544L47.1186 27.6033L46.044 26.2459ZM47.5242 24.0645V22.3332H46.0989L45.8252 23.732L47.5242 24.0645ZM48.067 23.3153C47.5906 24.3078 46.9744 24.9066 46.2429 25.2502L47.7149 28.3842C49.2687 27.6544 50.4184 26.4181 51.1885 24.8136L48.067 23.3153ZM46.4314 25.1748C46.0704 25.2951 45.6463 25.5052 45.2194 25.7364L46.8686 28.781C47.2728 28.562 47.4719 28.4778 47.5264 28.4596L46.4314 25.1748ZM47.2682 26.0345C46.9355 25.7018 46.5141 25.5358 46.3551 25.473C46.1129 25.3774 45.8292 25.2878 45.5259 25.2025L44.5884 28.5358C44.7103 28.57 44.8128 28.6009 44.8976 28.6283C44.9833 28.6561 45.0439 28.678 45.0837 28.6937C45.1271 28.7109 45.1276 28.7134 45.1013 28.6993C45.087 28.6915 45.0548 28.6735 45.012 28.644C44.9715 28.6161 44.9005 28.5636 44.8198 28.4829L47.2682 26.0345ZM45.5399 25.2065C45.2906 25.1341 45.1173 25.0777 45.0065 25.0369C44.9802 25.0272 44.9603 25.0194 44.9459 25.0136C44.9313 25.0077 44.9251 25.0048 44.9257 25.0051C44.9262 25.0053 44.9293 25.0067 44.9347 25.0094C44.94 25.0121 44.9486 25.0165 44.9599 25.0227C44.9797 25.0336 45.0222 25.0579 45.0766 25.0968L43.0641 27.9144C43.3323 28.106 43.6423 28.2244 43.8094 28.2859C44.0275 28.3663 44.287 28.4483 44.5745 28.5318L45.5399 25.2065ZM45.1051 25.1175C44.669 24.7924 44.0573 23.871 43.5761 21.7804L40.2018 22.557C40.7247 24.8292 41.5673 26.7991 43.0356 27.8936L45.1051 25.1175ZM43.5747 21.7742C43.2242 20.2767 43.0489 18.7558 43.0489 17.2086H39.5863C39.5863 19.0201 39.7919 20.8059 40.2032 22.5633L43.5747 21.7742ZM43.0489 17.2086C43.0489 15.5684 43.2343 14.1809 43.5755 13.0238L40.2543 12.0445C39.7991 13.5883 39.5863 15.3171 39.5863 17.2086H43.0489ZM43.5796 13.0098C44.0621 11.321 44.6973 10.8457 45.1412 10.7119L44.1421 7.39666C42.0584 8.02462 40.8758 9.86924 40.2502 12.0585L43.5796 13.0098ZM44.6417 10.7856H45.4207V7.32301H44.6417V10.7856ZM45.4207 10.7856C46.1037 10.7856 46.5855 10.4225 46.755 10.2883C46.9885 10.1035 47.195 9.88185 47.3683 9.67606L44.7197 7.4457C44.616 7.56885 44.5801 7.59388 44.6058 7.57354C44.6205 7.56195 44.6848 7.51185 44.7948 7.45963C44.8998 7.40973 45.1195 7.32301 45.4207 7.32301V10.7856ZM44.7538 9.71529C44.9296 9.91183 45.1305 10.1177 45.3459 10.2883C45.4541 10.374 45.6031 10.4806 45.7859 10.572C45.954 10.656 46.2651 10.7856 46.6673 10.7856V7.32301C47.0089 7.32301 47.2485 7.43199 47.3344 7.47495C47.4349 7.52523 47.4909 7.57013 47.4952 7.57354C47.5029 7.57966 47.4527 7.53887 47.3342 7.40647L44.7538 9.71529ZM46.6673 10.7856H47.4463V7.32301H46.6673V10.7856ZM46.8266 10.6709C46.8271 10.671 46.8276 10.6713 46.8286 10.6718C46.8295 10.6723 46.8318 10.6735 46.8356 10.6761C46.8427 10.681 46.8592 10.6935 46.8839 10.7198C46.9351 10.7745 47.0199 10.8876 47.1157 11.0994C47.3147 11.5388 47.4963 12.2557 47.5915 13.3356L51.0407 13.0312C50.9282 11.7566 50.6942 10.608 50.27 9.67105C49.8393 8.72008 49.145 7.85131 48.066 7.43772L46.8266 10.6709ZM49.3161 11.4521H47.2905V14.9147H49.3161V11.4521ZM49.0132 13.0111C48.9157 12.0357 48.8267 11.255 48.7364 10.8937L45.3772 11.7335C45.3737 11.7196 45.3954 11.8243 45.4363 12.1516C45.4727 12.4429 45.5165 12.8425 45.5678 13.3557L49.0132 13.0111ZM48.7386 10.9025C48.4858 9.86842 47.9471 8.81092 46.8615 8.22937L45.2265 11.2815C45.1807 11.257 45.1789 11.2367 45.2092 11.2833C45.2458 11.3396 45.3131 11.4715 45.375 11.7247L48.7386 10.9025ZM45.3917 8.15179C43.6175 8.87349 42.6494 10.6233 42.1152 12.5693L45.4542 13.4859C45.8895 11.9001 46.4276 11.4684 46.6963 11.3591L45.3917 8.15179ZM42.1149 12.5701C41.7203 14.0106 41.5412 15.5587 41.5601 17.2025L45.0224 17.1627C45.0067 15.7942 45.1566 14.5722 45.4544 13.485L42.1149 12.5701ZM41.5601 17.2013C41.5789 18.9492 41.8045 20.6924 42.2339 22.4285L45.5952 21.5973C45.2281 20.1132 45.0383 18.6363 45.0224 17.164L41.5601 17.2013ZM42.2309 22.4164C42.7569 24.6111 43.5815 26.5034 44.9687 27.6028L47.1193 24.889C46.6714 24.5341 46.0763 23.6044 45.5981 21.6094L42.2309 22.4164ZM47.1186 27.6033C48.1725 26.7689 48.9666 25.709 49.2233 24.3969L45.8252 23.732C45.7703 24.0128 45.5775 24.4071 44.9694 24.8885L47.1186 27.6033ZM47.5242 25.7957H49.6277V22.3332H47.5242V25.7957ZM59.0527 26.8172V28.5485H60.784V26.8172H59.0527ZM57.0012 26.8172H55.2699V28.5485H57.0012V26.8172ZM56.1182 19.2861L54.6006 20.1194L54.606 20.129L56.1182 19.2861ZM54.5341 17.5462L55.2894 15.9884L54.9317 15.8149H54.5341V17.5462ZM53.7031 17.5462V15.8149H51.9718V17.5462H53.7031ZM53.7031 26.8172V28.5485H55.4344V26.8172H53.7031ZM51.6515 26.8172H49.9202V28.5485H51.6515V26.8172ZM51.6515 9.05429V7.32301H49.9202V9.05429H51.6515ZM53.7031 9.05429H55.4344V7.32301H53.7031V9.05429ZM53.7031 16.897H51.9718V18.6283H53.7031V16.897ZM54.3004 16.897V18.6283H54.6438L54.9613 18.4971L54.3004 16.897ZM56.3 14.8454L57.8381 15.6401L57.8434 15.6299L57.8485 15.6197L56.3 14.8454ZM57.0012 9.05429V7.32301H55.2699V9.05429H57.0012ZM59.0527 9.05429H60.784V7.32301H59.0527V9.05429ZM58.2477 15.183L56.7395 14.3329L56.7387 14.3342L58.2477 15.183ZM55.7027 17.0009L55.5359 15.2776L55.4912 18.7192L55.7027 17.0009ZM58.2996 19.2342L56.7201 19.943L56.7256 19.9554L56.7314 19.9677L58.2996 19.2342ZM59.0527 25.0859H57.0012V28.5485H59.0527V25.0859ZM58.7324 26.8172V22.792H55.2699V26.8172H58.7324ZM58.7324 22.792C58.7324 21.234 58.3713 19.7725 57.6304 18.4433L54.606 20.129C55.0424 20.912 55.2699 21.7877 55.2699 22.792H58.7324ZM57.6358 18.4529C57.0718 17.4257 56.3232 16.4896 55.2894 15.9884L53.7788 19.104C53.8876 19.1568 54.1951 19.3807 54.6006 20.1193L57.6358 18.4529ZM54.5341 15.8149H53.7031V19.2775H54.5341V15.8149ZM51.9718 17.5462V26.8172H55.4344V17.5462H51.9718ZM53.7031 25.0859H51.6515V28.5485H53.7031V25.0859ZM53.3828 26.8172V9.05429H49.9202V26.8172H53.3828ZM51.6515 10.7856H53.7031V7.32301H51.6515V10.7856ZM51.9718 9.05429V16.897H55.4344V9.05429H51.9718ZM53.7031 18.6283H54.3004V15.1657H53.7031V18.6283ZM54.9613 18.4971C56.2525 17.9638 57.1807 16.9125 57.8381 15.6401L54.7619 14.0507C54.3459 14.8558 53.9411 15.1722 53.6394 15.2968L54.9613 18.4971ZM57.8485 15.6197C58.4218 14.4731 58.7324 13.2747 58.7324 12.0407H55.2699C55.2699 12.6765 55.1131 13.348 54.7515 14.0712L57.8485 15.6197ZM58.7324 12.0407V9.05429H55.2699V12.0407H58.7324ZM57.0012 10.7856H59.0527V7.32301H57.0012V10.7856ZM57.3214 9.05429V12.0148H60.784V9.05429H57.3214ZM57.3214 12.0148C57.3214 12.8958 57.1209 13.6562 56.7395 14.3329L59.7559 16.0331C60.4478 14.8055 60.784 13.4537 60.784 12.0148H57.3214ZM56.7387 14.3342C56.3361 15.05 55.9395 15.2386 55.5359 15.2776L55.8695 18.7241C57.6127 18.5554 58.9127 17.5321 59.7566 16.0318L56.7387 14.3342ZM55.4912 18.7192C55.8324 18.7612 56.276 18.9533 56.7201 19.943L59.8792 18.5254C59.1113 16.8143 57.8236 15.5176 55.9142 15.2825L55.4912 18.7192ZM56.7314 19.9677C57.1176 20.7933 57.3214 21.7175 57.3214 22.766H60.784C60.784 21.2523 60.4858 19.8219 59.8678 18.5007L56.7314 19.9677ZM57.3214 22.766V26.8172H60.784V22.766H57.3214ZM80.3123 11.0799L82.033 11.2711L82.2466 9.34861H80.3123V11.0799ZM80.2085 12.0148L81.9279 12.2171L81.9292 12.206L80.2085 12.0148ZM79.2995 15.1051L80.8246 15.9246L80.8296 15.9151L79.2995 15.1051ZM76.8584 17.0009L76.6803 15.2788L76.6562 18.7203L76.8584 17.0009ZM79.1957 18.6109L80.6191 17.6255L80.6164 17.6215L79.1957 18.6109ZM80.2085 22.766L78.4806 22.6569L78.4802 22.6643L80.2085 22.766ZM80.1565 23.649V25.3802H81.789L81.8848 23.7506L80.1565 23.649ZM78.105 23.649H76.3737V25.3802H78.105V23.649ZM78.105 22.9218L79.8229 22.7071L76.3737 22.9218H78.105ZM78.1309 23.1296L76.413 23.3443L76.426 23.4481L76.4513 23.5495L78.1309 23.1296ZM77.2739 19.2861L75.7563 20.1194L75.7617 20.129L77.2739 19.2861ZM75.6898 17.5462L76.4451 15.9884L76.0874 15.8149H75.6898V17.5462ZM74.8588 17.5462H73.1275V19.2775H74.8588V17.5462ZM74.8588 16.897V15.1657H73.1275V16.897H74.8588ZM75.4561 16.897V18.6283H75.8038L76.1246 18.494L75.4561 16.897ZM77.3519 14.8194L75.7973 14.0574L75.7934 14.0654L77.3519 14.8194ZM78.1569 12.0407L76.4356 11.8547L76.4355 11.8563L78.1569 12.0407ZM78.2608 11.0799V9.34861H76.7066L76.5395 10.8938L78.2608 11.0799ZM75.6639 10.976L77.3845 11.1672L77.5982 9.24473H75.6639V10.976ZM75.56 11.9109L77.2794 12.1132L77.2807 12.1021L75.56 11.9109ZM74.6511 15.0012L76.1762 15.8207L76.1811 15.8113L74.6511 15.0012ZM72.21 16.897L72.0318 15.1749L72.0077 18.6164L72.21 16.897ZM74.5472 18.5071L75.9706 17.5216L75.9679 17.5177L74.5472 18.5071ZM75.56 22.6621L73.8321 22.553L73.8317 22.5605L75.56 22.6621ZM75.508 23.5451V25.2764H77.1405L77.2363 23.6467L75.508 23.5451ZM73.4565 23.5451H71.7252V25.2764H73.4565V23.5451ZM73.4565 22.8179L75.1744 22.6032L71.7252 22.8179H73.4565ZM73.4825 23.0257L71.7645 23.2404L71.7775 23.3442L71.8029 23.4456L73.4825 23.0257ZM72.6255 19.1823L71.1078 20.0155L71.1132 20.0252L72.6255 19.1823ZM71.0414 17.4423L71.7967 15.8845L71.4389 15.7111H71.0414V17.4423ZM70.2103 17.4423H68.4791V19.1736H70.2103V17.4423ZM70.2103 16.7931V15.0618H68.4791V16.7931H70.2103ZM70.8076 16.7931V18.5244H71.1554L71.4761 18.3901L70.8076 16.7931ZM72.7034 14.7156L71.1488 13.9535L71.145 13.9615L72.7034 14.7156ZM73.5084 11.9369L71.7872 11.7508L71.787 11.7524L73.5084 11.9369ZM73.6123 10.976V9.24473H72.0581L71.891 10.7899L73.6123 10.976ZM78.5917 10.8887L78.4878 11.8236L81.9292 12.206L82.033 11.2711L78.5917 10.8887ZM78.489 11.8125C78.371 12.816 78.12 13.633 77.7695 14.2951L80.8296 15.9151C81.414 14.8114 81.7689 13.5681 81.9279 12.2171L78.489 11.8125ZM77.7745 14.2857C77.3308 15.1114 76.9441 15.2515 76.6803 15.2788L77.0366 18.7229C78.7811 18.5425 80.0218 17.4187 80.8246 15.9245L77.7745 14.2857ZM76.6562 18.7203C76.8991 18.7489 77.2846 18.8963 77.775 19.6004L80.6164 17.6215C79.7563 16.3866 78.5837 15.4606 77.0607 15.2814L76.6562 18.7203ZM77.7722 19.5964C78.287 20.3399 78.5651 21.3189 78.4806 22.6569L81.9363 22.8751C82.0595 20.9237 81.6625 19.1326 80.6191 17.6255L77.7722 19.5964ZM78.4802 22.6643L78.4282 23.5473L81.8848 23.7506L81.9368 22.8677L78.4802 22.6643ZM80.1565 21.9177H78.105V25.3802H80.1565V21.9177ZM79.8362 23.649V22.9218H76.3737V23.649H79.8362ZM76.3871 23.1366L76.413 23.3443L79.8488 22.9148L79.8229 22.7071L76.3871 23.1366ZM76.4513 23.5495C76.46 23.5842 76.4754 23.6419 76.4994 23.7107C76.517 23.7611 76.5698 23.909 76.6764 24.0765C76.7303 24.1611 76.8379 24.3152 77.0157 24.4667C77.1962 24.6204 77.5309 24.8389 78.007 24.8755C79.0622 24.9567 79.5628 24.1449 79.6268 24.0382C79.7521 23.8294 79.8025 23.6431 79.8168 23.5899C79.8382 23.5102 79.8499 23.4442 79.8559 23.4065C79.8683 23.3301 79.8739 23.2651 79.8766 23.2299C79.8867 23.0988 79.8882 22.9351 79.8882 22.792H76.4256C76.4256 22.9432 76.4228 22.9829 76.4242 22.9643C76.4248 22.9573 76.4279 22.9147 76.4376 22.8551C76.4423 22.8258 76.4526 22.7668 76.4725 22.6926C76.4853 22.6449 76.5341 22.4628 76.6577 22.2567C76.7201 22.1527 77.2191 21.3422 78.2725 21.4232C78.7477 21.4597 79.0816 21.6779 79.2611 21.8308C79.438 21.9815 79.5447 22.1344 79.5976 22.2175C79.7023 22.3821 79.7532 22.5256 79.7687 22.5702C79.7907 22.6332 79.804 22.6836 79.8105 22.7097L76.4513 23.5495ZM79.8882 22.792C79.8882 21.234 79.5271 19.7725 78.7862 18.4433L75.7617 20.129C76.1981 20.912 76.4256 21.7877 76.4256 22.792H79.8882ZM78.7915 18.4529C78.2276 17.4257 77.4789 16.4896 76.4451 15.9884L74.9345 19.104C75.0434 19.1568 75.3508 19.3807 75.7563 20.1193L78.7915 18.4529ZM75.6898 15.8149H74.8588V19.2775H75.6898V15.8149ZM76.5901 17.5462V16.897H73.1275V17.5462H76.5901ZM74.8588 18.6283H75.4561V15.1657H74.8588V18.6283ZM76.1246 18.494C77.4083 17.9566 78.2927 16.8498 78.9103 15.5735L75.7934 14.0654C75.3722 14.9359 74.9928 15.2141 74.7876 15.3L76.1246 18.494ZM78.9064 15.5815C79.4273 14.5188 79.7527 13.3972 79.8783 12.2252L76.4355 11.8563C76.3533 12.6233 76.142 13.3542 75.7973 14.0574L78.9064 15.5815ZM79.8782 12.2268L79.982 11.266L76.5395 10.8938L76.4357 11.8547L79.8782 12.2268ZM78.2608 12.8112H80.3123V9.34861H78.2608V12.8112ZM73.9432 10.7848L73.8393 11.7197L77.2807 12.1021L77.3845 11.1672L73.9432 10.7848ZM73.8406 11.7086C73.7225 12.7121 73.4715 13.5291 73.121 14.1912L76.1811 15.8113C76.7655 14.7075 77.1205 13.4642 77.2794 12.1132L73.8406 11.7086ZM73.126 14.1818C72.6823 15.0075 72.2956 15.1476 72.0318 15.1749L72.3881 18.6191C74.1326 18.4386 75.3733 17.3148 76.1761 15.8207L73.126 14.1818ZM72.0077 18.6164C72.2506 18.645 72.6361 18.7924 73.1265 19.4965L75.9679 17.5177C75.1078 16.2827 73.9352 15.3567 72.4122 15.1776L72.0077 18.6164ZM73.1237 19.4925C73.6385 20.236 73.9167 21.215 73.8321 22.553L77.2878 22.7713C77.4111 20.8198 77.014 19.0288 75.9706 17.5216L73.1237 19.4925ZM73.8317 22.5605L73.7798 23.4434L77.2363 23.6467L77.2883 22.7638L73.8317 22.5605ZM75.508 21.8138H73.4565V25.2764H75.508V21.8138ZM75.1878 23.5451V22.8179H71.7252V23.5451H75.1878ZM71.7386 23.0327L71.7645 23.2404L75.2004 22.811L75.1744 22.6032L71.7386 23.0327ZM71.8029 23.4456C71.8116 23.4804 71.8269 23.538 71.8509 23.6068C71.8685 23.6572 71.9213 23.8051 72.0279 23.9726C72.0818 24.0572 72.1894 24.2113 72.3672 24.3628C72.5477 24.5165 72.8824 24.735 73.3585 24.7717C74.4137 24.8528 74.9143 24.041 74.9784 23.9343C75.1037 23.7255 75.154 23.5392 75.1683 23.486C75.1897 23.4063 75.2014 23.3403 75.2075 23.3026C75.2198 23.2262 75.2254 23.1612 75.2281 23.126C75.2382 22.9949 75.2397 22.8312 75.2397 22.6881H71.7771C71.7771 22.8393 71.7743 22.879 71.7757 22.8605C71.7763 22.8534 71.7795 22.8109 71.7891 22.7512C71.7938 22.7219 71.8041 22.6629 71.824 22.5887C71.8368 22.5411 71.8856 22.3589 72.0093 22.1528C72.0717 22.0488 72.5706 21.2383 73.6241 21.3193C74.0992 21.3559 74.4331 21.574 74.6126 21.7269C74.7896 21.8777 74.8963 22.0305 74.9492 22.1137C75.0539 22.2782 75.1047 22.4217 75.1203 22.4663C75.1422 22.5293 75.1555 22.5797 75.162 22.6058L71.8029 23.4456ZM75.2397 22.6881C75.2397 21.1301 74.8786 19.6686 74.1377 18.3394L71.1132 20.0252C71.5496 20.8081 71.7771 21.6838 71.7771 22.6881H75.2397ZM74.1431 18.3491C73.5791 17.3218 72.8305 16.3857 71.7967 15.8845L70.286 19.0002C70.3949 19.0529 70.7023 19.2768 71.1079 20.0155L74.1431 18.3491ZM71.0414 15.7111H70.2103V19.1736H71.0414V15.7111ZM71.9416 17.4423V16.7931H68.4791V17.4423H71.9416ZM70.2103 18.5244H70.8076V15.0618H70.2103V18.5244ZM71.4761 18.3901C72.7598 17.8527 73.6443 16.7459 74.2618 15.4696L71.145 13.9615C70.7237 14.832 70.3443 15.1102 70.1391 15.1961L71.4761 18.3901ZM74.2579 15.4776C74.7789 14.4149 75.1043 13.2933 75.2298 12.1213L71.787 11.7524C71.7048 12.5194 71.4935 13.2503 71.1488 13.9535L74.2579 15.4776ZM75.2297 12.123L75.3335 11.1621L71.891 10.7899L71.7872 11.7508L75.2297 12.123ZM73.6123 12.7073H75.6639V9.24473H73.6123V12.7073ZM88.6683 22.1947L90.3548 22.586L90.355 22.5853L88.6683 22.1947ZM86.4869 26.5056L86.989 28.1624L87.2788 28.0746L87.5216 27.8936L86.4869 26.5056ZM84.5133 27.2587L83.4317 28.6106L84.2521 29.2668L85.213 28.8423L84.5133 27.2587ZM83.5784 26.8172L82.8041 28.3657L82.9052 28.4163L83.012 28.4532L83.5784 26.8172ZM82.3318 26.0641L81.2235 27.3941L81.2318 27.401L81.2401 27.4078L82.3318 26.0641ZM80.9295 24.0645V22.3332H78.2237L79.3576 24.79L80.9295 24.0645ZM83.033 24.0645L84.5918 23.3111L84.1191 22.3332H83.033V24.0645ZM84.5652 26.2459L83.4837 27.5978L84.5833 28.4775L85.6685 27.5801L84.5652 26.2459ZM86.6687 22.0908L84.9891 21.6709L84.9883 21.6743L86.6687 22.0908ZM87.266 17.3644H88.9973V15.6331H87.266V17.3644ZM85.3702 17.8578L84.1134 16.6672L84.0965 16.6851L84.08 16.7034L85.3702 17.8578ZM84.9288 18.9226V20.6539H86.66V18.9226H84.9288ZM83.007 18.9226L81.3404 18.4538L80.7217 20.6539H83.007V18.9226ZM83.8381 17.4164L82.5441 16.2662L82.5413 16.2693L83.8381 17.4164ZM87.266 16.7152V18.4465H88.9973V16.7152H87.266ZM84.6431 9.75546L85.6927 8.37866L84.5171 7.48236L83.4477 8.50313L84.6431 9.75546ZM83.2667 13.1834V14.9147H84.8335L84.9894 13.3557L83.2667 13.1834ZM81.2411 13.1834L79.5165 13.0323L79.3516 14.9147H81.2411V13.1834ZM83.1888 9.05429V7.32301H82.8952L82.6181 7.41981L83.1888 9.05429ZM84.6171 8.56088L86.1818 7.81974L84.6987 4.68877L83.0851 7.75454L84.6171 8.56088ZM85.8377 9.05429L86.331 7.3948L86.0896 7.32301H85.8377V9.05429ZM88.6164 12.5342L86.9557 13.0235L86.9586 13.0334L86.9617 13.0433L88.6164 12.5342ZM87.5084 17.2086C87.5084 18.7558 87.3331 20.2868 86.9817 21.8041L90.355 22.5853C90.7654 20.8132 90.9709 19.0201 90.9709 17.2086H87.5084ZM86.9818 21.8034C86.5017 23.873 85.8914 24.7901 85.4522 25.1175L87.5216 27.8936C88.9869 26.8014 89.8308 24.8446 90.3548 22.586L86.9818 21.8034ZM85.9848 24.8487C85.327 25.048 84.601 25.3272 83.8135 25.6751L85.213 28.8423C85.9145 28.5323 86.5041 28.3094 86.989 28.1624L85.9848 24.8487ZM85.5948 25.9068C85.1735 25.5697 84.6172 25.3447 84.1447 25.1812L83.012 28.4532C83.1987 28.5178 83.3276 28.5708 83.4104 28.6099C83.4508 28.629 83.472 28.6409 83.4785 28.6447C83.4862 28.6493 83.4669 28.6387 83.4317 28.6106L85.5948 25.9068ZM84.3526 25.2687C83.8421 25.0134 83.5565 24.8284 83.4236 24.7204L81.2401 27.4078C81.6612 27.7499 82.2066 28.067 82.8041 28.3657L84.3526 25.2687ZM83.4402 24.7341C83.1885 24.5243 82.8555 24.106 82.5014 23.339L79.3576 24.79C79.8346 25.8234 80.4365 26.7382 81.2235 27.3941L83.4402 24.7341ZM80.9295 25.7957H83.033V22.3332H80.9295V25.7957ZM81.4743 24.8179C82.0178 25.9423 82.6653 26.9431 83.4837 27.5978L85.6467 24.894C85.4263 24.7177 85.0524 24.2641 84.5918 23.3111L81.4743 24.8179ZM85.6685 27.5801C87.0035 26.4761 87.8197 24.6434 88.3491 22.5073L84.9883 21.6743C84.5136 23.5894 83.9274 24.5267 83.4619 24.9117L85.6685 27.5801ZM88.3483 22.5107C88.779 20.788 88.9973 19.0715 88.9973 17.3644H85.5347C85.5347 18.7736 85.3548 20.2081 84.9891 21.6709L88.3483 22.5107ZM87.266 15.6331H86.409V19.0957H87.266V15.6331ZM86.409 15.6331C85.4632 15.6331 84.6849 16.064 84.1134 16.6672L86.6271 19.0485C86.6622 19.0114 86.6579 19.0272 86.6065 19.0516C86.581 19.0637 86.5489 19.0755 86.5118 19.0839C86.4746 19.0923 86.4395 19.0957 86.409 19.0957V15.6331ZM84.08 16.7034C83.5497 17.2962 83.1975 18.0488 83.1975 18.9226H86.66C86.66 18.9396 86.6583 18.9598 86.654 18.9813C86.6497 19.0028 86.6438 19.0207 86.6384 19.0338C86.6271 19.061 86.6242 19.0528 86.6605 19.0122L84.08 16.7034ZM84.9288 17.1913H83.007V20.6539H84.9288V17.1913ZM84.6737 19.3913C84.7557 19.0996 84.9016 18.8271 85.1348 18.5635L82.5413 16.2693C81.9782 16.9059 81.57 17.6376 81.3404 18.4538L84.6737 19.3913ZM85.132 18.5666C85.2216 18.4658 85.2724 18.44 85.2745 18.439C85.2756 18.4384 85.2701 18.4412 85.2596 18.4437C85.2491 18.4462 85.2416 18.4465 85.2404 18.4465V14.9839C84.1262 14.9839 83.215 15.5113 82.5441 16.2662L85.132 18.5666ZM85.2404 18.4465H87.266V14.9839H85.2404V18.4465ZM88.9973 16.7152C88.9973 13.1493 88.0536 10.1785 85.6927 8.37866L83.5935 11.1323C84.7298 11.9986 85.5347 13.6676 85.5347 16.7152H88.9973ZM83.4477 8.50313C82.2707 9.62661 81.7216 11.2359 81.5441 13.0111L84.9894 13.3557C85.1235 12.0146 85.492 11.3386 85.8385 11.0078L83.4477 8.50313ZM83.2667 11.4521H81.2411V14.9147H83.2667V11.4521ZM82.9658 13.3345C83.0608 12.2504 83.2473 11.5399 83.4497 11.1108C83.5468 10.9049 83.6323 10.7968 83.6838 10.7447C83.7293 10.6988 83.7528 10.6912 83.7596 10.6888L82.6181 7.41981C81.5081 7.8074 80.7754 8.66407 80.3181 9.63363C79.8712 10.5809 79.6293 11.7445 79.5165 13.0323L82.9658 13.3345ZM83.1888 10.7856H84.1757V7.32301H83.1888V10.7856ZM84.1757 10.7856C85.0078 10.7856 85.5142 10.2562 85.6671 10.0853C85.8778 9.8499 86.0349 9.58425 86.1492 9.36721L83.0851 7.75454C83.0262 7.86645 83.0232 7.84751 83.0867 7.77653C83.1207 7.7385 83.2121 7.64214 83.3667 7.54736C83.5257 7.44992 83.8045 7.32301 84.1757 7.32301V10.7856ZM83.0525 9.30202C83.1618 9.53281 83.3214 9.82516 83.5541 10.0853C83.765 10.321 84.2688 10.7856 85.0586 10.7856V7.32301C85.7099 7.32301 86.0709 7.70538 86.1346 7.77653C86.2202 7.87224 86.2282 7.91789 86.1818 7.81974L83.0525 9.30202ZM85.0586 10.7856H85.8377V7.32301H85.0586V10.7856ZM85.3443 10.7138C85.8142 10.8535 86.4601 11.3413 86.9557 13.0235L90.2771 12.0448C89.6301 9.84892 88.4235 8.01688 86.331 7.3948L85.3443 10.7138ZM86.9617 13.0433C87.3156 14.1936 87.5084 15.5741 87.5084 17.2086H90.9709C90.9709 15.3113 90.7482 13.5755 90.2711 12.025L86.9617 13.0433ZM98.8204 15.183L97.6038 16.4147L100.552 19.3267V15.183H98.8204ZM96.691 13.0795H94.9597V13.8029L95.4743 14.3112L96.691 13.0795ZM96.691 9.70352H98.4222V7.97224H96.691V9.70352ZM93.3929 9.70352V7.97224H91.6616V9.70352H93.3929ZM93.3929 16.897H91.6616V18.6283H93.3929V16.897ZM94.1979 16.871V15.1397H94.0265L93.8584 15.1734L94.1979 16.871ZM95.2627 16.9489L94.9618 18.6539L94.9699 18.6553L94.978 18.6566L95.2627 16.9489ZM95.4185 17.0009H93.6872V18.5368L95.2122 18.7198L95.4185 17.0009ZM96.7429 17.6241L97.8392 16.2842L97.8307 16.2773L96.7429 17.6241ZM97.9115 26.6354L98.4156 28.2917L98.4279 28.2879L97.9115 26.6354ZM91.3413 26.8172H89.61V28.5485H91.3413V26.8172ZM91.3413 9.05429V7.32301H89.61V9.05429H91.3413ZM98.8204 9.05429H100.552V7.32301H98.8204V9.05429ZM95.1848 18.4032L93.8274 19.4778L93.8347 19.4871L93.8423 19.4964L95.1848 18.4032ZM94.1979 17.5462L94.9391 15.9816L94.5872 15.8149H94.1979V17.5462ZM93.3669 17.5462V15.8149H91.6356V17.5462H93.3669ZM93.3669 26.168H91.6356V27.8992H93.3669V26.168ZM96.665 26.168V27.8992H98.3963V26.168H96.665ZM100.037 13.9513L97.9076 11.8478L95.4743 14.3112L97.6038 16.4147L100.037 13.9513ZM98.4222 13.0795V9.70352H94.9597V13.0795H98.4222ZM96.691 7.97224H93.3929V11.4348H96.691V7.97224ZM91.6616 9.70352V16.897H95.1242V9.70352H91.6616ZM93.3929 18.6283H93.9902V15.1657H93.3929V18.6283ZM93.9902 18.6283C94.2079 18.6283 94.405 18.5952 94.5375 18.5687L93.8584 15.1734C93.8462 15.1758 93.8499 15.1746 93.8663 15.1726C93.8804 15.1708 93.9248 15.1657 93.9902 15.1657V18.6283ZM94.1979 18.6023H94.5096V15.1397H94.1979V18.6023ZM94.5096 18.6023C94.5832 18.6023 94.7276 18.6125 94.9618 18.6539L95.5635 15.244C95.209 15.1814 94.8514 15.1397 94.5096 15.1397V18.6023ZM94.978 18.6566C95.0063 18.6614 94.9377 18.6525 94.832 18.6173C94.7911 18.6037 94.6312 18.5503 94.4484 18.4284C94.3542 18.3656 94.1868 18.2408 94.031 18.0331C93.8649 17.8117 93.6872 17.4584 93.6872 17.0009H97.1498C97.1498 16.0774 96.4801 15.6214 96.3691 15.5474C96.1733 15.4168 95.9939 15.3548 95.927 15.3325C95.7694 15.2799 95.6229 15.2538 95.5473 15.2412L94.978 18.6566ZM95.2122 18.7198C95.2325 18.7222 95.3772 18.7465 95.6551 18.9709L97.8307 16.2773C97.2084 15.7746 96.4701 15.3834 95.6247 15.2819L95.2122 18.7198ZM95.6466 18.9641C96.447 19.6189 97.0113 20.7514 97.0113 22.766H100.474C100.474 20.1062 99.705 17.8107 97.8392 16.2842L95.6466 18.9641ZM97.0113 22.766V25.9083H100.474V22.766H97.0113ZM97.0113 25.9083C97.0113 25.7192 97.0557 25.5275 97.1421 25.3548C97.225 25.1889 97.3261 25.0809 97.3947 25.0209C97.5119 24.9183 97.5603 24.9313 97.3951 24.9829L98.4279 28.2879C98.8167 28.1664 99.2806 27.9716 99.6748 27.6267C100.114 27.2422 100.474 26.6548 100.474 25.9083H97.0113ZM97.4074 24.9791C97.1724 25.0507 96.9354 25.0859 96.691 25.0859V28.5485C97.2776 28.5485 97.8543 28.4625 98.4156 28.2917L97.4074 24.9791ZM96.691 25.0859H91.3413V28.5485H96.691V25.0859ZM93.0726 26.8172V9.05429H89.61V26.8172H93.0726ZM91.3413 10.7856H98.8204V7.32301H91.3413V10.7856ZM97.0892 9.05429V15.183H100.552V9.05429H97.0892ZM98.3963 22.792C98.3963 20.7209 97.7903 18.8612 96.5273 17.31L93.8423 19.4964C94.5528 20.369 94.9337 21.4352 94.9337 22.792H98.3963ZM96.5422 17.3286C96.1178 16.7925 95.5925 16.2911 94.9391 15.9816L93.4568 19.1108C93.4541 19.1095 93.4881 19.1254 93.5562 19.1845C93.6243 19.2437 93.7158 19.3369 93.8274 19.4778L96.5422 17.3286ZM94.1979 15.8149H93.3669V19.2775H94.1979V15.8149ZM91.6356 17.5462V26.168H95.0982V17.5462H91.6356ZM93.3669 27.8992H96.665V24.4367H93.3669V27.8992ZM98.3963 26.168V22.792H94.9337V26.168H98.3963ZM108.66 26.8172V28.5485H110.392V26.8172H108.66ZM101.155 26.8172H99.4239V28.5485H101.155V26.8172ZM101.155 9.05429V7.32301H99.4239V9.05429H101.155ZM108.66 9.05429H110.392V7.32301H108.66V9.05429ZM108.66 15.183L107.444 16.4147L110.392 19.3267V15.183H108.66ZM106.531 13.0795H104.8V13.8029L105.314 14.3112L106.531 13.0795ZM106.531 9.70352H108.262V7.97224H106.531V9.70352ZM103.233 9.70352V7.97224H101.501V9.70352H103.233ZM103.233 16.7152H101.501V18.4465H103.233V16.7152ZM106.661 17.4423L107.96 16.2986L107.952 16.2893L106.661 17.4423ZM107.466 18.9226V20.6539H109.751L109.132 18.4538L107.466 18.9226ZM105.544 18.9226H103.813V20.6539H105.544V18.9226ZM105.077 17.8578L103.786 19.0122L103.803 19.0306L103.82 19.0485L105.077 17.8578ZM103.233 17.3644V15.6331H101.501V17.3644H103.233ZM103.233 26.168H101.501V27.8992H103.233V26.168ZM106.531 26.168V27.8992H108.262V26.168H106.531ZM106.531 22.792L105.314 21.5603L104.8 22.0686V22.792H106.531ZM108.66 20.6885H110.392V16.5448L107.444 19.4568L108.66 20.6885ZM108.66 25.0859H101.155V28.5485H108.66V25.0859ZM102.887 26.8172V9.05429H99.4239V26.8172H102.887ZM101.155 10.7856H108.66V7.32301H101.155V10.7856ZM106.929 9.05429V15.183H110.392V9.05429H106.929ZM109.877 13.9513L107.748 11.8478L105.314 14.3112L107.444 16.4147L109.877 13.9513ZM108.262 13.0795V9.70352H104.8V13.0795H108.262ZM106.531 7.97224H103.233V11.4348H106.531V7.97224ZM101.501 9.70352V16.7152H104.964V9.70352H101.501ZM103.233 18.4465H105.232V14.9839H103.233V18.4465ZM105.232 18.4465C105.226 18.4465 105.216 18.4456 105.204 18.4428C105.193 18.44 105.189 18.4375 105.194 18.4398C105.204 18.445 105.266 18.4795 105.369 18.5954L107.952 16.2893C107.28 15.536 106.364 14.9839 105.232 14.9839V18.4465ZM105.361 18.5861C105.571 18.8246 105.714 19.0874 105.799 19.3913L109.132 18.4538C108.906 17.6497 108.512 16.9257 107.96 16.2986L105.361 18.5861ZM107.466 17.1913H105.544V20.6539H107.466V17.1913ZM107.275 18.9226C107.275 18.0167 106.888 17.2528 106.333 16.6672L103.82 19.0485C103.861 19.0922 103.856 19.0998 103.842 19.0667C103.835 19.0503 103.827 19.0278 103.821 19.0005C103.815 18.973 103.813 18.9463 103.813 18.9226H107.275ZM106.367 16.7034C105.802 16.0717 105.017 15.6331 104.064 15.6331V19.0957C103.995 19.0957 103.915 19.0787 103.844 19.0442C103.779 19.0125 103.763 18.9861 103.786 19.0122L106.367 16.7034ZM104.064 15.6331H103.233V19.0957H104.064V15.6331ZM101.501 17.3644V26.168H104.964V17.3644H101.501ZM103.233 27.8992H106.531V24.4367H103.233V27.8992ZM108.262 26.168V22.792H104.8V26.168H108.262ZM107.748 24.0237L109.877 21.9202L107.444 19.4568L105.314 21.5603L107.748 24.0237ZM106.929 20.6885V26.8172H110.392V20.6885H106.929ZM118.702 19.0784L118.362 17.3807L116.971 17.6591V19.0784H118.702ZM118.702 25.6746H116.971V26.4971L117.608 27.0167L118.702 25.6746ZM120.104 26.8172V28.5485H124.97L121.198 25.4751L120.104 26.8172ZM115.248 26.8172L114.142 25.4851L110.452 28.5485H115.248V26.8172ZM116.624 25.6746L117.73 27.0066L118.356 26.4874V25.6746H116.624ZM116.624 19.1044H118.356V17.7063L116.989 17.4119L116.624 19.1044ZM116.624 16.5334L116.989 18.2259L118.356 17.9315V16.5334H116.624ZM116.624 11.7811H118.356V10.0498H116.624V11.7811ZM113.872 13.9884L112.251 13.3784L112.249 13.3836L113.872 13.9884ZM113.3 26.8172V28.5485H115.032V26.8172H113.3ZM111.249 26.8172H109.517V28.5485H111.249V26.8172ZM113.3 12.4043L114.484 13.6679L114.49 13.6623L113.3 12.4043ZM116.624 10.7423L116.905 12.4506L118.356 12.2122V10.7423H116.624ZM116.624 9.91127H118.356V8.9498L117.539 8.4416L116.624 9.91127ZM115.248 9.05429V7.32301H109.192L114.333 10.524L115.248 9.05429ZM120.104 9.05429L121.007 10.5316L126.257 7.32301H120.104V9.05429ZM118.702 9.91127L117.799 8.43401L116.971 8.94031V9.91127H118.702ZM118.702 16.5334H116.971V17.9527L118.362 18.2311L118.702 16.5334ZM118.788 17.754C118.788 17.6281 118.822 17.4831 118.896 17.3512C118.964 17.2281 119.037 17.1726 119.046 17.1662C119.051 17.1623 119.009 17.1931 118.888 17.2389C118.768 17.2838 118.597 17.3338 118.362 17.3807L119.041 20.776C119.753 20.6337 120.489 20.3985 121.085 19.9648C121.748 19.4814 122.251 18.7269 122.251 17.754H118.788ZM116.971 19.0784V25.6746H120.433V19.0784H116.971ZM117.608 27.0167L119.011 28.1593L121.198 25.4751L119.795 24.3324L117.608 27.0167ZM120.104 25.0859H115.248V28.5485H120.104V25.0859ZM116.354 28.1493L117.73 27.0066L115.518 24.3425L114.142 25.4851L116.354 28.1493ZM118.356 25.6746V19.1044H114.893V25.6746H118.356ZM116.989 17.4119C116.779 17.3666 116.629 17.3197 116.529 17.2794C116.426 17.2384 116.399 17.2142 116.414 17.2257C116.433 17.2402 116.505 17.3012 116.57 17.4236C116.639 17.5527 116.668 17.6901 116.668 17.8059H113.205C113.205 18.7346 113.663 19.4779 114.303 19.9702C114.876 20.4112 115.584 20.6513 116.26 20.7968L116.989 17.4119ZM116.668 17.8059C116.668 17.9346 116.635 18.0812 116.561 18.2154C116.492 18.3416 116.418 18.4029 116.4 18.4158C116.387 18.4261 116.416 18.4011 116.522 18.3596C116.625 18.3188 116.777 18.2716 116.989 18.2259L116.26 14.8409C115.588 14.9855 114.886 15.2212 114.316 15.6509C113.681 16.1296 113.205 16.8664 113.205 17.8059H116.668ZM118.356 16.5334V11.7811H114.893V16.5334H118.356ZM116.624 10.0498C115.627 10.0498 114.686 10.3455 113.892 10.9822C113.123 11.5992 112.602 12.4468 112.251 13.3785L115.492 14.5984C115.695 14.0584 115.91 13.8024 116.058 13.6836C116.182 13.5845 116.34 13.5123 116.624 13.5123V10.0498ZM112.249 13.3836C111.774 14.6588 111.569 16.1518 111.569 17.8059H115.032C115.032 16.413 115.208 15.361 115.494 14.5933L112.249 13.3836ZM111.569 17.8059V26.8172H115.032V17.8059H111.569ZM113.3 25.0859H111.249V28.5485H113.3V25.0859ZM112.98 26.8172V17.7799H109.517V26.8172H112.98ZM112.98 17.7799C112.98 15.8386 113.543 14.5492 114.484 13.6678L112.117 11.1408C110.322 12.8218 109.517 15.1161 109.517 17.7799H112.98ZM114.49 13.6623C115.197 12.9937 115.991 12.601 116.905 12.4506L116.343 9.03394C114.73 9.29911 113.308 10.0144 112.111 11.1463L114.49 13.6623ZM118.356 10.7423V9.91127H114.893V10.7423H118.356ZM117.539 8.4416L116.163 7.58462L114.333 10.524L115.709 11.381L117.539 8.4416ZM115.248 10.7856H120.104V7.32301H115.248V10.7856ZM119.201 7.57702L117.799 8.43401L119.605 11.3885L121.007 10.5316L119.201 7.57702ZM116.971 9.91127V16.5334H120.433V9.91127H116.971ZM118.362 18.2311C118.604 18.2795 118.785 18.3301 118.915 18.3764C118.979 18.3992 119.025 18.4192 119.057 18.4345C119.089 18.45 119.102 18.4586 119.1 18.4577C119.099 18.4568 119.079 18.4433 119.049 18.4136C119.018 18.3834 118.976 18.3357 118.934 18.268C118.842 18.1185 118.788 17.9356 118.788 17.754H122.251C122.251 16.7322 121.663 16.0077 121.03 15.583C120.451 15.1938 119.737 14.9749 119.041 14.8358L118.362 18.2311ZM129.656 26.8172V28.5485H131.388V26.8172H129.656ZM127.605 26.8172H125.874V28.5485H127.605V26.8172ZM127.605 17.5462H129.336V15.8149H127.605V17.5462ZM126.774 17.5462V15.8149H126.377L126.02 15.9878L126.774 17.5462ZM125.19 19.5458L126.747 20.3022L126.748 20.2999L125.19 19.5458ZM124.307 26.8172V28.5485H126.038V26.8172H124.307ZM122.255 26.8172H120.524V28.5485H122.255V26.8172ZM123.008 19.5199L121.41 18.8553L121.406 18.8652L123.008 19.5199ZM125.605 17.0009L125.823 18.7183L125.8 15.2806L125.605 17.0009ZM123.19 15.0791L124.682 14.2013L124.681 14.1992L123.19 15.0791ZM122.437 10.4566L124.147 10.7286L124.15 10.7096L124.152 10.6905L122.437 10.4566ZM123.242 9.44383L124.14 10.9237L124.15 10.9179L124.16 10.912L123.242 9.44383ZM129.656 9.05429H131.388V7.32301H129.656V9.05429ZM127.605 16.897V18.6283H129.336V16.897H127.605ZM127.605 9.70352H129.336V7.97224H127.605V9.70352ZM124.489 9.70352V7.97224H122.957L122.77 9.49249L124.489 9.70352ZM125.06 14.8454L126.603 14.0611L126.603 14.0604L125.06 14.8454ZM127.008 16.897L126.352 18.4994L126.667 18.6283H127.008V16.897ZM129.656 25.0859H127.605V28.5485H129.656V25.0859ZM129.336 26.8172V17.5462H125.874V26.8172H129.336ZM127.605 15.8149H126.774V19.2775H127.605V15.8149ZM126.02 15.9878C124.921 16.5196 124.178 17.6628 123.631 18.7918L126.748 20.2999C126.973 19.8355 127.171 19.5192 127.332 19.3159C127.499 19.106 127.573 19.083 127.528 19.1046L126.02 15.9878ZM123.632 18.7894C122.934 20.2279 122.575 21.7409 122.575 23.3114H126.038C126.038 22.2849 126.268 21.2875 126.747 20.3022L123.632 18.7894ZM122.575 23.3114V26.8172H126.038V23.3114H122.575ZM124.307 25.0859H122.255V28.5485H124.307V25.0859ZM123.986 26.8172V23.2854H120.524V26.8172H123.986ZM123.986 23.2854C123.986 22.2369 124.191 21.2036 124.611 20.1745L121.406 18.8652C120.822 20.2945 120.524 21.7716 120.524 23.2854H123.986ZM124.607 20.1845C125.143 18.8952 125.629 18.743 125.823 18.7183L125.387 15.2834C123.4 15.5357 122.155 17.0628 121.41 18.8553L124.607 20.1845ZM125.8 15.2806C125.646 15.2631 125.237 15.1437 124.682 14.2013L121.698 15.9569C122.529 17.3692 123.729 18.5308 125.41 18.7211L125.8 15.2806ZM124.681 14.1992C124.177 13.3455 123.986 12.6252 123.986 12.0148H120.524C120.524 13.378 120.956 14.7006 121.699 15.9591L124.681 14.1992ZM123.986 12.0148C123.986 11.8948 124.023 11.5057 124.147 10.7286L120.727 10.1846C120.608 10.9311 120.524 11.5808 120.524 12.0148H123.986ZM124.152 10.6905C124.143 10.7616 124.123 10.8275 124.098 10.884C124.073 10.9394 124.047 10.9762 124.032 10.995C124.006 11.0279 124.021 10.9963 124.14 10.9237L122.343 7.96396C121.631 8.39664 120.872 9.11578 120.722 10.2227L124.152 10.6905ZM124.16 10.912C124.35 10.793 124.452 10.7856 124.489 10.7856V7.32301C123.694 7.32301 122.965 7.5753 122.324 7.97571L124.16 10.912ZM124.489 10.7856H129.656V7.32301H124.489V10.7856ZM127.925 9.05429V26.8172H131.388V9.05429H127.925ZM129.336 16.897V9.70352H125.874V16.897H129.336ZM127.605 7.97224H124.489V11.4348H127.605V7.97224ZM122.77 9.49249C122.646 10.5063 122.575 11.3658 122.575 12.0407H126.038C126.038 11.573 126.089 10.8744 126.207 9.91455L122.77 9.49249ZM122.575 12.0407C122.575 13.2571 122.922 14.4608 123.517 15.6305L126.603 14.0604C126.194 13.2564 126.038 12.5903 126.038 12.0407H122.575ZM123.516 15.6298C124.16 16.8962 125.067 17.9737 126.352 18.4994L127.663 15.2946C127.424 15.197 127.033 14.9067 126.603 14.0611L123.516 15.6298ZM127.008 18.6283H127.605V15.1657H127.008V18.6283ZM139.337 26.8172V28.5485H141.068V26.8172H139.337ZM137.285 26.8172H135.554V28.5485H137.285V26.8172ZM135.649 17.5981L136.373 16.0255L135.659 15.697L134.942 16.0178L135.649 17.5981ZM134.325 19.416L132.643 19.0036L132.643 19.0049L134.325 19.416ZM134.039 26.8172V28.5485H135.77V26.8172H134.039ZM131.988 26.8172H130.256V28.5485H131.988V26.8172ZM132.273 19.4939L130.595 19.0692L130.591 19.0828L132.273 19.4939ZM134.351 17.1567L134.555 18.8759L134.558 15.4379L134.351 17.1567ZM132.299 15.235L130.641 15.7324L130.644 15.7426L130.647 15.7528L132.299 15.235ZM131.988 9.05429V7.32301H130.256V9.05429H131.988ZM134.039 9.05429H135.77V7.32301H134.039V9.05429ZM134.325 15.235L132.658 15.7049L132.659 15.7058L134.325 15.235ZM135.649 16.8191L135.014 18.4294L135.676 18.691L136.331 18.4104L135.649 16.8191ZM137.285 9.05429V7.32301H135.554V9.05429H137.285ZM139.337 9.05429H141.068V7.32301H139.337V9.05429ZM136.974 17.1826L136.803 15.4598L136.766 18.9014L136.974 17.1826ZM139.337 25.0859H137.285V28.5485H139.337V25.0859ZM139.017 26.8172V22.8959H135.554V26.8172H139.017ZM139.017 22.8959C139.017 21.3034 138.876 19.9083 138.53 18.7883C138.19 17.6875 137.559 16.5714 136.373 16.0255L134.925 19.1708C134.83 19.1269 135.017 19.1449 135.222 19.81C135.421 20.4559 135.554 21.4586 135.554 22.8959H139.017ZM134.942 16.0178C133.653 16.5945 132.953 17.742 132.643 19.0036L136.006 19.8284C136.147 19.2548 136.329 19.1904 136.356 19.1785L134.942 16.0178ZM132.643 19.0049C132.402 19.9907 132.308 21.3187 132.308 22.8959H135.77C135.77 21.3914 135.867 20.3994 136.007 19.8271L132.643 19.0049ZM132.308 22.8959V26.8172H135.77V22.8959H132.308ZM134.039 25.0859H131.988V28.5485H134.039V25.0859ZM133.719 26.8172V22.8959H130.256V26.8172H133.719ZM133.719 22.8959C133.719 21.449 133.814 20.4802 133.955 19.905L130.591 19.0828C130.351 20.0657 130.256 21.3649 130.256 22.8959H133.719ZM133.952 19.9185C134.092 19.3628 134.259 19.0952 134.359 18.9821C134.428 18.9045 134.471 18.8858 134.555 18.8759L134.147 15.4375C133.209 15.5487 132.395 15.9802 131.771 16.6817C131.179 17.3476 130.818 18.188 130.595 19.0692L133.952 19.9185ZM134.558 15.4379C134.391 15.4177 134.32 15.3701 134.268 15.3218C134.2 15.2575 134.07 15.0948 133.951 14.7172L130.647 15.7528C130.892 16.535 131.286 17.2726 131.901 17.8489C132.534 18.4412 133.306 18.7745 134.143 18.8755L134.558 15.4379ZM133.957 14.7375C133.823 14.2892 133.719 13.4777 133.719 12.1966H130.256C130.256 13.5816 130.36 14.7957 130.641 15.7324L133.957 14.7375ZM133.719 12.1966V9.05429H130.256V12.1966H133.719ZM131.988 10.7856H134.039V7.32301H131.988V10.7856ZM132.308 9.05429V12.1966H135.77V9.05429H132.308ZM132.308 12.1966C132.308 13.5879 132.402 14.7943 132.658 15.7049L135.991 14.765C135.867 14.3252 135.77 13.506 135.77 12.1966H132.308ZM132.659 15.7058C133.002 16.9221 133.764 17.9362 135.014 18.4294L136.285 15.2087C136.219 15.1826 136.097 15.1406 135.991 14.7641L132.659 15.7058ZM136.331 18.4104C137.465 17.9243 138.135 16.946 138.507 15.8999C138.874 14.87 139.017 13.6153 139.017 12.2225H135.554C135.554 13.4267 135.424 14.2365 135.245 14.7388C135.159 14.9809 135.076 15.1105 135.025 15.1725C135.001 15.2023 134.984 15.2161 134.978 15.2213C134.971 15.226 134.969 15.2272 134.967 15.2278L136.331 18.4104ZM139.017 12.2225V9.05429H135.554V12.2225H139.017ZM137.285 10.7856H139.337V7.32301H137.285V10.7856ZM137.606 9.05429V12.2225H141.068V9.05429H137.606ZM137.606 12.2225C137.606 13.7005 137.413 14.5978 137.183 15.0811C137.002 15.462 136.883 15.4519 136.803 15.4598L137.144 18.9055C138.639 18.7576 139.703 17.8429 140.309 16.5704C140.866 15.4003 141.068 13.8955 141.068 12.2225H137.606ZM136.766 18.9014C136.81 18.9068 136.826 18.9142 136.856 18.9417C136.905 18.9849 137.019 19.1121 137.145 19.4195C137.411 20.065 137.606 21.1849 137.606 22.9218H141.068C141.068 21.023 140.869 19.3686 140.347 18.1011C139.798 16.7684 138.782 15.6574 137.181 15.4639L136.766 18.9014ZM137.606 22.9218V26.8172H141.068V22.9218H137.606ZM150.485 17.4423V19.1736H152.216V17.4423H150.485ZM149.654 17.4423V15.7111H149.256L148.899 15.8845L149.654 17.4423ZM148.07 19.1823L149.582 20.0252L149.587 20.0155L148.07 19.1823ZM147.213 23.0257L148.892 23.4456L148.918 23.3442L148.931 23.2404L147.213 23.0257ZM147.239 22.8179H148.97L145.521 22.6032L147.239 22.8179ZM147.239 23.5451V25.2764H148.97V23.5451H147.239ZM145.187 23.5451L143.459 23.6467L143.555 25.2764H145.187V23.5451ZM145.135 22.6621L146.864 22.5605L146.863 22.553L145.135 22.6621ZM146.148 18.5071L144.727 17.5176L144.725 17.5216L146.148 18.5071ZM148.485 16.897L148.688 18.6164L148.663 15.1749L148.485 16.897ZM146.044 15.0012L144.514 15.8113L144.519 15.8207L146.044 15.0012ZM145.135 11.9109L143.414 12.1021L143.416 12.1132L145.135 11.9109ZM145.031 10.976V9.24473H143.097L143.311 11.1672L145.031 10.976ZM147.083 10.976L148.804 10.7899L148.637 9.24473H147.083V10.976ZM147.187 11.9369L148.908 11.7524L148.908 11.7508L147.187 11.9369ZM147.992 14.7156L149.55 13.9615L149.546 13.9535L147.992 14.7156ZM149.888 16.7931L149.219 18.3901L149.54 18.5244H149.888V16.7931ZM150.485 16.7931H152.216V15.0618H150.485V16.7931ZM145.836 17.5462V19.2775H147.568V17.5462H145.836ZM145.005 17.5462V15.8149H144.608L144.25 15.9884L145.005 17.5462ZM143.421 19.2861L144.934 20.129L144.939 20.1193L143.421 19.2861ZM142.564 23.1296L144.244 23.5495L144.269 23.4481L144.282 23.3443L142.564 23.1296ZM142.59 22.9218H144.322L140.872 22.7071L142.59 22.9218ZM142.59 23.649V25.3802H144.322V23.649H142.59ZM140.539 23.649L138.81 23.7506L138.906 25.3802H140.539V23.649ZM140.487 22.766L142.215 22.6643L142.215 22.6569L140.487 22.766ZM141.5 18.6109L140.079 17.6215L140.076 17.6255L141.5 18.6109ZM143.837 17.0009L144.039 18.7203L144.015 15.2788L143.837 17.0009ZM141.396 15.1051L139.866 15.9152L139.871 15.9245L141.396 15.1051ZM140.487 12.0148L138.766 12.206L138.767 12.2171L140.487 12.0148ZM140.383 11.0799V9.34861H138.449L138.662 11.2711L140.383 11.0799ZM142.434 11.0799L144.156 10.8938L143.989 9.34861H142.434V11.0799ZM142.538 12.0407L144.26 11.8563L144.26 11.8547L142.538 12.0407ZM143.343 14.8194L144.902 14.0654L144.898 14.0574L143.343 14.8194ZM145.239 16.897L144.571 18.494L144.891 18.6283H145.239V16.897ZM145.836 16.897H147.568V15.1657H145.836V16.897ZM150.485 15.7111H149.654V19.1736H150.485V15.7111ZM148.899 15.8845C147.865 16.3857 147.116 17.3218 146.552 18.3491L149.587 20.0155C149.993 19.2768 150.3 19.0529 150.409 19.0002L148.899 15.8845ZM146.557 18.3394C145.817 19.6686 145.456 21.1301 145.456 22.6881H148.918C148.918 21.6838 149.146 20.8081 149.582 20.0252L146.557 18.3394ZM145.456 22.6881C145.456 22.8312 145.457 22.9949 145.467 23.126C145.47 23.1612 145.475 23.2262 145.488 23.3026C145.494 23.3403 145.506 23.4063 145.527 23.486C145.541 23.5392 145.592 23.7255 145.717 23.9343C145.781 24.041 146.281 24.8528 147.337 24.7717C147.813 24.735 148.148 24.5165 148.328 24.3628C148.506 24.2113 148.613 24.0572 148.667 23.9726C148.774 23.8051 148.827 23.6572 148.844 23.6068C148.868 23.538 148.884 23.4804 148.892 23.4456L145.533 22.6058C145.54 22.5797 145.553 22.5293 145.575 22.4663C145.59 22.4218 145.641 22.2782 145.746 22.1137C145.799 22.0306 145.906 21.8777 146.083 21.7269C146.262 21.574 146.596 21.3559 147.071 21.3193C148.125 21.2383 148.624 22.0488 148.686 22.1528C148.81 22.3589 148.858 22.5411 148.871 22.5887C148.891 22.6629 148.901 22.7219 148.906 22.7512C148.916 22.8109 148.919 22.8534 148.919 22.8605C148.921 22.879 148.918 22.8393 148.918 22.6881H145.456ZM148.931 23.2404L148.957 23.0327L145.521 22.6032L145.495 22.811L148.931 23.2404ZM145.507 22.8179V23.5451H148.97V22.8179H145.507ZM147.239 21.8138H145.187V25.2764H147.239V21.8138ZM146.915 23.4434L146.864 22.5605L143.407 22.7638L143.459 23.6467L146.915 23.4434ZM146.863 22.553C146.779 21.215 147.057 20.236 147.571 19.4925L144.725 17.5216C143.681 19.0288 143.284 20.8198 143.407 22.7713L146.863 22.553ZM147.569 19.4965C148.059 18.7924 148.445 18.645 148.688 18.6164L148.283 15.1776C146.76 15.3567 145.587 16.2827 144.727 17.5177L147.569 19.4965ZM148.663 15.1749C148.4 15.1476 148.013 15.0075 147.569 14.1818L144.519 15.8207C145.322 17.3148 146.563 18.4386 148.307 18.6191L148.663 15.1749ZM147.574 14.1912C147.224 13.5291 146.973 12.7121 146.855 11.7086L143.416 12.1132C143.575 13.4642 143.93 14.7075 144.514 15.8113L147.574 14.1912ZM146.856 11.7197L146.752 10.7848L143.311 11.1672L143.415 12.1021L146.856 11.7197ZM145.031 12.7073H147.083V9.24473H145.031V12.7073ZM145.362 11.1621L145.466 12.123L148.908 11.7508L148.804 10.7899L145.362 11.1621ZM145.465 12.1213C145.591 13.2933 145.916 14.4149 146.437 15.4776L149.546 13.9535C149.202 13.2503 148.99 12.5194 148.908 11.7524L145.465 12.1213ZM146.433 15.4696C147.051 16.7459 147.935 17.8528 149.219 18.3901L150.556 15.1961C150.351 15.1102 149.971 14.832 149.55 13.9615L146.433 15.4696ZM149.888 18.5244H150.485V15.0618H149.888V18.5244ZM148.754 16.7931V17.4423H152.216V16.7931H148.754ZM145.836 15.8149H145.005V19.2775H145.836V15.8149ZM144.25 15.9884C143.216 16.4896 142.468 17.4257 141.904 18.4529L144.939 20.1193C145.344 19.3807 145.652 19.1568 145.761 19.104L144.25 15.9884ZM141.909 18.4433C141.168 19.7725 140.807 21.234 140.807 22.792H144.27C144.27 21.7877 144.497 20.912 144.933 20.129L141.909 18.4433ZM140.807 22.792C140.807 22.9351 140.809 23.0988 140.819 23.2299C140.821 23.2651 140.827 23.3301 140.839 23.4065C140.845 23.4442 140.857 23.5102 140.878 23.5899C140.893 23.6431 140.943 23.8294 141.068 24.0382C141.132 24.1449 141.633 24.9567 142.688 24.8755C143.164 24.8389 143.499 24.6204 143.679 24.4667C143.857 24.3151 143.965 24.1611 144.019 24.0765C144.125 23.909 144.178 23.7611 144.196 23.7107C144.22 23.6419 144.235 23.5842 144.244 23.5495L140.885 22.7097C140.891 22.6836 140.904 22.6332 140.926 22.5702C140.942 22.5256 140.993 22.3821 141.098 22.2175C141.15 22.1344 141.257 21.9815 141.434 21.8308C141.614 21.6779 141.947 21.4597 142.423 21.4232C143.476 21.3421 143.975 22.1527 144.037 22.2567C144.161 22.4628 144.21 22.6449 144.223 22.6926C144.243 22.7668 144.253 22.8258 144.258 22.8551C144.267 22.9147 144.27 22.9573 144.271 22.9643C144.272 22.9829 144.27 22.9432 144.27 22.792H140.807ZM144.282 23.3443L144.308 23.1366L140.872 22.7071L140.846 22.9148L144.282 23.3443ZM140.859 22.9218V23.649H144.322V22.9218H140.859ZM142.59 21.9177H140.539V25.3802H142.59V21.9177ZM142.267 23.5473L142.215 22.6643L138.758 22.8677L138.81 23.7506L142.267 23.5473ZM142.215 22.6569C142.13 21.3189 142.408 20.3399 142.923 19.5964L140.076 17.6255C139.033 19.1326 138.636 20.9237 138.759 22.8751L142.215 22.6569ZM142.92 19.6004C143.411 18.8963 143.796 18.7489 144.039 18.7203L143.634 15.2814C142.112 15.4606 140.939 16.3866 140.079 17.6215L142.92 19.6004ZM144.015 15.2788C143.751 15.2515 143.364 15.1114 142.921 14.2857L139.871 15.9245C140.673 17.4187 141.914 18.5425 143.659 18.7229L144.015 15.2788ZM142.926 14.2951C142.575 13.6329 142.324 12.816 142.206 11.8125L138.767 12.2171C138.926 13.5681 139.281 14.8114 139.866 15.9152L142.926 14.2951ZM142.207 11.8236L142.104 10.8887L138.662 11.2711L138.766 12.206L142.207 11.8236ZM140.383 12.8112H142.434V9.34861H140.383V12.8112ZM140.713 11.266L140.817 12.2268L144.26 11.8547L144.156 10.8938L140.713 11.266ZM140.817 12.2252C140.942 13.3972 141.268 14.5188 141.789 15.5815L144.898 14.0574C144.553 13.3542 144.342 12.6233 144.26 11.8563L140.817 12.2252ZM141.785 15.5735C142.402 16.8498 143.287 17.9566 144.571 18.494L145.908 15.3C145.702 15.2141 145.323 14.9359 144.902 14.0654L141.785 15.5735ZM145.239 18.6283H145.836V15.1657H145.239V18.6283ZM144.105 16.897V17.5462H147.568V16.897H144.105Z" fill="#E3DFC5"/>
<mask id="path-3-outside-1_97_127" maskUnits="userSpaceOnUse" x="149.083" y="2.66595" width="45" height="35" fill="black">
<rect fill="white" x="149.083" y="2.66595" width="45" height="35"/>
<path fill-rule="evenodd" clip-rule="evenodd" d="M161.124 5.82456L154.083 11.9974H164.772L161.124 5.82456ZM154.876 13.5323L170.19 31.7603L165.479 13.5323H154.876ZM172.317 31.9685L187.759 13.5323H177.081L172.317 31.9685ZM188.549 11.9974L181.468 5.77063L177.789 11.9974H188.549ZM179.747 5.66595H173.077L176.412 11.31L179.747 5.66595ZM171.267 5.66595H171.294L175.035 11.9974H167.525L171.267 5.66595ZM169.484 5.66595H162.814L166.149 11.31L169.484 5.66595ZM175.496 13.5323L171.28 29.845L167.065 13.5323H175.496Z"/>
</mask>
<path fill-rule="evenodd" clip-rule="evenodd" d="M161.124 5.82456L154.083 11.9974H164.772L161.124 5.82456ZM154.876 13.5323L170.19 31.7603L165.479 13.5323H154.876ZM172.317 31.9685L187.759 13.5323H177.081L172.317 31.9685ZM188.549 11.9974L181.468 5.77063L177.789 11.9974H188.549ZM179.747 5.66595H173.077L176.412 11.31L179.747 5.66595ZM171.267 5.66595H171.294L175.035 11.9974H167.525L171.267 5.66595ZM169.484 5.66595H162.814L166.149 11.31L169.484 5.66595ZM175.496 13.5323L171.28 29.845L167.065 13.5323H175.496Z" fill="#551018"/>
<path d="M161.124 5.82456L162.615 4.9438L161.553 3.14651L159.983 4.52274L161.124 5.82456ZM154.083 11.9974L152.942 10.6956L149.483 13.7287H154.083V11.9974ZM164.772 11.9974V13.7287H167.806L166.263 11.1166L164.772 11.9974ZM154.876 13.5323V11.801H151.161L153.551 14.6459L154.876 13.5323ZM170.19 31.7603L168.864 32.874L171.866 31.3272L170.19 31.7603ZM165.479 13.5323L167.156 13.0991L166.82 11.801H165.479V13.5323ZM172.317 31.9685L170.641 31.5353L173.644 33.0801L172.317 31.9685ZM187.759 13.5323L189.086 14.644L191.467 11.801H187.759V13.5323ZM177.081 13.5323V11.801H175.741L175.405 13.0991L177.081 13.5323ZM188.549 11.9974V13.7287H193.14L189.692 10.6973L188.549 11.9974ZM181.468 5.77063L182.611 4.47052L181.041 3.08986L179.978 4.88988L181.468 5.77063ZM177.789 11.9974L176.298 11.1166L174.755 13.7287H177.789V11.9974ZM179.747 5.66595L181.238 6.54671L182.781 3.93468H179.747V5.66595ZM173.077 5.66595V3.93468H170.043L171.586 6.54671L173.077 5.66595ZM176.412 11.31L174.921 12.1908L176.412 14.7132L177.902 12.1908L176.412 11.31ZM171.294 5.66595L172.784 4.7852L172.282 3.93468H171.294V5.66595ZM171.267 5.66595V3.93468H170.279L169.776 4.7852L171.267 5.66595ZM175.035 11.9974V13.7287H178.069L176.526 11.1166L175.035 11.9974ZM167.525 11.9974L166.035 11.1166L164.491 13.7287H167.525V11.9974ZM169.484 5.66595L170.974 6.54671L172.518 3.93468H169.484V5.66595ZM162.814 5.66595V3.93468H159.78L161.323 6.54671L162.814 5.66595ZM166.149 11.31L164.658 12.1908L166.149 14.7132L167.639 12.1908L166.149 11.31ZM171.28 29.845L169.604 30.2782L171.28 36.7644L172.957 30.2782L171.28 29.845ZM175.496 13.5323L177.172 13.9655L177.732 11.801H175.496V13.5323ZM167.065 13.5323V11.801H164.829L165.389 13.9655L167.065 13.5323ZM159.983 4.52274L152.942 10.6956L155.225 13.2992L162.266 7.12638L159.983 4.52274ZM154.083 13.7287H164.772V10.2661H154.083V13.7287ZM166.263 11.1166L162.615 4.9438L159.634 6.70531L163.282 12.8782L166.263 11.1166ZM153.551 14.6459L168.864 32.874L171.516 30.6467L156.202 12.4187L153.551 14.6459ZM171.866 31.3272L167.156 13.0991L163.803 13.9655L168.514 32.1935L171.866 31.3272ZM165.479 11.801H154.876V15.2636H165.479V11.801ZM173.644 33.0801L189.086 14.644L186.431 12.4207L170.99 30.8568L173.644 33.0801ZM187.759 11.801H177.081V15.2636H187.759V11.801ZM175.405 13.0991L170.641 31.5353L173.993 32.4016L178.758 13.9655L175.405 13.0991ZM189.692 10.6973L182.611 4.47052L180.325 7.07075L187.406 13.2975L189.692 10.6973ZM179.978 4.88988L176.298 11.1166L179.279 12.8782L182.959 6.65139L179.978 4.88988ZM177.789 13.7287H188.549V10.2661H177.789V13.7287ZM179.747 3.93468H173.077V7.39723H179.747V3.93468ZM171.586 6.54671L174.921 12.1908L177.902 10.4293L174.567 4.7852L171.586 6.54671ZM177.902 12.1908L181.238 6.54671L178.257 4.7852L174.921 10.4293L177.902 12.1908ZM171.294 3.93468H171.267V7.39723H171.294V3.93468ZM176.526 11.1166L172.784 4.7852L169.803 6.54671L173.545 12.8782L176.526 11.1166ZM167.525 13.7287H175.035V10.2661H167.525V13.7287ZM169.776 4.7852L166.035 11.1166L169.016 12.8782L172.757 6.54671L169.776 4.7852ZM169.484 3.93468H162.814V7.39723H169.484V3.93468ZM161.323 6.54671L164.658 12.1908L167.639 10.4293L164.304 4.7852L161.323 6.54671ZM167.639 12.1908L170.974 6.54671L167.993 4.7852L164.658 10.4293L167.639 12.1908ZM172.957 30.2782L177.172 13.9655L173.82 13.0991L169.604 29.4118L172.957 30.2782ZM165.389 13.9655L169.604 30.2782L172.957 29.4118L168.741 13.0991L165.389 13.9655ZM175.496 11.801H167.065V15.2636H175.496V11.801Z" fill="#E3DFC5" mask="url(#path-3-outside-1_97_127)"/>
</svg>
