<svg width="81" height="36" viewBox="0 0 81 36" fill="none" xmlns="http://www.w3.org/2000/svg">
<mask id="path-1-outside-1_97_178" maskUnits="userSpaceOnUse" x="0" y="1.84998" width="45" height="35" fill="black">
<rect fill="white" y="1.84998" width="45" height="35"/>
<path fill-rule="evenodd" clip-rule="evenodd" d="M12.0421 5.00787L5 11.1817H15.6903L12.0421 5.00787ZM5.79351 12.7166L21.1087 30.9466L16.3976 12.7166H5.79351ZM23.2359 31.15L38.6752 12.7166H27.9995L23.2359 31.15ZM39.4664 11.1817L32.3859 4.95555L28.7068 11.1817H39.4664ZM30.6655 4.84998H23.9949L27.3302 10.4943L30.6655 4.84998ZM22.1851 4.84998H22.212L25.9535 11.1817H18.4436L22.1851 4.84998ZM20.4023 4.84998H13.7316L17.067 10.4943L20.4023 4.84998ZM26.4142 12.7166L22.1986 29.0293L17.9829 12.7166H26.4142Z"/>
</mask>
<path fill-rule="evenodd" clip-rule="evenodd" d="M12.0421 5.00787L5 11.1817H15.6903L12.0421 5.00787ZM5.79351 12.7166L21.1087 30.9466L16.3976 12.7166H5.79351ZM23.2359 31.15L38.6752 12.7166H27.9995L23.2359 31.15ZM39.4664 11.1817L32.3859 4.95555L28.7068 11.1817H39.4664ZM30.6655 4.84998H23.9949L27.3302 10.4943L30.6655 4.84998ZM22.1851 4.84998H22.212L25.9535 11.1817H18.4436L22.1851 4.84998ZM20.4023 4.84998H13.7316L17.067 10.4943L20.4023 4.84998ZM26.4142 12.7166L22.1986 29.0293L17.9829 12.7166H26.4142Z" fill="#551018"/>
<path d="M12.0421 5.00787L13.5326 4.12712L12.4705 2.32983L10.9008 3.70605L12.0421 5.00787ZM5 11.1817L3.85869 9.87987L0.399028 12.913H5V11.1817ZM15.6903 11.1817V12.913H18.7242L17.1808 10.3009L15.6903 11.1817ZM5.79351 12.7166V10.9853H2.07791L4.46794 13.8302L5.79351 12.7166ZM21.1087 30.9466L19.7831 32.0603L22.7849 30.5135L21.1087 30.9466ZM16.3976 12.7166L18.0738 12.2834L17.7384 10.9853H16.3976V12.7166ZM23.2359 31.15L21.5596 30.7168L24.5631 32.2616L23.2359 31.15ZM38.6752 12.7166L40.0025 13.8283L42.3837 10.9853H38.6752V12.7166ZM27.9995 12.7166V10.9853H26.6588L26.3233 12.2834L27.9995 12.7166ZM39.4664 11.1817V12.913H44.0569L40.6096 9.88158L39.4664 11.1817ZM32.3859 4.95555L33.5292 3.65543L31.9591 2.27477L30.8954 4.07479L32.3859 4.95555ZM28.7068 11.1817L27.2163 10.3009L25.6729 12.913H28.7068V11.1817ZM30.6655 4.84998L32.156 5.73073L33.6994 3.1187H30.6655V4.84998ZM23.9949 4.84998V3.1187H20.9609L22.5044 5.73073L23.9949 4.84998ZM27.3302 10.4943L25.8397 11.3751L27.3302 13.8974L28.8207 11.3751L27.3302 10.4943ZM22.212 4.84998L23.7025 3.96922L23.1999 3.1187H22.212V4.84998ZM22.1851 4.84998V3.1187H21.1972L20.6946 3.96922L22.1851 4.84998ZM25.9535 11.1817V12.913H28.9875L27.444 10.3009L25.9535 11.1817ZM18.4436 11.1817L16.9531 10.3009L15.4097 12.913H18.4436V11.1817ZM20.4023 4.84998L21.8928 5.73073L23.4362 3.1187H20.4023V4.84998ZM13.7316 4.84998V3.1187H10.6977L12.2411 5.73073L13.7316 4.84998ZM17.067 10.4943L15.5765 11.3751L17.067 13.8974L18.5575 11.3751L17.067 10.4943ZM22.1986 29.0293L20.5223 29.4625L22.1986 35.9487L23.8748 29.4625L22.1986 29.0293ZM26.4142 12.7166L28.0904 13.1498L28.6497 10.9853H26.4142V12.7166ZM17.9829 12.7166V10.9853H15.7474L16.3067 13.1498L17.9829 12.7166ZM10.9008 3.70605L3.85869 9.87987L6.14131 12.4835L13.1834 6.30969L10.9008 3.70605ZM5 12.913H15.6903V9.45041H5V12.913ZM17.1808 10.3009L13.5326 4.12712L10.5516 5.88863L14.1998 12.0624L17.1808 10.3009ZM4.46794 13.8302L19.7831 32.0603L22.4343 29.833L7.11909 11.603L4.46794 13.8302ZM22.7849 30.5135L18.0738 12.2834L14.7214 13.1498L19.4325 31.3798L22.7849 30.5135ZM16.3976 10.9853H5.79351V14.4479H16.3976V10.9853ZM24.5631 32.2616L40.0025 13.8283L37.348 11.6049L21.9086 30.0383L24.5631 32.2616ZM38.6752 10.9853H27.9995V14.4479H38.6752V10.9853ZM26.3233 12.2834L21.5596 30.7168L24.9121 31.5831L29.6757 13.1498L26.3233 12.2834ZM40.6096 9.88158L33.5292 3.65543L31.2427 6.25566L38.3231 12.4818L40.6096 9.88158ZM30.8954 4.07479L27.2163 10.3009L30.1973 12.0624L33.8764 5.8363L30.8954 4.07479ZM28.7068 12.913H39.4664V9.45041H28.7068V12.913ZM30.6655 3.1187H23.9949V6.58125H30.6655V3.1187ZM22.5044 5.73073L25.8397 11.3751L28.8207 9.61356L25.4854 3.96922L22.5044 5.73073ZM28.8207 11.3751L32.156 5.73073L29.175 3.96922L25.8397 9.61356L28.8207 11.3751ZM22.212 3.1187H22.1851V6.58125H22.212V3.1187ZM27.444 10.3009L23.7025 3.96922L20.7215 5.73073L24.463 12.0624L27.444 10.3009ZM18.4436 12.913H25.9535V9.45041H18.4436V12.913ZM20.6946 3.96922L16.9531 10.3009L19.9341 12.0624L23.6756 5.73073L20.6946 3.96922ZM20.4023 3.1187H13.7316V6.58125H20.4023V3.1187ZM12.2411 5.73073L15.5765 11.3751L18.5575 9.61356L15.2221 3.96922L12.2411 5.73073ZM18.5575 11.3751L21.8928 5.73073L18.9118 3.96922L15.5765 9.61356L18.5575 11.3751ZM23.8748 29.4625L28.0904 13.1498L24.738 12.2834L20.5223 28.5961L23.8748 29.4625ZM16.3067 13.1498L20.5223 29.4625L23.8748 28.5961L19.6592 12.2834L16.3067 13.1498ZM26.4142 10.9853H17.9829V14.4479H26.4142V10.9853Z" fill="#E3DFC5" mask="url(#path-1-outside-1_97_178)"/>
<path d="M57.2897 26H55.2381V11.1197L51.7842 14.236V26H49.7326V10.9639C48.4515 10.9639 47.5166 11.6996 46.928 13.1712C46.4951 14.21 46.2787 15.4825 46.2787 16.9887V25.974H44.2272V16.9627C44.2272 14.6774 44.937 12.8856 46.3566 11.5871C47.3262 10.7042 48.4515 10.1502 49.7326 9.92509V9.09407L48.3563 8.23709H53.2125L51.7842 9.09407V13.0674L55.2381 9.92509V8.23709H57.2897V26ZM67.4316 26H65.3801V14.7813L61.9262 19.1701V26H59.8746V8.23709H61.9262V17.7418L65.3801 13.327V8.23709H67.4316V26ZM77.42 11.9767C77.42 13.4136 77.0305 14.738 76.2514 15.9499C75.3685 17.335 74.2518 18.0275 72.9014 18.0275H72.0704V26H70.0188V8.23709H75.1088C75.5243 8.23709 75.9398 8.33231 76.3553 8.52275C76.84 8.74782 77.1084 9.04214 77.1603 9.4057C77.3335 10.7561 77.42 11.6131 77.42 11.9767ZM75.3685 12.0026C75.3685 11.3967 75.2819 10.3579 75.1088 8.88632H72.0704V17.3782H72.6677C73.4294 17.0666 74.0873 16.2875 74.6413 15.041C75.1261 13.9503 75.3685 12.9375 75.3685 12.0026Z" fill="#551018"/>
<path d="M57.2897 26V27.7313H59.0209V26H57.2897ZM55.2381 26H53.5068V27.7313H55.2381V26ZM55.2381 11.1197H56.9694V7.22581L54.0783 9.83426L55.2381 11.1197ZM51.7842 14.236L50.6244 12.9506L50.0529 13.4662V14.236H51.7842ZM51.7842 26V27.7313H53.5155V26H51.7842ZM49.7326 26H48.0014V27.7313H49.7326V26ZM49.7326 10.9639H51.4639V9.23258H49.7326V10.9639ZM46.928 13.1712L48.5261 13.8371L48.5308 13.8257L48.5354 13.8142L46.928 13.1712ZM46.2787 25.974V27.7053H48.01V25.974H46.2787ZM44.2272 25.974H42.4959V27.7053H44.2272V25.974ZM46.3566 11.5871L45.1909 10.3071L45.1882 10.3096L46.3566 11.5871ZM49.7326 9.92509L50.0322 11.6303L51.4639 11.3787V9.92509H49.7326ZM49.7326 9.09408H51.4639V8.1326L50.6477 7.6244L49.7326 9.09408ZM48.3563 8.23709V6.50582H42.3003L47.4412 9.70677L48.3563 8.23709ZM53.2125 8.23709L54.1032 9.72165L59.463 6.50582H53.2125V8.23709ZM51.7842 9.09408L50.8935 7.60952L50.0529 8.11384V9.09408H51.7842ZM51.7842 13.0674H50.0529V16.983L52.9493 14.348L51.7842 13.0674ZM55.2381 9.92509L56.4032 11.2057L56.9694 10.6906V9.92509H55.2381ZM55.2381 8.23709V6.50582H53.5068V8.23709H55.2381ZM57.2897 8.23709H59.0209V6.50582H57.2897V8.23709ZM57.2897 24.2687H55.2381V27.7313H57.2897V24.2687ZM56.9694 26V11.1197H53.5068V26H56.9694ZM54.0783 9.83426L50.6244 12.9506L52.944 15.5214L56.3979 12.4051L54.0783 9.83426ZM50.0529 14.236V26H53.5155V14.236H50.0529ZM51.7842 24.2687H49.7326V27.7313H51.7842V24.2687ZM51.4639 26V10.9639H48.0014V26H51.4639ZM49.7326 9.23258C48.7355 9.23258 47.7967 9.52813 46.9999 10.1552C46.2271 10.7634 45.6914 11.601 45.3205 12.5283L48.5354 13.8142C48.7531 13.2699 48.9792 13.0038 49.1413 12.8762C49.2794 12.7675 49.4486 12.6951 49.7326 12.6951V9.23258ZM45.3299 12.5054C44.7848 13.8134 44.5475 15.327 44.5475 16.9887H48.01C48.01 15.638 48.2055 14.6066 48.5261 13.8371L45.3299 12.5054ZM44.5475 16.9887V25.974H48.01V16.9887H44.5475ZM46.2787 24.2428H44.2272V27.7053H46.2787V24.2428ZM45.9584 25.974V16.9627H42.4959V25.974H45.9584ZM45.9584 16.9627C45.9584 15.064 46.5314 13.7735 47.5251 12.8646L45.1882 10.3096C43.3426 11.9976 42.4959 14.2909 42.4959 16.9627H45.9584ZM47.5224 12.8671C48.2514 12.2032 49.077 11.7981 50.0322 11.6303L49.4331 8.21992C47.826 8.50225 46.4009 9.20512 45.1909 10.3071L47.5224 12.8671ZM51.4639 9.92509V9.09408H48.0014V9.92509H51.4639ZM50.6477 7.6244L49.2713 6.76742L47.4412 9.70677L48.8176 10.5638L50.6477 7.6244ZM48.3563 9.96837H53.2125V6.50582H48.3563V9.96837ZM52.3218 6.75253L50.8935 7.60952L52.6749 10.5786L54.1032 9.72165L52.3218 6.75253ZM50.0529 9.09408V13.0674H53.5155V9.09408H50.0529ZM52.9493 14.348L56.4032 11.2057L54.073 8.64448L50.6191 11.7868L52.9493 14.348ZM56.9694 9.92509V8.23709H53.5068V9.92509H56.9694ZM55.2381 9.96837H57.2897V6.50582H55.2381V9.96837ZM55.5584 8.23709V26H59.0209V8.23709H55.5584ZM67.4316 26V27.7313H69.1629V26H67.4316ZM65.3801 26H63.6488V27.7313H65.3801V26ZM65.3801 14.7813H67.1113V9.78199L64.0196 13.7106L65.3801 14.7813ZM61.9262 19.1701L60.5657 18.0994L60.1949 18.5706V19.1701H61.9262ZM61.9262 26V27.7313H63.6574V26H61.9262ZM59.8746 26H58.1433V27.7313H59.8746V26ZM59.8746 8.23709V6.50582H58.1433V8.23709H59.8746ZM61.9262 8.23709H63.6574V6.50582H61.9262V8.23709ZM61.9262 17.7418H60.1949V22.7644L63.2897 18.8086L61.9262 17.7418ZM65.3801 13.327L66.7436 14.3938L67.1113 13.9238V13.327H65.3801ZM65.3801 8.23709V6.50582H63.6488V8.23709H65.3801ZM67.4316 8.23709H69.1629V6.50582H67.4316V8.23709ZM67.4316 24.2687H65.3801V27.7313H67.4316V24.2687ZM67.1113 26V14.7813H63.6488V26H67.1113ZM64.0196 13.7106L60.5657 18.0994L63.2867 20.2408L66.7406 15.852L64.0196 13.7106ZM60.1949 19.1701V26H63.6574V19.1701H60.1949ZM61.9262 24.2687H59.8746V27.7313H61.9262V24.2687ZM61.6059 26V8.23709H58.1433V26H61.6059ZM59.8746 9.96837H61.9262V6.50582H59.8746V9.96837ZM60.1949 8.23709V17.7418H63.6574V8.23709H60.1949ZM63.2897 18.8086L66.7436 14.3938L64.0165 12.2603L60.5626 16.675L63.2897 18.8086ZM67.1113 13.327V8.23709H63.6488V13.327H67.1113ZM65.3801 9.96837H67.4316V6.50582H65.3801V9.96837ZM65.7004 8.23709V26H69.1629V8.23709H65.7004ZM76.2514 15.9499L74.7951 15.0137L74.7915 15.0193L76.2514 15.9499ZM72.0704 18.0275V16.2962H70.3391V18.0275H72.0704ZM72.0704 26V27.7313H73.8016V26H72.0704ZM70.0188 26H68.2875V27.7313H70.0188V26ZM70.0188 8.23709V6.50582H68.2875V8.23709H70.0188ZM76.3553 8.52275L77.0844 6.95245L77.0766 6.94891L76.3553 8.52275ZM77.1603 9.4057L78.8775 9.18555L78.876 9.17319L78.8742 9.16086L77.1603 9.4057ZM75.1088 8.88632L76.8282 8.68404L76.6483 7.15504H75.1088V8.88632ZM72.0704 8.88632V7.15504H70.3391V8.88632H72.0704ZM72.0704 17.3782H70.3391V19.1095H72.0704V17.3782ZM72.6677 17.3782V19.1095H73.0081L73.3232 18.9806L72.6677 17.3782ZM74.6413 15.041L76.2234 15.7442V15.7442L74.6413 15.041ZM75.6887 11.9767C75.6887 13.0807 75.3951 14.0803 74.7951 15.0137L77.7077 16.8861C78.6658 15.3958 79.1513 13.7465 79.1513 11.9767H75.6887ZM74.7915 15.0193C74.1472 16.03 73.5265 16.2962 72.9014 16.2962V19.7587C74.9771 19.7587 76.5897 18.6399 77.7113 16.8806L74.7915 15.0193ZM72.9014 16.2962H72.0704V19.7587H72.9014V16.2962ZM70.3391 18.0275V26H73.8016V18.0275H70.3391ZM72.0704 24.2687H70.0188V27.7313H72.0704V24.2687ZM71.7501 26V8.23709H68.2875V26H71.7501ZM70.0188 9.96837H75.1088V6.50582H70.0188V9.96837ZM75.1088 9.96837C75.2513 9.96837 75.4219 9.99941 75.6339 10.0966L77.0766 6.94891C76.4576 6.66521 75.7972 6.50582 75.1088 6.50582V9.96837ZM75.6262 10.093C75.7274 10.14 75.7046 10.1487 75.6408 10.0787C75.6062 10.0408 75.5627 9.98291 75.5242 9.90384C75.4852 9.82366 75.4588 9.73708 75.4464 9.65054L78.8742 9.16086C78.7057 7.98113 77.84 7.30331 77.0843 6.95247L75.6262 10.093ZM75.4431 9.62586C75.6209 11.0124 75.6887 11.7474 75.6887 11.9767H79.1513C79.1513 11.4788 79.046 10.4998 78.8775 9.18555L75.4431 9.62586ZM77.0997 12.0026C77.0997 11.2841 77.0012 10.1545 76.8282 8.68404L73.3893 9.08861C73.5626 10.5614 73.6372 11.5092 73.6372 12.0026H77.0997ZM75.1088 7.15504H72.0704V10.6176H75.1088V7.15504ZM70.3391 8.88632V17.3782H73.8016V8.88632H70.3391ZM72.0704 19.1095H72.6677V15.647H72.0704V19.1095ZM73.3232 18.9806C74.6979 18.4182 75.6003 17.146 76.2234 15.7442L73.0593 14.3379C72.5743 15.429 72.161 15.715 72.0121 15.7759L73.3232 18.9806ZM76.2234 15.7442C76.7803 14.4911 77.0997 13.2369 77.0997 12.0026H73.6372C73.6372 12.6381 73.4718 13.4096 73.0593 14.3379L76.2234 15.7442Z" fill="#E3DFC5"/>
</svg>
