<svg width="201" height="37" viewBox="0 0 201 37" fill="none" xmlns="http://www.w3.org/2000/svg">
<mask id="path-1-outside-1_97_103" maskUnits="userSpaceOnUse" x="0" y="2.42805" width="45" height="35" fill="black">
<rect fill="white" y="2.42805" width="45" height="35"/>
<path fill-rule="evenodd" clip-rule="evenodd" d="M12.0411 5.58667L5 11.7596H15.6887L12.0411 5.58667ZM5.79318 13.2945L21.1066 31.5224L16.396 13.2945H5.79318ZM23.2336 31.7305L38.6752 13.2945H27.9979L23.2336 31.7305ZM39.466 11.7596L32.3847 5.53274L28.7052 11.7596H39.466ZM30.6637 5.42805H23.9934L27.3286 11.0722L30.6637 5.42805ZM22.1834 5.42805H22.2105L25.9519 11.7596H18.442L22.1834 5.42805ZM20.4005 5.42805H13.7302L17.0654 11.0722L20.4005 5.42805ZM26.4126 13.2945L22.197 29.6072L17.9814 13.2945H26.4126Z"/>
</mask>
<path fill-rule="evenodd" clip-rule="evenodd" d="M12.0411 5.58667L5 11.7596H15.6887L12.0411 5.58667ZM5.79318 13.2945L21.1066 31.5224L16.396 13.2945H5.79318ZM23.2336 31.7305L38.6752 13.2945H27.9979L23.2336 31.7305ZM39.466 11.7596L32.3847 5.53274L28.7052 11.7596H39.466ZM30.6637 5.42805H23.9934L27.3286 11.0722L30.6637 5.42805ZM22.1834 5.42805H22.2105L25.9519 11.7596H18.442L22.1834 5.42805ZM20.4005 5.42805H13.7302L17.0654 11.0722L20.4005 5.42805ZM26.4126 13.2945L22.197 29.6072L17.9814 13.2945H26.4126Z" fill="#551018"/>
<path d="M12.0411 5.58667L13.5316 4.70592L12.4695 2.90863L10.8998 4.28485L12.0411 5.58667ZM5 11.7596L3.85869 10.4578L0.399028 13.4909H5V11.7596ZM15.6887 11.7596V13.4909H18.7227L17.1792 10.8788L15.6887 11.7596ZM5.79318 13.2945V11.5632H2.07757L4.4676 14.4081L5.79318 13.2945ZM21.1066 31.5224L19.781 32.636L22.7828 31.0892L21.1066 31.5224ZM16.396 13.2945L18.0722 12.8613L17.7368 11.5632H16.396V13.2945ZM23.2336 31.7305L21.5574 31.2973L24.5608 32.8422L23.2336 31.7305ZM38.6752 13.2945L40.0024 14.4062L42.3836 11.5632H38.6752V13.2945ZM27.9979 13.2945V11.5632H26.6572L26.3217 12.8613L27.9979 13.2945ZM39.466 11.7596V13.4909H44.0566L40.6092 10.4595L39.466 11.7596ZM32.3847 5.53274L33.528 4.23262L31.9579 2.85196L30.8942 4.65198L32.3847 5.53274ZM28.7052 11.7596L27.2147 10.8788L25.6712 13.4909H28.7052V11.7596ZM30.6637 5.42805L32.1542 6.30881L33.6977 3.69678H30.6637V5.42805ZM23.9934 5.42805V3.69678H20.9594L22.5029 6.30881L23.9934 5.42805ZM27.3286 11.0722L25.8381 11.9529L27.3286 14.4753L28.8191 11.9529L27.3286 11.0722ZM22.2105 5.42805L23.701 4.5473L23.1985 3.69678H22.2105V5.42805ZM22.1834 5.42805V3.69678H21.1955L20.6929 4.5473L22.1834 5.42805ZM25.9519 11.7596V13.4909H28.9859L27.4424 10.8788L25.9519 11.7596ZM18.442 11.7596L16.9515 10.8788L15.408 13.4909H18.442V11.7596ZM20.4005 5.42805L21.891 6.30881L23.4345 3.69678H20.4005V5.42805ZM13.7302 5.42805V3.69678H10.6962L12.2397 6.30881L13.7302 5.42805ZM17.0654 11.0722L15.5749 11.9529L17.0654 14.4753L18.5559 11.9529L17.0654 11.0722ZM22.197 29.6072L20.5208 30.0404L22.197 36.5266L23.8732 30.0404L22.197 29.6072ZM26.4126 13.2945L28.0888 13.7277L28.6481 11.5632H26.4126V13.2945ZM17.9814 13.2945V11.5632H15.7458L16.3052 13.7277L17.9814 13.2945ZM10.8998 4.28485L3.85869 10.4578L6.14131 13.0614L13.1824 6.88849L10.8998 4.28485ZM5 13.4909H15.6887V10.0283H5V13.4909ZM17.1792 10.8788L13.5316 4.70592L10.5506 6.46743L14.1982 12.6404L17.1792 10.8788ZM4.4676 14.4081L19.781 32.636L22.4321 30.4088L7.11876 12.1809L4.4676 14.4081ZM22.7828 31.0892L18.0722 12.8613L14.7198 13.7277L19.4304 31.9556L22.7828 31.0892ZM16.396 11.5632H5.79318V15.0258H16.396V11.5632ZM24.5608 32.8422L40.0024 14.4062L37.348 12.1829L21.9064 30.6189L24.5608 32.8422ZM38.6752 11.5632H27.9979V15.0258H38.6752V11.5632ZM26.3217 12.8613L21.5574 31.2973L24.9098 32.1637L29.6741 13.7277L26.3217 12.8613ZM40.6092 10.4595L33.528 4.23262L31.2415 6.83285L38.3227 13.0597L40.6092 10.4595ZM30.8942 4.65198L27.2147 10.8788L30.1957 12.6404L33.8752 6.41349L30.8942 4.65198ZM28.7052 13.4909H39.466V10.0283H28.7052V13.4909ZM30.6637 3.69678H23.9934V7.15933H30.6637V3.69678ZM22.5029 6.30881L25.8381 11.9529L28.8191 10.1914L25.4839 4.5473L22.5029 6.30881ZM28.8191 11.9529L32.1542 6.30881L29.1732 4.5473L25.8381 10.1914L28.8191 11.9529ZM22.2105 3.69678H22.1834V7.15933H22.2105V3.69678ZM27.4424 10.8788L23.701 4.5473L20.72 6.30881L24.4614 12.6404L27.4424 10.8788ZM18.442 13.4909H25.9519V10.0283H18.442V13.4909ZM20.6929 4.5473L16.9515 10.8788L19.9325 12.6404L23.6739 6.30881L20.6929 4.5473ZM20.4005 3.69678H13.7302V7.15933H20.4005V3.69678ZM12.2397 6.30881L15.5749 11.9529L18.5559 10.1914L15.2207 4.5473L12.2397 6.30881ZM18.5559 11.9529L21.891 6.30881L18.91 4.5473L15.5749 10.1914L18.5559 11.9529ZM23.8732 30.0404L28.0888 13.7277L24.7364 12.8613L20.5208 29.174L23.8732 30.0404ZM16.3052 13.7277L20.5208 30.0404L23.8732 29.174L19.6576 12.8613L16.3052 13.7277ZM26.4126 11.5632H17.9814V15.0258H26.4126V11.5632Z" fill="#E3DFC5" mask="url(#path-1-outside-1_97_103)"/>
<path d="M51.7842 26.5793H49.7326V9.46561H46.2787V26.5793H44.2272V8.81639H51.7842V26.5793ZM61.7726 12.5559C61.7726 13.9929 61.383 15.3173 60.604 16.5292C59.721 17.9142 58.6043 18.6068 57.254 18.6068H56.4229V26.5793H54.3714V8.81639H59.4613C59.8768 8.81639 60.2923 8.91161 60.7078 9.10205C61.1926 9.32711 61.461 9.62143 61.5129 9.985C61.686 11.3354 61.7726 12.1924 61.7726 12.5559ZM59.721 12.5819C59.721 11.976 59.6345 10.9372 59.4613 9.46561H56.4229V17.9575H57.0202C57.782 17.6459 58.4399 16.8668 58.9939 15.6203C59.4786 14.5296 59.721 13.5168 59.721 12.5819ZM71.4132 26.5793H69.3617V15.3606L65.9078 19.7494V26.5793H63.8562V8.81639H65.9078V18.3211L69.3617 13.9063V8.81639H71.4132V26.5793ZM81.5574 26.5793H79.5059V15.3606L76.052 19.7494V26.5793H74.0004V8.81639H76.052V18.3211L79.5059 13.9063V8.81639H81.5574V26.5793ZM91.9354 23.8266C91.3121 25.125 90.4291 26.0426 89.2865 26.5793C89.0788 26.6485 88.7671 26.7957 88.3516 27.0208C88.2477 26.9169 87.9188 26.787 87.3648 26.6312C86.8281 26.4754 86.4991 26.3542 86.378 26.2677C85.4258 25.5578 84.6986 24.1122 84.1965 21.9308C83.8157 20.3034 83.6252 18.65 83.6252 16.9707C83.6252 15.2048 83.8243 13.6466 84.2225 12.2963C84.7765 10.3572 85.6854 9.19727 86.9493 8.81639H87.7284C87.8669 8.81639 88.0746 8.65191 88.3516 8.32297C88.6459 8.65191 88.8537 8.81639 88.9749 8.81639H89.754C90.7927 9.21458 91.416 10.5909 91.6237 12.9455H89.5981C89.4943 11.9067 89.4164 11.2835 89.3644 11.0757C89.174 10.2966 88.8364 9.77724 88.3516 9.51755C87.3302 9.93306 86.5771 11.0238 86.0923 12.7897C85.746 14.0535 85.5816 15.4385 85.5989 16.9447C85.6162 18.5548 85.824 20.1649 86.2221 21.775C86.7242 23.8698 87.434 25.2808 88.3516 26.008C89.1826 25.3501 89.676 24.6229 89.8319 23.8266H91.9354ZM101.36 26.5793H99.3088V22.5541C99.3088 21.2729 99.0145 20.1043 98.4258 19.0482C97.9411 18.1653 97.413 17.5853 96.8417 17.3083H96.0107V26.5793H93.9591V8.81639H96.0107V16.6591H96.608C97.4044 16.3301 98.0709 15.6463 98.6076 14.6075C99.0751 13.6726 99.3088 12.7377 99.3088 11.8028V8.81639H101.36V11.7769C101.36 12.9368 101.092 13.9929 100.555 14.9451C99.932 16.0531 99.0837 16.6591 98.0103 16.7629C99.1356 16.9015 100.001 17.6459 100.607 18.9963C101.109 20.0697 101.36 21.247 101.36 22.5281V26.5793ZM122.62 10.842L122.516 11.7769C122.378 12.9541 122.075 13.9842 121.607 14.8672C120.984 16.0272 120.17 16.6591 119.166 16.7629C120.049 16.8668 120.828 17.4035 121.503 18.373C122.282 19.4984 122.62 20.8834 122.516 22.5281L122.464 23.4111H120.413V22.6839L120.439 22.8917C120.456 22.9609 120.465 22.8484 120.465 22.5541C120.465 21.2729 120.17 20.1043 119.582 19.0482C119.097 18.1653 118.569 17.5853 117.997 17.3083H117.166V16.6591H117.764C118.508 16.3474 119.14 15.6549 119.659 14.5815C120.092 13.6986 120.361 12.7724 120.465 11.8028L120.568 10.842H122.62ZM117.971 10.7381L117.868 11.673C117.729 12.8503 117.426 13.8804 116.959 14.7633C116.335 15.9233 115.522 16.5552 114.518 16.6591C115.401 16.7629 116.18 17.2996 116.855 18.2692C117.634 19.3945 117.971 20.7795 117.868 22.4242L117.816 23.3072H115.764V22.58L115.79 22.7878C115.807 22.857 115.816 22.7445 115.816 22.4502C115.816 21.169 115.522 20.0004 114.933 18.9444C114.448 18.0614 113.92 17.4814 113.349 17.2044H112.518V16.5552H113.115C113.86 16.2436 114.492 15.5511 115.011 14.4777C115.444 13.5947 115.712 12.6685 115.816 11.699L115.92 10.7381H117.971ZM136.871 26.5793H134.819V11.699L131.365 14.8153V26.5793H129.314V11.5431C128.033 11.5431 127.098 12.2789 126.509 13.7505C126.076 14.7893 125.86 16.0618 125.86 17.568V26.5533H123.808V17.542C123.808 15.2567 124.518 13.4649 125.938 12.1664C126.907 11.2835 128.033 10.7294 129.314 10.5044V9.67337L127.938 8.81639H132.794L131.365 9.67337V13.6466L134.819 10.5044V8.81639H136.871V26.5793ZM147.299 16.9967C147.299 22.1213 146.563 25.2116 145.091 26.2677C144.918 26.3889 144.624 26.51 144.208 26.6312C143.793 26.7524 143.498 26.8823 143.325 27.0208H143.118C142.944 26.8823 142.65 26.7524 142.235 26.6312C141.819 26.51 141.525 26.3889 141.352 26.2677C140.451 25.6271 139.793 24.1815 139.378 21.9308C139.084 20.338 138.936 18.6847 138.936 16.9707C138.936 12.2789 139.871 9.56083 141.741 8.81639H142.52C142.849 8.81639 143.083 8.65191 143.221 8.32297C143.36 8.65191 143.594 8.81639 143.923 8.81639H144.702C146.433 9.5089 147.299 12.2357 147.299 16.9967ZM145.247 16.9707C145.264 13.9583 144.987 11.8721 144.416 10.7121C144.174 10.2274 143.775 9.83784 143.221 9.54352C142.615 9.83784 142.165 10.3139 141.871 10.9718C141.663 11.3873 141.473 12.0366 141.3 12.9195C141.092 13.9583 140.988 15.2914 140.988 16.9188C140.988 18.6154 141.127 20.2082 141.404 21.6971C141.784 23.8266 142.39 25.2462 143.221 25.956C144.554 24.8134 145.23 21.8183 145.247 16.9707ZM158.643 17.5161C158.643 18.1566 158.037 18.5981 156.825 18.8405V25.4366L158.227 26.5793H153.371L154.747 25.4366V18.8665C153.622 18.6241 153.059 18.1913 153.059 17.568C153.059 16.962 153.622 16.5379 154.747 16.2955V11.5431C153.466 11.5431 152.549 12.2789 151.995 13.7505C151.614 14.772 151.423 16.0445 151.423 17.568V26.5793H149.372V17.542C149.372 15.2394 150.056 13.4476 151.423 12.1664C152.376 11.2661 153.484 10.7121 154.747 10.5044V9.67337L153.371 8.81639H158.227L156.825 9.67337V16.2955C158.037 16.5379 158.643 16.9447 158.643 17.5161ZM168.221 16.9967C168.221 22.1213 167.485 25.2116 166.014 26.2677C165.84 26.3889 165.546 26.51 165.131 26.6312C164.715 26.7524 164.421 26.8823 164.248 27.0208H164.04C163.867 26.8823 163.573 26.7524 163.157 26.6312C162.742 26.51 162.447 26.3889 162.274 26.2677C161.374 25.6271 160.716 24.1815 160.3 21.9308C160.006 20.338 159.859 18.6847 159.859 16.9707C159.859 12.2789 160.794 9.56083 162.664 8.81639H163.443C163.772 8.81639 164.005 8.65191 164.144 8.32297C164.282 8.65191 164.516 8.81639 164.845 8.81639H165.624C167.355 9.5089 168.221 12.2357 168.221 16.9967ZM166.169 16.9707C166.187 13.9583 165.91 11.8721 165.338 10.7121C165.096 10.2274 164.698 9.83784 164.144 9.54352C163.538 9.83784 163.088 10.3139 162.793 10.9718C162.586 11.3873 162.395 12.0366 162.222 12.9195C162.014 13.9583 161.91 15.2914 161.91 16.9188C161.91 18.6154 162.049 20.2082 162.326 21.6971C162.707 23.8266 163.313 25.2462 164.144 25.956C165.477 24.8134 166.152 21.8183 166.169 16.9707ZM179.565 17.5161C179.565 18.1566 178.959 18.5981 177.747 18.8405V25.4366L177.514 25.8781H179.487V32.0068L177.514 29.9033V26.5793H174.294L174.345 26.5274H172.346V26.5793H171.125V32.0068L169.126 34.1103V25.8781H170.294V17.542C170.294 15.2394 170.978 13.4476 172.346 12.1664C173.298 11.2661 174.406 10.7121 175.67 10.5044V9.67337L174.294 8.81639H179.15L177.747 9.67337V16.2955C178.959 16.5379 179.565 16.9447 179.565 17.5161ZM175.67 25.4366V18.8665C174.545 18.6241 173.982 18.1913 173.982 17.568C173.982 16.962 174.545 16.5379 175.67 16.2955V11.5431C174.389 11.5431 173.471 12.2789 172.917 13.7505C172.536 14.772 172.346 16.0445 172.346 17.568V25.8781H175.15L175.67 25.4366ZM189.397 16.9967C189.397 22.1213 188.661 25.2116 187.19 26.2677C187.017 26.3889 186.722 26.51 186.307 26.6312C185.891 26.7524 185.597 26.8823 185.424 27.0208H185.216C185.043 26.8823 184.749 26.7524 184.333 26.6312C183.918 26.51 183.623 26.3889 183.45 26.2677C182.55 25.6271 181.892 24.1815 181.476 21.9308C181.182 20.338 181.035 18.6847 181.035 16.9707C181.035 12.2789 181.97 9.56083 183.84 8.81639H184.619C184.948 8.81639 185.181 8.65191 185.32 8.32297C185.458 8.65191 185.692 8.81639 186.021 8.81639H186.8C188.531 9.5089 189.397 12.2357 189.397 16.9967ZM187.345 16.9707C187.363 13.9583 187.086 11.8721 186.514 10.7121C186.272 10.2274 185.874 9.83784 185.32 9.54352C184.714 9.83784 184.264 10.3139 183.969 10.9718C183.762 11.3873 183.571 12.0366 183.398 12.9195C183.19 13.9583 183.087 15.2914 183.087 16.9188C183.087 18.6154 183.225 20.2082 183.502 21.6971C183.883 23.8266 184.489 25.2462 185.32 25.956C186.653 24.8134 187.328 21.8183 187.345 16.9707ZM200.274 17.2044H199.443C198.871 17.4814 198.343 18.0614 197.859 18.9444C197.27 20.0004 196.976 21.169 196.976 22.4502C196.976 22.7445 196.984 22.857 197.002 22.7878L197.028 22.58V23.3072H194.976L194.924 22.4242C194.82 20.7795 195.158 19.3945 195.937 18.2692C196.612 17.2996 197.391 16.7629 198.274 16.6591C197.27 16.5552 196.456 15.9233 195.833 14.7633C195.366 13.8804 195.063 12.8503 194.924 11.673L194.82 10.7381H196.872L196.976 11.699C197.08 12.6685 197.348 13.5947 197.781 14.4777C198.3 15.5511 198.932 16.2436 199.677 16.5552H200.274V17.2044ZM195.625 17.3083H194.794C194.223 17.5853 193.695 18.1653 193.21 19.0482C192.622 20.1043 192.327 21.2729 192.327 22.5541C192.327 22.8484 192.336 22.9609 192.353 22.8917L192.379 22.6839V23.4111H190.328L190.276 22.5281C190.172 20.8834 190.509 19.4984 191.289 18.373C191.964 17.4035 192.743 16.8668 193.626 16.7629C192.622 16.6591 191.808 16.0272 191.185 14.8672C190.717 13.9842 190.414 12.9541 190.276 11.7769L190.172 10.842H192.223L192.327 11.8028C192.431 12.7724 192.699 13.6986 193.132 14.5815C193.652 15.6549 194.284 16.3474 195.028 16.6591H195.625V17.3083Z" fill="#551018"/>
<path d="M51.7842 26.5793V28.3106H53.5155V26.5793H51.7842ZM49.7326 26.5793H48.0014V28.3106H49.7326V26.5793ZM49.7326 9.46561H51.4639V7.73434H49.7326V9.46561ZM46.2787 9.46561V7.73434H44.5475V9.46561H46.2787ZM46.2787 26.5793V28.3106H48.01V26.5793H46.2787ZM44.2272 26.5793H42.4959V28.3106H44.2272V26.5793ZM44.2272 8.81639V7.08511H42.4959V8.81639H44.2272ZM51.7842 8.81639H53.5155V7.08511H51.7842V8.81639ZM51.7842 24.848H49.7326V28.3106H51.7842V24.848ZM51.4639 26.5793V9.46561H48.0014V26.5793H51.4639ZM49.7326 7.73434H46.2787V11.1969H49.7326V7.73434ZM44.5475 9.46561V26.5793H48.01V9.46561H44.5475ZM46.2787 24.848H44.2272V28.3106H46.2787V24.848ZM45.9584 26.5793V8.81639H42.4959V26.5793H45.9584ZM44.2272 10.5477H51.7842V7.08511H44.2272V10.5477ZM50.0529 8.81639V26.5793H53.5155V8.81639H50.0529ZM60.604 16.5292L59.1476 15.593L59.1441 15.5986L60.604 16.5292ZM56.4229 18.6068V16.8755H54.6917V18.6068H56.4229ZM56.4229 26.5793V28.3106H58.1542V26.5793H56.4229ZM54.3714 26.5793H52.6401V28.3106H54.3714V26.5793ZM54.3714 8.81639V7.08511H52.6401V8.81639H54.3714ZM60.7078 9.10205L61.4369 7.53174L61.4292 7.5282L60.7078 9.10205ZM61.5129 9.985L63.2301 9.76484L63.2285 9.75249L63.2268 9.74016L61.5129 9.985ZM59.4613 9.46561L61.1807 9.26333L61.0009 7.73434H59.4613V9.46561ZM56.4229 9.46561V7.73434H54.6917V9.46561H56.4229ZM56.4229 17.9575H54.6917V19.6888H56.4229V17.9575ZM57.0202 17.9575V19.6888H57.3607L57.6757 19.5599L57.0202 17.9575ZM58.9939 15.6203L60.5759 16.3234V16.3234L58.9939 15.6203ZM60.0413 12.5559C60.0413 13.66 59.7477 14.6596 59.1477 15.593L62.0603 17.4654C63.0184 15.9751 63.5039 14.3258 63.5039 12.5559H60.0413ZM59.1441 15.5986C58.4997 16.6093 57.8791 16.8755 57.254 16.8755V20.338C59.3296 20.338 60.9423 19.2192 62.0638 17.4599L59.1441 15.5986ZM57.254 16.8755H56.4229V20.338H57.254V16.8755ZM54.6917 18.6068V26.5793H58.1542V18.6068H54.6917ZM56.4229 24.848H54.3714V28.3106H56.4229V24.848ZM56.1027 26.5793V8.81639H52.6401V26.5793H56.1027ZM54.3714 10.5477H59.4613V7.08511H54.3714V10.5477ZM59.4613 10.5477C59.6039 10.5477 59.7745 10.5787 59.9865 10.6759L61.4292 7.5282C60.8102 7.2445 60.1498 7.08511 59.4613 7.08511V10.5477ZM59.9788 10.6723C60.08 10.7193 60.0571 10.728 59.9933 10.658C59.9588 10.6201 59.9153 10.5622 59.8768 10.4831C59.8377 10.4029 59.8114 10.3164 59.799 10.2298L63.2268 9.74016C63.0582 8.56043 62.1926 7.88261 61.4369 7.53176L59.9788 10.6723ZM59.7957 10.2052C59.9734 11.5917 60.0413 12.3267 60.0413 12.5559H63.5039C63.5039 12.0581 63.3986 11.0791 63.2301 9.76484L59.7957 10.2052ZM61.4523 12.5819C61.4523 11.8634 61.3537 10.7338 61.1807 9.26333L57.7419 9.6679C57.9152 11.1406 57.9897 12.0885 57.9897 12.5819H61.4523ZM59.4613 7.73434H56.4229V11.1969H59.4613V7.73434ZM54.6917 9.46561V17.9575H58.1542V9.46561H54.6917ZM56.4229 19.6888H57.0202V16.2263H56.4229V19.6888ZM57.6757 19.5599C59.0504 18.9975 59.9529 17.7253 60.5759 16.3234L57.4118 14.9172C56.9269 16.0083 56.5135 16.2943 56.3647 16.3552L57.6757 19.5599ZM60.5759 16.3234C61.1329 15.0704 61.4523 13.8162 61.4523 12.5819H57.9897C57.9897 13.2174 57.8244 13.9888 57.4118 14.9172L60.5759 16.3234ZM71.4132 26.5793V28.3106H73.1445V26.5793H71.4132ZM69.3617 26.5793H67.6304V28.3106H69.3617V26.5793ZM69.3617 15.3606H71.0929V10.3613L68.0012 14.2899L69.3617 15.3606ZM65.9078 19.7494L64.5473 18.6787L64.1765 19.1499V19.7494H65.9078ZM65.9078 26.5793V28.3106H67.639V26.5793H65.9078ZM63.8562 26.5793H62.1249V28.3106H63.8562V26.5793ZM63.8562 8.81639V7.08511H62.1249V8.81639H63.8562ZM65.9078 8.81639H67.639V7.08511H65.9078V8.81639ZM65.9078 18.3211H64.1765V23.3437L67.2713 19.3879L65.9078 18.3211ZM69.3617 13.9063L70.7252 14.9731L71.0929 14.5031V13.9063H69.3617ZM69.3617 8.81639V7.08511H67.6304V8.81639H69.3617ZM71.4132 8.81639H73.1445V7.08511H71.4132V8.81639ZM71.4132 24.848H69.3617V28.3106H71.4132V24.848ZM71.0929 26.5793V15.3606H67.6304V26.5793H71.0929ZM68.0012 14.2899L64.5473 18.6787L67.2683 20.8201L70.7222 16.4313L68.0012 14.2899ZM64.1765 19.7494V26.5793H67.639V19.7494H64.1765ZM65.9078 24.848H63.8562V28.3106H65.9078V24.848ZM65.5875 26.5793V8.81639H62.1249V26.5793H65.5875ZM63.8562 10.5477H65.9078V7.08511H63.8562V10.5477ZM64.1765 8.81639V18.3211H67.639V8.81639H64.1765ZM67.2713 19.3879L70.7252 14.9731L67.9981 12.8396L64.5442 17.2543L67.2713 19.3879ZM71.0929 13.9063V8.81639H67.6304V13.9063H71.0929ZM69.3617 10.5477H71.4132V7.08511H69.3617V10.5477ZM69.682 8.81639V26.5793H73.1445V8.81639H69.682ZM81.5574 26.5793V28.3106H83.2887V26.5793H81.5574ZM79.5059 26.5793H77.7746V28.3106H79.5059V26.5793ZM79.5059 15.3606H81.2371V10.3613L78.1454 14.2899L79.5059 15.3606ZM76.052 19.7494L74.6915 18.6787L74.3207 19.1499V19.7494H76.052ZM76.052 26.5793V28.3106H77.7832V26.5793H76.052ZM74.0004 26.5793H72.2691V28.3106H74.0004V26.5793ZM74.0004 8.81639V7.08511H72.2691V8.81639H74.0004ZM76.052 8.81639H77.7832V7.08511H76.052V8.81639ZM76.052 18.3211H74.3207V23.3437L77.4155 19.3879L76.052 18.3211ZM79.5059 13.9063L80.8694 14.9731L81.2371 14.5031V13.9063H79.5059ZM79.5059 8.81639V7.08511H77.7746V8.81639H79.5059ZM81.5574 8.81639H83.2887V7.08511H81.5574V8.81639ZM81.5574 24.848H79.5059V28.3106H81.5574V24.848ZM81.2371 26.5793V15.3606H77.7746V26.5793H81.2371ZM78.1454 14.2899L74.6915 18.6787L77.4125 20.8201L80.8664 16.4313L78.1454 14.2899ZM74.3207 19.7494V26.5793H77.7832V19.7494H74.3207ZM76.052 24.848H74.0004V28.3106H76.052V24.848ZM75.7317 26.5793V8.81639H72.2691V26.5793H75.7317ZM74.0004 10.5477H76.052V7.08511H74.0004V10.5477ZM74.3207 8.81639V18.3211H77.7832V8.81639H74.3207ZM77.4155 19.3879L80.8694 14.9731L78.1423 12.8396L74.6884 17.2543L77.4155 19.3879ZM81.2371 13.9063V8.81639H77.7746V13.9063H81.2371ZM79.5059 10.5477H81.5574V7.08511H79.5059V10.5477ZM79.8262 8.81639V26.5793H83.2887V8.81639H79.8262ZM91.9354 23.8266L93.4961 24.5757L94.6868 22.0953H91.9354V23.8266ZM89.2865 26.5793L89.834 28.2217L89.9305 28.1896L90.0225 28.1463L89.2865 26.5793ZM88.3516 27.0208L87.1274 28.245L88.0406 29.1582L89.1762 28.5431L88.3516 27.0208ZM87.3648 26.6312L86.8821 28.2939L86.8891 28.2959L86.8961 28.2978L87.3648 26.6312ZM86.378 26.2677L85.3432 27.6557L85.3573 27.6662L85.3717 27.6765L86.378 26.2677ZM84.1965 21.9308L85.8837 21.5425L85.8823 21.5363L84.1965 21.9308ZM84.2225 12.2963L85.8831 12.7859L85.8852 12.7789L85.8872 12.7719L84.2225 12.2963ZM86.9493 8.81639V7.08511H86.6941L86.4497 7.15875L86.9493 8.81639ZM88.3516 8.32297L89.6418 7.16856L88.312 5.68227L87.0273 7.20779L88.3516 8.32297ZM89.754 8.81639L90.3736 7.19981L90.0744 7.08511H89.754V8.81639ZM91.6237 12.9455V14.6768H93.5145L93.3483 12.7933L91.6237 12.9455ZM89.5981 12.9455L87.8755 13.1178L88.0314 14.6768H89.5981V12.9455ZM89.3644 11.0757L87.6826 11.4868L87.6848 11.4956L89.3644 11.0757ZM88.3516 9.51755L89.1692 7.99147L88.4524 7.60751L87.6993 7.91388L88.3516 9.51755ZM86.0923 12.7897L84.4228 12.3314L84.4226 12.3322L86.0923 12.7897ZM85.5989 16.9447L87.3301 16.9261L87.33 16.9248L85.5989 16.9447ZM86.2221 21.775L87.9058 21.3715L87.9028 21.3594L86.2221 21.775ZM88.3516 26.008L87.2764 27.3649L88.3511 28.2165L89.4262 27.3654L88.3516 26.008ZM89.8319 23.8266V22.0953H88.4065L88.1328 23.4941L89.8319 23.8266ZM90.3746 23.0774C89.8982 24.0698 89.282 24.6687 88.5505 25.0123L90.0225 28.1463C91.5763 27.4165 92.726 26.1802 93.4961 24.5757L90.3746 23.0774ZM88.739 24.9369C88.378 25.0572 87.9539 25.2673 87.527 25.4985L89.1762 28.5431C89.5804 28.3241 89.7795 28.2399 89.834 28.2217L88.739 24.9369ZM89.5758 25.7966C89.2431 25.4639 88.8217 25.2979 88.6627 25.2351C88.4205 25.1395 88.1368 25.0499 87.8335 24.9646L86.8961 28.2978C87.0179 28.3321 87.1204 28.363 87.2052 28.3904C87.2909 28.4182 87.3515 28.4401 87.3913 28.4558C87.4347 28.4729 87.4352 28.4755 87.4089 28.4614C87.3946 28.4536 87.3625 28.4356 87.3197 28.4061C87.2791 28.3782 87.2081 28.3257 87.1274 28.245L89.5758 25.7966ZM87.8475 24.9686C87.5982 24.8962 87.4249 24.8398 87.3141 24.7989C87.2878 24.7893 87.2679 24.7815 87.2536 24.7757C87.2389 24.7697 87.2327 24.7669 87.2333 24.7671C87.2338 24.7674 87.2369 24.7688 87.2423 24.7715C87.2476 24.7742 87.2562 24.7786 87.2675 24.7848C87.2873 24.7957 87.3298 24.82 87.3842 24.8589L85.3717 27.6765C85.6399 27.8681 85.9499 27.9864 86.117 28.048C86.3352 28.1284 86.5947 28.2104 86.8821 28.2939L87.8475 24.9686ZM87.4127 24.8796C86.9766 24.5545 86.3649 23.6331 85.8837 21.5425L82.5094 22.3191C83.0323 24.5913 83.8749 26.5612 85.3432 27.6557L87.4127 24.8796ZM85.8823 21.5363C85.5318 20.0388 85.3565 18.5179 85.3565 16.9707H81.894C81.894 18.7822 82.0995 20.568 82.5108 22.3253L85.8823 21.5363ZM85.3565 16.9707C85.3565 15.3304 85.5419 13.9429 85.8831 12.7859L82.5619 11.8066C82.1067 13.3504 81.894 15.0792 81.894 16.9707H85.3565ZM85.8872 12.7719C86.3697 11.0831 87.0049 10.6078 87.4488 10.474L86.4497 7.15875C84.366 7.78671 83.1834 9.63134 82.5579 11.8206L85.8872 12.7719ZM86.9493 10.5477H87.7284V7.08511H86.9493V10.5477ZM87.7284 10.5477C88.4113 10.5477 88.8931 10.1846 89.0627 10.0504C89.2961 9.86562 89.5026 9.64394 89.6759 9.43815L87.0273 7.20779C86.9236 7.33094 86.8877 7.35597 86.9134 7.33563C86.9281 7.32404 86.9925 7.27394 87.1024 7.22172C87.2075 7.17182 87.4271 7.08511 87.7284 7.08511V10.5477ZM87.0614 9.47738C87.2373 9.67392 87.4381 9.87984 87.6536 10.0504C87.7617 10.1361 87.9107 10.2427 88.0935 10.334C88.2617 10.4181 88.5727 10.5477 88.9749 10.5477V7.08511C89.3165 7.08511 89.5561 7.19408 89.642 7.23704C89.7426 7.28732 89.7985 7.33222 89.8028 7.33563C89.8105 7.34175 89.7603 7.30096 89.6418 7.16856L87.0614 9.47738ZM88.9749 10.5477H89.754V7.08511H88.9749V10.5477ZM89.1343 10.433C89.1347 10.4331 89.1353 10.4334 89.1362 10.4339C89.1372 10.4344 89.1395 10.4356 89.1432 10.4382C89.1503 10.4431 89.1668 10.4556 89.1915 10.4819C89.2427 10.5366 89.3275 10.6497 89.4234 10.8615C89.6223 11.3009 89.8039 12.0178 89.8992 13.0977L93.3483 12.7933C93.2358 11.5187 93.0019 10.3701 92.5776 9.43314C92.147 8.48218 91.4526 7.6134 90.3736 7.19981L89.1343 10.433ZM91.6237 11.2142H89.5981V14.6768H91.6237V11.2142ZM91.3208 12.7732C91.2233 11.7978 91.1343 11.0171 91.044 10.6558L87.6848 11.4956C87.6814 11.4817 87.703 11.5864 87.7439 11.9137C87.7803 12.205 87.8241 12.6046 87.8755 13.1178L91.3208 12.7732ZM91.0462 10.6646C90.7934 9.63051 90.2547 8.57302 89.1692 7.99147L87.5341 11.0436C87.4883 11.0191 87.4865 10.9988 87.5168 11.0454C87.5534 11.1017 87.6208 11.2336 87.6827 11.4868L91.0462 10.6646ZM87.6993 7.91388C85.9251 8.63558 84.957 10.3854 84.4228 12.3314L87.7618 13.248C88.1971 11.6621 88.7352 11.2305 89.004 11.1212L87.6993 7.91388ZM84.4226 12.3322C84.0279 13.7727 83.8488 15.3208 83.8677 16.9646L87.33 16.9248C87.3143 15.5563 87.4642 14.3343 87.762 13.2471L84.4226 12.3322ZM83.8677 16.9633C83.8865 18.7113 84.1121 20.4545 84.5415 22.1906L87.9028 21.3594C87.5358 19.8753 87.3459 18.3984 87.3301 16.9261L83.8677 16.9633ZM84.5385 22.1785C85.0645 24.3732 85.8891 26.2655 87.2764 27.3649L89.4269 24.6511C88.979 24.2962 88.3839 23.3665 87.9057 21.3715L84.5385 22.1785ZM89.4262 27.3654C90.4801 26.531 91.2742 25.471 91.5309 24.159L88.1328 23.4941C88.0779 23.7749 87.8851 24.1691 87.277 24.6506L89.4262 27.3654ZM89.8319 25.5578H91.9354V22.0953H89.8319V25.5578ZM101.36 26.5793V28.3106H103.092V26.5793H101.36ZM99.3088 26.5793H97.5775V28.3106H99.3088V26.5793ZM98.4258 19.0482L96.9082 19.8814L96.9136 19.8911L98.4258 19.0482ZM96.8417 17.3083L97.597 15.7505L97.2393 15.577H96.8417V17.3083ZM96.0107 17.3083V15.577H94.2794V17.3083H96.0107ZM96.0107 26.5793V28.3106H97.742V26.5793H96.0107ZM93.9591 26.5793H92.2279V28.3106H93.9591V26.5793ZM93.9591 8.81639V7.08511H92.2279V8.81639H93.9591ZM96.0107 8.81639H97.742V7.08511H96.0107V8.81639ZM96.0107 16.6591H94.2794V18.3903H96.0107V16.6591ZM96.608 16.6591V18.3903H96.9515L97.2689 18.2592L96.608 16.6591ZM98.6076 14.6075L100.146 15.4022L100.151 15.392L100.156 15.3818L98.6076 14.6075ZM99.3088 8.81639V7.08511H97.5775V8.81639H99.3088ZM101.36 8.81639H103.092V7.08511H101.36V8.81639ZM100.555 14.9451L99.0471 14.095L99.0464 14.0963L100.555 14.9451ZM98.0103 16.7629L97.8436 15.0397L97.7988 18.4813L98.0103 16.7629ZM100.607 18.9963L99.0277 19.7051L99.0333 19.7175L99.039 19.7298L100.607 18.9963ZM101.36 24.848H99.3088V28.3106H101.36V24.848ZM101.04 26.5793V22.5541H97.5775V26.5793H101.04ZM101.04 22.5541C101.04 20.9961 100.679 19.5346 99.9381 18.2053L96.9136 19.8911C97.35 20.674 97.5775 21.5498 97.5775 22.5541H101.04ZM99.9434 18.215C99.3794 17.1878 98.6308 16.2517 97.597 15.7505L96.0864 18.8661C96.1952 18.9189 96.5027 19.1428 96.9082 19.8814L99.9434 18.215ZM96.8417 15.577H96.0107V19.0396H96.8417V15.577ZM94.2794 17.3083V26.5793H97.742V17.3083H94.2794ZM96.0107 24.848H93.9591V28.3106H96.0107V24.848ZM95.6904 26.5793V8.81639H92.2279V26.5793H95.6904ZM93.9591 10.5477H96.0107V7.08511H93.9591V10.5477ZM94.2794 8.81639V16.6591H97.742V8.81639H94.2794ZM96.0107 18.3903H96.608V14.9278H96.0107V18.3903ZM97.2689 18.2592C98.5601 17.7259 99.4883 16.6746 100.146 15.4022L97.0695 13.8128C96.6535 14.6179 96.2487 14.9343 95.9471 15.0589L97.2689 18.2592ZM100.156 15.3818C100.729 14.2352 101.04 13.0368 101.04 11.8028H97.5775C97.5775 12.4386 97.4207 13.1101 97.0591 13.8333L100.156 15.3818ZM101.04 11.8028V8.81639H97.5775V11.8028H101.04ZM99.3088 10.5477H101.36V7.08511H99.3088V10.5477ZM99.6291 8.81639V11.7769H103.092V8.81639H99.6291ZM99.6291 11.7769C99.6291 12.6579 99.4286 13.4182 99.0471 14.095L102.064 15.7952C102.755 14.5676 103.092 13.2158 103.092 11.7769H99.6291ZM99.0464 14.0963C98.6438 14.8121 98.2471 15.0007 97.8436 15.0397L98.1771 18.4862C99.9203 18.3175 101.22 17.2942 102.064 15.7939L99.0464 14.0963ZM97.7988 18.4813C98.14 18.5233 98.5836 18.7154 99.0277 19.7051L102.187 18.2875C101.419 16.5764 100.131 15.2796 98.2218 15.0446L97.7988 18.4813ZM99.039 19.7298C99.4252 20.5554 99.6291 21.4796 99.6291 22.5281H103.092C103.092 21.0144 102.793 19.584 102.175 18.2628L99.039 19.7298ZM99.6291 22.5281V26.5793H103.092V22.5281H99.6291ZM122.62 10.842L124.341 11.0332L124.554 9.1107H122.62V10.842ZM122.516 11.7769L124.236 11.9792L124.237 11.9681L122.516 11.7769ZM121.607 14.8672L123.132 15.6867L123.137 15.6772L121.607 14.8672ZM119.166 16.7629L118.988 15.0409L118.964 18.4824L119.166 16.7629ZM121.503 18.373L122.927 17.3876L122.924 17.3836L121.503 18.373ZM122.516 22.5281L120.788 22.419L120.788 22.4264L122.516 22.5281ZM122.464 23.4111V25.1423H124.097L124.192 23.5127L122.464 23.4111ZM120.413 23.4111H118.681V25.1423H120.413V23.4111ZM120.413 22.6839L122.13 22.4692L118.681 22.6839H120.413ZM120.439 22.8917L118.721 23.1064L118.734 23.2101L118.759 23.3116L120.439 22.8917ZM119.582 19.0482L118.064 19.8814L118.069 19.8911L119.582 19.0482ZM117.997 17.3083L118.753 15.7505L118.395 15.577H117.997V17.3083ZM117.166 17.3083H115.435V19.0396H117.166V17.3083ZM117.166 16.6591V14.9278H115.435V16.6591H117.166ZM117.764 16.6591V18.3903H118.111L118.432 18.2561L117.764 16.6591ZM119.659 14.5815L118.105 13.8195L118.101 13.8275L119.659 14.5815ZM120.465 11.8028L118.743 11.6168L118.743 11.6184L120.465 11.8028ZM120.568 10.842V9.1107H119.014L118.847 10.6559L120.568 10.842ZM117.971 10.7381L119.692 10.9293L119.906 9.00683H117.971V10.7381ZM117.868 11.673L119.587 11.8753L119.588 11.8642L117.868 11.673ZM116.959 14.7633L118.484 15.5828L118.489 15.5734L116.959 14.7633ZM114.518 16.6591L114.339 14.937L114.315 18.3785L114.518 16.6591ZM116.855 18.2692L118.278 17.2837L118.275 17.2797L116.855 18.2692ZM117.868 22.4242L116.14 22.3151L116.139 22.3226L117.868 22.4242ZM117.816 23.3072V25.0385H119.448L119.544 23.4088L117.816 23.3072ZM115.764 23.3072H114.033V25.0385H115.764V23.3072ZM115.764 22.58L117.482 22.3653L114.033 22.58H115.764ZM115.79 22.7878L114.072 23.0025L114.085 23.1063L114.11 23.2077L115.79 22.7878ZM114.933 18.9444L113.415 19.7776L113.421 19.7872L114.933 18.9444ZM113.349 17.2044L114.104 15.6466L113.747 15.4731H113.349V17.2044ZM112.518 17.2044H110.787V18.9357H112.518V17.2044ZM112.518 16.5552V14.8239H110.787V16.5552H112.518ZM113.115 16.5552V18.2865H113.463L113.784 18.1522L113.115 16.5552ZM115.011 14.4777L113.456 13.7156L113.453 13.7236L115.011 14.4777ZM115.816 11.699L114.095 11.5129L114.095 11.5145L115.816 11.699ZM115.92 10.7381V9.00683H114.366L114.199 10.552L115.92 10.7381ZM120.899 10.6508L120.795 11.5857L124.237 11.9681L124.341 11.0332L120.899 10.6508ZM120.797 11.5746C120.679 12.5781 120.428 13.395 120.077 14.0572L123.137 15.6772C123.722 14.5735 124.077 13.3302 124.235 11.9792L120.797 11.5746ZM120.082 14.0478C119.638 14.8735 119.252 15.0136 118.988 15.0409L119.344 18.485C121.089 18.3046 122.329 17.1808 123.132 15.6866L120.082 14.0478ZM118.964 18.4824C119.207 18.511 119.592 18.6584 120.083 19.3625L122.924 17.3836C122.064 16.1487 120.891 15.2227 119.368 15.0435L118.964 18.4824ZM120.08 19.3585C120.595 20.102 120.873 21.081 120.788 22.419L124.244 22.6372C124.367 20.6858 123.97 18.8947 122.927 17.3876L120.08 19.3585ZM120.788 22.4264L120.736 23.3094L124.192 23.5127L124.244 22.6298L120.788 22.4264ZM122.464 21.6798H120.413V25.1423H122.464V21.6798ZM122.144 23.4111V22.6839H118.681V23.4111H122.144ZM118.695 22.8987L118.721 23.1064L122.156 22.6769L122.13 22.4692L118.695 22.8987ZM118.759 23.3116C118.768 23.3463 118.783 23.404 118.807 23.4728C118.825 23.5232 118.877 23.6711 118.984 23.8386C119.038 23.9232 119.146 24.0773 119.323 24.2288C119.504 24.3825 119.839 24.601 120.315 24.6376C121.37 24.7188 121.87 23.907 121.934 23.8003C122.06 23.5915 122.11 23.4052 122.124 23.352C122.146 23.2723 122.157 23.2063 122.164 23.1686C122.176 23.0922 122.181 23.0272 122.184 22.992C122.194 22.8609 122.196 22.6972 122.196 22.5541H118.733C118.733 22.7053 118.73 22.745 118.732 22.7264C118.732 22.7194 118.736 22.6768 118.745 22.6172C118.75 22.5879 118.76 22.5289 118.78 22.4547C118.793 22.407 118.842 22.2249 118.965 22.0188C119.028 21.9148 119.527 21.1042 120.58 21.1853C121.055 21.2218 121.389 21.44 121.569 21.5929C121.746 21.7436 121.852 21.8965 121.905 21.9796C122.01 22.1442 122.061 22.2877 122.076 22.3323C122.098 22.3953 122.112 22.4457 122.118 22.4718L118.759 23.3116ZM122.196 22.5541C122.196 20.9961 121.835 19.5346 121.094 18.2053L118.069 19.8911C118.506 20.674 118.733 21.5498 118.733 22.5541H122.196ZM121.099 18.215C120.535 17.1878 119.787 16.2517 118.753 15.7505L117.242 18.8661C117.351 18.9189 117.658 19.1428 118.064 19.8814L121.099 18.215ZM117.997 15.577H117.166V19.0396H117.997V15.577ZM118.898 17.3083V16.6591H115.435V17.3083H118.898ZM117.166 18.3903H117.764V14.9278H117.166V18.3903ZM118.432 18.2561C119.716 17.7187 120.6 16.6119 121.218 15.3356L118.101 13.8275C117.68 14.698 117.3 14.9762 117.095 15.0621L118.432 18.2561ZM121.214 15.3436C121.735 14.2809 122.06 13.1593 122.186 11.9873L118.743 11.6184C118.661 12.3854 118.45 13.1163 118.105 13.8195L121.214 15.3436ZM122.186 11.9889L122.29 11.0281L118.847 10.6559L118.743 11.6168L122.186 11.9889ZM120.568 12.5733H122.62V9.1107H120.568V12.5733ZM116.251 10.5469L116.147 11.4818L119.588 11.8642L119.692 10.9293L116.251 10.5469ZM116.148 11.4707C116.03 12.4742 115.779 13.2912 115.429 13.9533L118.489 15.5734C119.073 14.4696 119.428 13.2263 119.587 11.8753L116.148 11.4707ZM115.434 13.9439C114.99 14.7696 114.603 14.9097 114.339 14.937L114.696 18.3812C116.44 18.2007 117.681 17.0769 118.484 15.5828L115.434 13.9439ZM114.315 18.3785C114.558 18.4071 114.944 18.5545 115.434 19.2586L118.275 17.2797C117.415 16.0448 116.243 15.1188 114.72 14.9397L114.315 18.3785ZM115.431 19.2546C115.946 19.9981 116.224 20.9771 116.14 22.3151L119.595 22.5334C119.719 20.5819 119.322 18.7909 118.278 17.2837L115.431 19.2546ZM116.139 22.3226L116.087 23.2055L119.544 23.4088L119.596 22.5259L116.139 22.3226ZM117.816 21.5759H115.764V25.0385H117.816V21.5759ZM117.495 23.3072V22.58H114.033V23.3072H117.495ZM114.046 22.7948L114.072 23.0025L117.508 22.5731L117.482 22.3653L114.046 22.7948ZM114.11 23.2077C114.119 23.2425 114.135 23.3001 114.159 23.3689C114.176 23.4193 114.229 23.5672 114.336 23.7347C114.389 23.8193 114.497 23.9734 114.675 24.1249C114.855 24.2786 115.19 24.4971 115.666 24.5338C116.721 24.6149 117.222 23.8031 117.286 23.6964C117.411 23.4876 117.462 23.3013 117.476 23.2481C117.497 23.1684 117.509 23.1024 117.515 23.0647C117.527 22.9883 117.533 22.9233 117.536 22.8881C117.546 22.757 117.547 22.5933 117.547 22.4502H114.085C114.085 22.6014 114.082 22.6411 114.083 22.6225C114.084 22.6155 114.087 22.573 114.097 22.5133C114.101 22.484 114.112 22.425 114.132 22.3508C114.144 22.3032 114.193 22.121 114.317 21.9149C114.379 21.8109 114.878 21.0004 115.932 21.0814C116.407 21.118 116.741 21.3361 116.92 21.489C117.097 21.6397 117.204 21.7926 117.257 21.8758C117.361 22.0403 117.412 22.1838 117.428 22.2284C117.45 22.2914 117.463 22.3418 117.47 22.3679L114.11 23.2077ZM117.547 22.4502C117.547 20.8922 117.186 19.4307 116.445 18.1015L113.421 19.7872C113.857 20.5702 114.085 21.4459 114.085 22.4502H117.547ZM116.451 18.1112C115.887 17.0839 115.138 16.1478 114.104 15.6466L112.594 18.7623C112.702 18.815 113.01 19.0389 113.415 19.7776L116.451 18.1112ZM113.349 15.4731H112.518V18.9357H113.349V15.4731ZM114.249 17.2044V16.5552H110.787V17.2044H114.249ZM112.518 18.2865H113.115V14.8239H112.518V18.2865ZM113.784 18.1522C115.067 17.6148 115.952 16.508 116.569 15.2317L113.453 13.7236C113.031 14.5941 112.652 14.8723 112.447 14.9582L113.784 18.1522ZM116.566 15.2397C117.086 14.177 117.412 13.0554 117.537 11.8834L114.095 11.5145C114.012 12.2815 113.801 13.0124 113.456 13.7156L116.566 15.2397ZM117.537 11.885L117.641 10.9242L114.199 10.552L114.095 11.5129L117.537 11.885ZM115.92 12.4694H117.971V9.00683H115.92V12.4694ZM136.871 26.5793V28.3106H138.602V26.5793H136.871ZM134.819 26.5793H133.088V28.3106H134.819V26.5793ZM134.819 11.699H136.551V7.8051L133.66 10.4136L134.819 11.699ZM131.365 14.8153L130.206 13.5299L129.634 14.0455V14.8153H131.365ZM131.365 26.5793V28.3106H133.097V26.5793H131.365ZM129.314 26.5793H127.583V28.3106H129.314V26.5793ZM129.314 11.5431H131.045V9.81187H129.314V11.5431ZM126.509 13.7505L128.107 14.4164L128.112 14.405L128.117 14.3935L126.509 13.7505ZM125.86 26.5533V28.2846H127.591V26.5533H125.86ZM123.808 26.5533H122.077V28.2846H123.808V26.5533ZM125.938 12.1664L124.772 10.8864L124.769 10.8889L125.938 12.1664ZM129.314 10.5044L129.613 12.2095L131.045 11.958V10.5044H129.314ZM129.314 9.67337H131.045V8.71189L130.229 8.20369L129.314 9.67337ZM127.938 8.81639V7.08511H121.882L127.022 10.2861L127.938 8.81639ZM132.794 8.81639L133.685 10.3009L139.044 7.08511H132.794V8.81639ZM131.365 9.67337L130.475 8.18881L129.634 8.69313V9.67337H131.365ZM131.365 13.6466H129.634V17.5623L132.531 14.9273L131.365 13.6466ZM134.819 10.5044L135.984 11.785L136.551 11.2699V10.5044H134.819ZM134.819 8.81639V7.08511H133.088V8.81639H134.819ZM136.871 8.81639H138.602V7.08511H136.871V8.81639ZM136.871 24.848H134.819V28.3106H136.871V24.848ZM136.551 26.5793V11.699H133.088V26.5793H136.551ZM133.66 10.4136L130.206 13.5299L132.525 16.1007L135.979 12.9844L133.66 10.4136ZM129.634 14.8153V26.5793H133.097V14.8153H129.634ZM131.365 24.848H129.314V28.3106H131.365V24.848ZM131.045 26.5793V11.5431H127.583V26.5793H131.045ZM129.314 9.81187C128.317 9.81187 127.378 10.1074 126.581 10.7345C125.808 11.3427 125.273 12.1803 124.902 13.1075L128.117 14.3935C128.334 13.8492 128.56 13.5831 128.723 13.4555C128.861 13.3468 129.03 13.2744 129.314 13.2744V9.81187ZM124.911 13.0847C124.366 14.3927 124.129 15.9063 124.129 17.568H127.591C127.591 16.2173 127.787 15.1859 128.107 14.4164L124.911 13.0847ZM124.129 17.568V26.5533H127.591V17.568H124.129ZM125.86 24.822H123.808V28.2846H125.86V24.822ZM125.54 26.5533V17.542H122.077V26.5533H125.54ZM125.54 17.542C125.54 15.6433 126.113 14.3528 127.106 13.4439L124.769 10.8889C122.924 12.5769 122.077 14.8702 122.077 17.542H125.54ZM127.104 13.4464C127.833 12.7825 128.658 12.3774 129.613 12.2095L129.014 8.79922C127.407 9.08154 125.982 9.78441 124.772 10.8864L127.104 13.4464ZM131.045 10.5044V9.67337H127.583V10.5044H131.045ZM130.229 8.20369L128.853 7.34671L127.022 10.2861L128.399 11.143L130.229 8.20369ZM127.938 10.5477H132.794V7.08511H127.938V10.5477ZM131.903 7.33183L130.475 8.18881L132.256 11.1579L133.685 10.3009L131.903 7.33183ZM129.634 9.67337V13.6466H133.097V9.67337H129.634ZM132.531 14.9273L135.984 11.785L133.654 9.22377L130.2 12.366L132.531 14.9273ZM136.551 10.5044V8.81639H133.088V10.5044H136.551ZM134.819 10.5477H136.871V7.08511H134.819V10.5477ZM135.14 8.81639V26.5793H138.602V8.81639H135.14ZM145.091 26.2677L146.084 27.686L146.092 27.6801L146.101 27.6742L145.091 26.2677ZM144.208 26.6312L144.693 28.2933L144.208 26.6312ZM143.325 27.0208V28.752H143.933L144.407 28.3727L143.325 27.0208ZM143.118 27.0208L142.036 28.3727L142.51 28.752H143.118V27.0208ZM141.352 26.2677L140.348 27.6783L140.359 27.686L141.352 26.2677ZM139.378 21.9308L141.08 21.6165L141.08 21.6162L139.378 21.9308ZM141.741 8.81639V7.08511H141.409L141.101 7.20791L141.741 8.81639ZM143.221 8.32297L144.817 7.65114L143.221 3.86157L141.626 7.65114L143.221 8.32297ZM144.702 8.81639L145.345 7.20893L145.035 7.08511H144.702V8.81639ZM145.247 16.9707L143.516 16.9608L143.516 16.9645L145.247 16.9707ZM144.416 10.7121L145.969 9.94716L145.964 9.93788L144.416 10.7121ZM143.221 9.54352L144.034 8.0146L143.257 7.60177L142.465 7.98622L143.221 9.54352ZM141.871 10.9718L143.42 11.7461L143.436 11.7128L143.451 11.6788L141.871 10.9718ZM141.3 12.9195L142.997 13.259L142.999 13.2526L141.3 12.9195ZM141.404 21.6971L143.108 21.3923L143.106 21.3804L141.404 21.6971ZM143.221 25.956L142.097 27.2724L143.223 28.2346L144.348 27.2705L143.221 25.956ZM145.567 16.9967C145.567 19.4954 145.386 21.398 145.063 22.7569C144.725 24.1735 144.303 24.7022 144.082 24.8611L146.101 27.6742C147.351 26.777 148.032 25.2326 148.431 23.5589C148.843 21.8274 149.03 19.6225 149.03 16.9967H145.567ZM144.098 24.8493C144.154 24.8103 144.164 24.8147 144.081 24.8486C144.007 24.8791 143.892 24.9202 143.723 24.9692L144.693 28.2933C145.141 28.1626 145.666 27.9785 146.084 27.686L144.098 24.8493ZM143.723 24.9692C143.258 25.105 142.692 25.3104 142.244 25.6689L144.407 28.3727C144.368 28.4037 144.343 28.4184 144.34 28.42C144.336 28.4219 144.347 28.4159 144.375 28.4035C144.433 28.3777 144.535 28.3393 144.693 28.2933L143.723 24.9692ZM143.325 25.2895H143.118V28.752H143.325V25.2895ZM144.199 25.6689C143.751 25.3104 143.185 25.105 142.719 24.9692L141.75 28.2933C141.908 28.3393 142.01 28.3777 142.068 28.4035C142.096 28.4159 142.106 28.4219 142.103 28.42C142.1 28.4184 142.075 28.4037 142.036 28.3727L144.199 25.6689ZM142.719 24.9692C142.551 24.9202 142.435 24.8791 142.361 24.8486C142.279 24.8147 142.289 24.8103 142.344 24.8493L140.359 27.686C140.777 27.9785 141.302 28.1626 141.75 28.2933L142.719 24.9692ZM142.355 24.857C142.239 24.7743 142.013 24.5455 141.759 23.9859C141.508 23.4344 141.273 22.6582 141.08 21.6165L137.675 22.2451C137.899 23.454 138.2 24.526 138.607 25.4201C139.01 26.3062 139.564 27.1204 140.348 27.6783L142.355 24.857ZM141.08 21.6162C140.806 20.133 140.668 18.5852 140.668 16.9707H137.205C137.205 18.7841 137.361 20.543 137.676 22.2454L141.08 21.6162ZM140.668 16.9707C140.668 14.7113 140.897 13.0761 141.275 11.9764C141.651 10.8835 142.089 10.5414 142.382 10.4249L141.101 7.20791C139.524 7.83587 138.56 9.22497 138.001 10.8502C137.444 12.4686 137.205 14.5384 137.205 16.9707H140.668ZM141.741 10.5477H142.52V7.08511H141.741V10.5477ZM142.52 10.5477C142.986 10.5477 143.488 10.4263 143.939 10.1089C144.38 9.7983 144.653 9.38442 144.817 8.99481L141.626 7.65114C141.651 7.59046 141.738 7.42329 141.946 7.27718C142.163 7.12428 142.384 7.08511 142.52 7.08511V10.5477ZM141.626 8.99481C141.79 9.38442 142.063 9.7983 142.504 10.1089C142.955 10.4263 143.457 10.5477 143.923 10.5477V7.08511C144.059 7.08511 144.28 7.12428 144.497 7.27718C144.705 7.42329 144.791 7.59046 144.817 7.65114L141.626 8.99481ZM143.923 10.5477H144.702V7.08511H143.923V10.5477ZM144.059 10.4238C144.233 10.4936 144.638 10.7684 144.999 11.9047C145.354 13.0234 145.567 14.6925 145.567 16.9967H149.03C149.03 14.5398 148.81 12.465 148.299 10.857C147.795 9.26653 146.901 7.83166 145.345 7.20893L144.059 10.4238ZM146.978 16.9807C146.996 13.9664 146.738 11.5079 145.969 9.94717L142.863 11.4771C143.237 12.2362 143.533 13.9501 143.516 16.9608L146.978 16.9807ZM145.964 9.93788C145.537 9.08242 144.854 8.45032 144.034 8.0146L142.409 11.0724C142.697 11.2254 142.81 11.3723 142.867 11.4864L145.964 9.93788ZM142.465 7.98622C141.466 8.47129 140.739 9.2635 140.291 10.2648L143.451 11.6788C143.592 11.3644 143.765 11.2044 143.978 11.1008L142.465 7.98622ZM140.323 10.1976C140.007 10.8285 139.781 11.665 139.601 12.5864L142.999 13.2526C143.164 12.4081 143.319 11.9462 143.42 11.7461L140.323 10.1976ZM139.602 12.58C139.363 13.7731 139.257 15.231 139.257 16.9188H142.719C142.719 15.3517 142.82 14.1434 142.997 13.259L139.602 12.58ZM139.257 16.9188C139.257 18.7092 139.403 20.4088 139.701 22.0138L143.106 21.3804C142.85 20.0076 142.719 18.5217 142.719 16.9188H139.257ZM139.699 22.0019C140.092 24.1976 140.78 26.1472 142.097 27.2724L144.346 24.6396C144.001 24.3453 143.477 23.4556 143.108 21.3923L139.699 22.0019ZM144.348 27.2705C145.441 26.3336 146.052 24.8522 146.417 23.2334C146.793 21.5635 146.969 19.4632 146.978 16.9769L143.516 16.9645C143.507 19.3258 143.337 21.1468 143.039 22.472C142.728 23.8483 142.335 24.4359 142.095 24.6415L144.348 27.2705ZM156.825 18.8405L156.485 17.1428L155.094 17.4212V18.8405H156.825ZM156.825 25.4366H155.094V26.2592L155.731 26.7788L156.825 25.4366ZM158.227 26.5793V28.3106H163.093L159.321 25.2371L158.227 26.5793ZM153.371 26.5793L152.265 25.2472L148.575 28.3106H153.371V26.5793ZM154.747 25.4366L155.853 26.7687L156.479 26.2495V25.4366H154.747ZM154.747 18.8665H156.479V17.4684L155.112 17.174L154.747 18.8665ZM154.747 16.2955L155.112 17.988L156.479 17.6936V16.2955H154.747ZM154.747 11.5431H156.479V9.81187H154.747V11.5431ZM151.995 13.7505L150.374 13.1405L150.373 13.1456L151.995 13.7505ZM151.423 26.5793V28.3106H153.155V26.5793H151.423ZM149.372 26.5793H147.641V28.3106H149.372V26.5793ZM151.423 12.1664L152.607 13.43L152.613 13.4244L151.423 12.1664ZM154.747 10.5044L155.028 12.2127L156.479 11.9743V10.5044H154.747ZM154.747 9.67337H156.479V8.71189L155.663 8.20369L154.747 9.67337ZM153.371 8.81639V7.08511H147.315L152.456 10.2861L153.371 8.81639ZM158.227 8.81639L159.13 10.2937L164.38 7.08511H158.227V8.81639ZM156.825 9.67337L155.922 8.1961L155.094 8.70241V9.67337H156.825ZM156.825 16.2955H155.094V17.7148L156.485 17.9932L156.825 16.2955ZM156.912 17.5161C156.912 17.3902 156.945 17.2452 157.019 17.1132C157.088 16.9902 157.16 16.9347 157.169 16.9283C157.174 16.9244 157.132 16.9551 157.011 17.001C156.891 17.0459 156.72 17.0959 156.485 17.1428L157.165 20.5381C157.876 20.3958 158.612 20.1606 159.208 19.7269C159.871 19.2435 160.374 18.489 160.374 17.5161H156.912ZM155.094 18.8405V25.4366H158.556V18.8405H155.094ZM155.731 26.7788L157.134 27.9214L159.321 25.2371L157.919 24.0945L155.731 26.7788ZM158.227 24.848H153.371V28.3106H158.227V24.848ZM154.477 27.9114L155.853 26.7687L153.642 24.1046L152.265 25.2472L154.477 27.9114ZM156.479 25.4366V18.8665H153.016V25.4366H156.479ZM155.112 17.174C154.902 17.1287 154.753 17.0818 154.652 17.0415C154.55 17.0005 154.522 16.9763 154.537 16.9878C154.556 17.0022 154.628 17.0633 154.693 17.1857C154.762 17.3148 154.791 17.4521 154.791 17.568H151.328C151.328 18.4967 151.786 19.24 152.426 19.7323C152.999 20.1733 153.707 20.4134 154.383 20.5589L155.112 17.174ZM154.791 17.568C154.791 17.6967 154.758 17.8433 154.684 17.9775C154.615 18.1037 154.541 18.165 154.524 18.1779C154.51 18.1882 154.54 18.1632 154.645 18.1217C154.748 18.0809 154.9 18.0337 155.112 17.988L154.383 14.603C153.712 14.7476 153.009 14.9833 152.439 15.4129C151.804 15.8917 151.328 16.6285 151.328 17.568H154.791ZM156.479 16.2955V11.5431H153.016V16.2955H156.479ZM154.747 9.81187C153.751 9.81187 152.809 10.1076 152.015 10.7443C151.246 11.3613 150.725 12.2089 150.374 13.1405L153.615 14.3605C153.818 13.8205 154.033 13.5645 154.181 13.4456C154.305 13.3466 154.463 13.2744 154.747 13.2744V9.81187ZM150.373 13.1456C149.897 14.4209 149.692 15.9139 149.692 17.568H153.155C153.155 16.1751 153.331 15.1231 153.617 14.3554L150.373 13.1456ZM149.692 17.568V26.5793H153.155V17.568H149.692ZM151.423 24.848H149.372V28.3106H151.423V24.848ZM151.103 26.5793V17.542H147.641V26.5793H151.103ZM151.103 17.542C151.103 15.6007 151.666 14.3113 152.607 13.4299L150.24 10.9029C148.445 12.5839 147.641 14.8782 147.641 17.542H151.103ZM152.613 13.4244C153.32 12.7558 154.114 12.3631 155.028 12.2127L154.467 8.79603C152.853 9.0612 151.431 9.77653 150.234 10.9084L152.613 13.4244ZM156.479 10.5044V9.67337H153.016V10.5044H156.479ZM155.663 8.20369L154.286 7.34671L152.456 10.2861L153.832 11.143L155.663 8.20369ZM153.371 10.5477H158.227V7.08511H153.371V10.5477ZM157.325 7.33912L155.922 8.1961L157.728 11.1506L159.13 10.2937L157.325 7.33912ZM155.094 9.67337V16.2955H158.556V9.67337H155.094ZM156.485 17.9932C156.728 18.0416 156.908 18.0922 157.038 18.1385C157.102 18.1613 157.148 18.1813 157.18 18.1966C157.212 18.212 157.225 18.2207 157.223 18.2198C157.222 18.2188 157.202 18.2053 157.172 18.1757C157.141 18.1455 157.099 18.0978 157.057 18.0301C156.965 17.8806 156.912 17.6977 156.912 17.5161H160.374C160.374 16.4943 159.786 15.7698 159.153 15.3451C158.574 14.9559 157.86 14.737 157.165 14.5978L156.485 17.9932ZM166.014 26.2677L167.006 27.686L167.015 27.6801L167.023 27.6742L166.014 26.2677ZM165.131 26.6312L165.615 28.2933L165.131 26.6312ZM164.248 27.0208V28.752H164.855L165.329 28.3727L164.248 27.0208ZM164.04 27.0208L162.958 28.3727L163.433 28.752H164.04V27.0208ZM162.274 26.2677L161.27 27.6783L161.281 27.686L162.274 26.2677ZM160.3 21.9308L162.003 21.6165L162.003 21.6162L160.3 21.9308ZM162.664 8.81639V7.08511H162.332L162.023 7.20791L162.664 8.81639ZM164.144 8.32297L165.739 7.65114L164.144 3.86157L162.548 7.65114L164.144 8.32297ZM165.624 8.81639L166.267 7.20893L165.957 7.08511H165.624V8.81639ZM166.169 16.9707L164.438 16.9608L164.438 16.9645L166.169 16.9707ZM165.338 10.7121L166.892 9.94716L166.887 9.93788L165.338 10.7121ZM164.144 9.54352L164.956 8.0146L164.179 7.60177L163.387 7.98622L164.144 9.54352ZM162.793 10.9718L164.342 11.7461L164.359 11.7128L164.374 11.6788L162.793 10.9718ZM162.222 12.9195L163.92 13.259L163.921 13.2526L162.222 12.9195ZM162.326 21.6971L164.03 21.3923L164.028 21.3804L162.326 21.6971ZM164.144 25.956L163.019 27.2724L164.146 28.2346L165.271 27.2705L164.144 25.956ZM166.49 16.9967C166.49 19.4954 166.308 21.398 165.985 22.7569C165.648 24.1735 165.226 24.7022 165.004 24.8611L167.023 27.6742C168.273 26.777 168.955 25.2326 169.353 23.5589C169.766 21.8274 169.952 19.6225 169.952 16.9967H166.49ZM165.021 24.8493C165.077 24.8103 165.086 24.8147 165.004 24.8486C164.93 24.8791 164.814 24.9202 164.646 24.9692L165.615 28.2933C166.063 28.1626 166.589 27.9785 167.006 27.686L165.021 24.8493ZM164.646 24.9692C164.18 25.105 163.614 25.3104 163.166 25.6689L165.329 28.3727C165.29 28.4037 165.265 28.4184 165.262 28.42C165.259 28.4219 165.269 28.4159 165.297 28.4035C165.356 28.3777 165.457 28.3393 165.615 28.2933L164.646 24.9692ZM164.248 25.2895H164.04V28.752H164.248V25.2895ZM165.121 25.6689C164.673 25.3104 164.107 25.105 163.642 24.9692L162.672 28.2933C162.83 28.3393 162.932 28.3777 162.991 28.4035C163.019 28.4159 163.029 28.4219 163.025 28.42C163.023 28.4184 162.997 28.4037 162.958 28.3727L165.121 25.6689ZM163.642 24.9692C163.474 24.9202 163.358 24.8791 163.284 24.8486C163.201 24.8147 163.211 24.8103 163.267 24.8493L161.281 27.686C161.699 27.9785 162.224 28.1626 162.672 28.2933L163.642 24.9692ZM163.278 24.857C163.162 24.7743 162.936 24.5455 162.681 23.9859C162.43 23.4344 162.195 22.6582 162.003 21.6165L158.598 22.2451C158.821 23.454 159.123 24.526 159.53 25.4201C159.933 26.3062 160.486 27.1204 161.27 27.6783L163.278 24.857ZM162.003 21.6162C161.729 20.133 161.59 18.5852 161.59 16.9707H158.128C158.128 18.7841 158.283 20.543 158.598 22.2454L162.003 21.6162ZM161.59 16.9707C161.59 14.7113 161.819 13.0761 162.197 11.9764C162.573 10.8835 163.011 10.5414 163.304 10.4249L162.023 7.20791C160.446 7.83587 159.482 9.22497 158.923 10.8502C158.366 12.4686 158.128 14.5384 158.128 16.9707H161.59ZM162.664 10.5477H163.443V7.08511H162.664V10.5477ZM163.443 10.5477C163.908 10.5477 164.41 10.4263 164.861 10.1089C165.302 9.7983 165.575 9.38442 165.739 8.99481L162.548 7.65114C162.574 7.59046 162.661 7.42329 162.868 7.27718C163.086 7.12428 163.306 7.08511 163.443 7.08511V10.5477ZM162.548 8.99481C162.712 9.38442 162.985 9.7983 163.427 10.1089C163.878 10.4263 164.38 10.5477 164.845 10.5477V7.08511C164.982 7.08511 165.202 7.12428 165.419 7.27718C165.627 7.42329 165.714 7.59046 165.739 7.65114L162.548 8.99481ZM164.845 10.5477H165.624V7.08511H164.845V10.5477ZM164.981 10.4238C165.156 10.4936 165.561 10.7684 165.922 11.9047C166.277 13.0234 166.49 14.6925 166.49 16.9967H169.952C169.952 14.5398 169.732 12.465 169.222 10.857C168.717 9.26653 167.824 7.83166 166.267 7.20893L164.981 10.4238ZM167.901 16.9807C167.918 13.9664 167.66 11.5079 166.892 9.94717L163.785 11.4771C164.159 12.2362 164.455 13.9501 164.438 16.9608L167.901 16.9807ZM166.887 9.93788C166.459 9.08242 165.776 8.45032 164.956 8.0146L163.332 11.0724C163.619 11.2254 163.733 11.3723 163.79 11.4864L166.887 9.93788ZM163.387 7.98622C162.389 8.47129 161.661 9.2635 161.213 10.2648L164.374 11.6788C164.514 11.3644 164.687 11.2044 164.9 11.1008L163.387 7.98622ZM161.245 10.1976C160.929 10.8285 160.704 11.665 160.523 12.5864L163.921 13.2526C164.087 12.4081 164.242 11.9462 164.342 11.7461L161.245 10.1976ZM160.524 12.58C160.286 13.7731 160.179 15.231 160.179 16.9188H163.642C163.642 15.3517 163.743 14.1434 163.92 13.259L160.524 12.58ZM160.179 16.9188C160.179 18.7092 160.325 20.4088 160.624 22.0138L164.028 21.3804C163.773 20.0076 163.642 18.5217 163.642 16.9188H160.179ZM160.622 22.0019C161.014 24.1976 161.702 26.1472 163.019 27.2724L165.268 24.6396C164.924 24.3453 164.399 23.4556 164.03 21.3923L160.622 22.0019ZM165.271 27.2705C166.364 26.3336 166.974 24.8522 167.339 23.2334C167.715 21.5635 167.892 19.4632 167.901 16.9769L164.438 16.9645C164.43 19.3258 164.26 21.1468 163.961 22.472C163.651 23.8483 163.257 24.4359 163.017 24.6415L165.271 27.2705ZM177.747 18.8405L177.408 17.1428L176.016 17.4212V18.8405H177.747ZM177.747 25.4366L179.277 26.2467L179.479 25.8667V25.4366H177.747ZM177.514 25.8781L175.984 25.0681L174.638 27.6094H177.514V25.8781ZM179.487 25.8781H181.219V24.1468H179.487V25.8781ZM179.487 32.0068L178.225 33.1915L181.219 36.3822V32.0068H179.487ZM177.514 29.9033H175.782V30.5884L176.251 31.088L177.514 29.9033ZM177.514 26.5793H179.245V24.848H177.514V26.5793ZM174.294 26.5793L173.069 25.3551L170.114 28.3106H174.294V26.5793ZM174.345 26.5274L175.57 27.7516L178.525 24.7961H174.345V26.5274ZM172.346 26.5274V24.7961H170.615V26.5274H172.346ZM172.346 26.5793V28.3106H174.077V26.5793H172.346ZM171.125 26.5793V24.848H169.394V26.5793H171.125ZM171.125 32.0068L172.38 33.1997L172.857 32.6984V32.0068H171.125ZM169.126 34.1104H167.394V38.4444L170.38 35.3032L169.126 34.1104ZM169.126 25.8781V24.1468H167.394V25.8781H169.126ZM170.294 25.8781V27.6094H172.026V25.8781H170.294ZM172.346 12.1664L173.529 13.43L173.535 13.4244L172.346 12.1664ZM175.67 10.5044L175.951 12.2127L177.401 11.9743V10.5044H175.67ZM175.67 9.67337H177.401V8.71189L176.585 8.20369L175.67 9.67337ZM174.294 8.81639V7.08511H168.238L173.378 10.2861L174.294 8.81639ZM179.15 8.81639L180.053 10.2937L185.303 7.08511H179.15V8.81639ZM177.747 9.67337L176.845 8.1961L176.016 8.70241V9.67337H177.747ZM177.747 16.2955H176.016V17.7148L177.408 17.9932L177.747 16.2955ZM175.67 25.4366L176.791 26.7558L177.401 26.2373V25.4366H175.67ZM175.67 18.8665H177.401V17.4684L176.034 17.174L175.67 18.8665ZM175.67 16.2955L176.034 17.988L177.401 17.6936V16.2955H175.67ZM175.67 11.5431H177.401V9.81187H175.67V11.5431ZM172.917 13.7505L171.297 13.1405L171.295 13.1456L172.917 13.7505ZM172.346 25.8781H170.615V27.6094H172.346V25.8781ZM175.15 25.8781V27.6094H175.787L176.272 27.1973L175.15 25.8781ZM177.834 17.5161C177.834 17.3902 177.867 17.2452 177.941 17.1132C178.01 16.9902 178.083 16.9347 178.091 16.9283C178.097 16.9244 178.055 16.9551 177.933 17.001C177.814 17.0459 177.642 17.0959 177.408 17.1428L178.087 20.5381C178.799 20.3958 179.535 20.1606 180.13 19.7269C180.794 19.2435 181.297 18.489 181.297 17.5161H177.834ZM176.016 18.8405V25.4366H179.479V18.8405H176.016ZM176.217 24.6266L175.984 25.0681L179.044 26.6882L179.277 26.2467L176.217 24.6266ZM177.514 27.6094H179.487V24.1468H177.514V27.6094ZM177.756 25.8781V32.0068H181.219V25.8781H177.756ZM180.75 30.8222L178.776 28.7187L176.251 31.088L178.225 33.1915L180.75 30.8222ZM179.245 29.9033V26.5793H175.782V29.9033H179.245ZM177.514 24.848H174.294V28.3106H177.514V24.848ZM175.518 27.8035L175.57 27.7516L173.121 25.3032L173.069 25.3551L175.518 27.8035ZM174.345 24.7961H172.346V28.2586H174.345V24.7961ZM170.615 26.5274V26.5793H174.077V26.5274H170.615ZM172.346 24.848H171.125V28.3106H172.346V24.848ZM169.394 26.5793V32.0068H172.857V26.5793H169.394ZM169.87 30.814L167.871 32.9175L170.38 35.3032L172.38 33.1997L169.87 30.814ZM170.857 34.1104V25.8781H167.394V34.1104H170.857ZM169.126 27.6094H170.294V24.1468H169.126V27.6094ZM172.026 25.8781V17.542H168.563V25.8781H172.026ZM172.026 17.542C172.026 15.6007 172.589 14.3113 173.529 13.4299L171.162 10.9029C169.368 12.5839 168.563 14.8782 168.563 17.542H172.026ZM173.535 13.4244C174.242 12.7558 175.036 12.3631 175.951 12.2127L175.389 8.79603C173.776 9.0612 172.354 9.77653 171.156 10.9084L173.535 13.4244ZM177.401 10.5044V9.67337H173.939V10.5044H177.401ZM176.585 8.20369L175.209 7.34671L173.378 10.2861L174.755 11.143L176.585 8.20369ZM174.294 10.5477H179.15V7.08511H174.294V10.5477ZM178.247 7.33912L176.845 8.1961L178.65 11.1506L180.053 10.2937L178.247 7.33912ZM176.016 9.67337V16.2955H179.479V9.67337H176.016ZM177.408 17.9932C177.65 18.0416 177.831 18.0922 177.96 18.1385C178.024 18.1613 178.071 18.1813 178.102 18.1966C178.134 18.212 178.147 18.2207 178.146 18.2198C178.144 18.2188 178.124 18.2053 178.094 18.1757C178.064 18.1455 178.022 18.0978 177.98 18.0301C177.887 17.8806 177.834 17.6977 177.834 17.5161H181.297C181.297 16.4943 180.708 15.7698 180.076 15.3451C179.496 14.9559 178.783 14.737 178.087 14.5978L177.408 17.9932ZM177.401 25.4366V18.8665H173.939V25.4366H177.401ZM176.034 17.174C175.824 17.1287 175.675 17.0818 175.574 17.0415C175.472 17.0005 175.445 16.9763 175.459 16.9878C175.478 17.0022 175.55 17.0633 175.615 17.1857C175.684 17.3148 175.713 17.4521 175.713 17.568H172.251C172.251 18.4967 172.708 19.24 173.348 19.7323C173.922 20.1733 174.63 20.4134 175.305 20.5589L176.034 17.174ZM175.713 17.568C175.713 17.6967 175.68 17.8433 175.607 17.9775C175.538 18.1037 175.463 18.165 175.446 18.1779C175.432 18.1882 175.462 18.1632 175.567 18.1217C175.67 18.0809 175.822 18.0337 176.034 17.988L175.305 14.603C174.634 14.7476 173.932 14.9833 173.362 15.4129C172.727 15.8917 172.251 16.6285 172.251 17.568H175.713ZM177.401 16.2955V11.5431H173.939V16.2955H177.401ZM175.67 9.81187C174.673 9.81187 173.732 10.1076 172.938 10.7443C172.168 11.3613 171.648 12.2089 171.297 13.1405L174.537 14.3605C174.741 13.8205 174.956 13.5645 175.104 13.4456C175.227 13.3466 175.386 13.2744 175.67 13.2744V9.81187ZM171.295 13.1456C170.819 14.4209 170.615 15.9139 170.615 17.568H174.077C174.077 16.1751 174.253 15.1231 174.539 14.3554L171.295 13.1456ZM170.615 17.568V25.8781H174.077V17.568H170.615ZM172.346 27.6094H175.15V24.1468H172.346V27.6094ZM176.272 27.1973L176.791 26.7558L174.549 24.1175L174.029 24.559L176.272 27.1973ZM187.19 26.2677L188.182 27.686L188.191 27.6801L188.199 27.6742L187.19 26.2677ZM186.307 26.6312L186.791 28.2933L186.307 26.6312ZM185.424 27.0208V28.752H186.031L186.505 28.3727L185.424 27.0208ZM185.216 27.0208L184.134 28.3727L184.609 28.752H185.216V27.0208ZM183.45 26.2677L182.446 27.6783L182.457 27.686L183.45 26.2677ZM181.476 21.9308L183.179 21.6165L183.179 21.6162L181.476 21.9308ZM183.84 8.81639V7.08511H183.508L183.199 7.20791L183.84 8.81639ZM185.32 8.32297L186.915 7.65114L185.32 3.86157L183.724 7.65114L185.32 8.32297ZM186.8 8.81639L187.443 7.20893L187.134 7.08511H186.8V8.81639ZM187.345 16.9707L185.614 16.9608V16.9645L187.345 16.9707ZM186.514 10.7121L188.068 9.94716L188.063 9.93788L186.514 10.7121ZM185.32 9.54352L186.132 8.0146L185.355 7.60177L184.563 7.98622L185.32 9.54352ZM183.969 10.9718L185.518 11.7461L185.535 11.7128L185.55 11.6788L183.969 10.9718ZM183.398 12.9195L185.096 13.259L185.097 13.2526L183.398 12.9195ZM183.502 21.6971L185.206 21.3923L185.204 21.3804L183.502 21.6971ZM185.32 25.956L184.195 27.2724L185.322 28.2346L186.447 27.2705L185.32 25.956ZM187.666 16.9967C187.666 19.4954 187.485 21.398 187.161 22.7569C186.824 24.1735 186.402 24.7022 186.18 24.8611L188.199 27.6742C189.449 26.777 190.131 25.2326 190.529 23.5589C190.942 21.8274 191.128 19.6225 191.128 16.9967H187.666ZM186.197 24.8493C186.253 24.8103 186.262 24.8147 186.18 24.8486C186.106 24.8791 185.99 24.9202 185.822 24.9692L186.791 28.2933C187.239 28.1626 187.765 27.9785 188.182 27.686L186.197 24.8493ZM185.822 24.9692C185.356 25.105 184.79 25.3104 184.342 25.6689L186.505 28.3727C186.466 28.4037 186.441 28.4184 186.438 28.42C186.435 28.4219 186.445 28.4159 186.473 28.4035C186.532 28.3777 186.634 28.3393 186.791 28.2933L185.822 24.9692ZM185.424 25.2895H185.216V28.752H185.424V25.2895ZM186.298 25.6689C185.849 25.3104 185.283 25.105 184.818 24.9692L183.848 28.2933C184.006 28.3393 184.108 28.3777 184.167 28.4035C184.195 28.4159 184.205 28.4219 184.201 28.42C184.199 28.4184 184.173 28.4037 184.134 28.3727L186.298 25.6689ZM184.818 24.9692C184.65 24.9202 184.534 24.8791 184.46 24.8486C184.378 24.8147 184.387 24.8103 184.443 24.8493L182.457 27.686C182.875 27.9785 183.4 28.1626 183.848 28.2933L184.818 24.9692ZM184.454 24.857C184.338 24.7743 184.112 24.5455 183.857 23.9859C183.606 23.4344 183.371 22.6582 183.179 21.6165L179.774 22.2451C179.997 23.454 180.299 24.526 180.706 25.4201C181.109 26.3062 181.662 27.1204 182.446 27.6783L184.454 24.857ZM183.179 21.6162C182.905 20.133 182.766 18.5852 182.766 16.9707H179.304C179.304 18.7841 179.459 20.543 179.774 22.2454L183.179 21.6162ZM182.766 16.9707C182.766 14.7113 182.995 13.0761 183.373 11.9764C183.749 10.8835 184.187 10.5414 184.48 10.4249L183.199 7.20791C181.622 7.83587 180.658 9.22497 180.099 10.8502C179.542 12.4686 179.304 14.5384 179.304 16.9707H182.766ZM183.84 10.5477H184.619V7.08511H183.84V10.5477ZM184.619 10.5477C185.084 10.5477 185.586 10.4263 186.037 10.1089C186.478 9.7983 186.751 9.38442 186.915 8.99481L183.724 7.65114C183.75 7.59046 183.837 7.42329 184.044 7.27718C184.262 7.12428 184.482 7.08511 184.619 7.08511V10.5477ZM183.724 8.99481C183.888 9.38442 184.161 9.7983 184.603 10.1089C185.054 10.4263 185.556 10.5477 186.021 10.5477V7.08511C186.158 7.08511 186.378 7.12428 186.595 7.27718C186.803 7.42329 186.89 7.59046 186.915 7.65114L183.724 8.99481ZM186.021 10.5477H186.8V7.08511H186.021V10.5477ZM186.157 10.4238C186.332 10.4936 186.737 10.7684 187.098 11.9047C187.453 13.0234 187.666 14.6925 187.666 16.9967H191.128C191.128 14.5398 190.908 12.465 190.398 10.857C189.893 9.26653 189 7.83166 187.443 7.20893L186.157 10.4238ZM189.077 16.9807C189.094 13.9664 188.836 11.5079 188.068 9.94717L184.961 11.4771C185.335 12.2362 185.632 13.9501 185.614 16.9608L189.077 16.9807ZM188.063 9.93788C187.635 9.08242 186.952 8.45032 186.132 8.0146L184.508 11.0724C184.795 11.2254 184.909 11.3723 184.966 11.4864L188.063 9.93788ZM184.563 7.98622C183.565 8.47129 182.837 9.2635 182.389 10.2648L185.55 11.6788C185.69 11.3644 185.863 11.2044 186.076 11.1008L184.563 7.98622ZM182.421 10.1976C182.105 10.8285 181.88 11.665 181.699 12.5864L185.097 13.2526C185.263 12.4081 185.418 11.9462 185.518 11.7461L182.421 10.1976ZM181.7 12.58C181.462 13.7731 181.355 15.231 181.355 16.9188H184.818C184.818 15.3517 184.919 14.1434 185.096 13.259L181.7 12.58ZM181.355 16.9188C181.355 18.7092 181.501 20.4088 181.8 22.0138L185.204 21.3804C184.949 20.0076 184.818 18.5217 184.818 16.9188H181.355ZM181.798 22.0019C182.191 24.1976 182.878 26.1472 184.195 27.2724L186.444 24.6396C186.1 24.3453 185.575 23.4556 185.206 21.3923L181.798 22.0019ZM186.447 27.2705C187.54 26.3336 188.15 24.8522 188.515 23.2334C188.891 21.5635 189.068 19.4632 189.077 16.9769L185.614 16.9645C185.606 19.3258 185.436 21.1468 185.137 22.472C184.827 23.8483 184.433 24.4359 184.193 24.6415L186.447 27.2705ZM200.274 17.2044V18.9357H202.005V17.2044H200.274ZM199.443 17.2044V15.4731H199.045L198.688 15.6466L199.443 17.2044ZM197.859 18.9444L199.371 19.7873L199.376 19.7776L197.859 18.9444ZM197.002 22.7878L198.681 23.2077L198.707 23.1063L198.72 23.0025L197.002 22.7878ZM197.028 22.58H198.759L195.31 22.3653L197.028 22.58ZM197.028 23.3072V25.0385H198.759V23.3072H197.028ZM194.976 23.3072L193.248 23.4088L193.344 25.0385H194.976V23.3072ZM194.924 22.4242L196.652 22.3226L196.652 22.3151L194.924 22.4242ZM195.937 18.2692L194.516 17.2797L194.514 17.2837L195.937 18.2692ZM198.274 16.6591L198.476 18.3785L198.452 14.937L198.274 16.6591ZM195.833 14.7633L194.303 15.5734L194.308 15.5828L195.833 14.7633ZM194.924 11.673L193.203 11.8642L193.205 11.8753L194.924 11.673ZM194.82 10.7381V9.00683H192.886L193.1 10.9293L194.82 10.7381ZM196.872 10.7381L198.593 10.552L198.426 9.00683H196.872V10.7381ZM196.976 11.699L198.697 11.5145L198.697 11.5129L196.976 11.699ZM197.781 14.4777L199.339 13.7236L199.335 13.7156L197.781 14.4777ZM199.677 16.5552L199.008 18.1522L199.329 18.2865H199.677V16.5552ZM200.274 16.5552H202.005V14.8239H200.274V16.5552ZM195.625 17.3083V19.0396H197.357V17.3083H195.625ZM194.794 17.3083V15.577H194.397L194.039 15.7505L194.794 17.3083ZM193.21 19.0482L194.722 19.8911L194.728 19.8814L193.21 19.0482ZM192.353 22.8917L194.033 23.3116L194.058 23.2101L194.071 23.1064L192.353 22.8917ZM192.379 22.6839H194.11L190.661 22.4692L192.379 22.6839ZM192.379 23.4111V25.1423H194.11V23.4111H192.379ZM190.328 23.4111L188.599 23.5127L188.695 25.1423H190.328V23.4111ZM190.276 22.5281L192.004 22.4264L192.004 22.419L190.276 22.5281ZM191.288 18.373L189.868 17.3836L189.865 17.3876L191.288 18.373ZM193.626 16.7629L193.828 18.4824L193.804 15.0409L193.626 16.7629ZM191.185 14.8672L189.655 15.6773L189.66 15.6866L191.185 14.8672ZM190.276 11.7769L188.555 11.9681L188.556 11.9792L190.276 11.7769ZM190.172 10.842V9.1107H188.238L188.451 11.0332L190.172 10.842ZM192.223 10.842L193.945 10.6559L193.778 9.1107H192.223V10.842ZM192.327 11.8028L194.049 11.6184L194.049 11.6168L192.327 11.8028ZM193.132 14.5815L194.691 13.8275L194.687 13.8195L193.132 14.5815ZM195.028 16.6591L194.36 18.2561L194.68 18.3903H195.028V16.6591ZM195.625 16.6591H197.357V14.9278H195.625V16.6591ZM200.274 15.4731H199.443V18.9357H200.274V15.4731ZM198.688 15.6466C197.654 16.1478 196.905 17.0839 196.341 18.1112L199.376 19.7776C199.782 19.0389 200.089 18.815 200.198 18.7623L198.688 15.6466ZM196.346 18.1015C195.606 19.4307 195.244 20.8922 195.244 22.4502H198.707C198.707 21.4459 198.935 20.5702 199.371 19.7872L196.346 18.1015ZM195.244 22.4502C195.244 22.5933 195.246 22.757 195.256 22.8881C195.259 22.9233 195.264 22.9883 195.277 23.0647C195.283 23.1024 195.294 23.1684 195.316 23.2481C195.33 23.3013 195.381 23.4876 195.506 23.6964C195.57 23.8031 196.07 24.6149 197.126 24.5338C197.602 24.4971 197.937 24.2786 198.117 24.1249C198.295 23.9733 198.402 23.8193 198.456 23.7347C198.563 23.5672 198.616 23.4193 198.633 23.3689C198.657 23.3001 198.673 23.2424 198.681 23.2077L195.322 22.3679C195.329 22.3418 195.342 22.2914 195.364 22.2284C195.379 22.1838 195.43 22.0403 195.535 21.8758C195.588 21.7927 195.695 21.6398 195.872 21.489C196.051 21.3361 196.385 21.118 196.86 21.0814C197.914 21.0004 198.413 21.8109 198.475 21.9149C198.599 22.121 198.647 22.3032 198.66 22.3508C198.68 22.425 198.69 22.484 198.695 22.5133C198.705 22.573 198.708 22.6155 198.708 22.6226C198.71 22.6411 198.707 22.6014 198.707 22.4502H195.244ZM198.72 23.0025L198.746 22.7948L195.31 22.3653L195.284 22.5731L198.72 23.0025ZM195.296 22.58V23.3072H198.759V22.58H195.296ZM197.028 21.5759H194.976V25.0385H197.028V21.5759ZM196.704 23.2055L196.652 22.3226L193.196 22.5259L193.248 23.4088L196.704 23.2055ZM196.652 22.3151C196.568 20.9771 196.846 19.9981 197.36 19.2546L194.514 17.2837C193.47 18.7909 193.073 20.5819 193.196 22.5334L196.652 22.3151ZM197.358 19.2586C197.848 18.5545 198.234 18.4071 198.476 18.3785L198.072 14.9397C196.549 15.1188 195.376 16.0448 194.516 17.2797L197.358 19.2586ZM198.452 14.937C198.189 14.9097 197.802 14.7696 197.358 13.9439L194.308 15.5828C195.111 17.0769 196.352 18.2007 198.096 18.3812L198.452 14.937ZM197.363 13.9533C197.013 13.2912 196.762 12.4742 196.644 11.4707L193.205 11.8753C193.364 13.2263 193.719 14.4696 194.303 15.5734L197.363 13.9533ZM196.645 11.4818L196.541 10.5469L193.1 10.9293L193.203 11.8642L196.645 11.4818ZM194.82 12.4694H196.872V9.00683H194.82V12.4694ZM195.151 10.9242L195.255 11.885L198.697 11.5129L198.593 10.552L195.151 10.9242ZM195.254 11.8834C195.38 13.0554 195.705 14.177 196.226 15.2397L199.335 13.7156C198.991 13.0124 198.779 12.2815 198.697 11.5145L195.254 11.8834ZM196.222 15.2317C196.84 16.508 197.724 17.6148 199.008 18.1522L200.345 14.9582C200.14 14.8723 199.76 14.5941 199.339 13.7236L196.222 15.2317ZM199.677 18.2865H200.274V14.8239H199.677V18.2865ZM198.543 16.5552V17.2044H202.005V16.5552H198.543ZM195.625 15.577H194.794V19.0396H195.625V15.577ZM194.039 15.7505C193.005 16.2517 192.257 17.1878 191.693 18.215L194.728 19.8814C195.133 19.1428 195.441 18.9189 195.55 18.8661L194.039 15.7505ZM191.698 18.2053C190.957 19.5346 190.596 20.9961 190.596 22.5541H194.059C194.059 21.5498 194.286 20.674 194.722 19.8911L191.698 18.2053ZM190.596 22.5541C190.596 22.6972 190.598 22.8609 190.608 22.992C190.61 23.0272 190.616 23.0922 190.628 23.1686C190.634 23.2063 190.646 23.2723 190.667 23.352C190.682 23.4052 190.732 23.5915 190.857 23.8003C190.921 23.907 191.422 24.7188 192.477 24.6376C192.953 24.601 193.288 24.3824 193.468 24.2287C193.646 24.0772 193.754 23.9232 193.808 23.8386C193.914 23.6711 193.967 23.5232 193.985 23.4728C194.009 23.404 194.024 23.3463 194.033 23.3116L190.674 22.4718C190.68 22.4457 190.693 22.3953 190.715 22.3323C190.731 22.2877 190.782 22.1442 190.887 21.9796C190.939 21.8965 191.046 21.7436 191.223 21.5929C191.403 21.44 191.736 21.2218 192.212 21.1853C193.265 21.1042 193.764 21.9148 193.826 22.0188C193.95 22.2249 193.999 22.407 194.012 22.4547C194.032 22.5289 194.042 22.5879 194.047 22.6172C194.056 22.6768 194.059 22.7194 194.06 22.7264C194.061 22.745 194.059 22.7053 194.059 22.5541H190.596ZM194.071 23.1064L194.097 22.8987L190.661 22.4692L190.635 22.6769L194.071 23.1064ZM190.648 22.6839V23.4111H194.11V22.6839H190.648ZM192.379 21.6798H190.328V25.1423H192.379V21.6798ZM192.056 23.3094L192.004 22.4264L188.547 22.6298L188.599 23.5127L192.056 23.3094ZM192.004 22.419C191.919 21.081 192.197 20.102 192.712 19.3585L189.865 17.3876C188.822 18.8947 188.425 20.6858 188.548 22.6372L192.004 22.419ZM192.709 19.3625C193.2 18.6584 193.585 18.511 193.828 18.4824L193.423 15.0435C191.901 15.2227 190.728 16.1487 189.868 17.3836L192.709 19.3625ZM193.804 15.0409C193.54 15.0136 193.153 14.8735 192.71 14.0478L189.66 15.6866C190.462 17.1808 191.703 18.3046 193.448 18.485L193.804 15.0409ZM192.715 14.0572C192.364 13.395 192.113 12.5781 191.995 11.5746L188.556 11.9792C188.715 13.3302 189.07 14.5735 189.655 15.6772L192.715 14.0572ZM191.996 11.5857L191.893 10.6508L188.451 11.0332L188.555 11.9681L191.996 11.5857ZM190.172 12.5733H192.223V9.1107H190.172V12.5733ZM190.502 11.0281L190.606 11.9889L194.049 11.6168L193.945 10.6559L190.502 11.0281ZM190.606 11.9873C190.731 13.1593 191.057 14.2809 191.578 15.3436L194.687 13.8195C194.342 13.1163 194.131 12.3854 194.049 11.6184L190.606 11.9873ZM191.574 15.3356C192.191 16.6119 193.076 17.7187 194.36 18.2561L195.697 15.0621C195.491 14.9762 195.112 14.698 194.691 13.8275L191.574 15.3356ZM195.028 18.3903H195.625V14.9278H195.028V18.3903ZM193.894 16.6591V17.3083H197.357V16.6591H193.894Z" fill="#E3DFC5"/>
</svg>
