<svg width="139" height="38" viewBox="0 0 139 38" fill="none" xmlns="http://www.w3.org/2000/svg">
<mask id="path-1-outside-1_97_151" maskUnits="userSpaceOnUse" x="0" y="2.69495" width="45" height="35" fill="black">
<rect fill="white" y="2.69495" width="45" height="35"/>
<path fill-rule="evenodd" clip-rule="evenodd" d="M12.0396 5.85484L5 12.0265H15.6865L12.0396 5.85484ZM5.79311 13.5614L21.1034 31.7855L16.3938 13.5614H5.79311ZM23.2304 32.0012L38.6752 13.5614H27.9957L23.2304 32.0012ZM39.4659 12.0265L32.3833 5.79837L28.703 12.0265H39.4659ZM30.6615 5.69495H23.9912L27.3263 11.3391L30.6615 5.69495ZM22.1812 5.69495H22.2083L25.9497 12.0265H18.4398L22.1812 5.69495ZM20.3983 5.69495H13.7279L17.0631 11.3391L20.3983 5.69495ZM26.4103 13.5614L22.1947 29.874L17.9791 13.5614H26.4103Z"/>
</mask>
<path fill-rule="evenodd" clip-rule="evenodd" d="M12.0396 5.85484L5 12.0265H15.6865L12.0396 5.85484ZM5.79311 13.5614L21.1034 31.7855L16.3938 13.5614H5.79311ZM23.2304 32.0012L38.6752 13.5614H27.9957L23.2304 32.0012ZM39.4659 12.0265L32.3833 5.79837L28.703 12.0265H39.4659ZM30.6615 5.69495H23.9912L27.3263 11.3391L30.6615 5.69495ZM22.1812 5.69495H22.2083L25.9497 12.0265H18.4398L22.1812 5.69495ZM20.3983 5.69495H13.7279L17.0631 11.3391L20.3983 5.69495ZM26.4103 13.5614L22.1947 29.874L17.9791 13.5614H26.4103Z" fill="#551018"/>
<path d="M12.0396 5.85484L13.5301 4.97409L12.468 3.1768L10.8983 4.55302L12.0396 5.85484ZM5 12.0265L3.85869 10.7246L0.399028 13.7577H5V12.0265ZM15.6865 12.0265V13.7577H18.7204L17.177 11.1457L15.6865 12.0265ZM5.79311 13.5614V11.8301H2.0775L4.46753 14.675L5.79311 13.5614ZM21.1034 31.7855L19.7778 32.8992L22.7796 31.3523L21.1034 31.7855ZM16.3938 13.5614L18.07 13.1282L17.7345 11.8301H16.3938V13.5614ZM23.2304 32.0012L21.5541 31.568L24.5576 33.1129L23.2304 32.0012ZM38.6752 13.5614L40.0024 14.673L42.3836 11.8301H38.6752V13.5614ZM27.9957 13.5614V11.8301H26.6549L26.3195 13.1282L27.9957 13.5614ZM39.4659 12.0265V13.7577H44.0565L40.6091 10.7263L39.4659 12.0265ZM32.3833 5.79837L33.5265 4.49826L31.9564 3.1176L30.8928 4.91762L32.3833 5.79837ZM28.703 12.0265L27.2125 11.1457L25.669 13.7577H28.703V12.0265ZM30.6615 5.69495L32.152 6.5757L33.6955 3.96367H30.6615V5.69495ZM23.9912 5.69495V3.96367H20.9572L22.5007 6.5757L23.9912 5.69495ZM27.3263 11.3391L25.8358 12.2198L27.3263 14.7422L28.8168 12.2198L27.3263 11.3391ZM22.2083 5.69495L23.6988 4.81419L23.1962 3.96367H22.2083V5.69495ZM22.1812 5.69495V3.96367H21.1933L20.6907 4.81419L22.1812 5.69495ZM25.9497 12.0265V13.7577H28.9836L27.4402 11.1457L25.9497 12.0265ZM18.4398 12.0265L16.9493 11.1457L15.4058 13.7577H18.4398V12.0265ZM20.3983 5.69495L21.8888 6.5757L23.4323 3.96367H20.3983V5.69495ZM13.7279 5.69495V3.96367H10.694L12.2374 6.5757L13.7279 5.69495ZM17.0631 11.3391L15.5726 12.2198L17.0631 14.7422L18.5536 12.2198L17.0631 11.3391ZM22.1947 29.874L20.5185 30.3072L22.1947 36.7935L23.871 30.3072L22.1947 29.874ZM26.4103 13.5614L28.0866 13.9945L28.6459 11.8301H26.4103V13.5614ZM17.9791 13.5614V11.8301H15.7436L16.3029 13.9945L17.9791 13.5614ZM10.8983 4.55302L3.85869 10.7246L6.14131 13.3283L13.1809 7.15666L10.8983 4.55302ZM5 13.7577H15.6865V10.2952H5V13.7577ZM17.177 11.1457L13.5301 4.97409L10.5491 6.7356L14.1959 12.9072L17.177 11.1457ZM4.46753 14.675L19.7778 32.8992L22.429 30.6719L7.11868 12.4477L4.46753 14.675ZM22.7796 31.3523L18.07 13.1282L14.7176 13.9945L19.4272 32.2187L22.7796 31.3523ZM16.3938 11.8301H5.79311V15.2926H16.3938V11.8301ZM24.5576 33.1129L40.0024 14.673L37.3479 12.4497L21.9031 30.8896L24.5576 33.1129ZM38.6752 11.8301H27.9957V15.2926H38.6752V11.8301ZM26.3195 13.1282L21.5541 31.568L24.9066 32.4344L29.6719 13.9945L26.3195 13.1282ZM40.6091 10.7263L33.5265 4.49826L31.24 7.09849L38.3226 13.3266L40.6091 10.7263ZM30.8928 4.91762L27.2125 11.1457L30.1935 12.9072L33.8738 6.67913L30.8928 4.91762ZM28.703 13.7577H39.4659V10.2952H28.703V13.7577ZM30.6615 3.96367H23.9912V7.42622H30.6615V3.96367ZM22.5007 6.5757L25.8358 12.2198L28.8168 10.4583L25.4817 4.81419L22.5007 6.5757ZM28.8168 12.2198L32.152 6.5757L29.171 4.81419L25.8358 10.4583L28.8168 12.2198ZM22.2083 3.96367H22.1812V7.42622H22.2083V3.96367ZM27.4402 11.1457L23.6988 4.81419L20.7178 6.5757L24.4592 12.9072L27.4402 11.1457ZM18.4398 13.7577H25.9497V10.2952H18.4398V13.7577ZM20.6907 4.81419L16.9493 11.1457L19.9303 12.9072L23.6717 6.5757L20.6907 4.81419ZM20.3983 3.96367H13.7279V7.42622H20.3983V3.96367ZM12.2374 6.5757L15.5726 12.2198L18.5536 10.4583L15.2184 4.81419L12.2374 6.5757ZM18.5536 12.2198L21.8888 6.5757L18.9078 4.81419L15.5726 10.4583L18.5536 12.2198ZM23.871 30.3072L28.0866 13.9945L24.7341 13.1282L20.5185 29.4409L23.871 30.3072ZM16.3029 13.9945L20.5185 30.3072L23.871 29.4409L19.6553 13.1282L16.3029 13.9945ZM26.4103 11.8301H17.9791V15.2926H26.4103V11.8301Z" fill="#E3DFC5" mask="url(#path-1-outside-1_97_151)"/>
<path d="M51.7837 26.8481H49.7321V16.3565L46.2782 17.5771V26.8481H44.2267V9.08518H46.2782V16.4085L49.7321 15.162V9.08518H51.7837V26.8481ZM66.2128 17.2655C66.2128 22.39 65.477 25.4804 64.0054 26.5365C63.8323 26.6576 63.538 26.7788 63.1225 26.9C62.707 27.0212 62.4127 27.1511 62.2395 27.2896H62.0318C61.8587 27.1511 61.5643 27.0212 61.1488 26.9C60.7333 26.7788 60.439 26.6576 60.2659 26.5365C59.3656 25.8959 58.7077 24.4503 58.2922 22.1996C57.9979 20.6068 57.8508 18.9535 57.8508 17.2395C57.8508 12.5477 58.7856 9.82963 60.6554 9.08518H61.4345C61.7634 9.08518 61.9972 8.9207 62.1357 8.59176C62.2742 8.9207 62.5079 9.08518 62.8368 9.08518H63.6159C65.3472 9.77769 66.2128 12.5044 66.2128 17.2655ZM64.1613 17.2395C64.1786 14.2271 63.9016 12.1409 63.3302 10.9809C63.0879 10.4962 62.6897 10.1066 62.1357 9.81231C61.5297 10.1066 61.0796 10.5827 60.7853 11.2406C60.5775 11.6561 60.3871 12.3054 60.2139 13.1883C60.0062 14.2271 59.9023 15.5602 59.9023 17.1876C59.9023 18.8842 60.0408 20.477 60.3178 21.9659C60.6987 24.0954 61.3047 25.515 62.1357 26.2248C63.4687 25.0822 64.1439 22.0871 64.1613 17.2395ZM66.2128 17.2655C66.2128 22.39 65.477 25.4804 64.0054 26.5365C63.8323 26.6576 63.538 26.7788 63.1225 26.9C62.707 27.0212 62.4127 27.1511 62.2395 27.2896H62.0318C61.8587 27.1511 61.5643 27.0212 61.1488 26.9C60.7333 26.7788 60.439 26.6576 60.2659 26.5365C58.8116 25.4804 58.0066 22.6411 57.8508 18.0186L56.4224 18.2523V26.8481H54.3709V9.08518H56.4224V16.9538L57.8508 16.7201C57.92 12.34 58.8549 9.795 60.6554 9.08518H61.4345C61.7634 9.08518 61.9972 8.9207 62.1357 8.59176C62.2742 8.9207 62.5079 9.08518 62.8368 9.08518H63.6159C65.3472 9.77769 66.2128 12.5044 66.2128 17.2655ZM64.1613 17.2395C64.1786 14.2271 63.9016 12.1409 63.3302 10.9809C63.0879 10.4962 62.6897 10.1066 62.1357 9.81231C61.5297 10.1066 61.0796 10.5827 60.7853 11.2406C60.5775 11.6561 60.3871 12.3054 60.2139 13.1883C60.0062 14.2271 59.9023 15.5602 59.9023 17.1876C59.9023 18.8842 60.0408 20.477 60.3178 21.9659C60.6987 24.0954 61.3047 25.515 62.1357 26.2248C63.4687 25.0822 64.1439 22.0871 64.1613 17.2395ZM75.7989 15.2139L73.6694 13.1104V9.7344H70.3713V16.9279H70.9686C71.0206 16.9279 71.0898 16.9192 71.1764 16.9019H71.488C71.6958 16.9019 71.9468 16.9279 72.2411 16.9798C72.345 16.9971 72.3969 17.0144 72.3969 17.0317C72.8298 17.0837 73.2712 17.2914 73.7214 17.655C75.0544 18.7457 75.721 20.4597 75.721 22.7969V25.9392C75.721 26.2508 75.444 26.4932 74.89 26.6663C74.4918 26.7875 74.0849 26.8481 73.6694 26.8481H68.3198V9.08518H75.7989V15.2139ZM73.6435 22.8229C73.6435 21.1089 73.15 19.646 72.1632 18.4341C71.8343 18.0186 71.5053 17.7329 71.1764 17.5771H70.3454V26.1989H73.6435V22.8229ZM85.6907 26.8481H83.6391V15.6294L80.1852 20.0182V26.8481H78.1337V9.08518H80.1852V18.5899L83.6391 14.1751V9.08518H85.6907V26.8481ZM95.8349 26.8481H93.7834V16.3565L90.3295 17.5771V26.8481H88.2779V9.08518H90.3295V16.4085L93.7834 15.162V9.08518H95.8349V26.8481ZM106.213 24.0954C105.59 25.3938 104.707 26.3114 103.564 26.8481C103.356 26.9173 103.045 27.0645 102.629 27.2896C102.525 27.1857 102.196 27.0558 101.642 26.9C101.106 26.7442 100.777 26.623 100.655 26.5365C99.7032 25.8266 98.9761 24.381 98.474 22.1996C98.0931 20.5722 97.9027 18.9188 97.9027 17.2395C97.9027 15.4736 98.1018 13.9154 98.5 12.565C99.054 10.626 99.9629 9.46606 101.227 9.08518H102.006C102.144 9.08518 102.352 8.9207 102.629 8.59176C102.923 8.9207 103.131 9.08518 103.252 9.08518H104.031C105.07 9.48337 105.693 10.8597 105.901 13.2143H103.876C103.772 12.1755 103.694 11.5522 103.642 11.3445C103.451 10.5654 103.114 10.046 102.629 9.78634C101.608 10.2019 100.855 11.2926 100.37 13.0585C100.024 14.3223 99.8591 15.7073 99.8764 17.2135C99.8937 18.8236 100.101 20.4337 100.5 22.0438C101.002 24.1386 101.712 25.5496 102.629 26.2768C103.46 25.6189 103.954 24.8917 104.109 24.0954H106.213ZM115.638 26.8481H113.586V22.8229C113.586 21.5417 113.292 20.3731 112.703 19.317C112.219 18.4341 111.691 17.8541 111.119 17.5771H110.288V26.8481H108.237V9.08518H110.288V16.9279H110.885C111.682 16.5989 112.348 15.9151 112.885 14.8763C113.353 13.9414 113.586 13.0065 113.586 12.0716V9.08518H115.638V12.0457C115.638 13.2056 115.369 14.2617 114.833 15.2139C114.21 16.3219 113.361 16.9279 112.288 17.0317C113.413 17.1702 114.279 17.9147 114.885 19.2651C115.387 20.3385 115.638 21.5157 115.638 22.7969V26.8481ZM127.246 17.7848C127.246 18.4254 126.64 18.8669 125.428 19.1093V25.7054L126.831 26.8481H121.974L123.351 25.7054V21.1349L120.027 24.407V26.8481H117.975V17.8108C117.975 15.5082 118.659 13.7163 120.027 12.4352C120.979 11.5349 122.087 10.9809 123.351 10.7732V9.94216L121.974 9.08518H126.831L125.428 9.94216V16.5643C126.64 16.8067 127.246 17.2135 127.246 17.7848ZM123.351 19.8624V19.1352C122.225 18.8929 121.663 18.46 121.663 17.8368C121.663 17.2308 122.225 16.8067 123.351 16.5643V11.8119C122.07 11.8119 121.152 12.5477 120.598 14.0193C120.217 15.0408 120.027 16.3133 120.027 17.8368V23.2384L123.351 19.8624ZM136.383 26.8481H134.331V17.5771H133.5C132.963 17.8368 132.435 18.5033 131.916 19.5767C131.327 20.7886 131.033 22.0438 131.033 23.3422V26.8481H128.982V23.3163C128.982 22.0351 129.233 20.78 129.735 19.5507C130.375 18.0099 131.241 17.1702 132.332 17.0317C131.414 16.9279 130.609 16.2873 129.916 15.11C129.293 14.0539 128.982 13.0325 128.982 12.0457C128.982 11.7687 129.042 11.2493 129.163 10.4875C129.215 10.1066 129.484 9.76903 129.968 9.47471C130.384 9.21502 130.799 9.08518 131.215 9.08518H136.383V26.8481ZM134.331 16.9279V9.7344H131.215C131.094 10.7212 131.033 11.5003 131.033 12.0716C131.033 12.9546 131.284 13.8895 131.786 14.8763C132.323 15.9324 132.972 16.6162 133.734 16.9279H134.331Z" fill="#551018"/>
<path d="M51.7837 26.8481V28.5794H53.515V26.8481H51.7837ZM49.7321 26.8481H48.0009V28.5794H49.7321V26.8481ZM49.7321 16.3565H51.4634V13.9085L49.1553 14.7242L49.7321 16.3565ZM46.2782 17.5771L45.7014 15.9447L44.547 16.3527V17.5771H46.2782ZM46.2782 26.8481V28.5794H48.0095V26.8481H46.2782ZM44.2267 26.8481H42.4954V28.5794H44.2267V26.8481ZM44.2267 9.08518V7.3539H42.4954V9.08518H44.2267ZM46.2782 9.08518H48.0095V7.3539H46.2782V9.08518ZM46.2782 16.4085H44.547V18.8739L46.866 18.0369L46.2782 16.4085ZM49.7321 15.162L50.3199 16.7904L51.4634 16.3777V15.162H49.7321ZM49.7321 9.08518V7.3539H48.0009V9.08518H49.7321ZM51.7837 9.08518H53.515V7.3539H51.7837V9.08518ZM51.7837 25.1168H49.7321V28.5794H51.7837V25.1168ZM51.4634 26.8481V16.3565H48.0009V26.8481H51.4634ZM49.1553 14.7242L45.7014 15.9447L46.8551 19.2094L50.309 17.9889L49.1553 14.7242ZM44.547 17.5771V26.8481H48.0095V17.5771H44.547ZM46.2782 25.1168H44.2267V28.5794H46.2782V25.1168ZM45.958 26.8481V9.08518H42.4954V26.8481H45.958ZM44.2267 10.8165H46.2782V7.3539H44.2267V10.8165ZM44.547 9.08518V16.4085H48.0095V9.08518H44.547ZM46.866 18.0369L50.3199 16.7904L49.1444 13.5335L45.6905 14.78L46.866 18.0369ZM51.4634 15.162V9.08518H48.0009V15.162H51.4634ZM49.7321 10.8165H51.7837V7.3539H49.7321V10.8165ZM50.0524 9.08518V26.8481H53.515V9.08518H50.0524ZM64.0054 26.5365L64.9983 27.9548L65.0066 27.9489L65.0149 27.943L64.0054 26.5365ZM63.1225 26.9L63.6073 28.562L63.1225 26.9ZM62.2395 27.2896V29.0208H62.8468L63.3211 28.6415L62.2395 27.2896ZM62.0318 27.2896L60.9503 28.6415L61.4245 29.0208H62.0318V27.2896ZM61.1488 26.9L61.6336 25.238L61.1488 26.9ZM60.2659 26.5365L59.2621 27.9471L59.2731 27.9548L60.2659 26.5365ZM58.2922 22.1996L59.9947 21.8853L59.9947 21.885L58.2922 22.1996ZM60.6554 9.08518V7.3539H60.3234L60.015 7.4767L60.6554 9.08518ZM62.1357 8.59176L63.7313 7.91993L62.1357 4.13036L60.5401 7.91993L62.1357 8.59176ZM63.6159 9.08518L64.2589 7.47773L63.9493 7.3539H63.6159V9.08518ZM64.1613 17.2395L62.43 17.2295L62.43 17.2333L64.1613 17.2395ZM63.3302 10.9809L64.8834 10.2159L64.8787 10.2067L63.3302 10.9809ZM62.1357 9.81231L62.9479 8.28339L62.1708 7.87056L61.3793 8.25501L62.1357 9.81231ZM60.7853 11.2406L62.3338 12.0149L62.3504 11.9816L62.3656 11.9476L60.7853 11.2406ZM60.2139 13.1883L61.9116 13.5278L61.9129 13.5214L60.2139 13.1883ZM60.3178 21.9659L62.0221 21.6611L62.0199 21.6492L60.3178 21.9659ZM62.1357 26.2248L61.0112 27.5412L62.1376 28.5034L63.2624 27.5393L62.1357 26.2248ZM64.0054 26.5365L64.9983 27.9548L65.0066 27.9489L65.0149 27.943L64.0054 26.5365ZM63.1225 26.9L63.6073 28.562L63.1225 26.9ZM62.2395 27.2896V29.0208H62.8468L63.3211 28.6415L62.2395 27.2896ZM62.0318 27.2896L60.9503 28.6415L61.4245 29.0208H62.0318V27.2896ZM61.1488 26.9L61.6336 25.238L61.1488 26.9ZM60.2659 26.5365L59.2486 27.9373L59.2607 27.9462L59.2731 27.9548L60.2659 26.5365ZM57.8508 18.0186L59.581 17.9602L59.5147 15.992L57.5712 16.31L57.8508 18.0186ZM56.4224 18.2523L56.1429 16.5437L54.6912 16.7813V18.2523H56.4224ZM56.4224 26.8481V28.5794H58.1537V26.8481H56.4224ZM54.3709 26.8481H52.6396V28.5794H54.3709V26.8481ZM54.3709 9.08518V7.3539H52.6396V9.08518H54.3709ZM56.4224 9.08518H58.1537V7.3539H56.4224V9.08518ZM56.4224 16.9538H54.6912V18.9914L56.702 18.6624L56.4224 16.9538ZM57.8508 16.7201L58.1303 18.4287L59.5589 18.1949L59.5818 16.7475L57.8508 16.7201ZM60.6554 9.08518V7.3539H60.3265L60.0205 7.47454L60.6554 9.08518ZM62.1357 8.59176L63.7313 7.91993L62.1357 4.13036L60.5401 7.91993L62.1357 8.59176ZM63.6159 9.08518L64.2589 7.47773L63.9493 7.3539H63.6159V9.08518ZM64.1613 17.2395L62.43 17.2295L62.43 17.2333L64.1613 17.2395ZM63.3302 10.9809L64.8834 10.2159L64.8787 10.2067L63.3302 10.9809ZM62.1357 9.81231L62.9479 8.28339L62.1708 7.87056L61.3793 8.25501L62.1357 9.81231ZM60.7853 11.2406L62.3338 12.0149L62.3504 11.9816L62.3656 11.9476L60.7853 11.2406ZM60.2139 13.1883L61.9116 13.5278L61.9129 13.5214L60.2139 13.1883ZM60.3178 21.9659L62.0221 21.6611L62.0199 21.6492L60.3178 21.9659ZM62.1357 26.2248L61.0112 27.5412L62.1376 28.5034L63.2624 27.5393L62.1357 26.2248ZM64.4815 17.2655C64.4815 19.7642 64.3003 21.6668 63.9768 23.0256C63.6395 24.4423 63.2175 24.971 62.996 25.1299L65.0149 27.943C66.265 27.0458 66.9467 25.5014 67.3452 23.8276C67.7574 22.0961 67.9441 19.8913 67.9441 17.2655H64.4815ZM63.0126 25.1181C63.0684 25.0791 63.078 25.0835 62.9957 25.1174C62.9216 25.1479 62.8058 25.189 62.6377 25.238L63.6073 28.562C64.0553 28.4314 64.5803 28.2473 64.9983 27.9548L63.0126 25.1181ZM62.6377 25.238C62.1721 25.3738 61.6061 25.5792 61.158 25.9377L63.3211 28.6415C63.2822 28.6725 63.2568 28.6872 63.2541 28.6888C63.2507 28.6907 63.2608 28.6847 63.2889 28.6723C63.3475 28.6464 63.4493 28.6081 63.6073 28.562L62.6377 25.238ZM62.2395 25.5583H62.0318V29.0208H62.2395V25.5583ZM63.1133 25.9377C62.6652 25.5792 62.0992 25.3738 61.6336 25.238L60.6641 28.562C60.822 28.6081 60.9238 28.6464 60.9824 28.6723C61.0105 28.6847 61.0207 28.6907 61.0173 28.6888C61.0146 28.6872 60.9891 28.6725 60.9503 28.6415L63.1133 25.9377ZM61.6336 25.238C61.4656 25.189 61.3497 25.1479 61.2757 25.1174C61.1933 25.0835 61.2029 25.0791 61.2587 25.1181L59.2731 27.9548C59.691 28.2473 60.2161 28.4314 60.6641 28.562L61.6336 25.238ZM61.2696 25.1258C61.1533 25.0431 60.9277 24.8143 60.673 24.2547C60.4221 23.7032 60.1871 22.927 59.9947 21.8853L56.5897 22.5139C56.8129 23.7228 57.1146 24.7948 57.5215 25.6889C57.9247 26.575 58.4782 27.3892 59.2622 27.9471L61.2696 25.1258ZM59.9947 21.885C59.7206 20.4018 59.582 18.854 59.582 17.2395H56.1195C56.1195 19.0529 56.2752 20.8118 56.5898 22.5142L59.9947 21.885ZM59.582 17.2395C59.582 14.9801 59.8108 13.3449 60.1891 12.2452C60.565 11.1523 61.0033 10.8101 61.2958 10.6937L60.015 7.4767C58.4378 8.10466 57.4738 9.49376 56.9148 11.119C56.3581 12.7374 56.1195 14.8072 56.1195 17.2395H59.582ZM60.6554 10.8165H61.4345V7.3539H60.6554V10.8165ZM61.4345 10.8165C61.9 10.8165 62.4018 10.695 62.8528 10.3777C63.2942 10.0671 63.5672 9.65321 63.7313 9.2636L60.5401 7.91993C60.5656 7.85926 60.6525 7.69208 60.8602 7.54597C61.0774 7.39307 61.298 7.3539 61.4345 7.3539V10.8165ZM60.5401 9.2636C60.7041 9.65321 60.9771 10.0671 61.4185 10.3777C61.8695 10.695 62.3714 10.8165 62.8368 10.8165V7.3539C62.9734 7.3539 63.1939 7.39307 63.4112 7.54597C63.6188 7.69208 63.7057 7.85925 63.7313 7.91993L60.5401 9.2636ZM62.8368 10.8165H63.6159V7.3539H62.8368V10.8165ZM62.9729 10.6926C63.1474 10.7624 63.5527 11.0372 63.9135 12.1735C64.2686 13.2922 64.4815 14.9613 64.4815 17.2655H67.9441C67.9441 14.8086 67.7242 12.7338 67.2137 11.1258C66.7088 9.53533 65.8157 8.10045 64.2589 7.47773L62.9729 10.6926ZM65.8925 17.2494C65.9098 14.2352 65.6521 11.7767 64.8834 10.216L61.7771 11.7459C62.151 12.505 62.4473 14.2189 62.43 17.2295L65.8925 17.2494ZM64.8787 10.2067C64.451 9.35121 63.7681 8.71911 62.9479 8.28339L61.3234 11.3412C61.6113 11.4942 61.7247 11.6411 61.7817 11.7552L64.8787 10.2067ZM61.3793 8.25501C60.3806 8.74008 59.6529 9.53229 59.2049 10.5336L62.3656 11.9476C62.5063 11.6332 62.6788 11.4732 62.8921 11.3696L61.3793 8.25501ZM59.2368 10.4664C58.9213 11.0973 58.6957 11.9338 58.515 12.8552L61.9129 13.5214C62.0785 12.6769 62.2337 12.215 62.3338 12.0149L59.2368 10.4664ZM58.5163 12.8488C58.2777 14.0419 58.171 15.4998 58.171 17.1876H61.6336C61.6336 15.6205 61.7347 14.4122 61.9116 13.5278L58.5163 12.8488ZM58.171 17.1876C58.171 18.978 58.3172 20.6776 58.6158 22.2825L62.0199 21.6492C61.7645 20.2763 61.6336 18.7905 61.6336 17.1876H58.171ZM58.6136 22.2707C59.0063 24.4664 59.6938 26.4159 61.0112 27.5412L63.2601 24.9084C62.9155 24.6141 62.3911 23.7243 62.0221 21.6611L58.6136 22.2707ZM63.2624 27.5393C64.3555 26.6023 64.9658 25.121 65.3308 23.5022C65.7072 21.8323 65.8836 19.732 65.8925 17.2457L62.43 17.2333C62.4216 19.5945 62.2517 21.4156 61.953 22.7408C61.6427 24.1171 61.2489 24.7047 61.009 24.9103L63.2624 27.5393ZM64.4815 17.2655C64.4815 19.7642 64.3003 21.6668 63.9768 23.0256C63.6395 24.4423 63.2175 24.971 62.996 25.1299L65.0149 27.943C66.265 27.0458 66.9467 25.5014 67.3452 23.8276C67.7574 22.0961 67.9441 19.8913 67.9441 17.2655H64.4815ZM63.0126 25.1181C63.0684 25.0791 63.078 25.0835 62.9957 25.1174C62.9216 25.1479 62.8058 25.189 62.6377 25.238L63.6073 28.562C64.0553 28.4314 64.5803 28.2473 64.9983 27.9548L63.0126 25.1181ZM62.6377 25.238C62.1721 25.3738 61.6061 25.5792 61.158 25.9377L63.3211 28.6415C63.2822 28.6725 63.2568 28.6872 63.2541 28.6888C63.2507 28.6907 63.2608 28.6847 63.2889 28.6723C63.3475 28.6464 63.4493 28.6081 63.6073 28.562L62.6377 25.238ZM62.2395 25.5583H62.0318V29.0208H62.2395V25.5583ZM63.1133 25.9377C62.6652 25.5792 62.0992 25.3738 61.6336 25.238L60.6641 28.562C60.822 28.6081 60.9238 28.6464 60.9824 28.6723C61.0105 28.6847 61.0207 28.6907 61.0173 28.6888C61.0146 28.6872 60.9891 28.6725 60.9503 28.6415L63.1133 25.9377ZM61.6336 25.238C61.4656 25.189 61.3497 25.1479 61.2757 25.1174C61.1933 25.0835 61.2029 25.0791 61.2587 25.1181L59.2731 27.9548C59.691 28.2473 60.2161 28.4314 60.6641 28.562L61.6336 25.238ZM61.2832 25.1356C61.0157 24.9414 60.5963 24.4097 60.237 23.1427C59.8879 21.9114 59.6566 20.2009 59.581 17.9602L56.1205 18.0769C56.2007 20.4588 56.4498 22.4791 56.9058 24.0872C57.3516 25.6594 58.0618 27.0755 59.2486 27.9373L61.2832 25.1356ZM57.5712 16.31L56.1429 16.5437L56.702 19.9608L58.1303 19.7271L57.5712 16.31ZM54.6912 18.2523V26.8481H58.1537V18.2523H54.6912ZM56.4224 25.1168H54.3709V28.5794H56.4224V25.1168ZM56.1022 26.8481V9.08518H52.6396V26.8481H56.1022ZM54.3709 10.8165H56.4224V7.3539H54.3709V10.8165ZM54.6912 9.08518V16.9538H58.1537V9.08518H54.6912ZM56.702 18.6624L58.1303 18.4287L57.5712 15.0116L56.1429 15.2453L56.702 18.6624ZM59.5818 16.7475C59.615 14.6474 59.857 13.1358 60.229 12.1233C60.5967 11.1223 61.0108 10.806 61.2904 10.6958L60.0205 7.47454C58.4995 8.07413 57.546 9.38528 56.9788 10.9293C56.4158 12.4618 56.1557 14.4127 56.1197 16.6927L59.5818 16.7475ZM60.6554 10.8165H61.4345V7.3539H60.6554V10.8165ZM61.4345 10.8165C61.9 10.8165 62.4018 10.695 62.8528 10.3777C63.2942 10.0671 63.5672 9.65321 63.7313 9.2636L60.5401 7.91993C60.5656 7.85926 60.6525 7.69208 60.8602 7.54597C61.0774 7.39307 61.298 7.3539 61.4345 7.3539V10.8165ZM60.5401 9.2636C60.7041 9.65321 60.9771 10.0671 61.4185 10.3777C61.8695 10.695 62.3714 10.8165 62.8368 10.8165V7.3539C62.9734 7.3539 63.1939 7.39307 63.4112 7.54597C63.6188 7.69208 63.7057 7.85925 63.7313 7.91993L60.5401 9.2636ZM62.8368 10.8165H63.6159V7.3539H62.8368V10.8165ZM62.9729 10.6926C63.1474 10.7624 63.5527 11.0372 63.9135 12.1735C64.2686 13.2922 64.4815 14.9613 64.4815 17.2655H67.9441C67.9441 14.8086 67.7242 12.7338 67.2137 11.1258C66.7088 9.53533 65.8157 8.10045 64.2589 7.47773L62.9729 10.6926ZM65.8925 17.2494C65.9098 14.2352 65.6521 11.7767 64.8834 10.216L61.7771 11.7459C62.151 12.505 62.4473 14.2189 62.43 17.2295L65.8925 17.2494ZM64.8787 10.2067C64.451 9.35121 63.7681 8.71911 62.9479 8.28339L61.3234 11.3412C61.6113 11.4942 61.7247 11.6411 61.7817 11.7552L64.8787 10.2067ZM61.3793 8.25501C60.3806 8.74008 59.6529 9.53229 59.2049 10.5336L62.3656 11.9476C62.5063 11.6332 62.6788 11.4732 62.8921 11.3696L61.3793 8.25501ZM59.2368 10.4664C58.9213 11.0973 58.6957 11.9338 58.515 12.8552L61.9129 13.5214C62.0785 12.6769 62.2337 12.215 62.3338 12.0149L59.2368 10.4664ZM58.5163 12.8488C58.2777 14.0419 58.171 15.4998 58.171 17.1876H61.6336C61.6336 15.6205 61.7347 14.4122 61.9116 13.5278L58.5163 12.8488ZM58.171 17.1876C58.171 18.978 58.3172 20.6776 58.6158 22.2825L62.0199 21.6492C61.7645 20.2763 61.6336 18.7905 61.6336 17.1876H58.171ZM58.6136 22.2707C59.0063 24.4664 59.6938 26.4159 61.0112 27.5412L63.2601 24.9084C62.9155 24.6141 62.3911 23.7243 62.0221 21.6611L58.6136 22.2707ZM63.2624 27.5393C64.3555 26.6023 64.9658 25.121 65.3308 23.5022C65.7072 21.8323 65.8836 19.732 65.8925 17.2457L62.43 17.2333C62.4216 19.5945 62.2517 21.4156 61.953 22.7408C61.6427 24.1171 61.2489 24.7047 61.009 24.9103L63.2624 27.5393ZM75.7989 15.2139L74.5822 16.4456L77.5302 19.3576V15.2139H75.7989ZM73.6694 13.1104H71.9381V13.8337L72.4528 14.3421L73.6694 13.1104ZM73.6694 9.7344H75.4007V8.00313H73.6694V9.7344ZM70.3713 9.7344V8.00313H68.6401V9.7344H70.3713ZM70.3713 16.9279H68.6401V18.6591H70.3713V16.9279ZM71.1764 16.9019V15.1706H71.005L70.8369 15.2042L71.1764 16.9019ZM72.2411 16.9798L71.9402 18.6847L71.9484 18.6862L71.9565 18.6875L72.2411 16.9798ZM72.3969 17.0317H70.6657V18.5677L72.1907 18.7507L72.3969 17.0317ZM73.7214 17.655L74.8177 16.315L74.8092 16.3082L73.7214 17.655ZM74.89 26.6663L75.3941 28.3226L75.4064 28.3188L74.89 26.6663ZM68.3198 26.8481H66.5885V28.5794H68.3198V26.8481ZM68.3198 9.08518V7.3539H66.5885V9.08518H68.3198ZM75.7989 9.08518H77.5302V7.3539H75.7989V9.08518ZM72.1632 18.4341L70.8058 19.5087L70.8132 19.518L70.8207 19.5272L72.1632 18.4341ZM71.1764 17.5771L71.9175 16.0125L71.5657 15.8458H71.1764V17.5771ZM70.3454 17.5771V15.8458H68.6141V17.5771H70.3454ZM70.3454 26.1989H68.6141V27.9301H70.3454V26.1989ZM73.6435 26.1989V27.9301H75.3747V26.1989H73.6435ZM77.0156 13.9822L74.8861 11.8787L72.4528 14.3421L74.5822 16.4456L77.0156 13.9822ZM75.4007 13.1104V9.7344H71.9381V13.1104H75.4007ZM73.6694 8.00313H70.3713V11.4657H73.6694V8.00313ZM68.6401 9.7344V16.9279H72.1026V9.7344H68.6401ZM70.3713 18.6591H70.9686V15.1966H70.3713V18.6591ZM70.9686 18.6591C71.1864 18.6591 71.3835 18.626 71.5159 18.5996L70.8369 15.2042C70.8247 15.2067 70.8284 15.2055 70.8448 15.2035C70.8589 15.2017 70.9032 15.1966 70.9686 15.1966V18.6591ZM71.1764 18.6332H71.488V15.1706H71.1764V18.6332ZM71.488 18.6332C71.5617 18.6332 71.7061 18.6434 71.9402 18.6847L72.542 15.2749C72.1875 15.2123 71.8298 15.1706 71.488 15.1706V18.6332ZM71.9565 18.6875C71.9848 18.6922 71.9161 18.6834 71.8105 18.6482C71.7695 18.6346 71.6097 18.5812 71.4269 18.4593C71.3327 18.3965 71.1652 18.2717 71.0095 18.064C70.8434 17.8426 70.6657 17.4892 70.6657 17.0317H74.1282C74.1282 16.1083 73.4586 15.6523 73.3475 15.5782C73.1517 15.4477 72.9724 15.3856 72.9055 15.3633C72.7479 15.3108 72.6013 15.2847 72.5257 15.2721L71.9565 18.6875ZM72.1907 18.7507C72.2109 18.7531 72.3556 18.7774 72.6335 19.0018L74.8092 16.3082C74.1868 15.8055 73.4486 15.4142 72.6032 15.3128L72.1907 18.7507ZM72.625 18.9949C73.4254 19.6498 73.9897 20.7823 73.9897 22.7969H77.4523C77.4523 20.1371 76.6835 17.8416 74.8177 16.3151L72.625 18.9949ZM73.9897 22.7969V25.9392H77.4523V22.7969H73.9897ZM73.9897 25.9392C73.9897 25.75 74.0342 25.5583 74.1205 25.3857C74.2035 25.2197 74.3045 25.1118 74.3732 25.0518C74.4904 24.9492 74.5388 24.9622 74.3736 25.0138L75.4064 28.3188C75.7952 28.1973 76.2591 28.0025 76.6533 27.6576C77.0927 27.2731 77.4523 26.6857 77.4523 25.9392H73.9897ZM74.3859 25.01C74.1508 25.0816 73.9138 25.1168 73.6694 25.1168V28.5794C74.256 28.5794 74.8327 28.4934 75.3941 28.3226L74.3859 25.01ZM73.6694 25.1168H68.3198V28.5794H73.6694V25.1168ZM70.0511 26.8481V9.08518H66.5885V26.8481H70.0511ZM68.3198 10.8165H75.7989V7.3539H68.3198V10.8165ZM74.0676 9.08518V15.2139H77.5302V9.08518H74.0676ZM75.3747 22.8229C75.3747 20.7517 74.7688 18.8921 73.5057 17.3409L70.8207 19.5272C71.5313 20.3999 71.9122 21.4661 71.9122 22.8229H75.3747ZM73.5206 17.3595C73.0962 16.8234 72.571 16.322 71.9175 16.0125L70.4352 19.1417C70.4325 19.1404 70.4666 19.1563 70.5346 19.2154C70.6028 19.2746 70.6943 19.3678 70.8058 19.5087L73.5206 17.3595ZM71.1764 15.8458H70.3454V19.3084H71.1764V15.8458ZM68.6141 17.5771V26.1989H72.0766V17.5771H68.6141ZM70.3454 27.9301H73.6435V24.4676H70.3454V27.9301ZM75.3747 26.1989V22.8229H71.9122V26.1989H75.3747ZM85.6907 26.8481V28.5794H87.422V26.8481H85.6907ZM83.6391 26.8481H81.9079V28.5794H83.6391V26.8481ZM83.6391 15.6294H85.3704V10.6301L82.2786 14.5587L83.6391 15.6294ZM80.1852 20.0182L78.8247 18.9475L78.454 19.4186V20.0182H80.1852ZM80.1852 26.8481V28.5794H81.9165V26.8481H80.1852ZM78.1337 26.8481H76.4024V28.5794H78.1337V26.8481ZM78.1337 9.08518V7.3539H76.4024V9.08518H78.1337ZM80.1852 9.08518H81.9165V7.3539H80.1852V9.08518ZM80.1852 18.5899H78.454V23.6125L81.5488 19.6567L80.1852 18.5899ZM83.6391 14.1751L85.0027 15.2419L85.3704 14.7719V14.1751H83.6391ZM83.6391 9.08518V7.3539H81.9079V9.08518H83.6391ZM85.6907 9.08518H87.422V7.3539H85.6907V9.08518ZM85.6907 25.1168H83.6391V28.5794H85.6907V25.1168ZM85.3704 26.8481V15.6294H81.9079V26.8481H85.3704ZM82.2786 14.5587L78.8247 18.9475L81.5457 21.0889L84.9996 16.7001L82.2786 14.5587ZM78.454 20.0182V26.8481H81.9165V20.0182H78.454ZM80.1852 25.1168H78.1337V28.5794H80.1852V25.1168ZM79.865 26.8481V9.08518H76.4024V26.8481H79.865ZM78.1337 10.8165H80.1852V7.3539H78.1337V10.8165ZM78.454 9.08518V18.5899H81.9165V9.08518H78.454ZM81.5488 19.6567L85.0027 15.2419L82.2756 13.1083L78.8217 17.5231L81.5488 19.6567ZM85.3704 14.1751V9.08518H81.9079V14.1751H85.3704ZM83.6391 10.8165H85.6907V7.3539H83.6391V10.8165ZM83.9594 9.08518V26.8481H87.422V9.08518H83.9594ZM95.8349 26.8481V28.5794H97.5662V26.8481H95.8349ZM93.7834 26.8481H92.0521V28.5794H93.7834V26.8481ZM93.7834 16.3565H95.5146V13.9085L93.2065 14.7242L93.7834 16.3565ZM90.3295 17.5771L89.7526 15.9447L88.5982 16.3527V17.5771H90.3295ZM90.3295 26.8481V28.5794H92.0607V26.8481H90.3295ZM88.2779 26.8481H86.5466V28.5794H88.2779V26.8481ZM88.2779 9.08518V7.3539H86.5466V9.08518H88.2779ZM90.3295 9.08518H92.0607V7.3539H90.3295V9.08518ZM90.3295 16.4085H88.5982V18.8739L90.9172 18.0369L90.3295 16.4085ZM93.7834 15.162L94.3711 16.7904L95.5146 16.3777V15.162H93.7834ZM93.7834 9.08518V7.3539H92.0521V9.08518H93.7834ZM95.8349 9.08518H97.5662V7.3539H95.8349V9.08518ZM95.8349 25.1168H93.7834V28.5794H95.8349V25.1168ZM95.5146 26.8481V16.3565H92.0521V26.8481H95.5146ZM93.2065 14.7242L89.7526 15.9447L90.9063 19.2094L94.3602 17.9889L93.2065 14.7242ZM88.5982 17.5771V26.8481H92.0607V17.5771H88.5982ZM90.3295 25.1168H88.2779V28.5794H90.3295V25.1168ZM90.0092 26.8481V9.08518H86.5466V26.8481H90.0092ZM88.2779 10.8165H90.3295V7.3539H88.2779V10.8165ZM88.5982 9.08518V16.4085H92.0607V9.08518H88.5982ZM90.9172 18.0369L94.3711 16.7904L93.1956 13.5335L89.7417 14.78L90.9172 18.0369ZM95.5146 15.162V9.08518H92.0521V15.162H95.5146ZM93.7834 10.8165H95.8349V7.3539H93.7834V10.8165ZM94.1036 9.08518V26.8481H97.5662V9.08518H94.1036ZM106.213 24.0954L107.774 24.8445L108.964 22.3641H106.213V24.0954ZM103.564 26.8481L104.111 28.4905L104.208 28.4584L104.3 28.4151L103.564 26.8481ZM102.629 27.2896L101.405 28.5138L102.318 29.427L103.454 28.8119L102.629 27.2896ZM101.642 26.9L101.16 28.5626L101.167 28.5647L101.174 28.5666L101.642 26.9ZM100.655 26.5365L99.6207 27.9245L99.6348 27.935L99.6492 27.9453L100.655 26.5365ZM98.474 22.1996L100.161 21.8113L100.16 21.8051L98.474 22.1996ZM98.5 12.565L100.161 13.0547L100.163 13.0477L100.165 13.0407L98.5 12.565ZM101.227 9.08518V7.3539H100.972L100.727 7.42754L101.227 9.08518ZM102.629 8.59176L103.919 7.43736L102.589 5.95106L101.305 7.47658L102.629 8.59176ZM104.031 9.08518L104.651 7.4686L104.352 7.3539H104.031V9.08518ZM105.901 13.2143V14.9455H107.792L107.626 13.0621L105.901 13.2143ZM103.876 13.2143L102.153 13.3865L102.309 14.9455H103.876V13.2143ZM103.642 11.3445L101.96 11.7556L101.962 11.7644L103.642 11.3445ZM102.629 9.78634L103.447 8.26026L102.73 7.8763L101.977 8.18267L102.629 9.78634ZM100.37 13.0585L98.7003 12.6002L98.7 12.601L100.37 13.0585ZM99.8764 17.2135L101.608 17.1949L101.608 17.1936L99.8764 17.2135ZM100.5 22.0438L102.183 21.6403L102.18 21.6281L100.5 22.0438ZM102.629 26.2768L101.554 27.6336L102.629 28.4853L103.704 27.6342L102.629 26.2768ZM104.109 24.0954V22.3641H102.684L102.41 23.7629L104.109 24.0954ZM104.652 23.3462C104.176 24.3386 103.559 24.9375 102.828 25.2811L104.3 28.4151C105.854 27.6853 107.003 26.449 107.774 24.8445L104.652 23.3462ZM103.017 25.2057C102.655 25.326 102.231 25.5361 101.805 25.7673L103.454 28.8119C103.858 28.5929 104.057 28.5087 104.111 28.4905L103.017 25.2057ZM103.853 26.0654C103.521 25.7327 103.099 25.5667 102.94 25.5039C102.698 25.4083 102.414 25.3187 102.111 25.2334L101.174 28.5666C101.295 28.6009 101.398 28.6318 101.483 28.6592C101.568 28.687 101.629 28.7089 101.669 28.7246C101.712 28.7417 101.713 28.7443 101.686 28.7301C101.672 28.7224 101.64 28.7044 101.597 28.6749C101.557 28.647 101.486 28.5945 101.405 28.5138L103.853 26.0654ZM102.125 25.2374C101.876 25.165 101.702 25.1086 101.592 25.0677C101.565 25.0581 101.545 25.0503 101.531 25.0445C101.516 25.0385 101.51 25.0357 101.511 25.0359C101.511 25.0362 101.514 25.0376 101.52 25.0403C101.525 25.0429 101.534 25.0474 101.545 25.0536C101.565 25.0645 101.607 25.0888 101.662 25.1277L99.6492 27.9453C99.9174 28.1369 100.227 28.2552 100.395 28.3168C100.613 28.3972 100.872 28.4792 101.16 28.5626L102.125 25.2374ZM101.69 25.1484C101.254 24.8233 100.642 23.9019 100.161 21.8113L96.7869 22.5879C97.3098 24.8601 98.1524 26.83 99.6207 27.9245L101.69 25.1484ZM100.16 21.8051C99.8093 20.3076 99.634 18.7866 99.634 17.2395H96.1714C96.1714 19.051 96.377 20.8368 96.7883 22.5941L100.16 21.8051ZM99.634 17.2395C99.634 15.5992 99.8194 14.2117 100.161 13.0547L96.8394 12.0754C96.3842 13.6191 96.1714 15.3479 96.1714 17.2395H99.634ZM100.165 13.0407C100.647 11.3519 101.282 10.8766 101.726 10.7428L100.727 7.42754C98.6435 8.0555 97.4608 9.90013 96.8353 12.0894L100.165 13.0407ZM101.227 10.8165H102.006V7.3539H101.227V10.8165ZM102.006 10.8165C102.689 10.8165 103.171 10.4534 103.34 10.3192C103.574 10.1344 103.78 9.91273 103.953 9.70694L101.305 7.47658C101.201 7.59974 101.165 7.62477 101.191 7.60442C101.206 7.59283 101.27 7.54273 101.38 7.49051C101.485 7.44061 101.705 7.3539 102.006 7.3539V10.8165ZM101.339 9.74617C101.515 9.94271 101.716 10.1486 101.931 10.3192C102.039 10.4049 102.188 10.5114 102.371 10.6028C102.539 10.6869 102.85 10.8165 103.252 10.8165V7.3539C103.594 7.3539 103.834 7.46287 103.919 7.50584C104.02 7.55611 104.076 7.60101 104.08 7.60442C104.088 7.61054 104.038 7.56976 103.919 7.43736L101.339 9.74617ZM103.252 10.8165H104.031V7.3539H103.252V10.8165ZM103.412 10.7017C103.412 10.7019 103.413 10.7021 103.414 10.7026C103.415 10.7032 103.417 10.7044 103.421 10.707C103.428 10.7119 103.444 10.7243 103.469 10.7507C103.52 10.8054 103.605 10.9185 103.701 11.1303C103.9 11.5697 104.081 12.2865 104.177 13.3664L107.626 13.0621C107.513 11.7875 107.279 10.6389 106.855 9.70193C106.424 8.75097 105.73 7.88219 104.651 7.4686L103.412 10.7017ZM105.901 11.483H103.876V14.9455H105.901V11.483ZM105.598 13.042C105.501 12.0666 105.412 11.2859 105.321 10.9246L101.962 11.7644C101.959 11.7505 101.98 11.8552 102.021 12.1825C102.058 12.4738 102.102 12.8734 102.153 13.3865L105.598 13.042ZM105.324 10.9334C105.071 9.8993 104.532 8.84181 103.447 8.26026L101.812 11.3124C101.766 11.2879 101.764 11.2676 101.794 11.3142C101.831 11.3705 101.898 11.5024 101.96 11.7556L105.324 10.9334ZM101.977 8.18267C100.203 8.90437 99.2345 10.6542 98.7003 12.6002L102.039 13.5168C102.475 11.9309 103.013 11.4993 103.281 11.39L101.977 8.18267ZM98.7 12.601C98.3054 14.0415 98.1263 15.5896 98.1452 17.2334L101.608 17.1936C101.592 15.8251 101.742 14.6031 102.04 13.5159L98.7 12.601ZM98.1452 17.2321C98.164 18.9801 98.3896 20.7233 98.819 22.4594L102.18 21.6281C101.813 20.1441 101.623 18.6672 101.608 17.1949L98.1452 17.2321ZM98.816 22.4473C99.342 24.642 100.167 26.5343 101.554 27.6336L103.704 24.9199C103.256 24.565 102.661 23.6353 102.183 21.6403L98.816 22.4473ZM103.704 27.6342C104.758 26.7998 105.552 25.7398 105.808 24.4278L102.41 23.7629C102.355 24.0436 102.163 24.4379 101.554 24.9194L103.704 27.6342ZM104.109 25.8266H106.213V22.3641H104.109V25.8266ZM115.638 26.8481V28.5794H117.369V26.8481H115.638ZM113.586 26.8481H111.855V28.5794H113.586V26.8481ZM112.703 19.317L111.186 20.1502L111.191 20.1599L112.703 19.317ZM111.119 17.5771L111.874 16.0193L111.517 15.8458H111.119V17.5771ZM110.288 17.5771V15.8458H108.557V17.5771H110.288ZM110.288 26.8481V28.5794H112.019V26.8481H110.288ZM108.237 26.8481H106.505V28.5794H108.237V26.8481ZM108.237 9.08518V7.3539H106.505V9.08518H108.237ZM110.288 9.08518H112.019V7.3539H110.288V9.08518ZM110.288 16.9279H108.557V18.6591H110.288V16.9279ZM110.885 16.9279V18.6591H111.229L111.546 18.528L110.885 16.9279ZM112.885 14.8763L114.423 15.671L114.428 15.6608L114.434 15.6505L112.885 14.8763ZM113.586 9.08518V7.3539H111.855V9.08518H113.586ZM115.638 9.08518H117.369V7.3539H115.638V9.08518ZM114.833 15.2139L113.325 14.3638L113.324 14.3651L114.833 15.2139ZM112.288 17.0317L112.121 15.3085L112.076 18.7501L112.288 17.0317ZM114.885 19.2651L113.305 19.9739L113.311 19.9863L113.317 19.9986L114.885 19.2651ZM115.638 25.1168H113.586V28.5794H115.638V25.1168ZM115.318 26.8481V22.8229H111.855V26.8481H115.318ZM115.318 22.8229C115.318 21.2649 114.956 19.8034 114.216 18.4741L111.191 20.1599C111.627 20.9428 111.855 21.8186 111.855 22.8229H115.318ZM114.221 18.4838C113.657 17.4566 112.908 16.5205 111.874 16.0193L110.364 19.1349C110.473 19.1877 110.78 19.4116 111.186 20.1502L114.221 18.4838ZM111.119 15.8458H110.288V19.3084H111.119V15.8458ZM108.557 17.5771V26.8481H112.019V17.5771H108.557ZM110.288 25.1168H108.237V28.5794H110.288V25.1168ZM109.968 26.8481V9.08518H106.505V26.8481H109.968ZM108.237 10.8165H110.288V7.3539H108.237V10.8165ZM108.557 9.08518V16.9279H112.019V9.08518H108.557ZM110.288 18.6591H110.885V15.1966H110.288V18.6591ZM111.546 18.528C112.838 17.9947 113.766 16.9434 114.423 15.671L111.347 14.0816C110.931 14.8867 110.526 15.2031 110.225 15.3277L111.546 18.528ZM114.434 15.6505C115.007 14.5039 115.318 13.3056 115.318 12.0716H111.855C111.855 12.7074 111.698 13.3789 111.337 14.102L114.434 15.6505ZM115.318 12.0716V9.08518H111.855V12.0716H115.318ZM113.586 10.8165H115.638V7.3539H113.586V10.8165ZM113.907 9.08518V12.0457H117.369V9.08518H113.907ZM113.907 12.0457C113.907 12.9267 113.706 13.687 113.325 14.3638L116.341 16.064C117.033 14.8364 117.369 13.4846 117.369 12.0457H113.907ZM113.324 14.3651C112.921 15.0809 112.525 15.2695 112.121 15.3085L112.455 18.755C114.198 18.5863 115.498 17.563 116.342 16.0627L113.324 14.3651ZM112.076 18.7501C112.418 18.792 112.861 18.9842 113.305 19.9739L116.464 18.5563C115.696 16.8452 114.409 15.5484 112.499 15.3134L112.076 18.7501ZM113.317 19.9986C113.703 20.8242 113.907 21.7484 113.907 22.7969H117.369C117.369 21.2831 117.071 19.8528 116.453 18.5316L113.317 19.9986ZM113.907 22.7969V26.8481H117.369V22.7969H113.907ZM125.428 19.1093L125.089 17.4116L123.697 17.69V19.1093H125.428ZM125.428 25.7054H123.697V26.528L124.335 27.0476L125.428 25.7054ZM126.831 26.8481V28.5794H131.696L127.924 25.5059L126.831 26.8481ZM121.974 26.8481L120.868 25.516L117.179 28.5794H121.974V26.8481ZM123.351 25.7054L124.457 27.0375L125.082 26.5183V25.7054H123.351ZM123.351 21.1349H125.082V17.0013L122.136 19.9011L123.351 21.1349ZM120.027 24.407L118.812 23.1732L118.295 23.6819V24.407H120.027ZM120.027 26.8481V28.5794H121.758V26.8481H120.027ZM117.975 26.8481H116.244V28.5794H117.975V26.8481ZM120.027 12.4352L121.21 13.6987L121.216 13.6932L120.027 12.4352ZM123.351 10.7732L123.631 12.4815L125.082 12.2431V10.7732H123.351ZM123.351 9.94216H125.082V8.98068L124.266 8.47248L123.351 9.94216ZM121.974 9.08518V7.3539H115.918L121.059 10.5549L121.974 9.08518ZM126.831 9.08518L127.733 10.5624L132.984 7.3539H126.831V9.08518ZM125.428 9.94216L124.525 8.46489L123.697 8.9712V9.94216H125.428ZM125.428 16.5643H123.697V17.9836L125.089 18.262L125.428 16.5643ZM123.351 19.8624L124.584 21.077L125.082 20.5716V19.8624H123.351ZM123.351 19.1352H125.082V17.7372L123.715 17.4428L123.351 19.1352ZM123.351 16.5643L123.715 18.2568L125.082 17.9624V16.5643H123.351ZM123.351 11.8119H125.082V10.0807H123.351V11.8119ZM120.598 14.0193L118.978 13.4093L118.976 13.4144L120.598 14.0193ZM120.027 23.2384H118.295V27.4643L121.26 24.453L120.027 23.2384ZM125.515 17.7848C125.515 17.659 125.548 17.514 125.622 17.382C125.691 17.259 125.763 17.2035 125.772 17.1971C125.777 17.1932 125.736 17.2239 125.614 17.2697C125.494 17.3147 125.323 17.3647 125.089 17.4116L125.768 20.8069C126.48 20.6646 127.216 20.4294 127.811 19.9957C128.474 19.5123 128.977 18.7578 128.977 17.7848H125.515ZM123.697 19.1093V25.7054H127.159V19.1093H123.697ZM124.335 27.0476L125.737 28.1902L127.924 25.5059L126.522 24.3633L124.335 27.0476ZM126.831 25.1168H121.974V28.5794H126.831V25.1168ZM123.08 28.1801L124.457 27.0375L122.245 24.3734L120.868 25.516L123.08 28.1801ZM125.082 25.7054V21.1349H121.619V25.7054H125.082ZM122.136 19.9011L118.812 23.1732L121.241 25.6408L124.565 22.3687L122.136 19.9011ZM118.295 24.407V26.8481H121.758V24.407H118.295ZM120.027 25.1168H117.975V28.5794H120.027V25.1168ZM119.706 26.8481V17.8108H116.244V26.8481H119.706ZM119.706 17.8108C119.706 15.8695 120.269 14.58 121.21 13.6987L118.843 11.1717C117.049 12.8526 116.244 15.147 116.244 17.8108H119.706ZM121.216 13.6932C121.923 13.0245 122.717 12.6319 123.631 12.4815L123.07 9.06482C121.457 9.33 120.034 10.0453 118.837 11.1772L121.216 13.6932ZM125.082 10.7732V9.94216H121.619V10.7732H125.082ZM124.266 8.47248L122.889 7.6155L121.059 10.5549L122.436 11.4118L124.266 8.47248ZM121.974 10.8165H126.831V7.3539H121.974V10.8165ZM125.928 7.60791L124.525 8.46489L126.331 11.4194L127.733 10.5624L125.928 7.60791ZM123.697 9.94216V16.5643H127.159V9.94216H123.697ZM125.089 18.262C125.331 18.3104 125.512 18.361 125.641 18.4073C125.705 18.4301 125.751 18.4501 125.783 18.4654C125.815 18.4808 125.828 18.4895 125.827 18.4886C125.825 18.4876 125.805 18.4741 125.775 18.4445C125.744 18.4143 125.703 18.3666 125.661 18.2989C125.568 18.1494 125.515 17.9665 125.515 17.7848H128.977C128.977 16.7631 128.389 16.0386 127.757 15.6139C127.177 15.2247 126.464 15.0058 125.768 14.8666L125.089 18.262ZM125.082 19.8624V19.1352H121.619V19.8624H125.082ZM123.715 17.4428C123.505 17.3975 123.356 17.3506 123.255 17.3103C123.153 17.2693 123.125 17.2451 123.14 17.2566C123.159 17.271 123.231 17.3321 123.296 17.4545C123.365 17.5836 123.394 17.7209 123.394 17.8368H119.931C119.931 18.7655 120.389 19.5088 121.029 20.0011C121.602 20.4421 122.31 20.6822 122.986 20.8277L123.715 17.4428ZM123.394 17.8368C123.394 17.9655 123.361 18.1121 123.288 18.2463C123.219 18.3725 123.144 18.4338 123.127 18.4467C123.113 18.457 123.143 18.432 123.248 18.3904C123.351 18.3497 123.503 18.3024 123.715 18.2568L122.986 14.8718C122.315 15.0164 121.612 15.2521 121.043 15.6817C120.407 16.1605 119.931 16.8973 119.931 17.8368H123.394ZM125.082 16.5643V11.8119H121.619V16.5643H125.082ZM123.351 10.0807C122.354 10.0807 121.413 10.3764 120.619 11.0131C119.849 11.6301 119.328 12.4777 118.978 13.4093L122.218 14.6293C122.421 14.0893 122.637 13.8332 122.785 13.7144C122.908 13.6154 123.066 13.5432 123.351 13.5432V10.0807ZM118.976 13.4144C118.5 14.6897 118.295 16.1827 118.295 17.8368H121.758C121.758 16.4438 121.934 15.3919 122.22 14.6242L118.976 13.4144ZM118.295 17.8368V23.2384H121.758V17.8368H118.295ZM121.26 24.453L124.584 21.077L122.117 18.6477L118.793 22.0237L121.26 24.453ZM136.383 26.8481V28.5794H138.114V26.8481H136.383ZM134.331 26.8481H132.6V28.5794H134.331V26.8481ZM134.331 17.5771H136.062V15.8458H134.331V17.5771ZM133.5 17.5771V15.8458H133.103L132.746 16.0187L133.5 17.5771ZM131.916 19.5767L133.473 20.3331L133.474 20.3308L131.916 19.5767ZM131.033 26.8481V28.5794H132.764V26.8481H131.033ZM128.982 26.8481H127.25V28.5794H128.982V26.8481ZM129.735 19.5507L128.136 18.8861L128.132 18.8961L129.735 19.5507ZM132.332 17.0317L132.55 18.7492L132.526 15.3115L132.332 17.0317ZM129.916 15.11L131.409 14.2322L131.407 14.2301L129.916 15.11ZM129.163 10.4875L130.873 10.7595L130.876 10.7405L130.879 10.7214L129.163 10.4875ZM129.968 9.47471L130.867 10.9546L130.876 10.9488L130.886 10.9428L129.968 9.47471ZM136.383 9.08518H138.114V7.3539H136.383V9.08518ZM134.331 16.9279V18.6591H136.062V16.9279H134.331ZM134.331 9.7344H136.062V8.00313H134.331V9.7344ZM131.215 9.7344V8.00313H129.683L129.496 9.52338L131.215 9.7344ZM131.786 14.8763L133.33 14.0919L133.329 14.0912L131.786 14.8763ZM133.734 16.9279L133.078 18.5302L133.393 18.6591H133.734V16.9279ZM136.383 25.1168H134.331V28.5794H136.383V25.1168ZM136.062 26.8481V17.5771H132.6V26.8481H136.062ZM134.331 15.8458H133.5V19.3084H134.331V15.8458ZM132.746 16.0187C131.647 16.5505 130.904 17.6937 130.358 18.8226L133.474 20.3308C133.699 19.8664 133.898 19.55 134.059 19.3468C134.225 19.1369 134.299 19.1139 134.254 19.1355L132.746 16.0187ZM130.359 18.8203C129.66 20.2588 129.302 21.7718 129.302 23.3422H132.764C132.764 22.3158 132.995 21.3184 133.473 20.3331L130.359 18.8203ZM129.302 23.3422V26.8481H132.764V23.3422H129.302ZM131.033 25.1168H128.982V28.5794H131.033V25.1168ZM130.713 26.8481V23.3163H127.25V26.8481H130.713ZM130.713 23.3163C130.713 22.2678 130.917 21.2345 131.337 20.2054L128.132 18.8961C127.548 20.3254 127.25 21.8025 127.25 23.3163H130.713ZM131.333 20.2153C131.869 18.9261 132.356 18.7739 132.55 18.7492L132.113 15.3143C130.126 15.5666 128.881 17.0937 128.136 18.8861L131.333 20.2153ZM132.526 15.3115C132.372 15.294 131.963 15.1745 131.409 14.2322L128.424 15.9878C129.255 17.4 130.456 18.5617 132.137 18.752L132.526 15.3115ZM131.407 14.2301C130.904 13.3764 130.713 12.6561 130.713 12.0457H127.25C127.25 13.4089 127.683 14.7315 128.425 15.99L131.407 14.2301ZM130.713 12.0457C130.713 11.9257 130.749 11.5366 130.873 10.7595L127.454 10.2155C127.335 10.962 127.25 11.6116 127.25 12.0457H130.713ZM130.879 10.7214C130.869 10.7925 130.849 10.8583 130.824 10.9149C130.799 10.9703 130.774 11.0071 130.759 11.0259C130.733 11.0588 130.747 11.0272 130.867 10.9546L129.07 7.99484C128.357 8.42753 127.599 9.14666 127.448 10.2536L130.879 10.7214ZM130.886 10.9428C131.076 10.8239 131.178 10.8165 131.215 10.8165V7.3539C130.421 7.3539 129.691 7.60618 129.051 8.00659L130.886 10.9428ZM131.215 10.8165H136.383V7.3539H131.215V10.8165ZM134.651 9.08518V26.8481H138.114V9.08518H134.651ZM136.062 16.9279V9.7344H132.6V16.9279H136.062ZM134.331 8.00313H131.215V11.4657H134.331V8.00313ZM129.496 9.52338C129.372 10.5372 129.302 11.3967 129.302 12.0716H132.764C132.764 11.6039 132.815 10.9053 132.933 9.94543L129.496 9.52338ZM129.302 12.0716C129.302 13.2879 129.648 14.4917 130.243 15.6614L133.329 14.0912C132.92 13.2873 132.764 12.6212 132.764 12.0716H129.302ZM130.243 15.6607C130.886 16.9271 131.793 18.0046 133.078 18.5302L134.389 15.3255C134.151 15.2279 133.759 14.9376 133.33 14.0919L130.243 15.6607ZM133.734 18.6591H134.331V15.1966H133.734V18.6591Z" fill="#E3DFC5"/>
</svg>
