<svg width="220" height="36" viewBox="0 0 220 36" fill="none" xmlns="http://www.w3.org/2000/svg">
<path d="M8.85548 26H6.80392V8.88632H3.35002V26H1.29846V8.23709H8.85548V26ZM18.8439 11.9767C18.8439 13.4136 18.4543 14.738 17.6753 15.9499C16.7923 17.335 15.6756 18.0275 14.3252 18.0275H13.4942V26H11.4427V8.23709H16.5326C16.9481 8.23709 17.3636 8.33231 17.7791 8.52275C18.2639 8.74782 18.5322 9.04214 18.5842 9.4057C18.7573 10.7561 18.8439 11.6131 18.8439 11.9767ZM16.7923 12.0026C16.7923 11.3967 16.7057 10.3579 16.5326 8.88632H13.4942V17.3782H14.0915C14.8533 17.0666 15.5112 16.2875 16.0652 15.041C16.5499 13.9503 16.7923 12.9375 16.7923 12.0026ZM28.4845 26H26.433V14.7813L22.9791 19.1701V26H20.9275V8.23709H22.9791V17.7418L26.433 13.327V8.23709H28.4845V26ZM38.6287 26H36.5772V14.7813L33.1233 19.1701V26H31.0717V8.23709H33.1233V17.7418L36.5772 13.327V8.23709H38.6287V26ZM49.0066 23.2473C48.3834 24.5457 47.5004 25.4633 46.3578 26C46.15 26.0693 45.8384 26.2164 45.4229 26.4415C45.319 26.3376 44.9901 26.2078 44.4361 26.0519C43.8994 25.8961 43.5704 25.7749 43.4492 25.6884C42.497 24.9785 41.7699 23.5329 41.2678 21.3515C40.887 19.7241 40.6965 18.0707 40.6965 16.3914C40.6965 14.6255 40.8956 13.0674 41.2938 11.717C41.8478 9.77793 42.7567 8.61797 44.0206 8.23709H44.7996C44.9381 8.23709 45.1459 8.07262 45.4229 7.74368C45.7172 8.07262 45.925 8.23709 46.0462 8.23709H46.8252C47.864 8.63529 48.4873 10.0117 48.695 12.3662H46.6694C46.5655 11.3274 46.4876 10.7042 46.4357 10.4964C46.2453 9.71734 45.9077 9.19795 45.4229 8.93826C44.4015 9.35377 43.6483 10.4445 43.1636 12.2104C42.8173 13.4742 42.6529 14.8592 42.6702 16.3654C42.6875 17.9755 42.8952 19.5856 43.2934 21.1957C43.7955 23.2906 44.5053 24.7015 45.4229 25.4287C46.2539 24.7708 46.7473 24.0437 46.9031 23.2473H49.0066ZM58.4316 26H56.3801V21.9748C56.3801 20.6936 56.0857 19.525 55.4971 18.4689C55.0124 17.586 54.4843 17.006 53.913 16.729H53.082V26H51.0304V8.23709H53.082V16.0798H53.6793C54.4757 15.7508 55.1422 15.067 55.6789 14.0282C56.1463 13.0933 56.3801 12.1584 56.3801 11.2235V8.23709H58.4316V11.1976C58.4316 12.3575 58.1633 13.4136 57.6266 14.3658C57.0033 15.4738 56.155 16.0798 55.0816 16.1837C56.2069 16.3222 57.0726 17.0666 57.6785 18.417C58.1806 19.4904 58.4316 20.6677 58.4316 21.9488V26ZM79.6912 10.2627L79.5874 11.1976C79.4489 12.3748 79.1459 13.405 78.6784 14.2879C78.0552 15.4479 77.2415 16.0798 76.2373 16.1837C77.1203 16.2875 77.8994 16.8242 78.5746 17.7937C79.3536 18.9191 79.6912 20.3041 79.5874 21.9488L79.5354 22.8318H77.4839V22.1046L77.5098 22.3124C77.5271 22.3816 77.5358 22.2691 77.5358 21.9748C77.5358 20.6936 77.2415 19.525 76.6529 18.4689C76.1681 17.586 75.6401 17.006 75.0687 16.729H74.2377V16.0798H74.835C75.5795 15.7681 76.2114 15.0756 76.7308 14.0022C77.1636 13.1193 77.4319 12.1931 77.5358 11.2235L77.6397 10.2627H79.6912ZM75.0428 10.1588L74.9389 11.0937C74.8004 12.271 74.4974 13.3011 74.03 14.184C73.4067 15.344 72.593 15.9759 71.5889 16.0798C72.4718 16.1837 73.2509 16.7204 73.9261 17.6899C74.7052 18.8152 75.0428 20.2002 74.9389 21.8449L74.887 22.7279H72.8354V22.0007L72.8614 22.2085C72.8787 22.2778 72.8873 22.1652 72.8873 21.8709C72.8873 20.5898 72.593 19.4211 72.0044 18.3651C71.5196 17.4821 70.9916 16.9021 70.4203 16.6251H69.5892V15.9759H70.1865C70.931 15.6643 71.5629 14.9718 72.0823 13.8984C72.5151 13.0154 72.7834 12.0892 72.8873 11.1197L72.9912 10.1588H75.0428ZM90.7221 14.3658L88.7484 12.2623V8.88632H86.6189V26H84.5154V8.88632H82.36V14.3658L80.3604 16.4693V8.23709H90.7221V14.3658ZM102.07 16.9368C102.07 17.5773 101.464 18.0188 100.252 18.2612V24.8574L101.655 26H96.7984L98.1748 24.8574V20.2868L94.8507 23.5589V26H92.7992V16.9627C92.7992 14.6601 93.483 12.8683 94.8507 11.5871C95.8029 10.6868 96.911 10.1328 98.1748 9.92509V9.09407L96.7984 8.23709H101.655L100.252 9.09407V15.7162C101.464 15.9586 102.07 16.3654 102.07 16.9368ZM98.1748 19.0143V18.2872C97.0495 18.0448 96.4868 17.612 96.4868 16.9887C96.4868 16.3828 97.0495 15.9586 98.1748 15.7162V10.9639C96.8936 10.9639 95.9761 11.6996 95.4221 13.1712C95.0412 14.1927 94.8507 15.4652 94.8507 16.9887V22.3903L98.1748 19.0143ZM113.077 16.9368C113.077 17.5773 112.471 18.0188 111.259 18.2612V24.8574L112.661 26H107.805L109.181 24.8574V18.2872C108.056 18.0448 107.493 17.612 107.493 16.9887C107.493 16.3828 108.056 15.9586 109.181 15.7162V10.9639C107.9 10.9639 106.983 11.6996 106.429 13.1712C106.048 14.1927 105.857 15.4652 105.857 16.9887V26H103.806V16.9627C103.806 14.6601 104.489 12.8683 105.857 11.5871C106.809 10.6868 107.917 10.1328 109.181 9.92509V9.09407L107.805 8.23709H112.661L111.259 9.09407V15.7162C112.471 15.9586 113.077 16.3654 113.077 16.9368ZM124.083 16.9368C124.083 17.5773 123.477 18.0188 122.265 18.2612V24.8574L123.668 26H118.811L120.188 24.8574V20.2868L116.864 23.5589V26H114.812V16.9627C114.812 14.6601 115.496 12.8683 116.864 11.5871C117.816 10.6868 118.924 10.1328 120.188 9.92509V9.09407L118.811 8.23709H123.668L122.265 9.09407V15.7162C123.477 15.9586 124.083 16.3654 124.083 16.9368ZM120.188 19.0143V18.2872C119.062 18.0448 118.5 17.612 118.5 16.9887C118.5 16.3828 119.062 15.9586 120.188 15.7162V10.9639C118.907 10.9639 117.989 11.6996 117.435 13.1712C117.054 14.1927 116.864 15.4652 116.864 16.9887V22.3903L120.188 19.0143ZM132.908 26H130.857V22.0787C130.857 19.0489 130.311 17.283 129.221 16.7809C128.563 17.0753 128.121 17.6812 127.896 18.5988C127.706 19.3779 127.61 20.5378 127.61 22.0787V26H125.559V22.0787C125.559 20.5898 125.654 19.4558 125.845 18.6767C126.208 17.2397 126.901 16.4607 127.922 16.3395C126.918 16.2183 126.234 15.5777 125.87 14.4178C125.663 13.7252 125.559 12.7124 125.559 11.3794V8.23709H127.61V11.3794C127.61 12.7298 127.706 13.7426 127.896 14.4178C128.121 15.2141 128.563 15.7422 129.221 16.0019C130.311 15.5344 130.857 14.0022 130.857 11.4053V8.23709H132.908V11.4053C132.908 14.5563 132.12 16.2096 130.545 16.3654C132.12 16.5559 132.908 18.4689 132.908 22.1046V26ZM145.095 14.3658L143.121 12.2623V8.88632H140.992V26H138.888V8.88632H136.733V14.3658L134.733 16.4693V8.23709H145.095V14.3658ZM156.443 16.9368C156.443 17.5773 155.837 18.0188 154.625 18.2612V24.8574L156.028 26H151.171L152.548 24.8574V20.2868L149.224 23.5589V26H147.172V16.9627C147.172 14.6601 147.856 12.8683 149.224 11.5871C150.176 10.6868 151.284 10.1328 152.548 9.92509V9.09407L151.171 8.23709H156.028L154.625 9.09407V15.7162C155.837 15.9586 156.443 16.3654 156.443 16.9368ZM152.548 19.0143V18.2872C151.422 18.0448 150.86 17.612 150.86 16.9887C150.86 16.3828 151.422 15.9586 152.548 15.7162V10.9639C151.267 10.9639 150.349 11.6996 149.795 13.1712C149.414 14.1927 149.224 15.4652 149.224 16.9887V22.3903L152.548 19.0143ZM165.268 26H163.217V22.0787C163.217 19.0489 162.671 17.283 161.581 16.7809C160.923 17.0753 160.481 17.6812 160.256 18.5988C160.066 19.3779 159.97 20.5378 159.97 22.0787V26H157.919V22.0787C157.919 20.5898 158.014 19.4558 158.205 18.6767C158.568 17.2397 159.261 16.4607 160.282 16.3395C159.278 16.2183 158.594 15.5777 158.231 14.4178C158.023 13.7252 157.919 12.7124 157.919 11.3794V8.23709H159.97V11.3794C159.97 12.7298 160.066 13.7426 160.256 14.4178C160.481 15.2141 160.923 15.7422 161.581 16.0019C162.671 15.5344 163.217 14.0022 163.217 11.4053V8.23709H165.268V11.4053C165.268 14.5563 164.48 16.2096 162.905 16.3654C164.48 16.5559 165.268 18.4689 165.268 22.1046V26ZM176.416 16.6251H175.585C175.014 16.9021 174.486 17.4821 174.001 18.3651C173.412 19.4211 173.118 20.5898 173.118 21.8709C173.118 22.1652 173.127 22.2778 173.144 22.2085L173.17 22.0007V22.7279H171.119L171.067 21.8449C170.963 20.2002 171.3 18.8152 172.079 17.6899C172.755 16.7204 173.534 16.1837 174.417 16.0798C173.412 15.9759 172.599 15.344 171.976 14.184C171.508 13.3011 171.205 12.271 171.067 11.0937L170.963 10.1588H173.014L173.118 11.1197C173.222 12.0892 173.49 13.0154 173.923 13.8984C174.443 14.9718 175.074 15.6643 175.819 15.9759H176.416V16.6251ZM171.768 16.729H170.937C170.365 17.006 169.837 17.586 169.353 18.4689C168.764 19.525 168.47 20.6936 168.47 21.9748C168.47 22.2691 168.478 22.3816 168.496 22.3124L168.522 22.1046V22.8318H166.47L166.418 21.9488C166.314 20.3041 166.652 18.9191 167.431 17.7937C168.106 16.8242 168.885 16.2875 169.768 16.1837C168.764 16.0798 167.95 15.4479 167.327 14.2879C166.86 13.405 166.557 12.3748 166.418 11.1976L166.314 10.2627H168.366L168.47 11.2235C168.574 12.1931 168.842 13.1193 169.275 14.0022C169.794 15.0756 170.426 15.7681 171.17 16.0798H171.768V16.729Z" fill="#551018"/>
<path d="M8.85548 26V27.7313H10.5868V26H8.85548ZM6.80392 26H5.07264V27.7313H6.80392V26ZM6.80392 8.88632H8.5352V7.15504H6.80392V8.88632ZM3.35002 8.88632V7.15504H1.61874V8.88632H3.35002ZM3.35002 26V27.7313H5.0813V26H3.35002ZM1.29846 26H-0.432819V27.7313H1.29846V26ZM1.29846 8.23709V6.50582H-0.432819V8.23709H1.29846ZM8.85548 8.23709H10.5868V6.50582H8.85548V8.23709ZM8.85548 24.2687H6.80392V27.7313H8.85548V24.2687ZM8.5352 26V8.88632H5.07264V26H8.5352ZM6.80392 7.15504H3.35002V10.6176H6.80392V7.15504ZM1.61874 8.88632V26H5.0813V8.88632H1.61874ZM3.35002 24.2687H1.29846V27.7313H3.35002V24.2687ZM3.02974 26V8.23709H-0.432819V26H3.02974ZM1.29846 9.96837H8.85548V6.50582H1.29846V9.96837ZM7.12421 8.23709V26H10.5868V8.23709H7.12421ZM17.6753 15.9499L16.2189 15.0137L16.2154 15.0193L17.6753 15.9499ZM13.4942 18.0275V16.2962H11.7629V18.0275H13.4942ZM13.4942 26V27.7313H15.2255V26H13.4942ZM11.4427 26H9.71138V27.7313H11.4427V26ZM11.4427 8.23709V6.50582H9.71138V8.23709H11.4427ZM17.7791 8.52275L18.5082 6.95245L18.5005 6.94891L17.7791 8.52275ZM18.5842 9.4057L20.3014 9.18555L20.2998 9.17319L20.2981 9.16086L18.5842 9.4057ZM16.5326 8.88632L18.252 8.68404L18.0722 7.15504H16.5326V8.88632ZM13.4942 8.88632V7.15504H11.7629V8.88632H13.4942ZM13.4942 17.3782H11.7629V19.1095H13.4942V17.3782ZM14.0915 17.3782V19.1095H14.4319L14.747 18.9806L14.0915 17.3782ZM16.0652 15.041L17.6472 15.7442V15.7442L16.0652 15.041ZM17.1126 11.9767C17.1126 13.0807 16.819 14.0803 16.2189 15.0137L19.1316 16.8861C20.0897 15.3958 20.5752 13.7465 20.5752 11.9767H17.1126ZM16.2154 15.0193C15.571 16.03 14.9503 16.2962 14.3252 16.2962V19.7587C16.4009 19.7587 18.0136 18.6399 19.1351 16.8806L16.2154 15.0193ZM14.3252 16.2962H13.4942V19.7587H14.3252V16.2962ZM11.7629 18.0275V26H15.2255V18.0275H11.7629ZM13.4942 24.2687H11.4427V27.7313H13.4942V24.2687ZM13.1739 26V8.23709H9.71138V26H13.1739ZM11.4427 9.96837H16.5326V6.50582H11.4427V9.96837ZM16.5326 9.96837C16.6752 9.96837 16.8458 9.99941 17.0578 10.0966L18.5005 6.94891C17.8815 6.66521 17.2211 6.50582 16.5326 6.50582V9.96837ZM17.0501 10.093C17.1513 10.14 17.1284 10.1487 17.0646 10.0787C17.0301 10.0408 16.9865 9.98291 16.948 9.90384C16.909 9.82366 16.8827 9.73708 16.8703 9.65054L20.2981 9.16086C20.1295 7.98113 19.2639 7.30331 18.5082 6.95247L17.0501 10.093ZM16.867 9.62586C17.0447 11.0124 17.1126 11.7474 17.1126 11.9767H20.5752C20.5752 11.4788 20.4699 10.4998 20.3014 9.18555L16.867 9.62586ZM18.5236 12.0026C18.5236 11.2841 18.425 10.1545 18.252 8.68404L14.8132 9.08861C14.9865 10.5614 15.061 11.5092 15.061 12.0026H18.5236ZM16.5326 7.15504H13.4942V10.6176H16.5326V7.15504ZM11.7629 8.88632V17.3782H15.2255V8.88632H11.7629ZM13.4942 19.1095H14.0915V15.647H13.4942V19.1095ZM14.747 18.9806C16.1217 18.4182 17.0242 17.146 17.6472 15.7442L14.4831 14.3379C13.9981 15.429 13.5848 15.715 13.436 15.7759L14.747 18.9806ZM17.6472 15.7442C18.2042 14.4911 18.5236 13.2369 18.5236 12.0026H15.061C15.061 12.6381 14.8957 13.4096 14.4831 14.3379L17.6472 15.7442ZM28.4845 26V27.7313H30.2158V26H28.4845ZM26.433 26H24.7017V27.7313H26.433V26ZM26.433 14.7813H28.1642V9.78199L25.0725 13.7106L26.433 14.7813ZM22.9791 19.1701L21.6186 18.0994L21.2478 18.5706V19.1701H22.9791ZM22.9791 26V27.7313H24.7103V26H22.9791ZM20.9275 26H19.1962V27.7313H20.9275V26ZM20.9275 8.23709V6.50582H19.1962V8.23709H20.9275ZM22.9791 8.23709H24.7103V6.50582H22.9791V8.23709ZM22.9791 17.7418H21.2478V22.7644L24.3426 18.8086L22.9791 17.7418ZM26.433 13.327L27.7965 14.3938L28.1642 13.9238V13.327H26.433ZM26.433 8.23709V6.50582H24.7017V8.23709H26.433ZM28.4845 8.23709H30.2158V6.50582H28.4845V8.23709ZM28.4845 24.2687H26.433V27.7313H28.4845V24.2687ZM28.1642 26V14.7813H24.7017V26H28.1642ZM25.0725 13.7106L21.6186 18.0994L24.3396 20.2408L27.7935 15.852L25.0725 13.7106ZM21.2478 19.1701V26H24.7103V19.1701H21.2478ZM22.9791 24.2687H20.9275V27.7313H22.9791V24.2687ZM22.6588 26V8.23709H19.1962V26H22.6588ZM20.9275 9.96837H22.9791V6.50582H20.9275V9.96837ZM21.2478 8.23709V17.7418H24.7103V8.23709H21.2478ZM24.3426 18.8086L27.7965 14.3938L25.0694 12.2603L21.6155 16.675L24.3426 18.8086ZM28.1642 13.327V8.23709H24.7017V13.327H28.1642ZM26.433 9.96837H28.4845V6.50582H26.433V9.96837ZM26.7532 8.23709V26H30.2158V8.23709H26.7532ZM38.6287 26V27.7313H40.36V26H38.6287ZM36.5772 26H34.8459V27.7313H36.5772V26ZM36.5772 14.7813H38.3084V9.78199L35.2167 13.7106L36.5772 14.7813ZM33.1233 19.1701L31.7628 18.0994L31.392 18.5706V19.1701H33.1233ZM33.1233 26V27.7313H34.8545V26H33.1233ZM31.0717 26H29.3404V27.7313H31.0717V26ZM31.0717 8.23709V6.50582H29.3404V8.23709H31.0717ZM33.1233 8.23709H34.8545V6.50582H33.1233V8.23709ZM33.1233 17.7418H31.392V22.7644L34.4868 18.8086L33.1233 17.7418ZM36.5772 13.327L37.9407 14.3938L38.3084 13.9238V13.327H36.5772ZM36.5772 8.23709V6.50582H34.8459V8.23709H36.5772ZM38.6287 8.23709H40.36V6.50582H38.6287V8.23709ZM38.6287 24.2687H36.5772V27.7313H38.6287V24.2687ZM38.3084 26V14.7813H34.8459V26H38.3084ZM35.2167 13.7106L31.7628 18.0994L34.4838 20.2408L37.9377 15.852L35.2167 13.7106ZM31.392 19.1701V26H34.8545V19.1701H31.392ZM33.1233 24.2687H31.0717V27.7313H33.1233V24.2687ZM32.803 26V8.23709H29.3404V26H32.803ZM31.0717 9.96837H33.1233V6.50582H31.0717V9.96837ZM31.392 8.23709V17.7418H34.8545V8.23709H31.392ZM34.4868 18.8086L37.9407 14.3938L35.2136 12.2603L31.7597 16.675L34.4868 18.8086ZM38.3084 13.327V8.23709H34.8459V13.327H38.3084ZM36.5772 9.96837H38.6287V6.50582H36.5772V9.96837ZM36.8974 8.23709V26H40.36V8.23709H36.8974ZM49.0066 23.2473L50.5674 23.9964L51.7581 21.516H49.0066V23.2473ZM46.3578 26L46.9053 27.6424L47.0018 27.6103L47.0938 27.567L46.3578 26ZM45.4229 26.4415L44.1987 27.6657L45.1119 28.5789L46.2475 27.9638L45.4229 26.4415ZM44.4361 26.0519L43.9534 27.7146L43.9604 27.7166L43.9673 27.7186L44.4361 26.0519ZM43.4492 25.6884L42.4145 27.0764L42.4286 27.0869L42.443 27.0972L43.4492 25.6884ZM41.2678 21.3515L42.955 20.9632L42.9536 20.957L41.2678 21.3515ZM41.2938 11.717L42.9544 12.2066L42.9565 12.1996L42.9585 12.1926L41.2938 11.717ZM44.0206 8.23709V6.50582H43.7654L43.521 6.57946L44.0206 8.23709ZM45.4229 7.74368L46.7131 6.58927L45.3833 5.10298L44.0986 6.6285L45.4229 7.74368ZM46.8252 8.23709L47.4449 6.62052L47.1457 6.50582H46.8252V8.23709ZM48.695 12.3662V14.0975H50.5858L50.4196 12.214L48.695 12.3662ZM46.6694 12.3662L44.9467 12.5385L45.1026 14.0975H46.6694V12.3662ZM46.4357 10.4964L44.7539 10.9075L44.7561 10.9163L46.4357 10.4964ZM45.4229 8.93826L46.2405 7.41217L45.5237 7.02821L44.7706 7.33459L45.4229 8.93826ZM43.1636 12.2104L41.4941 11.7521L41.4938 11.7529L43.1636 12.2104ZM42.6702 16.3654L44.4014 16.3468L44.4013 16.3455L42.6702 16.3654ZM43.2934 21.1957L44.9771 20.7922L44.9741 20.7801L43.2934 21.1957ZM45.4229 25.4287L44.3476 26.7856L45.4224 27.6372L46.4975 26.7861L45.4229 25.4287ZM46.9031 23.2473V21.516H45.4778L45.2041 22.9148L46.9031 23.2473ZM47.4459 22.4981C46.9695 23.4906 46.3533 24.0894 45.6218 24.433L47.0938 27.567C48.6476 26.8372 49.7973 25.6009 50.5674 23.9964L47.4459 22.4981ZM45.8103 24.3576C45.4493 24.4779 45.0252 24.688 44.5983 24.9192L46.2475 27.9638C46.6517 27.7448 46.8508 27.6606 46.9053 27.6424L45.8103 24.3576ZM46.6471 25.2173C46.3144 24.8846 45.893 24.7186 45.734 24.6558C45.4918 24.5602 45.2081 24.4706 44.9048 24.3853L43.9673 27.7186C44.0892 27.7528 44.1917 27.7837 44.2765 27.8111C44.3622 27.8389 44.4228 27.8608 44.4626 27.8765C44.506 27.8937 44.5065 27.8962 44.4802 27.8821C44.4659 27.8743 44.4338 27.8563 44.3909 27.8268C44.3504 27.7989 44.2794 27.7464 44.1987 27.6657L46.6471 25.2173ZM44.9188 24.3893C44.6695 24.3169 44.4962 24.2605 44.3854 24.2197C44.3591 24.21 44.3392 24.2022 44.3248 24.1964C44.3102 24.1905 44.304 24.1876 44.3046 24.1879C44.3051 24.1881 44.3082 24.1895 44.3136 24.1922C44.3189 24.1949 44.3275 24.1993 44.3388 24.2055C44.3586 24.2164 44.4011 24.2407 44.4555 24.2796L42.443 27.0972C42.7112 27.2888 43.0212 27.4072 43.1883 27.4687C43.4064 27.5491 43.6659 27.6311 43.9534 27.7146L44.9188 24.3893ZM44.484 24.3003C44.0479 23.9752 43.4362 23.0538 42.955 20.9632L39.5807 21.7398C40.1036 24.012 40.9462 25.9819 42.4145 27.0764L44.484 24.3003ZM42.9536 20.957C42.6031 19.4595 42.4278 17.9386 42.4278 16.3914H38.9652C38.9652 18.2029 39.1708 19.9887 39.5821 21.7461L42.9536 20.957ZM42.4278 16.3914C42.4278 14.7512 42.6132 13.3637 42.9544 12.2066L39.6332 11.2273C39.178 12.7711 38.9652 14.4999 38.9652 16.3914H42.4278ZM42.9585 12.1926C43.441 10.5038 44.0762 10.0285 44.5201 9.89473L43.521 6.57946C41.4373 7.20742 40.2547 9.05204 39.6291 11.2413L42.9585 12.1926ZM44.0206 9.96837H44.7996V6.50582H44.0206V9.96837ZM44.7996 9.96837C45.4826 9.96837 45.9644 9.60534 46.1339 9.47114C46.3674 9.28632 46.5739 9.06465 46.7472 8.85886L44.0986 6.6285C43.9949 6.75165 43.959 6.77668 43.9847 6.75634C43.9994 6.74475 44.0638 6.69465 44.1737 6.64243C44.2787 6.59253 44.4984 6.50582 44.7996 6.50582V9.96837ZM44.1327 8.89809C44.3085 9.09463 44.5094 9.30055 44.7248 9.47114C44.833 9.55679 44.982 9.66336 45.1648 9.75476C45.333 9.83884 45.644 9.96837 46.0462 9.96837V6.50582C46.3878 6.50582 46.6274 6.61479 46.7133 6.65775C46.8138 6.70803 46.8698 6.75293 46.8741 6.75634C46.8818 6.76246 46.8316 6.72167 46.7131 6.58927L44.1327 8.89809ZM46.0462 9.96837H46.8252V6.50582H46.0462V9.96837ZM46.2056 9.85367C46.206 9.85384 46.2065 9.85406 46.2075 9.85456C46.2085 9.85507 46.2107 9.85634 46.2145 9.85891C46.2216 9.86378 46.2381 9.87627 46.2628 9.90262C46.314 9.95732 46.3988 10.0704 46.4946 10.2822C46.6936 10.7216 46.8752 11.4385 46.9704 12.5184L50.4196 12.214C50.3071 10.9394 50.0732 9.79079 49.6489 8.85385C49.2183 7.90288 48.5239 7.03411 47.4449 6.62052L46.2056 9.85367ZM48.695 10.6349H46.6694V14.0975H48.695V10.6349ZM48.3921 12.1939C48.2946 11.2185 48.2056 10.4378 48.1153 10.0765L44.7561 10.9163C44.7526 10.9024 44.7743 11.0071 44.8152 11.3344C44.8516 11.6257 44.8954 12.0253 44.9467 12.5385L48.3921 12.1939ZM48.1175 10.0853C47.8647 9.05122 47.326 7.99372 46.2405 7.41217L44.6054 10.4643C44.5596 10.4398 44.5578 10.4195 44.5881 10.4661C44.6247 10.5224 44.6921 10.6543 44.7539 10.9075L48.1175 10.0853ZM44.7706 7.33459C42.9964 8.05629 42.0283 9.80609 41.4941 11.7521L44.8331 12.6687C45.2684 11.0829 45.8065 10.6512 46.0752 10.5419L44.7706 7.33459ZM41.4938 11.7529C41.0992 13.1934 40.9201 14.7415 40.939 16.3853L44.4013 16.3455C44.3856 14.977 44.5355 13.755 44.8333 12.6678L41.4938 11.7529ZM40.939 16.3841C40.9578 18.132 41.1834 19.8752 41.6128 21.6113L44.9741 20.7801C44.6071 19.296 44.4172 17.8191 44.4014 16.3468L40.939 16.3841ZM41.6098 21.5992C42.1358 23.7939 42.9604 25.6862 44.3476 26.7856L46.4982 24.0718C46.0503 23.7169 45.4552 22.7872 44.977 20.7922L41.6098 21.5992ZM46.4975 26.7861C47.5514 25.9517 48.3455 24.8918 48.6022 23.5797L45.2041 22.9148C45.1492 23.1956 44.9564 23.5899 44.3483 24.0713L46.4975 26.7861ZM46.9031 24.9785H49.0066V21.516H46.9031V24.9785ZM58.4316 26V27.7313H60.1629V26H58.4316ZM56.3801 26H54.6488V27.7313H56.3801V26ZM55.4971 18.4689L53.9795 19.3022L53.9849 19.3118L55.4971 18.4689ZM53.913 16.729L54.6683 15.1712L54.3106 14.9977H53.913V16.729ZM53.082 16.729V14.9977H51.3507V16.729H53.082ZM53.082 26V27.7313H54.8133V26H53.082ZM51.0304 26H49.2991V27.7313H51.0304V26ZM51.0304 8.23709V6.50582H49.2991V8.23709H51.0304ZM53.082 8.23709H54.8133V6.50582H53.082V8.23709ZM53.082 16.0798H51.3507V17.8111H53.082V16.0798ZM53.6793 16.0798V17.8111H54.0227L54.3402 17.6799L53.6793 16.0798ZM55.6789 14.0282L57.217 14.8229L57.2223 14.8127L57.2274 14.8025L55.6789 14.0282ZM56.3801 8.23709V6.50582H54.6488V8.23709H56.3801ZM58.4316 8.23709H60.1629V6.50582H58.4316V8.23709ZM57.6266 14.3658L56.1184 13.5157L56.1176 13.517L57.6266 14.3658ZM55.0816 16.1837L54.9148 14.4604L54.8701 17.902L55.0816 16.1837ZM57.6785 18.417L56.099 19.1258L56.1045 19.1382L56.1103 19.1505L57.6785 18.417ZM58.4316 24.2687H56.3801V27.7313H58.4316V24.2687ZM58.1113 26V21.9748H54.6488V26H58.1113ZM58.1113 21.9748C58.1113 20.4168 57.7502 18.9553 57.0094 17.6261L53.9849 19.3118C54.4213 20.0948 54.6488 20.9705 54.6488 21.9748H58.1113ZM57.0147 17.6357C56.4507 16.6085 55.7021 15.6724 54.6683 15.1712L53.1577 18.2868C53.2665 18.3396 53.574 18.5635 53.9795 19.3021L57.0147 17.6357ZM53.913 14.9977H53.082V18.4603H53.913V14.9977ZM51.3507 16.729V26H54.8133V16.729H51.3507ZM53.082 24.2687H51.0304V27.7313H53.082V24.2687ZM52.7617 26V8.23709H49.2991V26H52.7617ZM51.0304 9.96837H53.082V6.50582H51.0304V9.96837ZM51.3507 8.23709V16.0798H54.8133V8.23709H51.3507ZM53.082 17.8111H53.6793V14.3485H53.082V17.8111ZM54.3402 17.6799C55.6314 17.1466 56.5596 16.0953 57.217 14.8229L54.1408 13.2335C53.7248 14.0386 53.32 14.355 53.0183 14.4796L54.3402 17.6799ZM57.2274 14.8025C57.8007 13.6559 58.1113 12.4575 58.1113 11.2235H54.6488C54.6488 11.8593 54.492 12.5308 54.1304 13.254L57.2274 14.8025ZM58.1113 11.2235V8.23709H54.6488V11.2235H58.1113ZM56.3801 9.96837H58.4316V6.50582H56.3801V9.96837ZM56.7004 8.23709V11.1976H60.1629V8.23709H56.7004ZM56.7004 11.1976C56.7004 12.0786 56.4998 12.839 56.1184 13.5157L59.1348 15.2159C59.8267 13.9883 60.1629 12.6365 60.1629 11.1976H56.7004ZM56.1176 13.517C55.715 14.2328 55.3184 14.4214 54.9148 14.4604L55.2484 17.9069C56.9916 17.7382 58.2916 16.7149 59.1355 15.2146L56.1176 13.517ZM54.8701 17.902C55.2113 17.944 55.6549 18.1361 56.099 19.1258L59.2581 17.7082C58.4903 15.9971 57.2025 14.7004 55.2931 14.4653L54.8701 17.902ZM56.1103 19.1505C56.4965 19.9761 56.7004 20.9003 56.7004 21.9488H60.1629C60.1629 20.4351 59.8647 19.0047 59.2467 17.6835L56.1103 19.1505ZM56.7004 21.9488V26H60.1629V21.9488H56.7004ZM79.6912 10.2627L81.4119 10.4539L81.6255 8.53141H79.6912V10.2627ZM79.5874 11.1976L81.3068 11.3999L81.3081 11.3888L79.5874 11.1976ZM78.6785 14.2879L80.2035 15.1074L80.2085 15.0979L78.6785 14.2879ZM76.2374 16.1837L76.0592 14.4616L76.0351 17.9031L76.2374 16.1837ZM78.5746 17.7937L79.998 16.8083L79.9953 16.8043L78.5746 17.7937ZM79.5874 21.9488L77.8595 21.8397L77.8591 21.8471L79.5874 21.9488ZM79.5354 22.8318V24.563H81.1679L81.2637 22.9334L79.5354 22.8318ZM77.4839 22.8318H75.7526V24.563H77.4839V22.8318ZM77.4839 22.1046L79.2018 21.8899L75.7526 22.1046H77.4839ZM77.5098 22.3124L75.7919 22.5271L75.8049 22.6309L75.8303 22.7323L77.5098 22.3124ZM76.6529 18.4689L75.1352 19.3022L75.1406 19.3118L76.6529 18.4689ZM75.0687 16.729L75.824 15.1712L75.4663 14.9977H75.0687V16.729ZM74.2377 16.729H72.5064V18.4603H74.2377V16.729ZM74.2377 16.0798V14.3485H72.5064V16.0798H74.2377ZM74.835 16.0798V17.8111H75.1828L75.5035 17.6768L74.835 16.0798ZM76.7308 14.0022L75.1762 13.2402L75.1723 13.2482L76.7308 14.0022ZM77.5358 11.2235L75.8146 11.0375L75.8144 11.0391L77.5358 11.2235ZM77.6397 10.2627V8.53141H76.0855L75.9184 10.0766L77.6397 10.2627ZM75.0428 10.1588L76.7635 10.35L76.9771 8.42753H75.0428V10.1588ZM74.9389 11.0937L76.6583 11.296L76.6596 11.2849L74.9389 11.0937ZM74.03 14.184L75.5551 15.0035L75.5601 14.9941L74.03 14.184ZM71.5889 16.0798L71.4107 14.3577L71.3866 17.7992L71.5889 16.0798ZM73.9261 17.6899L75.3495 16.7044L75.3468 16.7005L73.9261 17.6899ZM74.9389 21.8449L73.211 21.7358L73.2106 21.7433L74.9389 21.8449ZM74.8869 22.7279V24.4592H76.5194L76.6152 22.8295L74.8869 22.7279ZM72.8354 22.7279H71.1041V24.4592H72.8354V22.7279ZM72.8354 22.0007L74.5533 21.786L71.1041 22.0007H72.8354ZM72.8614 22.2085L71.1434 22.4232L71.1564 22.527L71.1818 22.6284L72.8614 22.2085ZM72.0044 18.3651L70.4867 19.1983L70.4921 19.208L72.0044 18.3651ZM70.4203 16.6251L71.1756 15.0673L70.8178 14.8939H70.4203V16.6251ZM69.5892 16.6251H67.858V18.3564H69.5892V16.6251ZM69.5892 15.9759V14.2446H67.858V15.9759H69.5892ZM70.1865 15.9759V17.7072H70.5343L70.855 17.5729L70.1865 15.9759ZM72.0823 13.8984L70.5277 13.1363L70.5239 13.1443L72.0823 13.8984ZM72.8873 11.1197L71.1661 10.9336L71.1659 10.9352L72.8873 11.1197ZM72.9912 10.1588V8.42753H71.437L71.27 9.97273L72.9912 10.1588ZM77.9706 10.0715L77.8667 11.0064L81.3081 11.3888L81.4119 10.4539L77.9706 10.0715ZM77.868 10.9953C77.7499 11.9988 77.4989 12.8158 77.1484 13.4779L80.2085 15.0979C80.7929 13.9942 81.1478 12.7509 81.3068 11.3999L77.868 10.9953ZM77.1534 13.4685C76.7097 14.2942 76.323 14.4343 76.0592 14.4616L76.4155 17.9057C78.16 17.7253 79.4007 16.6015 80.2035 15.1073L77.1534 13.4685ZM76.0351 17.9031C76.278 17.9317 76.6635 18.0791 77.1539 18.7832L79.9953 16.8043C79.1352 15.5694 77.9626 14.6434 76.4396 14.4642L76.0351 17.9031ZM77.1511 18.7792C77.6659 19.5227 77.944 20.5017 77.8595 21.8397L81.3152 22.0579C81.4385 20.1065 81.0414 18.3154 79.998 16.8083L77.1511 18.7792ZM77.8591 21.8471L77.8071 22.7301L81.2637 22.9334L81.3157 22.0505L77.8591 21.8471ZM79.5354 21.1005H77.4839V24.563H79.5354V21.1005ZM79.2151 22.8318V22.1046H75.7526V22.8318H79.2151ZM75.766 22.3194L75.7919 22.5271L79.2277 22.0976L79.2018 21.8899L75.766 22.3194ZM75.8303 22.7323C75.8389 22.767 75.8543 22.8247 75.8783 22.8935C75.8959 22.9439 75.9487 23.0918 76.0553 23.2593C76.1092 23.3439 76.2168 23.498 76.3947 23.6495C76.5751 23.8032 76.9098 24.0217 77.3859 24.0583C78.4411 24.1395 78.9417 23.3277 79.0058 23.221C79.131 23.0122 79.1814 22.8259 79.1957 22.7727C79.2171 22.693 79.2288 22.627 79.2348 22.5893C79.2472 22.5129 79.2528 22.4479 79.2555 22.4127C79.2656 22.2816 79.2671 22.1179 79.2671 21.9748H75.8045C75.8045 22.126 75.8017 22.1657 75.8031 22.1471C75.8037 22.1401 75.8069 22.0975 75.8165 22.0379C75.8212 22.0086 75.8315 21.9496 75.8514 21.8754C75.8642 21.8277 75.913 21.6456 76.0366 21.4395C76.0991 21.3355 76.598 20.525 77.6514 20.606C78.1266 20.6425 78.4605 20.8607 78.64 21.0136C78.8169 21.1643 78.9236 21.3172 78.9765 21.4003C79.0813 21.5649 79.1321 21.7084 79.1477 21.753C79.1696 21.816 79.1829 21.8664 79.1894 21.8925L75.8303 22.7323ZM79.2671 21.9748C79.2671 20.4168 78.906 18.9553 78.1651 17.6261L75.1406 19.3118C75.577 20.0948 75.8045 20.9705 75.8045 21.9748H79.2671ZM78.1705 17.6357C77.6065 16.6085 76.8578 15.6724 75.824 15.1712L74.3134 18.2868C74.4223 18.3396 74.7297 18.5635 75.1353 19.3021L78.1705 17.6357ZM75.0687 14.9977H74.2377V18.4603H75.0687V14.9977ZM75.969 16.729V16.0798H72.5064V16.729H75.969ZM74.2377 17.8111H74.835V14.3485H74.2377V17.8111ZM75.5035 17.6768C76.7872 17.1394 77.6716 16.0326 78.2892 14.7563L75.1723 13.2482C74.7511 14.1187 74.3717 14.3969 74.1665 14.4828L75.5035 17.6768ZM78.2853 14.7643C78.8062 13.7016 79.1317 12.58 79.2572 11.408L75.8144 11.0391C75.7322 11.8061 75.5209 12.537 75.1762 13.2402L78.2853 14.7643ZM79.2571 11.4096L79.3609 10.4488L75.9184 10.0766L75.8146 11.0375L79.2571 11.4096ZM77.6397 11.994H79.6912V8.53141H77.6397V11.994ZM73.3221 9.96762L73.2182 10.9025L76.6596 11.2849L76.7635 10.35L73.3221 9.96762ZM73.2195 10.8914C73.1014 11.8949 72.8504 12.7119 72.4999 13.374L75.5601 14.9941C76.1444 13.8903 76.4994 12.647 76.6583 11.296L73.2195 10.8914ZM72.5049 13.3646C72.0612 14.1903 71.6745 14.3304 71.4107 14.3577L71.767 17.8019C73.5115 17.6214 74.7522 16.4976 75.555 15.0035L72.5049 13.3646ZM71.3866 17.7992C71.6296 17.8278 72.0151 17.9752 72.5054 18.6793L75.3468 16.7005C74.4867 15.4655 73.3141 14.5395 71.7912 14.3604L71.3866 17.7992ZM72.5026 18.6753C73.0174 19.4188 73.2956 20.3978 73.2111 21.7358L76.6667 21.9541C76.79 20.0026 76.393 18.2116 75.3495 16.7044L72.5026 18.6753ZM73.2106 21.7433L73.1587 22.6262L76.6152 22.8295L76.6672 21.9466L73.2106 21.7433ZM74.8869 20.9966H72.8354V24.4592H74.8869V20.9966ZM74.5667 22.7279V22.0007H71.1041V22.7279H74.5667ZM71.1175 22.2155L71.1434 22.4232L74.5793 21.9938L74.5533 21.786L71.1175 22.2155ZM71.1818 22.6284C71.1905 22.6632 71.2058 22.7208 71.2298 22.7896C71.2474 22.84 71.3002 22.9879 71.4068 23.1554C71.4607 23.24 71.5683 23.3941 71.7462 23.5456C71.9266 23.6993 72.2613 23.9178 72.7374 23.9545C73.7926 24.0356 74.2933 23.2238 74.3573 23.1171C74.4826 22.9083 74.5329 22.722 74.5472 22.6688C74.5686 22.5891 74.5803 22.5231 74.5864 22.4854C74.5987 22.409 74.6043 22.344 74.607 22.3088C74.6171 22.1777 74.6186 22.014 74.6186 21.8709H71.156C71.156 22.0221 71.1532 22.0618 71.1547 22.0433C71.1552 22.0362 71.1584 21.9937 71.168 21.934C71.1727 21.9047 71.183 21.8457 71.2029 21.7715C71.2157 21.7239 71.2645 21.5417 71.3882 21.3356C71.4506 21.2316 71.9495 20.4211 73.003 20.5021C73.4781 20.5387 73.812 20.7568 73.9915 20.9097C74.1685 21.0605 74.2752 21.2133 74.3281 21.2965C74.4328 21.461 74.4836 21.6045 74.4992 21.6491C74.5211 21.7121 74.5344 21.7625 74.5409 21.7886L71.1818 22.6284ZM74.6186 21.8709C74.6186 20.3129 74.2575 18.8514 73.5166 17.5222L70.4921 19.208C70.9285 19.9909 71.156 20.8666 71.156 21.8709H74.6186ZM73.522 17.5319C72.958 16.5046 72.2094 15.5685 71.1756 15.0673L69.6649 18.183C69.7738 18.2357 70.0812 18.4596 70.4868 19.1983L73.522 17.5319ZM70.4203 14.8939H69.5892V18.3564H70.4203V14.8939ZM71.3205 16.6251V15.9759H67.858V16.6251H71.3205ZM69.5892 17.7072H70.1865V14.2446H69.5892V17.7072ZM70.855 17.5729C72.1387 17.0355 73.0232 15.9287 73.6407 14.6524L70.5239 13.1443C70.1026 14.0148 69.7232 14.293 69.518 14.3789L70.855 17.5729ZM73.6368 14.6604C74.1578 13.5977 74.4832 12.4761 74.6087 11.3041L71.1659 10.9352C71.0837 11.7022 70.8724 12.4331 70.5277 13.1363L73.6368 14.6604ZM74.6086 11.3058L74.7124 10.3449L71.27 9.97273L71.1661 10.9336L74.6086 11.3058ZM72.9912 11.8901H75.0428V8.42753H72.9912V11.8901ZM90.7221 14.3658L89.4595 15.5504L92.4533 18.7412V14.3658H90.7221ZM88.7484 12.2623H87.0171V12.9474L87.4859 13.4469L88.7484 12.2623ZM88.7484 8.88632H90.4797V7.15504H88.7484V8.88632ZM86.6189 8.88632V7.15504H84.8876V8.88632H86.6189ZM86.6189 26V27.7313H88.3502V26H86.6189ZM84.5154 26H82.7841V27.7313H84.5154V26ZM84.5154 8.88632H86.2467V7.15504H84.5154V8.88632ZM82.36 8.88632V7.15504H80.6287V8.88632H82.36ZM82.36 14.3658L83.6148 15.5586L84.0913 15.0574V14.3658H82.36ZM80.3604 16.4693H78.6291V20.8033L81.6152 17.6621L80.3604 16.4693ZM80.3604 8.23709V6.50582H78.6291V8.23709H80.3604ZM90.7221 8.23709H92.4533V6.50582H90.7221V8.23709ZM91.9846 13.1812L90.0109 11.0777L87.4859 13.4469L89.4595 15.5504L91.9846 13.1812ZM90.4797 12.2623V8.88632H87.0171V12.2623H90.4797ZM88.7484 7.15504H86.6189V10.6176H88.7484V7.15504ZM84.8876 8.88632V26H88.3502V8.88632H84.8876ZM86.6189 24.2687H84.5154V27.7313H86.6189V24.2687ZM86.2467 26V8.88632H82.7841V26H86.2467ZM84.5154 7.15504H82.36V10.6176H84.5154V7.15504ZM80.6287 8.88632V14.3658H84.0913V8.88632H80.6287ZM81.1052 13.173L79.1056 15.2765L81.6152 17.6621L83.6148 15.5586L81.1052 13.173ZM82.0916 16.4693V8.23709H78.6291V16.4693H82.0916ZM80.3604 9.96837H90.7221V6.50582H80.3604V9.96837ZM88.9908 8.23709V14.3658H92.4533V8.23709H88.9908ZM100.252 18.2612L99.9128 16.5635L98.521 16.8419V18.2612H100.252ZM100.252 24.8574H98.521V25.6799L99.1587 26.1995L100.252 24.8574ZM101.655 26V27.7313H106.52L102.748 24.6579L101.655 26ZM96.7984 26L95.6926 24.6679L92.0026 27.7313H96.7984V26ZM98.1748 24.8574L99.2807 26.1894L99.9061 25.6702V24.8574H98.1748ZM98.1748 20.2868H99.9061V16.1532L96.9603 19.053L98.1748 20.2868ZM94.8507 23.5589L93.6362 22.3251L93.1195 22.8338V23.5589H94.8507ZM94.8507 26V27.7313H96.582V26H94.8507ZM92.7992 26H91.0679V27.7313H92.7992V26ZM94.8507 11.5871L96.0343 12.8507L96.0401 12.8451L94.8507 11.5871ZM98.1748 9.92509L98.4556 11.6334L99.9061 11.395V9.92509H98.1748ZM98.1748 9.09408H99.9061V8.1326L99.0899 7.6244L98.1748 9.09408ZM96.7984 8.23709V6.50582H90.7424L95.8833 9.70677L96.7984 8.23709ZM101.655 8.23709L102.557 9.71436L107.808 6.50582H101.655V8.23709ZM100.252 9.09408L99.3495 7.61681L98.521 8.12311V9.09408H100.252ZM100.252 15.7162H98.521V17.1355L99.9128 17.4139L100.252 15.7162ZM98.1748 19.0143L99.4084 20.229L99.9061 19.7236V19.0143H98.1748ZM98.1748 18.2872H99.9061V16.8891L98.5393 16.5947L98.1748 18.2872ZM98.1748 15.7162L98.5393 17.4087L99.9061 17.1143V15.7162H98.1748ZM98.1748 10.9639H99.9061V9.23258H98.1748V10.9639ZM95.4221 13.1712L93.8018 12.5612L93.7999 12.5664L95.4221 13.1712ZM94.8507 22.3903H93.1195V26.6162L96.0844 23.605L94.8507 22.3903ZM100.339 16.9368C100.339 16.8109 100.372 16.6659 100.446 16.534C100.515 16.4109 100.587 16.3554 100.596 16.349C100.602 16.3451 100.56 16.3759 100.438 16.4217C100.318 16.4666 100.147 16.5166 99.9128 16.5635L100.592 19.9588C101.304 19.8165 102.04 19.5813 102.635 19.1476C103.299 18.6642 103.801 17.9097 103.801 16.9368H100.339ZM98.521 18.2612V24.8574H101.984V18.2612H98.521ZM99.1587 26.1995L100.561 27.3421L102.748 24.6579L101.346 23.5152L99.1587 26.1995ZM101.655 24.2687H96.7984V27.7313H101.655V24.2687ZM97.9043 27.3321L99.2807 26.1894L97.0689 23.5253L95.6926 24.6679L97.9043 27.3321ZM99.9061 24.8574V20.2868H96.4435V24.8574H99.9061ZM96.9603 19.053L93.6362 22.3251L96.0653 24.7927L99.3893 21.5206L96.9603 19.053ZM93.1195 23.5589V26H96.582V23.5589H93.1195ZM94.8507 24.2687H92.7992V27.7313H94.8507V24.2687ZM94.5305 26V16.9627H91.0679V26H94.5305ZM94.5305 16.9627C94.5305 15.0214 95.0934 13.732 96.0343 12.8506L93.6672 10.3236C91.8726 12.0046 91.0679 14.2989 91.0679 16.9627H94.5305ZM96.0401 12.8451C96.7474 12.1765 97.5411 11.7838 98.4556 11.6334L97.894 8.21674C96.2808 8.48191 94.8585 9.19723 93.6613 10.3291L96.0401 12.8451ZM99.9061 9.92509V9.09408H96.4435V9.92509H99.9061ZM99.0899 7.6244L97.7135 6.76742L95.8833 9.70677L97.2597 10.5638L99.0899 7.6244ZM96.7984 9.96837H101.655V6.50582H96.7984V9.96837ZM100.752 6.75982L99.3495 7.61681L101.155 10.5713L102.557 9.71436L100.752 6.75982ZM98.521 9.09408V15.7162H101.984V9.09408H98.521ZM99.9128 17.4139C100.155 17.4623 100.336 17.5129 100.465 17.5592C100.529 17.582 100.576 17.602 100.607 17.6173C100.639 17.6328 100.652 17.6414 100.651 17.6405C100.649 17.6396 100.629 17.6261 100.599 17.5964C100.569 17.5662 100.527 17.5185 100.485 17.4508C100.392 17.3013 100.339 17.1184 100.339 16.9368H103.801C103.801 15.915 103.213 15.1905 102.581 14.7658C102.001 14.3766 101.288 14.1577 100.592 14.0186L99.9128 17.4139ZM99.9061 19.0143V18.2872H96.4435V19.0143H99.9061ZM98.5393 16.5947C98.3293 16.5494 98.1799 16.5025 98.0793 16.4622C97.9768 16.4212 97.9494 16.397 97.9644 16.4085C97.9832 16.423 98.0551 16.484 98.1202 16.6064C98.1891 16.7355 98.2181 16.8729 98.2181 16.9887H94.7555C94.7555 17.9174 95.2132 18.6607 95.8532 19.153C96.4265 19.594 97.1345 19.8341 97.8103 19.9796L98.5393 16.5947ZM98.2181 16.9887C98.2181 17.1174 98.185 17.264 98.1117 17.3982C98.0428 17.5244 97.9681 17.5857 97.951 17.5986C97.9373 17.6089 97.9669 17.5839 98.0722 17.5424C98.1754 17.5016 98.3272 17.4544 98.5393 17.4087L97.8103 14.0237C97.139 14.1683 96.4366 14.404 95.8666 14.8337C95.2315 15.3124 94.7555 16.0492 94.7555 16.9887H98.2181ZM99.9061 15.7162V10.9639H96.4435V15.7162H99.9061ZM98.1748 9.23258C97.1779 9.23258 96.2367 9.52829 95.4427 10.165C94.6733 10.782 94.1525 11.6296 93.8018 12.5613L97.0423 13.7812C97.2456 13.2412 97.4607 12.9852 97.6088 12.8664C97.7323 12.7673 97.8905 12.6951 98.1748 12.6951V9.23258ZM93.7999 12.5664C93.3244 13.8416 93.1195 15.3346 93.1195 16.9887H96.582C96.582 15.5958 96.758 14.5438 97.0442 13.7761L93.7999 12.5664ZM93.1195 16.9887V22.3903H96.582V16.9887H93.1195ZM96.0844 23.605L99.4084 20.229L96.9411 17.7996L93.6171 21.1756L96.0844 23.605ZM111.259 18.2612L110.919 16.5635L109.528 16.8419V18.2612H111.259ZM111.259 24.8574H109.528V25.6799L110.165 26.1995L111.259 24.8574ZM112.661 26V27.7313H117.527L113.755 24.6579L112.661 26ZM107.805 26L106.699 24.6679L103.009 27.7313H107.805V26ZM109.181 24.8574L110.287 26.1894L110.913 25.6702V24.8574H109.181ZM109.181 18.2872H110.913V16.8891L109.546 16.5947L109.181 18.2872ZM109.181 15.7162L109.546 17.4087L110.913 17.1143V15.7162H109.181ZM109.181 10.9639H110.913V9.23258H109.181V10.9639ZM106.429 13.1712L104.808 12.5612L104.806 12.5664L106.429 13.1712ZM105.857 26V27.7313H107.588V26H105.857ZM103.806 26H102.074V27.7313H103.806V26ZM105.857 11.5871L107.041 12.8507L107.047 12.8451L105.857 11.5871ZM109.181 9.92509L109.462 11.6334L110.913 11.395V9.92509H109.181ZM109.181 9.09408H110.913V8.1326L110.096 7.6244L109.181 9.09408ZM107.805 8.23709V6.50582H101.749L106.89 9.70677L107.805 8.23709ZM112.661 8.23709L113.564 9.71436L118.814 6.50582H112.661V8.23709ZM111.259 9.09408L110.356 7.61681L109.528 8.12311V9.09408H111.259ZM111.259 15.7162H109.528V17.1355L110.919 17.4139L111.259 15.7162ZM111.345 16.9368C111.345 16.8109 111.379 16.6659 111.452 16.534C111.521 16.4109 111.594 16.3554 111.603 16.349C111.608 16.3451 111.566 16.3759 111.445 16.4217C111.325 16.4666 111.154 16.5166 110.919 16.5635L111.598 19.9588C112.31 19.8165 113.046 19.5813 113.642 19.1476C114.305 18.6642 114.808 17.9097 114.808 16.9368H111.345ZM109.528 18.2612V24.8574H112.99V18.2612H109.528ZM110.165 26.1995L111.568 27.3421L113.755 24.6579L112.352 23.5152L110.165 26.1995ZM112.661 24.2687H107.805V27.7313H112.661V24.2687ZM108.911 27.3321L110.287 26.1894L108.075 23.5253L106.699 24.6679L108.911 27.3321ZM110.913 24.8574V18.2872H107.45V24.8574H110.913ZM109.546 16.5947C109.336 16.5494 109.186 16.5025 109.086 16.4622C108.983 16.4212 108.956 16.397 108.971 16.4085C108.99 16.423 109.062 16.484 109.127 16.6064C109.196 16.7355 109.225 16.8729 109.225 16.9887H105.762C105.762 17.9174 106.22 18.6607 106.86 19.153C107.433 19.594 108.141 19.8341 108.817 19.9796L109.546 16.5947ZM109.225 16.9887C109.225 17.1174 109.191 17.264 109.118 17.3982C109.049 17.5244 108.975 17.5857 108.957 17.5986C108.944 17.6089 108.973 17.5839 109.079 17.5424C109.182 17.5016 109.334 17.4544 109.546 17.4087L108.817 14.0237C108.145 14.1683 107.443 14.404 106.873 14.8337C106.238 15.3124 105.762 16.0492 105.762 16.9887H109.225ZM110.913 15.7162V10.9639H107.45V15.7162H110.913ZM109.181 9.23258C108.184 9.23258 107.243 9.52829 106.449 10.165C105.68 10.782 105.159 11.6296 104.808 12.5613L108.049 13.7812C108.252 13.2412 108.467 12.9852 108.615 12.8664C108.739 12.7673 108.897 12.6951 109.181 12.6951V9.23258ZM104.806 12.5664C104.331 13.8416 104.126 15.3346 104.126 16.9887H107.588C107.588 15.5958 107.764 14.5438 108.051 13.7761L104.806 12.5664ZM104.126 16.9887V26H107.588V16.9887H104.126ZM105.857 24.2687H103.806V27.7313H105.857V24.2687ZM105.537 26V16.9627H102.074V26H105.537ZM105.537 16.9627C105.537 15.0214 106.1 13.732 107.041 12.8506L104.674 10.3236C102.879 12.0046 102.074 14.2989 102.074 16.9627H105.537ZM107.047 12.8451C107.754 12.1765 108.548 11.7838 109.462 11.6334L108.9 8.21674C107.287 8.48191 105.865 9.19723 104.668 10.3291L107.047 12.8451ZM110.913 9.92509V9.09408H107.45V9.92509H110.913ZM110.096 7.6244L108.72 6.76742L106.89 9.70677L108.266 10.5638L110.096 7.6244ZM107.805 9.96837H112.661V6.50582H107.805V9.96837ZM111.758 6.75982L110.356 7.61681L112.162 10.5713L113.564 9.71436L111.758 6.75982ZM109.528 9.09408V15.7162H112.99V9.09408H109.528ZM110.919 17.4139C111.161 17.4623 111.342 17.5129 111.472 17.5592C111.536 17.582 111.582 17.602 111.614 17.6173C111.646 17.6328 111.658 17.6414 111.657 17.6405C111.656 17.6396 111.636 17.6261 111.606 17.5964C111.575 17.5662 111.533 17.5185 111.491 17.4508C111.399 17.3013 111.345 17.1184 111.345 16.9368H114.808C114.808 15.915 114.22 15.1905 113.587 14.7658C113.008 14.3766 112.294 14.1577 111.598 14.0186L110.919 17.4139ZM122.265 18.2612L121.926 16.5635L120.534 16.8419V18.2612H122.265ZM122.265 24.8574H120.534V25.6799L121.172 26.1995L122.265 24.8574ZM123.668 26V27.7313H128.533L124.761 24.6579L123.668 26ZM118.811 26L117.705 24.6679L114.016 27.7313H118.811V26ZM120.188 24.8574L121.294 26.1894L121.919 25.6702V24.8574H120.188ZM120.188 20.2868H121.919V16.1532L118.973 19.053L120.188 20.2868ZM116.864 23.5589L115.649 22.3251L115.132 22.8338V23.5589H116.864ZM116.864 26V27.7313H118.595V26H116.864ZM114.812 26H113.081V27.7313H114.812V26ZM116.864 11.5871L118.047 12.8507L118.053 12.8451L116.864 11.5871ZM120.188 9.92509L120.469 11.6334L121.919 11.395V9.92509H120.188ZM120.188 9.09408H121.919V8.1326L121.103 7.6244L120.188 9.09408ZM118.811 8.23709V6.50582H112.755L117.896 9.70677L118.811 8.23709ZM123.668 8.23709L124.57 9.71436L129.821 6.50582H123.668V8.23709ZM122.265 9.09408L121.362 7.61681L120.534 8.12311V9.09408H122.265ZM122.265 15.7162H120.534V17.1355L121.926 17.4139L122.265 15.7162ZM120.188 19.0143L121.421 20.229L121.919 19.7236V19.0143H120.188ZM120.188 18.2872H121.919V16.8891L120.552 16.5947L120.188 18.2872ZM120.188 15.7162L120.552 17.4087L121.919 17.1143V15.7162H120.188ZM120.188 10.9639H121.919V9.23258H120.188V10.9639ZM117.435 13.1712L115.815 12.5612L115.813 12.5664L117.435 13.1712ZM116.864 22.3903H115.132V26.6162L118.097 23.605L116.864 22.3903ZM122.352 16.9368C122.352 16.8109 122.385 16.6659 122.459 16.534C122.528 16.4109 122.6 16.3554 122.609 16.349C122.614 16.3451 122.573 16.3759 122.451 16.4217C122.331 16.4666 122.16 16.5166 121.926 16.5635L122.605 19.9588C123.317 19.8165 124.053 19.5813 124.648 19.1476C125.312 18.6642 125.814 17.9097 125.814 16.9368H122.352ZM120.534 18.2612V24.8574H123.997V18.2612H120.534ZM121.172 26.1995L122.574 27.3421L124.761 24.6579L123.359 23.5152L121.172 26.1995ZM123.668 24.2687H118.811V27.7313H123.668V24.2687ZM119.917 27.3321L121.294 26.1894L119.082 23.5253L117.705 24.6679L119.917 27.3321ZM121.919 24.8574V20.2868H118.456V24.8574H121.919ZM118.973 19.053L115.649 22.3251L118.078 24.7927L121.402 21.5206L118.973 19.053ZM115.132 23.5589V26H118.595V23.5589H115.132ZM116.864 24.2687H114.812V27.7313H116.864V24.2687ZM116.543 26V16.9627H113.081V26H116.543ZM116.543 16.9627C116.543 15.0214 117.106 13.732 118.047 12.8506L115.68 10.3236C113.886 12.0046 113.081 14.2989 113.081 16.9627H116.543ZM118.053 12.8451C118.76 12.1765 119.554 11.7838 120.469 11.6334L119.907 8.21674C118.294 8.48191 116.871 9.19723 115.674 10.3291L118.053 12.8451ZM121.919 9.92509V9.09408H118.456V9.92509H121.919ZM121.103 7.6244L119.726 6.76742L117.896 9.70677L119.273 10.5638L121.103 7.6244ZM118.811 9.96837H123.668V6.50582H118.811V9.96837ZM122.765 6.75982L121.362 7.61681L123.168 10.5713L124.57 9.71436L122.765 6.75982ZM120.534 9.09408V15.7162H123.997V9.09408H120.534ZM121.926 17.4139C122.168 17.4623 122.349 17.5129 122.478 17.5592C122.542 17.582 122.588 17.602 122.62 17.6173C122.652 17.6328 122.665 17.6414 122.664 17.6405C122.662 17.6396 122.642 17.6261 122.612 17.5964C122.581 17.5662 122.54 17.5185 122.498 17.4508C122.405 17.3013 122.352 17.1184 122.352 16.9368H125.814C125.814 15.915 125.226 15.1905 124.594 14.7658C124.014 14.3766 123.301 14.1577 122.605 14.0186L121.926 17.4139ZM121.919 19.0143V18.2872H118.456V19.0143H121.919ZM120.552 16.5947C120.342 16.5494 120.193 16.5025 120.092 16.4622C119.99 16.4212 119.962 16.397 119.977 16.4085C119.996 16.423 120.068 16.484 120.133 16.6064C120.202 16.7355 120.231 16.8729 120.231 16.9887H116.768C116.768 17.9174 117.226 18.6607 117.866 19.153C118.439 19.594 119.147 19.8341 119.823 19.9796L120.552 16.5947ZM120.231 16.9887C120.231 17.1174 120.198 17.264 120.125 17.3982C120.056 17.5244 119.981 17.5857 119.964 17.5986C119.95 17.6089 119.98 17.5839 120.085 17.5424C120.188 17.5016 120.34 17.4544 120.552 17.4087L119.823 14.0237C119.152 14.1683 118.45 14.404 117.88 14.8337C117.244 15.3124 116.768 16.0492 116.768 16.9887H120.231ZM121.919 15.7162V10.9639H118.456V15.7162H121.919ZM120.188 9.23258C119.191 9.23258 118.25 9.52829 117.456 10.165C116.686 10.782 116.165 11.6296 115.815 12.5613L119.055 13.7812C119.259 13.2412 119.474 12.9852 119.622 12.8664C119.745 12.7673 119.903 12.6951 120.188 12.6951V9.23258ZM115.813 12.5664C115.337 13.8416 115.132 15.3346 115.132 16.9887H118.595C118.595 15.5958 118.771 14.5438 119.057 13.7761L115.813 12.5664ZM115.132 16.9887V22.3903H118.595V16.9887H115.132ZM118.097 23.605L121.421 20.229L118.954 17.7996L115.63 21.1756L118.097 23.605ZM132.908 26V27.7313H134.639V26H132.908ZM130.857 26H129.125V27.7313H130.857V26ZM129.221 16.7809L129.944 15.2083L129.231 14.8798L128.514 15.2006L129.221 16.7809ZM127.896 18.5988L126.215 18.1864L126.214 18.1877L127.896 18.5988ZM127.61 26V27.7313H129.342V26H127.61ZM125.559 26H123.828V27.7313H125.559V26ZM125.845 18.6767L124.166 18.252L124.163 18.2656L125.845 18.6767ZM127.922 16.3395L128.126 18.0587L128.13 14.6207L127.922 16.3395ZM125.87 14.4178L124.212 14.9152L124.215 14.9254L124.218 14.9356L125.87 14.4178ZM125.559 8.23709V6.50582H123.828V8.23709H125.559ZM127.61 8.23709H129.342V6.50582H127.61V8.23709ZM127.896 14.4178L126.23 14.8877L126.23 14.8886L127.896 14.4178ZM129.221 16.0019L128.585 17.6122L129.248 17.8738L129.903 17.5932L129.221 16.0019ZM130.857 8.23709V6.50582H129.125V8.23709H130.857ZM132.908 8.23709H134.639V6.50582H132.908V8.23709ZM130.545 16.3654L130.375 14.6426L130.337 18.0842L130.545 16.3654ZM132.908 24.2687H130.857V27.7313H132.908V24.2687ZM132.588 26V22.0787H129.125V26H132.588ZM132.588 22.0787C132.588 20.4862 132.448 19.0911 132.102 17.9711C131.762 16.8703 131.13 15.7542 129.944 15.2083L128.497 18.3536C128.401 18.3097 128.588 18.3277 128.793 18.9928C128.993 19.6387 129.125 20.6414 129.125 22.0787H132.588ZM128.514 15.2006C127.224 15.7773 126.524 16.9248 126.215 18.1864L129.578 19.0112C129.718 18.4376 129.901 18.3732 129.928 18.3613L128.514 15.2006ZM126.214 18.1877C125.973 19.1735 125.879 20.5015 125.879 22.0787H129.342C129.342 20.5742 129.438 19.5822 129.578 19.0099L126.214 18.1877ZM125.879 22.0787V26H129.342V22.0787H125.879ZM127.61 24.2687H125.559V27.7313H127.61V24.2687ZM127.29 26V22.0787H123.828V26H127.29ZM127.29 22.0787C127.29 20.6318 127.386 19.663 127.526 19.0878L124.163 18.2656C123.923 19.2485 123.828 20.5477 123.828 22.0787H127.29ZM127.523 19.1013C127.664 18.5456 127.83 18.278 127.931 18.1649C127.999 18.0873 128.042 18.0686 128.126 18.0587L127.718 14.6203C126.78 14.7315 125.966 15.163 125.343 15.8645C124.751 16.5304 124.389 17.3708 124.166 18.252L127.523 19.1013ZM128.13 14.6207C127.962 14.6005 127.891 14.5529 127.84 14.5046C127.771 14.4403 127.641 14.2776 127.523 13.9L124.218 14.9356C124.464 15.7178 124.857 16.4554 125.473 17.0317C126.105 17.624 126.878 17.9573 127.715 18.0583L128.13 14.6207ZM127.529 13.9203C127.394 13.472 127.29 12.6605 127.29 11.3794H123.828C123.828 12.7644 123.931 13.9785 124.212 14.9152L127.529 13.9203ZM127.29 11.3794V8.23709H123.828V11.3794H127.29ZM125.559 9.96837H127.61V6.50582H125.559V9.96837ZM125.879 8.23709V11.3794H129.342V8.23709H125.879ZM125.879 11.3794C125.879 12.7707 125.973 13.9771 126.23 14.8877L129.562 13.9478C129.438 13.508 129.342 12.6888 129.342 11.3794H125.879ZM126.23 14.8886C126.574 16.1049 127.335 17.119 128.585 17.6122L129.856 14.3915C129.79 14.3654 129.669 14.3234 129.562 13.9469L126.23 14.8886ZM129.903 17.5932C131.037 17.1071 131.706 16.1288 132.079 15.0827C132.445 14.0528 132.588 12.7981 132.588 11.4053H129.125C129.125 12.6095 128.995 13.4193 128.817 13.9216C128.73 14.1637 128.647 14.2933 128.596 14.3553C128.572 14.3851 128.556 14.3989 128.549 14.4041C128.543 14.4088 128.54 14.41 128.539 14.4106L129.903 17.5932ZM132.588 11.4053V8.23709H129.125V11.4053H132.588ZM130.857 9.96837H132.908V6.50582H130.857V9.96837ZM131.177 8.23709V11.4053H134.639V8.23709H131.177ZM131.177 11.4053C131.177 12.8833 130.985 13.7806 130.754 14.2639C130.573 14.6448 130.455 14.6347 130.375 14.6426L130.715 18.0883C132.211 17.9404 133.274 17.0257 133.88 15.7532C134.438 14.5831 134.639 13.0783 134.639 11.4053H131.177ZM130.337 18.0842C130.382 18.0896 130.397 18.097 130.428 18.1245C130.476 18.1677 130.59 18.2949 130.716 18.6023C130.982 19.2478 131.177 20.3677 131.177 22.1046H134.639C134.639 20.2058 134.44 18.5514 133.918 17.2839C133.369 15.9512 132.353 14.8402 130.753 14.6467L130.337 18.0842ZM131.177 22.1046V26H134.639V22.1046H131.177ZM145.095 14.3658L143.832 15.5504L146.826 18.7412V14.3658H145.095ZM143.121 12.2623H141.39V12.9474L141.859 13.4469L143.121 12.2623ZM143.121 8.88632H144.853V7.15504H143.121V8.88632ZM140.992 8.88632V7.15504H139.261V8.88632H140.992ZM140.992 26V27.7313H142.723V26H140.992ZM138.888 26H137.157V27.7313H138.888V26ZM138.888 8.88632H140.62V7.15504H138.888V8.88632ZM136.733 8.88632V7.15504H135.002V8.88632H136.733ZM136.733 14.3658L137.988 15.5586L138.464 15.0574V14.3658H136.733ZM134.733 16.4693H133.002V20.8033L135.988 17.6621L134.733 16.4693ZM134.733 8.23709V6.50582H133.002V8.23709H134.733ZM145.095 8.23709H146.826V6.50582H145.095V8.23709ZM146.358 13.1812L144.384 11.0777L141.859 13.4469L143.832 15.5504L146.358 13.1812ZM144.853 12.2623V8.88632H141.39V12.2623H144.853ZM143.121 7.15504H140.992V10.6176H143.121V7.15504ZM139.261 8.88632V26H142.723V8.88632H139.261ZM140.992 24.2687H138.888V27.7313H140.992V24.2687ZM140.62 26V8.88632H137.157V26H140.62ZM138.888 7.15504H136.733V10.6176H138.888V7.15504ZM135.002 8.88632V14.3658H138.464V8.88632H135.002ZM135.478 13.173L133.479 15.2765L135.988 17.6621L137.988 15.5586L135.478 13.173ZM136.465 16.4693V8.23709H133.002V16.4693H136.465ZM134.733 9.96837H145.095V6.50582H134.733V9.96837ZM143.364 8.23709V14.3658H146.826V8.23709H143.364ZM154.625 18.2612L154.286 16.5635L152.894 16.8419V18.2612H154.625ZM154.625 24.8574H152.894V25.6799L153.532 26.1995L154.625 24.8574ZM156.028 26V27.7313H160.893L157.121 24.6579L156.028 26ZM151.171 26L150.066 24.6679L146.376 27.7313H151.171V26ZM152.548 24.8574L153.654 26.1894L154.279 25.6702V24.8574H152.548ZM152.548 20.2868H154.279V16.1532L151.333 19.053L152.548 20.2868ZM149.224 23.5589L148.009 22.3251L147.492 22.8338V23.5589H149.224ZM149.224 26V27.7313H150.955V26H149.224ZM147.172 26H145.441V27.7313H147.172V26ZM149.224 11.5871L150.407 12.8507L150.413 12.8451L149.224 11.5871ZM152.548 9.92509L152.829 11.6334L154.279 11.395V9.92509H152.548ZM152.548 9.09408H154.279V8.1326L153.463 7.6244L152.548 9.09408ZM151.171 8.23709V6.50582H145.115L150.256 9.70677L151.171 8.23709ZM156.028 8.23709L156.93 9.71436L162.181 6.50582H156.028V8.23709ZM154.625 9.09408L153.722 7.61681L152.894 8.12311V9.09408H154.625ZM154.625 15.7162H152.894V17.1355L154.286 17.4139L154.625 15.7162ZM152.548 19.0143L153.781 20.229L154.279 19.7236V19.0143H152.548ZM152.548 18.2872H154.279V16.8891L152.912 16.5947L152.548 18.2872ZM152.548 15.7162L152.912 17.4087L154.279 17.1143V15.7162H152.548ZM152.548 10.9639H154.279V9.23258H152.548V10.9639ZM149.795 13.1712L148.175 12.5612L148.173 12.5664L149.795 13.1712ZM149.224 22.3903H147.492V26.6162L150.457 23.605L149.224 22.3903ZM154.712 16.9368C154.712 16.8109 154.745 16.6659 154.819 16.534C154.888 16.4109 154.96 16.3554 154.969 16.349C154.974 16.3451 154.933 16.3759 154.811 16.4217C154.691 16.4666 154.52 16.5166 154.286 16.5635L154.965 19.9588C155.677 19.8165 156.413 19.5813 157.008 19.1476C157.672 18.6642 158.174 17.9097 158.174 16.9368H154.712ZM152.894 18.2612V24.8574H156.357V18.2612H152.894ZM153.532 26.1995L154.934 27.3421L157.121 24.6579L155.719 23.5152L153.532 26.1995ZM156.028 24.2687H151.171V27.7313H156.028V24.2687ZM152.277 27.3321L153.654 26.1894L151.442 23.5253L150.066 24.6679L152.277 27.3321ZM154.279 24.8574V20.2868H150.816V24.8574H154.279ZM151.333 19.053L148.009 22.3251L150.438 24.7927L153.762 21.5206L151.333 19.053ZM147.492 23.5589V26H150.955V23.5589H147.492ZM149.224 24.2687H147.172V27.7313H149.224V24.2687ZM148.903 26V16.9627H145.441V26H148.903ZM148.903 16.9627C148.903 15.0214 149.466 13.732 150.407 12.8506L148.04 10.3236C146.246 12.0046 145.441 14.2989 145.441 16.9627H148.903ZM150.413 12.8451C151.12 12.1765 151.914 11.7838 152.829 11.6334L152.267 8.21674C150.654 8.48191 149.231 9.19723 148.034 10.3291L150.413 12.8451ZM154.279 9.92509V9.09408H150.816V9.92509H154.279ZM153.463 7.6244L152.086 6.76742L150.256 9.70677L151.633 10.5638L153.463 7.6244ZM151.171 9.96837H156.028V6.50582H151.171V9.96837ZM155.125 6.75982L153.722 7.61681L155.528 10.5713L156.93 9.71436L155.125 6.75982ZM152.894 9.09408V15.7162H156.357V9.09408H152.894ZM154.286 17.4139C154.528 17.4623 154.709 17.5129 154.838 17.5592C154.902 17.582 154.948 17.602 154.98 17.6173C155.012 17.6328 155.025 17.6414 155.024 17.6405C155.022 17.6396 155.002 17.6261 154.972 17.5964C154.942 17.5662 154.9 17.5185 154.858 17.4508C154.765 17.3013 154.712 17.1184 154.712 16.9368H158.174C158.174 15.915 157.586 15.1905 156.954 14.7658C156.374 14.3766 155.661 14.1577 154.965 14.0186L154.286 17.4139ZM154.279 19.0143V18.2872H150.816V19.0143H154.279ZM152.912 16.5947C152.702 16.5494 152.553 16.5025 152.452 16.4622C152.35 16.4212 152.322 16.397 152.337 16.4085C152.356 16.423 152.428 16.484 152.493 16.6064C152.562 16.7355 152.591 16.8729 152.591 16.9887H149.128C149.128 17.9174 149.586 18.6607 150.226 19.153C150.799 19.594 151.507 19.8341 152.183 19.9796L152.912 16.5947ZM152.591 16.9887C152.591 17.1174 152.558 17.264 152.485 17.3982C152.416 17.5244 152.341 17.5857 152.324 17.5986C152.31 17.6089 152.34 17.5839 152.445 17.5424C152.548 17.5016 152.7 17.4544 152.912 17.4087L152.183 14.0237C151.512 14.1683 150.81 14.404 150.24 14.8337C149.604 15.3124 149.128 16.0492 149.128 16.9887H152.591ZM154.279 15.7162V10.9639H150.816V15.7162H154.279ZM152.548 9.23258C151.551 9.23258 150.61 9.52829 149.816 10.165C149.046 10.782 148.525 11.6296 148.175 12.5613L151.415 13.7812C151.619 13.2412 151.834 12.9852 151.982 12.8664C152.105 12.7673 152.263 12.6951 152.548 12.6951V9.23258ZM148.173 12.5664C147.697 13.8416 147.492 15.3346 147.492 16.9887H150.955C150.955 15.5958 151.131 14.5438 151.417 13.7761L148.173 12.5664ZM147.492 16.9887V22.3903H150.955V16.9887H147.492ZM150.457 23.605L153.781 20.229L151.314 17.7996L147.99 21.1756L150.457 23.605ZM165.268 26V27.7313H166.999V26H165.268ZM163.217 26H161.485V27.7313H163.217V26ZM161.581 16.7809L162.304 15.2083L161.591 14.8798L160.874 15.2006L161.581 16.7809ZM160.256 18.5988L158.575 18.1864L158.574 18.1877L160.256 18.5988ZM159.97 26V27.7313H161.702V26H159.97ZM157.919 26H156.188V27.7313H157.919V26ZM158.205 18.6767L156.526 18.252L156.523 18.2656L158.205 18.6767ZM160.282 16.3395L160.486 18.0587L160.49 14.6207L160.282 16.3395ZM158.231 14.4178L156.572 14.9152L156.575 14.9254L156.578 14.9356L158.231 14.4178ZM157.919 8.23709V6.50582H156.188V8.23709H157.919ZM159.97 8.23709H161.702V6.50582H159.97V8.23709ZM160.256 14.4178L158.59 14.8877L158.59 14.8886L160.256 14.4178ZM161.581 16.0019L160.945 17.6122L161.608 17.8738L162.263 17.5932L161.581 16.0019ZM163.217 8.23709V6.50582H161.485V8.23709H163.217ZM165.268 8.23709H166.999V6.50582H165.268V8.23709ZM162.905 16.3654L162.735 14.6426L162.697 18.0842L162.905 16.3654ZM165.268 24.2687H163.217V27.7313H165.268V24.2687ZM164.948 26V22.0787H161.485V26H164.948ZM164.948 22.0787C164.948 20.4862 164.808 19.0911 164.462 17.9711C164.122 16.8703 163.49 15.7542 162.304 15.2083L160.857 18.3536C160.761 18.3097 160.948 18.3277 161.153 18.9928C161.353 19.6387 161.485 20.6414 161.485 22.0787H164.948ZM160.874 15.2006C159.584 15.7773 158.884 16.9248 158.575 18.1864L161.938 19.0112C162.078 18.4376 162.261 18.3732 162.288 18.3613L160.874 15.2006ZM158.574 18.1877C158.333 19.1735 158.239 20.5015 158.239 22.0787H161.702C161.702 20.5742 161.798 19.5822 161.938 19.0099L158.574 18.1877ZM158.239 22.0787V26H161.702V22.0787H158.239ZM159.97 24.2687H157.919V27.7313H159.97V24.2687ZM159.65 26V22.0787H156.188V26H159.65ZM159.65 22.0787C159.65 20.6318 159.746 19.663 159.886 19.0878L156.523 18.2656C156.283 19.2485 156.188 20.5477 156.188 22.0787H159.65ZM159.883 19.1013C160.024 18.5456 160.19 18.278 160.291 18.1649C160.36 18.0873 160.402 18.0686 160.486 18.0587L160.078 14.6203C159.14 14.7315 158.326 15.163 157.703 15.8645C157.111 16.5304 156.749 17.3708 156.526 18.252L159.883 19.1013ZM160.49 14.6207C160.322 14.6005 160.251 14.5529 160.2 14.5046C160.131 14.4403 160.001 14.2776 159.883 13.9L156.578 14.9356C156.824 15.7178 157.217 16.4554 157.833 17.0317C158.465 17.624 159.238 17.9573 160.075 18.0583L160.49 14.6207ZM159.889 13.9203C159.754 13.472 159.65 12.6605 159.65 11.3794H156.188C156.188 12.7644 156.291 13.9785 156.572 14.9152L159.889 13.9203ZM159.65 11.3794V8.23709H156.188V11.3794H159.65ZM157.919 9.96837H159.97V6.50582H157.919V9.96837ZM158.239 8.23709V11.3794H161.702V8.23709H158.239ZM158.239 11.3794C158.239 12.7707 158.333 13.9771 158.59 14.8877L161.922 13.9478C161.798 13.508 161.702 12.6888 161.702 11.3794H158.239ZM158.59 14.8886C158.934 16.1049 159.695 17.119 160.945 17.6122L162.216 14.3915C162.15 14.3654 162.029 14.3234 161.922 13.9469L158.59 14.8886ZM162.263 17.5932C163.397 17.1071 164.066 16.1288 164.439 15.0827C164.805 14.0528 164.948 12.7981 164.948 11.4053H161.485C161.485 12.6095 161.355 13.4193 161.177 13.9216C161.09 14.1637 161.007 14.2933 160.956 14.3553C160.932 14.3851 160.916 14.3989 160.909 14.4041C160.903 14.4088 160.9 14.41 160.899 14.4106L162.263 17.5932ZM164.948 11.4053V8.23709H161.485V11.4053H164.948ZM163.217 9.96837H165.268V6.50582H163.217V9.96837ZM163.537 8.23709V11.4053H166.999V8.23709H163.537ZM163.537 11.4053C163.537 12.8833 163.345 13.7806 163.114 14.2639C162.933 14.6448 162.815 14.6347 162.735 14.6426L163.075 18.0883C164.571 17.9404 165.634 17.0257 166.24 15.7532C166.798 14.5831 166.999 13.0783 166.999 11.4053H163.537ZM162.697 18.0842C162.742 18.0896 162.757 18.097 162.788 18.1245C162.836 18.1677 162.95 18.2949 163.076 18.6023C163.342 19.2478 163.537 20.3677 163.537 22.1046H166.999C166.999 20.2058 166.8 18.5514 166.278 17.2839C165.729 15.9512 164.713 14.8402 163.113 14.6467L162.697 18.0842ZM163.537 22.1046V26H166.999V22.1046H163.537ZM176.416 16.6251V18.3564H178.148V16.6251H176.416ZM175.585 16.6251V14.8939H175.188L174.83 15.0673L175.585 16.6251ZM174.001 18.3651L175.513 19.208L175.519 19.1983L174.001 18.3651ZM173.144 22.2085L174.824 22.6284L174.849 22.527L174.862 22.4232L173.144 22.2085ZM173.17 22.0007H174.901L171.452 21.786L173.17 22.0007ZM173.17 22.7279V24.4592H174.901V22.7279H173.17ZM171.119 22.7279L169.39 22.8295L169.486 24.4592H171.119V22.7279ZM171.067 21.8449L172.795 21.7433L172.794 21.7358L171.067 21.8449ZM172.079 17.6899L170.659 16.7004L170.656 16.7044L172.079 17.6899ZM174.417 16.0798L174.619 17.7992L174.595 14.3577L174.417 16.0798ZM171.975 14.184L170.445 14.9941L170.45 15.0035L171.975 14.184ZM171.067 11.0937L169.346 11.2849L169.347 11.296L171.067 11.0937ZM170.963 10.1588V8.42753H169.028L169.242 10.35L170.963 10.1588ZM173.014 10.1588L174.736 9.97273L174.568 8.42753H173.014V10.1588ZM173.118 11.1197L174.84 10.9352L174.839 10.9336L173.118 11.1197ZM173.923 13.8984L175.482 13.1443L175.478 13.1363L173.923 13.8984ZM175.819 15.9759L175.15 17.5729L175.471 17.7072H175.819V15.9759ZM176.416 15.9759H178.148V14.2446H176.416V15.9759ZM171.768 16.729V18.4603H173.499V16.729H171.768ZM170.937 16.729V14.9977H170.539L170.181 15.1712L170.937 16.729ZM169.353 18.4689L170.865 19.3118L170.87 19.3021L169.353 18.4689ZM168.496 22.3124L170.175 22.7323L170.201 22.6309L170.214 22.5271L168.496 22.3124ZM168.522 22.1046H170.253L166.804 21.8899L168.522 22.1046ZM168.522 22.8318V24.563H170.253V22.8318H168.522ZM166.47 22.8318L164.742 22.9334L164.838 24.563H166.47V22.8318ZM166.418 21.9488L168.146 21.8471L168.146 21.8397L166.418 21.9488ZM167.431 17.7937L166.01 16.8043L166.007 16.8083L167.431 17.7937ZM169.768 16.1837L169.97 17.9031L169.946 14.4616L169.768 16.1837ZM167.327 14.2879L165.797 15.098L165.802 15.1073L167.327 14.2879ZM166.418 11.1976L164.697 11.3888L164.699 11.3999L166.418 11.1976ZM166.314 10.2627V8.53141H164.38L164.594 10.4539L166.314 10.2627ZM168.366 10.2627L170.087 10.0766L169.92 8.53141H168.366V10.2627ZM168.47 11.2235L170.191 11.0391L170.191 11.0375L168.47 11.2235ZM169.275 14.0022L170.833 13.2482L170.829 13.2402L169.275 14.0022ZM171.17 16.0798L170.502 17.6768L170.823 17.8111H171.17V16.0798ZM171.768 16.0798H173.499V14.3485H171.768V16.0798ZM176.416 14.8939H175.585V18.3564H176.416V14.8939ZM174.83 15.0673C173.796 15.5685 173.047 16.5046 172.483 17.5319L175.519 19.1983C175.924 18.4596 176.232 18.2357 176.341 18.183L174.83 15.0673ZM172.489 17.5222C171.748 18.8514 171.387 20.3129 171.387 21.8709H174.849C174.849 20.8666 175.077 19.9909 175.513 19.208L172.489 17.5222ZM171.387 21.8709C171.387 22.014 171.388 22.1777 171.398 22.3088C171.401 22.344 171.407 22.409 171.419 22.4854C171.425 22.5231 171.437 22.5891 171.458 22.6688C171.473 22.722 171.523 22.9083 171.648 23.1171C171.712 23.2238 172.213 24.0356 173.268 23.9545C173.744 23.9178 174.079 23.6993 174.259 23.5456C174.437 23.3941 174.545 23.24 174.599 23.1554C174.705 22.9879 174.758 22.84 174.776 22.7896C174.8 22.7208 174.815 22.6632 174.824 22.6284L171.465 21.7886C171.471 21.7625 171.484 21.7121 171.506 21.6491C171.522 21.6046 171.573 21.461 171.677 21.2965C171.73 21.2134 171.837 21.0605 172.014 20.9097C172.193 20.7568 172.527 20.5387 173.002 20.5021C174.056 20.4211 174.555 21.2316 174.617 21.3356C174.741 21.5417 174.79 21.7239 174.803 21.7715C174.822 21.8457 174.833 21.9047 174.837 21.934C174.847 21.9937 174.85 22.0362 174.851 22.0433C174.852 22.0618 174.849 22.0221 174.849 21.8709H171.387ZM174.862 22.4232L174.888 22.2155L171.452 21.786L171.426 21.9938L174.862 22.4232ZM171.439 22.0007V22.7279H174.901V22.0007H171.439ZM173.17 20.9966H171.119V24.4592H173.17V20.9966ZM172.847 22.6262L172.795 21.7433L169.338 21.9466L169.39 22.8295L172.847 22.6262ZM172.794 21.7358C172.71 20.3978 172.988 19.4188 173.503 18.6753L170.656 16.7044C169.613 18.2116 169.215 20.0026 169.339 21.9541L172.794 21.7358ZM173.5 18.6793C173.99 17.9752 174.376 17.8278 174.619 17.7992L174.214 14.3604C172.691 14.5395 171.519 15.4655 170.659 16.7005L173.5 18.6793ZM174.595 14.3577C174.331 14.3304 173.944 14.1903 173.501 13.3646L170.45 15.0035C171.253 16.4976 172.494 17.6214 174.238 17.8019L174.595 14.3577ZM173.506 13.374C173.155 12.7119 172.904 11.8949 172.786 10.8914L169.347 11.296C169.506 12.647 169.861 13.8903 170.445 14.9941L173.506 13.374ZM172.787 10.9025L172.683 9.96762L169.242 10.35L169.346 11.2849L172.787 10.9025ZM170.963 11.8901H173.014V8.42753H170.963V11.8901ZM171.293 10.3449L171.397 11.3058L174.839 10.9336L174.736 9.97273L171.293 10.3449ZM171.397 11.3041C171.522 12.4761 171.848 13.5977 172.369 14.6604L175.478 13.1363C175.133 12.4331 174.922 11.7022 174.84 10.9352L171.397 11.3041ZM172.365 14.6524C172.982 15.9287 173.867 17.0356 175.15 17.5729L176.487 14.3789C176.282 14.293 175.903 14.0148 175.482 13.1443L172.365 14.6524ZM175.819 17.7072H176.416V14.2446H175.819V17.7072ZM174.685 15.9759V16.6251H178.148V15.9759H174.685ZM171.768 14.9977H170.937V18.4603H171.768V14.9977ZM170.181 15.1712C169.148 15.6724 168.399 16.6085 167.835 17.6357L170.87 19.3021C171.276 18.5635 171.583 18.3396 171.692 18.2868L170.181 15.1712ZM167.84 17.6261C167.099 18.9553 166.738 20.4168 166.738 21.9748H170.201C170.201 20.9705 170.428 20.0948 170.865 19.3118L167.84 17.6261ZM166.738 21.9748C166.738 22.1179 166.74 22.2816 166.75 22.4127C166.753 22.4479 166.758 22.5129 166.771 22.5893C166.777 22.627 166.788 22.693 166.81 22.7727C166.824 22.8259 166.874 23.0122 167 23.221C167.064 23.3277 167.564 24.1395 168.62 24.0583C169.096 24.0217 169.43 23.8032 169.611 23.6495C169.789 23.4979 169.896 23.3439 169.95 23.2593C170.057 23.0918 170.11 22.9439 170.127 22.8935C170.151 22.8247 170.167 22.767 170.175 22.7323L166.816 21.8925C166.823 21.8664 166.836 21.816 166.858 21.753C166.873 21.7084 166.924 21.5649 167.029 21.4003C167.082 21.3172 167.189 21.1643 167.365 21.0136C167.545 20.8607 167.879 20.6425 168.354 20.606C169.408 20.525 169.906 21.3355 169.969 21.4395C170.092 21.6456 170.141 21.8277 170.154 21.8754C170.174 21.9496 170.184 22.0086 170.189 22.0379C170.199 22.0975 170.202 22.1401 170.202 22.1471C170.204 22.1657 170.201 22.126 170.201 21.9748H166.738ZM170.214 22.5271L170.24 22.3194L166.804 21.8899L166.778 22.0976L170.214 22.5271ZM166.79 22.1046V22.8318H170.253V22.1046H166.79ZM168.522 21.1005H166.47V24.563H168.522V21.1005ZM168.198 22.7301L168.146 21.8471L164.69 22.0505L164.742 22.9334L168.198 22.7301ZM168.146 21.8397C168.061 20.5017 168.34 19.5227 168.854 18.7792L166.007 16.8083C164.964 18.3154 164.567 20.1065 164.69 22.0579L168.146 21.8397ZM168.852 18.7832C169.342 18.0791 169.727 17.9317 169.97 17.9031L169.566 14.4642C168.043 14.6434 166.87 15.5694 166.01 16.8043L168.852 18.7832ZM169.946 14.4616C169.682 14.4343 169.296 14.2942 168.852 13.4685L165.802 15.1073C166.605 16.6015 167.846 17.7253 169.59 17.9057L169.946 14.4616ZM168.857 13.4779C168.507 12.8158 168.256 11.9988 168.138 10.9953L164.699 11.3999C164.858 12.7509 165.213 13.9942 165.797 15.098L168.857 13.4779ZM168.139 11.0064L168.035 10.0715L164.594 10.4539L164.697 11.3888L168.139 11.0064ZM166.314 11.994H168.366V8.53141H166.314V11.994ZM166.645 10.4488L166.748 11.4096L170.191 11.0375L170.087 10.0766L166.645 10.4488ZM166.748 11.408C166.874 12.58 167.199 13.7016 167.72 14.7643L170.829 13.2402C170.485 12.537 170.273 11.8061 170.191 11.0391L166.748 11.408ZM167.716 14.7563C168.334 16.0326 169.218 17.1394 170.502 17.6768L171.839 14.4828C171.634 14.3969 171.254 14.1187 170.833 13.2482L167.716 14.7563ZM171.17 17.8111H171.768V14.3485H171.17V17.8111ZM170.036 16.0798V16.729H173.499V16.0798H170.036Z" fill="#E3DFC5"/>
<mask id="path-3-outside-1_97_115" maskUnits="userSpaceOnUse" x="175.462" y="1.84967" width="45" height="35" fill="black">
<rect fill="white" x="175.462" y="1.84967" width="45" height="35"/>
<path fill-rule="evenodd" clip-rule="evenodd" d="M187.504 5.00787L180.462 11.1816H191.152L187.504 5.00787ZM181.256 12.7165L196.571 30.9455L191.86 12.7165H181.256ZM198.698 31.1503L214.138 12.7165H203.462L198.698 31.1503ZM214.929 11.1816L207.848 4.95502L204.169 11.1816H214.929ZM206.128 4.84967H199.457L202.792 10.4941L206.128 4.84967ZM197.647 4.84967H197.674L201.416 11.1816H193.906L197.647 4.84967ZM195.865 4.84967H189.194L192.529 10.4941L195.865 4.84967ZM201.876 12.7165L197.661 29.0292L193.445 12.7165H201.876Z"/>
</mask>
<path fill-rule="evenodd" clip-rule="evenodd" d="M187.504 5.00787L180.462 11.1816H191.152L187.504 5.00787ZM181.256 12.7165L196.571 30.9455L191.86 12.7165H181.256ZM198.698 31.1503L214.138 12.7165H203.462L198.698 31.1503ZM214.929 11.1816L207.848 4.95502L204.169 11.1816H214.929ZM206.128 4.84967H199.457L202.792 10.4941L206.128 4.84967ZM197.647 4.84967H197.674L201.416 11.1816H193.906L197.647 4.84967ZM195.865 4.84967H189.194L192.529 10.4941L195.865 4.84967ZM201.876 12.7165L197.661 29.0292L193.445 12.7165H201.876Z" fill="#551018"/>
<path d="M187.504 5.00787L188.995 4.12712L187.933 2.32983L186.363 3.70605L187.504 5.00787ZM180.462 11.1816L179.321 9.87977L175.861 12.9129H180.462V11.1816ZM191.152 11.1816V12.9129H194.186L192.643 10.3008L191.152 11.1816ZM181.256 12.7165V10.9852H177.541L179.931 13.8301L181.256 12.7165ZM196.571 30.9455L195.245 32.0591L198.247 30.5123L196.571 30.9455ZM191.86 12.7165L193.536 12.2833L193.201 10.9852H191.86V12.7165ZM198.698 31.1503L197.022 30.7172L200.025 32.262L198.698 31.1503ZM214.138 12.7165L215.465 13.8282L217.846 10.9852H214.138V12.7165ZM203.462 12.7165V10.9852H202.121L201.785 12.2833L203.462 12.7165ZM214.929 11.1816V12.9129H219.52L216.072 9.88147L214.929 11.1816ZM207.848 4.95502L208.992 3.65491L207.421 2.27425L206.358 4.07427L207.848 4.95502ZM204.169 11.1816L202.678 10.3008L201.135 12.9129H204.169V11.1816ZM206.128 4.84967L207.618 5.73042L209.162 3.11839H206.128V4.84967ZM199.457 4.84967V3.11839H196.423L197.966 5.73042L199.457 4.84967ZM202.792 10.4941L201.302 11.3749L202.792 13.8973L204.283 11.3749L202.792 10.4941ZM197.674 4.84967L199.165 3.96892L198.662 3.11839H197.674V4.84967ZM197.647 4.84967V3.11839H196.659L196.157 3.96892L197.647 4.84967ZM201.416 11.1816V12.9129H204.45L202.906 10.3008L201.416 11.1816ZM193.906 11.1816L192.415 10.3008L190.872 12.9129H193.906V11.1816ZM195.865 4.84967L197.355 5.73043L198.899 3.11839H195.865V4.84967ZM189.194 4.84967V3.11839H186.16L187.703 5.73042L189.194 4.84967ZM192.529 10.4941L191.039 11.3749L192.529 13.8973L194.02 11.3749L192.529 10.4941ZM197.661 29.0292L195.985 29.4623L197.661 35.9486L199.337 29.4623L197.661 29.0292ZM201.876 12.7165L203.553 13.1497L204.112 10.9852H201.876V12.7165ZM193.445 12.7165V10.9852H191.21L191.769 13.1497L193.445 12.7165ZM186.363 3.70605L179.321 9.87977L181.604 12.4834L188.646 6.30969L186.363 3.70605ZM180.462 12.9129H191.152V9.45031H180.462V12.9129ZM192.643 10.3008L188.995 4.12712L186.014 5.88862L189.662 12.0623L192.643 10.3008ZM179.931 13.8301L195.245 32.0591L197.896 29.8318L182.582 11.6029L179.931 13.8301ZM198.247 30.5123L193.536 12.2833L190.184 13.1497L194.894 31.3786L198.247 30.5123ZM191.86 10.9852H181.256V14.4478H191.86V10.9852ZM200.025 32.262L215.465 13.8282L212.81 11.6048L197.371 30.0387L200.025 32.262ZM214.138 10.9852H203.462V14.4478H214.138V10.9852ZM201.785 12.2833L197.022 30.7172L200.374 31.5835L205.138 13.1497L201.785 12.2833ZM216.072 9.88147L208.992 3.65491L206.705 6.25514L213.786 12.4817L216.072 9.88147ZM206.358 4.07427L202.678 10.3008L205.659 12.0623L209.339 5.83578L206.358 4.07427ZM204.169 12.9129H214.929V9.45031H204.169V12.9129ZM206.128 3.11839H199.457V6.58095H206.128V3.11839ZM197.966 5.73042L201.302 11.3749L204.283 9.61338L200.947 3.96892L197.966 5.73042ZM204.283 11.3749L207.618 5.73042L204.637 3.96892L201.302 9.61338L204.283 11.3749ZM197.674 3.11839H197.647V6.58095H197.674V3.11839ZM202.906 10.3008L199.165 3.96892L196.184 5.73042L199.925 12.0623L202.906 10.3008ZM193.906 12.9129H201.416V9.45031H193.906V12.9129ZM196.157 3.96892L192.415 10.3008L195.396 12.0623L199.138 5.73043L196.157 3.96892ZM195.865 3.11839H189.194V6.58095H195.865V3.11839ZM187.703 5.73042L191.039 11.3749L194.02 9.61339L190.684 3.96892L187.703 5.73042ZM194.02 11.3749L197.355 5.73043L194.374 3.96892L191.039 9.61339L194.02 11.3749ZM199.337 29.4623L203.553 13.1497L200.2 12.2833L195.985 28.596L199.337 29.4623ZM191.769 13.1497L195.985 29.4623L199.337 28.596L195.121 12.2833L191.769 13.1497ZM201.876 10.9852H193.445V14.4478H201.876V10.9852Z" fill="#E3DFC5" mask="url(#path-3-outside-1_97_115)"/>
</svg>
