<svg width="210" height="37" viewBox="0 0 210 37" fill="none" xmlns="http://www.w3.org/2000/svg">
<mask id="path-1-outside-1_97_79" maskUnits="userSpaceOnUse" x="0" y="2.48224" width="45" height="35" fill="black">
<rect fill="white" y="2.48224" width="45" height="35"/>
<path fill-rule="evenodd" clip-rule="evenodd" d="M12.0425 5.63989L5 11.8141H15.6909L12.0425 5.63989ZM5.79372 13.349L21.1095 31.5797L16.3982 13.349H5.79372ZM23.2367 31.7813L38.6753 13.349H28.0001L23.2367 31.7813ZM39.4666 11.8141L32.3864 5.58813L28.7075 11.8141H39.4666ZM30.6661 5.48224H23.9954L27.3308 11.1267L30.6661 5.48224ZM22.1858 5.48224H22.2125L25.9541 11.8141H18.4442L22.1858 5.48224ZM20.4029 5.48224H13.7322L17.0676 11.1267L20.4029 5.48224ZM26.4148 13.349L22.1992 29.6616L17.9836 13.349H26.4148Z"/>
</mask>
<path fill-rule="evenodd" clip-rule="evenodd" d="M12.0425 5.63989L5 11.8141H15.6909L12.0425 5.63989ZM5.79372 13.349L21.1095 31.5797L16.3982 13.349H5.79372ZM23.2367 31.7813L38.6753 13.349H28.0001L23.2367 31.7813ZM39.4666 11.8141L32.3864 5.58813L28.7075 11.8141H39.4666ZM30.6661 5.48224H23.9954L27.3308 11.1267L30.6661 5.48224ZM22.1858 5.48224H22.2125L25.9541 11.8141H18.4442L22.1858 5.48224ZM20.4029 5.48224H13.7322L17.0676 11.1267L20.4029 5.48224ZM26.4148 13.349L22.1992 29.6616L17.9836 13.349H26.4148Z" fill="#551018"/>
<path d="M12.0425 5.63989L13.533 4.75914L12.4709 2.96185L10.9012 4.33807L12.0425 5.63989ZM5 11.8141L3.85869 10.5122L0.399028 13.5453H5V11.8141ZM15.6909 11.8141V13.5453H18.7249L17.1814 10.9333L15.6909 11.8141ZM5.79372 13.349V11.6177H2.07812L4.46815 14.4626L5.79372 13.349ZM21.1095 31.5797L19.7839 32.6933L22.7857 31.1465L21.1095 31.5797ZM16.3982 13.349L18.0744 12.9158L17.739 11.6177H16.3982V13.349ZM23.2367 31.7813L21.5605 31.3482L24.5639 32.893L23.2367 31.7813ZM38.6753 13.349L40.0025 14.4606L42.3837 11.6177H38.6753V13.349ZM28.0001 13.349V11.6177H26.6594L26.3239 12.9158L28.0001 13.349ZM39.4666 11.8141V13.5453H44.0572L40.6099 10.5139L39.4666 11.8141ZM32.3864 5.58813L33.5297 4.28801L31.9596 2.90735L30.8959 4.70737L32.3864 5.58813ZM28.7075 11.8141L27.217 10.9333L25.6735 13.5453H28.7075V11.8141ZM30.6661 5.48224L32.1566 6.36299L33.7001 3.75096H30.6661V5.48224ZM23.9954 5.48224V3.75096H20.9614L22.5049 6.36299L23.9954 5.48224ZM27.3308 11.1267L25.8403 12.0074L27.3308 14.5298L28.8213 12.0074L27.3308 11.1267ZM22.2125 5.48224L23.703 4.60148L23.2005 3.75096H22.2125V5.48224ZM22.1858 5.48224V3.75096H21.1979L20.6953 4.60148L22.1858 5.48224ZM25.9541 11.8141V13.5453H28.9881L27.4446 10.9333L25.9541 11.8141ZM18.4442 11.8141L16.9537 10.9333L15.4103 13.5453H18.4442V11.8141ZM20.4029 5.48224L21.8934 6.36299L23.4369 3.75096H20.4029V5.48224ZM13.7322 5.48224V3.75096H10.6982L12.2417 6.36299L13.7322 5.48224ZM17.0676 11.1267L15.5771 12.0074L17.0676 14.5298L18.5581 12.0074L17.0676 11.1267ZM22.1992 29.6616L20.523 30.0948L22.1992 36.5811L23.8754 30.0948L22.1992 29.6616ZM26.4148 13.349L28.091 13.7821L28.6503 11.6177H26.4148V13.349ZM17.9836 13.349V11.6177H15.748L16.3073 13.7821L17.9836 13.349ZM10.9012 4.33807L3.85869 10.5122L6.14131 13.1159L13.1838 6.94171L10.9012 4.33807ZM5 13.5453H15.6909V10.0828H5V13.5453ZM17.1814 10.9333L13.533 4.75914L10.552 6.52064L14.2004 12.6948L17.1814 10.9333ZM4.46815 14.4626L19.7839 32.6933L22.4351 30.466L7.1193 12.2353L4.46815 14.4626ZM22.7857 31.1465L18.0744 12.9158L14.722 13.7821L19.4333 32.0129L22.7857 31.1465ZM16.3982 11.6177H5.79372V15.0803H16.3982V11.6177ZM24.5639 32.893L40.0025 14.4606L37.348 12.2373L21.9095 30.6697L24.5639 32.893ZM38.6753 11.6177H28.0001V15.0803H38.6753V11.6177ZM26.3239 12.9158L21.5605 31.3482L24.9129 32.2145L29.6763 13.7821L26.3239 12.9158ZM40.6099 10.5139L33.5297 4.28801L31.2432 6.88824L38.3233 13.1142L40.6099 10.5139ZM30.8959 4.70737L27.217 10.9333L30.198 12.6948L33.8769 6.46888L30.8959 4.70737ZM28.7075 13.5453H39.4666V10.0828H28.7075V13.5453ZM30.6661 3.75096H23.9954V7.21352H30.6661V3.75096ZM22.5049 6.36299L25.8403 12.0074L28.8213 10.2459L25.4859 4.60148L22.5049 6.36299ZM28.8213 12.0074L32.1566 6.36299L29.1756 4.60148L25.8403 10.2459L28.8213 12.0074ZM22.2125 3.75096H22.1858V7.21352H22.2125V3.75096ZM27.4446 10.9333L23.703 4.60148L20.722 6.36299L24.4636 12.6948L27.4446 10.9333ZM18.4442 13.5453H25.9541V10.0828H18.4442V13.5453ZM20.6953 4.60148L16.9537 10.9333L19.9347 12.6948L23.6763 6.36299L20.6953 4.60148ZM20.4029 3.75096H13.7322V7.21352H20.4029V3.75096ZM12.2417 6.36299L15.5771 12.0074L18.5581 10.2459L15.2227 4.60148L12.2417 6.36299ZM18.5581 12.0074L21.8934 6.36299L18.9124 4.60148L15.5771 10.2459L18.5581 12.0074ZM23.8754 30.0948L28.091 13.7821L24.7386 12.9158L20.523 29.2285L23.8754 30.0948ZM16.3073 13.7821L20.523 30.0948L23.8754 29.2285L19.6598 12.9158L16.3073 13.7821ZM26.4148 11.6177H17.9836V15.0803H26.4148V11.6177Z" fill="#E3DFC5" mask="url(#path-1-outside-1_97_79)"/>
<path d="M54.07 14.9976L52.0963 12.8941V9.5181H49.9668V26.6318H47.8633V9.5181H45.7079V14.9976L43.7083 17.1011V8.86887H54.07V14.9976ZM63.5483 12.6084C63.5483 14.0454 63.1588 15.3698 62.3797 16.5817C61.4967 17.9667 60.3801 18.6592 59.0297 18.6592H58.1987V26.6318H56.1471V8.86887H61.2371C61.6526 8.86887 62.0681 8.96409 62.4836 9.15453C62.9683 9.37959 63.2367 9.67391 63.2886 10.0375C63.4617 11.3879 63.5483 12.2449 63.5483 12.6084ZM61.4967 12.6344C61.4967 12.0284 61.4102 10.9897 61.2371 9.5181H58.1987V18.01H58.796C59.5577 17.6984 60.2156 16.9193 60.7696 15.6728C61.2544 14.5821 61.4967 13.5693 61.4967 12.6344ZM73.0591 26.6318H65.6319V21.412L67.6835 23.5155V25.9825H70.9816V18.893H70.9556C70.6267 18.893 70.1332 19.0228 69.4754 19.2825H69.2676C68.9733 19.2306 68.4626 19.1007 67.7354 18.893C66.3331 18.4255 65.6319 16.876 65.6319 14.2445V8.86887H67.6835V14.4263C67.6835 15.6035 67.7701 16.4778 67.9432 17.0492C68.2029 17.8802 68.679 18.4428 69.3715 18.7371C70.4622 18.2697 71.0075 17.1184 71.0075 15.2833V8.86887H73.0591V26.6318ZM83.1544 14.9976L81.0249 12.8941V9.5181H77.7269V16.7116H78.3242C78.3761 16.7116 78.4453 16.7029 78.5319 16.6856H78.8435C79.0513 16.6856 79.3023 16.7116 79.5966 16.7635C79.7005 16.7808 79.7525 16.7981 79.7525 16.8154C80.1853 16.8674 80.6268 17.0751 81.0769 17.4387C82.41 18.5294 83.0765 20.2434 83.0765 22.5806V25.7229C83.0765 26.0345 82.7995 26.2769 82.2455 26.45C81.8473 26.5712 81.4405 26.6318 81.0249 26.6318H75.6753V8.86887H83.1544V14.9976ZM80.999 22.6066C80.999 20.8926 80.5056 19.4297 79.5187 18.2178C79.1898 17.8023 78.8609 17.5166 78.5319 17.3608H77.7009V25.9825H80.999V22.6066ZM92.8904 26.6318H90.8389V22.6066C90.8389 21.3254 90.5445 20.1568 89.9559 19.1007C89.4711 18.2178 88.9431 17.6378 88.3718 17.3608H87.5408V26.6318H85.4892V8.86887H87.5408V16.7116H88.1381C88.9345 16.3826 89.601 15.6988 90.1377 14.66C90.6051 13.7251 90.8389 12.7902 90.8389 11.8553V8.86887H92.8904V11.8294C92.8904 12.9893 92.6221 14.0454 92.0854 14.9976C91.4621 16.1056 90.6138 16.7116 89.5404 16.8154C90.6657 16.9539 91.5314 17.6984 92.1373 19.0488C92.6394 20.1222 92.8904 21.2994 92.8904 22.5806V26.6318ZM104.499 17.5685C104.499 18.2091 103.893 18.6506 102.681 18.893V25.4891L104.083 26.6318H99.2269L100.603 25.4891V20.9186L97.2792 24.1907V26.6318H95.2276V17.5945C95.2276 15.2919 95.9115 13.5 97.2792 12.2189C98.2314 11.3186 99.3394 10.7646 100.603 10.5569V9.72585L99.2269 8.86887H104.083L102.681 9.72585V16.348C103.893 16.5904 104.499 16.9972 104.499 17.5685ZM100.603 19.6461V18.9189C99.4779 18.6766 98.9153 18.2437 98.9153 17.6205C98.9153 17.0145 99.4779 16.5904 100.603 16.348V11.5956C99.3221 11.5956 98.4045 12.3314 97.8505 13.803C97.4696 14.8245 97.2792 16.097 97.2792 17.6205V23.0221L100.603 19.6461ZM125.156 10.8945L125.053 11.8294C124.914 13.0066 124.611 14.0367 124.144 14.9197C123.52 16.0796 122.707 16.7116 121.703 16.8154C122.586 16.9193 123.365 17.456 124.04 18.4255C124.819 19.5508 125.156 20.9359 125.053 22.5806L125.001 23.4635H122.949V22.7364L122.975 22.9442C122.992 23.0134 123.001 22.9009 123.001 22.6066C123.001 21.3254 122.707 20.1568 122.118 19.1007C121.633 18.2178 121.105 17.6378 120.534 17.3608H119.703V16.7116H120.3C121.045 16.3999 121.677 15.7074 122.196 14.634C122.629 13.7511 122.897 12.8248 123.001 11.8553L123.105 10.8945H125.156ZM120.508 10.7906L120.404 11.7255C120.266 12.9027 119.963 13.9329 119.495 14.8158C118.872 15.9758 118.058 16.6077 117.054 16.7116C117.937 16.8154 118.716 17.3521 119.391 18.3216C120.17 19.447 120.508 20.832 120.404 22.4767L120.352 23.3597H118.301V22.6325L118.327 22.8403C118.344 22.9095 118.353 22.797 118.353 22.5027C118.353 21.2215 118.058 20.0529 117.47 18.9968C116.985 18.1139 116.457 17.5339 115.886 17.2569H115.054V16.6077H115.652C116.396 16.296 117.028 15.6035 117.548 14.5301C117.98 13.6472 118.249 12.721 118.353 11.7514L118.456 10.7906H120.508ZM133.772 26.6318H126.345V21.412L128.397 23.5155V25.9825H131.695V18.893H131.669C131.34 18.893 130.846 19.0228 130.188 19.2825H129.981C129.686 19.2306 129.176 19.1007 128.448 18.893C127.046 18.4255 126.345 16.876 126.345 14.2445V8.86887H128.397V14.4263C128.397 15.6035 128.483 16.4778 128.656 17.0492C128.916 17.8802 129.392 18.4428 130.085 18.7371C131.175 18.2697 131.721 17.1184 131.721 15.2833V8.86887H133.772V26.6318ZM145.633 17.5685C145.633 18.2091 145.027 18.6506 143.816 18.893V25.4891L143.582 25.9306H145.555V32.0593L143.582 29.9558V26.6318H140.362L140.414 26.5798H138.414V26.6318H137.193V32.0593L135.194 34.1628V25.9306H136.362V17.5945C136.362 15.2919 137.046 13.5 138.414 12.2189C139.366 11.3186 140.474 10.7646 141.738 10.5569V9.72585L140.362 8.86887H145.218L143.816 9.72585V16.348C145.027 16.5904 145.633 16.9972 145.633 17.5685ZM141.738 25.4891V18.9189C140.613 18.6766 140.05 18.2437 140.05 17.6205C140.05 17.0145 140.613 16.5904 141.738 16.348V11.5956C140.457 11.5956 139.539 12.3314 138.985 13.803C138.604 14.8245 138.414 16.097 138.414 17.6205V25.9306H141.219L141.738 25.4891ZM156.893 17.5685C156.893 18.2091 156.287 18.6506 155.076 18.893V25.4891L156.478 26.6318H151.622L152.998 25.4891V20.9186L149.674 24.1907V26.6318H147.622V17.5945C147.622 15.2919 148.306 13.5 149.674 12.2189C150.626 11.3186 151.734 10.7646 152.998 10.5569V9.72585L151.622 8.86887H156.478L155.076 9.72585V16.348C156.287 16.5904 156.893 16.9972 156.893 17.5685ZM152.998 19.6461V18.9189C151.873 18.6766 151.31 18.2437 151.31 17.6205C151.31 17.0145 151.873 16.5904 152.998 16.348V11.5956C151.717 11.5956 150.799 12.3314 150.245 13.803C149.864 14.8245 149.674 16.097 149.674 17.6205V23.0221L152.998 19.6461ZM166.056 26.6318H163.979V18.893H163.953C163.624 18.893 163.13 19.0228 162.472 19.2825H162.265C161.97 19.2306 161.46 19.1007 160.732 18.893C159.33 18.4255 158.629 16.876 158.629 14.2445V8.86887H160.68V14.4263C160.68 15.6035 160.767 16.4778 160.94 17.0492C161.2 17.8802 161.676 18.4428 162.368 18.7371C163.459 18.2697 164.005 17.1184 164.005 15.2833V8.86887H166.056V26.6318ZM176.203 26.6318H174.152V16.1402L170.698 17.3608V26.6318H168.646V8.86887H170.698V16.1922L174.152 14.9457V8.86887H176.203V26.6318ZM188.062 17.5685C188.062 18.2091 187.456 18.6506 186.244 18.893V25.4891L187.646 26.6318H182.79L184.166 25.4891V20.9186L180.842 24.1907V26.6318H178.791V17.5945C178.791 15.2919 179.474 13.5 180.842 12.2189C181.794 11.3186 182.902 10.7646 184.166 10.5569V9.72585L182.79 8.86887H187.646L186.244 9.72585V16.348C187.456 16.5904 188.062 16.9972 188.062 17.5685ZM184.166 19.6461V18.9189C183.041 18.6766 182.478 18.2437 182.478 17.6205C182.478 17.0145 183.041 16.5904 184.166 16.348V11.5956C182.885 11.5956 181.967 12.3314 181.413 13.803C181.033 14.8245 180.842 16.097 180.842 17.6205V23.0221L184.166 19.6461ZM197.198 26.6318H195.147V17.3608H194.316C193.779 17.6205 193.251 18.287 192.731 19.3604C192.143 20.5723 191.849 21.8275 191.849 23.1259V26.6318H189.797V23.1C189.797 21.8188 190.048 20.5636 190.55 19.3344C191.191 17.7936 192.056 16.9539 193.147 16.8154C192.229 16.7116 191.424 16.071 190.732 14.8937C190.109 13.8376 189.797 12.8162 189.797 11.8294C189.797 11.5523 189.858 11.033 189.979 10.2712C190.031 9.89032 190.299 9.55272 190.784 9.2584C191.199 8.99871 191.615 8.86887 192.03 8.86887H197.198V26.6318ZM195.147 16.7116V9.5181H192.03C191.909 10.5049 191.849 11.284 191.849 11.8553C191.849 12.7383 192.1 13.6732 192.602 14.66C193.138 15.7161 193.788 16.3999 194.549 16.7116H195.147ZM208.593 17.2569H207.762C207.19 17.5339 206.662 18.1139 206.177 18.9968C205.589 20.0529 205.294 21.2215 205.294 22.5027C205.294 22.797 205.303 22.9095 205.32 22.8403L205.346 22.6325V23.3597H203.295L203.243 22.4767C203.139 20.832 203.477 19.447 204.256 18.3216C204.931 17.3521 205.71 16.8154 206.593 16.7116C205.589 16.6077 204.775 15.9758 204.152 14.8158C203.684 13.9329 203.381 12.9027 203.243 11.7255L203.139 10.7906H205.191L205.294 11.7514C205.398 12.721 205.667 13.6472 206.1 14.5301C206.619 15.6035 207.251 16.296 207.995 16.6077H208.593V17.2569ZM203.944 17.3608H203.113C202.542 17.6378 202.014 18.2178 201.529 19.1007C200.94 20.1568 200.646 21.3254 200.646 22.6066C200.646 22.9009 200.655 23.0134 200.672 22.9442L200.698 22.7364V23.4635H198.646L198.594 22.5806C198.491 20.9359 198.828 19.5508 199.607 18.4255C200.282 17.456 201.062 16.9193 201.944 16.8154C200.94 16.7116 200.127 16.0796 199.503 14.9197C199.036 14.0367 198.733 13.0066 198.594 11.8294L198.491 10.8945H200.542L200.646 11.8553C200.75 12.8248 201.018 13.7511 201.451 14.634C201.97 15.7074 202.602 16.3999 203.347 16.7116H203.944V17.3608Z" fill="#551018"/>
<path d="M54.07 14.9976L52.8074 16.1822L55.8012 19.373V14.9976H54.07ZM52.0963 12.8941H50.365V13.5791L50.8338 14.0787L52.0963 12.8941ZM52.0963 9.5181H53.8276V7.78682H52.0963V9.5181ZM49.9668 9.5181V7.78682H48.2356V9.5181H49.9668ZM49.9668 26.6318V28.3631H51.6981V26.6318H49.9668ZM47.8633 26.6318H46.1321V28.3631H47.8633V26.6318ZM47.8633 9.5181H49.5946V7.78682H47.8633V9.5181ZM45.7079 9.5181V7.78682H43.9766V9.5181H45.7079ZM45.7079 14.9976L46.9627 16.1904L47.4392 15.6892V14.9976H45.7079ZM43.7083 17.1011H41.977V21.4351L44.9631 18.2939L43.7083 17.1011ZM43.7083 8.86887V7.13759H41.977V8.86887H43.7083ZM54.07 8.86887H55.8012V7.13759H54.07V8.86887ZM55.3325 13.813L53.3589 11.7095L50.8338 14.0787L52.8074 16.1822L55.3325 13.813ZM53.8276 12.8941V9.5181H50.365V12.8941H53.8276ZM52.0963 7.78682H49.9668V11.2494H52.0963V7.78682ZM48.2356 9.5181V26.6318H51.6981V9.5181H48.2356ZM49.9668 24.9005H47.8633V28.3631H49.9668V24.9005ZM49.5946 26.6318V9.5181H46.1321V26.6318H49.5946ZM47.8633 7.78682H45.7079V11.2494H47.8633V7.78682ZM43.9766 9.5181V14.9976H47.4392V9.5181H43.9766ZM44.4531 13.8048L42.4535 15.9083L44.9631 18.2939L46.9627 16.1904L44.4531 13.8048ZM45.4396 17.1011V8.86887H41.977V17.1011H45.4396ZM43.7083 10.6001H54.07V7.13759H43.7083V10.6001ZM52.3387 8.86887V14.9976H55.8012V8.86887H52.3387ZM62.3797 16.5817L60.9234 15.6455L60.9198 15.651L62.3797 16.5817ZM58.1987 18.6592V16.928H56.4674V18.6592H58.1987ZM58.1987 26.6318V28.3631H59.9299V26.6318H58.1987ZM56.1471 26.6318H54.4158V28.3631H56.1471V26.6318ZM56.1471 8.86887V7.13759H54.4158V8.86887H56.1471ZM62.4836 9.15453L63.2126 7.58422L63.2049 7.58068L62.4836 9.15453ZM63.2886 10.0375L65.0058 9.81732L65.0043 9.80497L65.0025 9.79264L63.2886 10.0375ZM61.2371 9.5181L62.9565 9.31581L62.7766 7.78682H61.2371V9.5181ZM58.1987 9.5181V7.78682H56.4674V9.5181H58.1987ZM58.1987 18.01H56.4674V19.7413H58.1987V18.01ZM58.796 18.01V19.7413H59.1364L59.4515 19.6124L58.796 18.01ZM60.7696 15.6728L62.3517 16.3759V16.3759L60.7696 15.6728ZM61.817 12.6084C61.817 13.7125 61.5234 14.7121 60.9234 15.6455L63.836 17.5179C64.7941 16.0275 65.2796 14.3783 65.2796 12.6084H61.817ZM60.9198 15.651C60.2755 16.6618 59.6548 16.928 59.0297 16.928V20.3905C61.1054 20.3905 62.718 19.2716 63.8396 17.5124L60.9198 15.651ZM59.0297 16.928H58.1987V20.3905H59.0297V16.928ZM56.4674 18.6592V26.6318H59.9299V18.6592H56.4674ZM58.1987 24.9005H56.1471V28.3631H58.1987V24.9005ZM57.8784 26.6318V8.86887H54.4158V26.6318H57.8784ZM56.1471 10.6001H61.2371V7.13759H56.1471V10.6001ZM61.2371 10.6001C61.3796 10.6001 61.5502 10.6312 61.7622 10.7284L63.2049 7.58068C62.5859 7.29699 61.9255 7.13759 61.2371 7.13759V10.6001ZM61.7545 10.7248C61.8557 10.7718 61.8329 10.7805 61.7691 10.7105C61.7345 10.6726 61.691 10.6147 61.6525 10.5356C61.6134 10.4554 61.5871 10.3689 61.5747 10.2823L65.0025 9.79264C64.834 8.61291 63.9683 7.93509 63.2126 7.58424L61.7545 10.7248ZM61.5714 10.2576C61.7492 11.6442 61.817 12.3792 61.817 12.6084H65.2796C65.2796 12.1106 65.1743 11.1316 65.0058 9.81732L61.5714 10.2576ZM63.228 12.6344C63.228 11.9159 63.1295 10.7862 62.9565 9.31581L59.5176 9.72038C59.6909 11.1931 59.7655 12.141 59.7655 12.6344H63.228ZM61.2371 7.78682H58.1987V11.2494H61.2371V7.78682ZM56.4674 9.5181V18.01H59.9299V9.5181H56.4674ZM58.1987 19.7413H58.796V16.2787H58.1987V19.7413ZM59.4515 19.6124C60.8262 19.05 61.7286 17.7778 62.3517 16.3759L59.1875 14.9696C58.7026 16.0608 58.2893 16.3468 58.1404 16.4076L59.4515 19.6124ZM62.3517 16.3759C62.9086 15.1228 63.228 13.8687 63.228 12.6344H59.7655C59.7655 13.2699 59.6001 14.0413 59.1875 14.9696L62.3517 16.3759ZM73.0591 26.6318V28.3631H74.7904V26.6318H73.0591ZM65.6319 26.6318H63.9007V28.3631H65.6319V26.6318ZM65.6319 21.412L66.8713 20.2032L63.9007 17.1573V21.412H65.6319ZM67.6835 23.5155H69.4148V22.811L68.9229 22.3067L67.6835 23.5155ZM67.6835 25.9825H65.9522V27.7138H67.6835V25.9825ZM70.9816 25.9825V27.7138H72.7129V25.9825H70.9816ZM70.9816 18.893H72.7129V17.1617H70.9816V18.893ZM69.4754 19.2825V21.0138H69.8047L70.111 20.8929L69.4754 19.2825ZM69.2676 19.2825L68.9667 20.9874L69.116 21.0138H69.2676V19.2825ZM67.7354 18.893L67.188 20.5354L67.2236 20.5473L67.2598 20.5576L67.7354 18.893ZM65.6319 8.86887V7.13759H63.9007V8.86887H65.6319ZM67.6835 8.86887H69.4148V7.13759H67.6835V8.86887ZM67.9432 17.0492L66.2863 17.5512L66.2885 17.5584L66.2907 17.5655L67.9432 17.0492ZM69.3715 18.7371L68.6943 20.3305L69.3743 20.6195L70.0535 20.3284L69.3715 18.7371ZM71.0075 8.86887V7.13759H69.2763V8.86887H71.0075ZM73.0591 8.86887H74.7904V7.13759H73.0591V8.86887ZM73.0591 24.9005H65.6319V28.3631H73.0591V24.9005ZM67.3632 26.6318V21.412H63.9007V26.6318H67.3632ZM64.3925 22.6208L66.4441 24.7243L68.9229 22.3067L66.8713 20.2032L64.3925 22.6208ZM65.9522 23.5155V25.9825H69.4148V23.5155H65.9522ZM67.6835 27.7138H70.9816V24.2513H67.6835V27.7138ZM72.7129 25.9825V18.893H69.2503V25.9825H72.7129ZM70.9816 17.1617H70.9556V20.6242H70.9816V17.1617ZM70.9556 17.1617C70.2759 17.1617 69.5209 17.4032 68.8397 17.6721L70.111 20.8929C70.3986 20.7793 70.6187 20.7069 70.7794 20.6646C70.952 20.6192 70.9978 20.6242 70.9556 20.6242V17.1617ZM69.4754 17.5512H69.2676V21.0138H69.4754V17.5512ZM69.5685 17.5776C69.3731 17.5431 68.9414 17.437 68.211 17.2283L67.2598 20.5576C67.9837 20.7645 68.5734 20.918 68.9667 20.9874L69.5685 17.5776ZM68.2829 17.2505C68.0484 17.1724 67.3632 16.7733 67.3632 14.2445H63.9007C63.9007 16.9787 64.6178 19.6787 67.188 20.5354L68.2829 17.2505ZM67.3632 14.2445V8.86887H63.9007V14.2445H67.3632ZM65.6319 10.6001H67.6835V7.13759H65.6319V10.6001ZM65.9522 8.86887V14.4263H69.4148V8.86887H65.9522ZM65.9522 14.4263C65.9522 15.6422 66.0364 16.7267 66.2863 17.5512L69.6001 16.5471C69.5037 16.229 69.4148 15.5649 69.4148 14.4263H65.9522ZM66.2907 17.5655C66.6754 18.7966 67.4586 19.8053 68.6943 20.3305L70.0487 17.1438C69.8993 17.0803 69.7303 16.9638 69.5957 16.5328L66.2907 17.5655ZM70.0535 20.3284C72.0988 19.4519 72.7388 17.3822 72.7388 15.2833H69.2763C69.2763 16.8546 68.8256 17.0875 68.6895 17.1459L70.0535 20.3284ZM72.7388 15.2833V8.86887H69.2763V15.2833H72.7388ZM71.0075 10.6001H73.0591V7.13759H71.0075V10.6001ZM71.3278 8.86887V26.6318H74.7904V8.86887H71.3278ZM83.1544 14.9976L81.9378 16.2293L84.8857 19.1413V14.9976H83.1544ZM81.0249 12.8941H79.2937V13.6174L79.8083 14.1258L81.0249 12.8941ZM81.0249 9.5181H82.7562V7.78682H81.0249V9.5181ZM77.7269 9.5181V7.78682H75.9956V9.5181H77.7269ZM77.7269 16.7116H75.9956V18.4428H77.7269V16.7116ZM78.5319 16.6856V14.9543H78.3605L78.1924 14.9879L78.5319 16.6856ZM79.5966 16.7635L79.2958 18.4684L79.3039 18.4699L79.312 18.4712L79.5966 16.7635ZM79.7525 16.8154H78.0212V18.3514L79.5462 18.5344L79.7525 16.8154ZM81.0769 17.4387L82.1732 16.0987L82.1647 16.0919L81.0769 17.4387ZM82.2455 26.45L82.7496 28.1063L82.7619 28.1025L82.2455 26.45ZM75.6753 26.6318H73.944V28.3631H75.6753V26.6318ZM75.6753 8.86887V7.13759H73.944V8.86887H75.6753ZM83.1544 8.86887H84.8857V7.13759H83.1544V8.86887ZM79.5187 18.2178L78.1613 19.2924L78.1687 19.3017L78.1762 19.3109L79.5187 18.2178ZM78.5319 17.3608L79.273 15.7962L78.9212 15.6295H78.5319V17.3608ZM77.7009 17.3608V15.6295H75.9696V17.3608H77.7009ZM77.7009 25.9825H75.9696V27.7138H77.7009V25.9825ZM80.999 25.9825V27.7138H82.7303V25.9825H80.999ZM84.3711 13.7659L82.2416 11.6624L79.8083 14.1258L81.9378 16.2293L84.3711 13.7659ZM82.7562 12.8941V9.5181H79.2937V12.8941H82.7562ZM81.0249 7.78682H77.7269V11.2494H81.0249V7.78682ZM75.9956 9.5181V16.7116H79.4581V9.5181H75.9956ZM77.7269 18.4428H78.3242V14.9803H77.7269V18.4428ZM78.3242 18.4428C78.5419 18.4428 78.739 18.4097 78.8714 18.3832L78.1924 14.9879C78.1802 14.9904 78.1839 14.9892 78.2003 14.9872C78.2144 14.9854 78.2588 14.9803 78.3242 14.9803V18.4428ZM78.5319 18.4169H78.8435V14.9543H78.5319V18.4169ZM78.8435 18.4169C78.9172 18.4169 79.0616 18.4271 79.2958 18.4684L79.8975 15.0586C79.543 14.996 79.1854 14.9543 78.8435 14.9543V18.4169ZM79.312 18.4712C79.3403 18.4759 79.2717 18.4671 79.166 18.4319C79.1251 18.4182 78.9652 18.3648 78.7824 18.243C78.6882 18.1802 78.5208 18.0554 78.365 17.8477C78.1989 17.6262 78.0212 17.2729 78.0212 16.8154H81.4837C81.4837 15.892 80.8141 15.436 80.7031 15.3619C80.5072 15.2314 80.3279 15.1693 80.261 15.147C80.1034 15.0945 79.9569 15.0684 79.8813 15.0558L79.312 18.4712ZM79.5462 18.5344C79.5664 18.5368 79.7112 18.5611 79.9891 18.7855L82.1647 16.0919C81.5423 15.5892 80.8041 15.1979 79.9587 15.0965L79.5462 18.5344ZM79.9806 18.7786C80.781 19.4335 81.3452 20.566 81.3452 22.5806H84.8078C84.8078 19.9208 84.039 17.6253 82.1732 16.0988L79.9806 18.7786ZM81.3452 22.5806V25.7229H84.8078V22.5806H81.3452ZM81.3452 25.7229C81.3452 25.5337 81.3897 25.342 81.4761 25.1693C81.559 25.0034 81.66 24.8955 81.7287 24.8354C81.8459 24.7329 81.8943 24.7459 81.7291 24.7975L82.7619 28.1025C83.1507 27.981 83.6146 27.7862 84.0088 27.4413C84.4482 27.0568 84.8078 26.4694 84.8078 25.7229H81.3452ZM81.7414 24.7937C81.5063 24.8653 81.2693 24.9005 81.0249 24.9005V28.3631C81.6116 28.3631 82.1883 28.2771 82.7496 28.1063L81.7414 24.7937ZM81.0249 24.9005H75.6753V28.3631H81.0249V24.9005ZM77.4066 26.6318V8.86887H73.944V26.6318H77.4066ZM75.6753 10.6001H83.1544V7.13759H75.6753V10.6001ZM81.4231 8.86887V14.9976H84.8857V8.86887H81.4231ZM82.7303 22.6066C82.7303 20.5354 82.1243 18.6757 80.8612 17.1246L78.1762 19.3109C78.8868 20.1836 79.2677 21.2498 79.2677 22.6066H82.7303ZM80.8761 17.1432C80.4518 16.6071 79.9265 16.1057 79.273 15.7962L77.7908 18.9254C77.788 18.9241 77.8221 18.94 77.8901 18.9991C77.9583 19.0583 78.0498 19.1515 78.1613 19.2924L80.8761 17.1432ZM78.5319 15.6295H77.7009V19.0921H78.5319V15.6295ZM75.9696 17.3608V25.9825H79.4322V17.3608H75.9696ZM77.7009 27.7138H80.999V24.2513H77.7009V27.7138ZM82.7303 25.9825V22.6066H79.2677V25.9825H82.7303ZM92.8904 26.6318V28.3631H94.6217V26.6318H92.8904ZM90.8389 26.6318H89.1076V28.3631H90.8389V26.6318ZM89.9559 19.1007L88.4383 19.9339L88.4437 19.9436L89.9559 19.1007ZM88.3718 17.3608L89.1271 15.803L88.7694 15.6295H88.3718V17.3608ZM87.5408 17.3608V15.6295H85.8095V17.3608H87.5408ZM87.5408 26.6318V28.3631H89.272V26.6318H87.5408ZM85.4892 26.6318H83.7579V28.3631H85.4892V26.6318ZM85.4892 8.86887V7.13759H83.7579V8.86887H85.4892ZM87.5408 8.86887H89.272V7.13759H87.5408V8.86887ZM87.5408 16.7116H85.8095V18.4428H87.5408V16.7116ZM88.1381 16.7116V18.4428H88.4815L88.799 18.3117L88.1381 16.7116ZM90.1377 14.66L91.6758 15.4547L91.6811 15.4445L91.6862 15.4342L90.1377 14.66ZM90.8389 8.86887V7.13759H89.1076V8.86887H90.8389ZM92.8904 8.86887H94.6217V7.13759H92.8904V8.86887ZM92.0854 14.9976L90.5772 14.1475L90.5764 14.1488L92.0854 14.9976ZM89.5404 16.8154L89.3736 15.0922L89.3289 18.5337L89.5404 16.8154ZM92.1373 19.0488L90.5578 19.7575L90.5633 19.77L90.5691 19.7823L92.1373 19.0488ZM92.8904 24.9005H90.8389V28.3631H92.8904V24.9005ZM92.5701 26.6318V22.6066H89.1076V26.6318H92.5701ZM92.5701 22.6066C92.5701 21.0486 92.209 19.5871 91.4681 18.2578L88.4437 19.9436C88.8801 20.7265 89.1076 21.6022 89.1076 22.6066H92.5701ZM91.4735 18.2675C90.9095 17.2403 90.1609 16.3042 89.1271 15.803L87.6165 18.9186C87.7253 18.9714 88.0328 19.1953 88.4383 19.9339L91.4735 18.2675ZM88.3718 15.6295H87.5408V19.0921H88.3718V15.6295ZM85.8095 17.3608V26.6318H89.272V17.3608H85.8095ZM87.5408 24.9005H85.4892V28.3631H87.5408V24.9005ZM87.2205 26.6318V8.86887H83.7579V26.6318H87.2205ZM85.4892 10.6001H87.5408V7.13759H85.4892V10.6001ZM85.8095 8.86887V16.7116H89.272V8.86887H85.8095ZM87.5408 18.4428H88.1381V14.9803H87.5408V18.4428ZM88.799 18.3117C90.0901 17.7784 91.0184 16.7271 91.6758 15.4547L88.5996 13.8653C88.1836 14.6704 87.7788 14.9868 87.4771 15.1114L88.799 18.3117ZM91.6862 15.4342C92.2595 14.2876 92.5701 13.0893 92.5701 11.8553H89.1076C89.1076 12.4911 88.9508 13.1626 88.5892 13.8857L91.6862 15.4342ZM92.5701 11.8553V8.86887H89.1076V11.8553H92.5701ZM90.8389 10.6001H92.8904V7.13759H90.8389V10.6001ZM91.1591 8.86887V11.8294H94.6217V8.86887H91.1591ZM91.1591 11.8294C91.1591 12.7104 90.9586 13.4707 90.5772 14.1475L93.5936 15.8477C94.2855 14.62 94.6217 13.2683 94.6217 11.8294H91.1591ZM90.5764 14.1488C90.1738 14.8646 89.7772 15.0531 89.3736 15.0922L89.7072 18.5387C91.4504 18.37 92.7504 17.3467 93.5943 15.8464L90.5764 14.1488ZM89.3289 18.5337C89.6701 18.5757 90.1137 18.7679 90.5578 19.7575L93.7169 18.34C92.949 16.6289 91.6613 15.3321 89.7519 15.0971L89.3289 18.5337ZM90.5691 19.7823C90.9553 20.6079 91.1591 21.532 91.1591 22.5806H94.6217C94.6217 21.0668 94.3235 19.6365 93.7055 18.3153L90.5691 19.7823ZM91.1591 22.5806V26.6318H94.6217V22.5806H91.1591ZM102.681 18.893L102.341 17.1953L100.95 17.4737V18.893H102.681ZM102.681 25.4891H100.95V26.3117L101.587 26.8313L102.681 25.4891ZM104.083 26.6318V28.3631H108.949L105.177 25.2896L104.083 26.6318ZM99.2269 26.6318L98.121 25.2997L94.4311 28.3631H99.2269V26.6318ZM100.603 25.4891L101.709 26.8212L102.335 26.302V25.4891H100.603ZM100.603 20.9186H102.335V16.785L99.3887 19.6848L100.603 20.9186ZM97.2792 24.1907L96.0647 22.9569L95.5479 23.4656V24.1907H97.2792ZM97.2792 26.6318V28.3631H99.0105V26.6318H97.2792ZM95.2276 26.6318H93.4964V28.3631H95.2276V26.6318ZM97.2792 12.2189L98.4628 13.4824L98.4686 13.4769L97.2792 12.2189ZM100.603 10.5569L100.884 12.2652L102.335 12.0268V10.5569H100.603ZM100.603 9.72585H102.335V8.76437L101.518 8.25617L100.603 9.72585ZM99.2269 8.86887V7.13759H93.1709L98.3118 10.3385L99.2269 8.86887ZM104.083 8.86887L104.986 10.3461L110.236 7.13759H104.083V8.86887ZM102.681 9.72585L101.778 8.24858L100.95 8.75489V9.72585H102.681ZM102.681 16.348H100.95V17.7673L102.341 18.0456L102.681 16.348ZM100.603 19.6461L101.837 20.8607L102.335 20.3553V19.6461H100.603ZM100.603 18.9189H102.335V17.5208L100.968 17.2265L100.603 18.9189ZM100.603 16.348L100.968 18.0405L102.335 17.7461V16.348H100.603ZM100.603 11.5956H102.335V9.86435H100.603V11.5956ZM97.8505 13.803L96.2303 13.193L96.2284 13.1981L97.8505 13.803ZM97.2792 23.0221H95.5479V27.248L98.5129 24.2367L97.2792 23.0221ZM102.767 17.5685C102.767 17.4427 102.801 17.2977 102.874 17.1657C102.943 17.0426 103.016 16.9872 103.025 16.9808C103.03 16.9769 102.988 17.0076 102.867 17.0534C102.747 17.0984 102.576 17.1484 102.341 17.1953L103.02 20.5906C103.732 20.4482 104.468 20.2131 105.064 19.7794C105.727 19.296 106.23 18.5415 106.23 17.5685H102.767ZM100.95 18.893V25.4891H104.412V18.893H100.95ZM101.587 26.8313L102.99 27.9739L105.177 25.2896L103.774 24.147L101.587 26.8313ZM104.083 24.9005H99.2269V28.3631H104.083V24.9005ZM100.333 27.9638L101.709 26.8212L99.4974 24.1571L98.121 25.2997L100.333 27.9638ZM102.335 25.4891V20.9186H98.872V25.4891H102.335ZM99.3887 19.6848L96.0647 22.9569L98.4937 25.4245L101.818 22.1524L99.3887 19.6848ZM95.5479 24.1907V26.6318H99.0105V24.1907H95.5479ZM97.2792 24.9005H95.2276V28.3631H97.2792V24.9005ZM96.9589 26.6318V17.5945H93.4964V26.6318H96.9589ZM96.9589 17.5945C96.9589 15.6532 97.5219 14.3637 98.4628 13.4824L96.0956 10.9554C94.3011 12.6363 93.4964 14.9306 93.4964 17.5945H96.9589ZM98.4686 13.4769C99.1759 12.8082 99.9696 12.4155 100.884 12.2652L100.322 8.84851C98.7093 9.11369 97.287 9.82901 96.0898 10.9609L98.4686 13.4769ZM102.335 10.5569V9.72585H98.872V10.5569H102.335ZM101.518 8.25617L100.142 7.39919L98.3118 10.3385L99.6882 11.1955L101.518 8.25617ZM99.2269 10.6001H104.083V7.13759H99.2269V10.6001ZM103.18 7.3916L101.778 8.24858L103.584 11.2031L104.986 10.3461L103.18 7.3916ZM100.95 9.72585V16.348H104.412V9.72585H100.95ZM102.341 18.0456C102.583 18.0941 102.764 18.1447 102.894 18.191C102.958 18.2138 103.004 18.2337 103.036 18.2491C103.068 18.2645 103.08 18.2732 103.079 18.2723C103.078 18.2713 103.058 18.2578 103.028 18.2282C102.997 18.198 102.955 18.1503 102.913 18.0826C102.821 17.9331 102.767 17.7502 102.767 17.5685H106.23C106.23 16.5468 105.642 15.8223 105.009 15.3976C104.43 15.0084 103.716 14.7895 103.02 14.6503L102.341 18.0456ZM102.335 19.6461V18.9189H98.872V19.6461H102.335ZM100.968 17.2265C100.758 17.1812 100.608 17.1343 100.508 17.094C100.405 17.053 100.378 17.0288 100.393 17.0403C100.412 17.0547 100.484 17.1158 100.549 17.2381C100.618 17.3673 100.647 17.5046 100.647 17.6205H97.184C97.184 18.5492 97.6416 19.2924 98.2817 19.7848C98.855 20.2258 99.5629 20.4658 100.239 20.6114L100.968 17.2265ZM100.647 17.6205C100.647 17.7492 100.613 17.8958 100.54 18.03C100.471 18.1562 100.397 18.2175 100.379 18.2304C100.366 18.2407 100.395 18.2157 100.501 18.1741C100.604 18.1334 100.756 18.0861 100.968 18.0405L100.239 14.6555C99.5674 14.8001 98.8651 15.0358 98.2951 15.4654C97.66 15.9442 97.184 16.681 97.184 17.6205H100.647ZM102.335 16.348V11.5956H98.872V16.348H102.335ZM100.603 9.86435C99.6064 9.86435 98.6652 10.1601 97.8711 10.7968C97.1017 11.4138 96.581 12.2614 96.2303 13.193L99.4708 14.413C99.6741 13.873 99.8891 13.6169 100.037 13.4981C100.161 13.3991 100.319 13.3269 100.603 13.3269V9.86435ZM96.2284 13.1981C95.7528 14.4733 95.5479 15.9664 95.5479 17.6205H99.0105C99.0105 16.2275 99.1864 15.1756 99.4727 14.4079L96.2284 13.1981ZM95.5479 17.6205V23.0221H99.0105V17.6205H95.5479ZM98.5129 24.2367L101.837 20.8607L99.3696 18.4314L96.0456 21.8074L98.5129 24.2367ZM125.156 10.8945L126.877 11.0857L127.091 9.16319H125.156V10.8945ZM125.053 11.8294L126.772 12.0316L126.773 12.0205L125.053 11.8294ZM124.144 14.9197L125.669 15.7391L125.674 15.7297L124.144 14.9197ZM121.703 16.8154L121.524 15.0933L121.5 18.5349L121.703 16.8154ZM124.04 18.4255L125.463 17.4401L125.461 17.4361L124.04 18.4255ZM125.053 22.5806L123.325 22.4715L123.324 22.4789L125.053 22.5806ZM125.001 23.4635V25.1948H126.633L126.729 23.5652L125.001 23.4635ZM122.949 23.4635H121.218V25.1948H122.949V23.4635ZM122.949 22.7364L124.667 22.5217L121.218 22.7364H122.949ZM122.975 22.9442L121.257 23.1589L121.27 23.2626L121.296 23.3641L122.975 22.9442ZM122.118 19.1007L120.6 19.9339L120.606 19.9436L122.118 19.1007ZM120.534 17.3608L121.289 15.803L120.932 15.6295H120.534V17.3608ZM119.703 17.3608H117.972V19.0921H119.703V17.3608ZM119.703 16.7116V14.9803H117.972V16.7116H119.703ZM120.3 16.7116V18.4428H120.648L120.969 18.3086L120.3 16.7116ZM122.196 14.634L120.641 13.872L120.638 13.8799L122.196 14.634ZM123.001 11.8553L121.28 11.6692L121.28 11.6709L123.001 11.8553ZM123.105 10.8945V9.16319H121.551L121.384 10.7084L123.105 10.8945ZM120.508 10.7906L122.229 10.9818L122.442 9.05931H120.508V10.7906ZM120.404 11.7255L122.124 11.9278L122.125 11.9167L120.404 11.7255ZM119.495 14.8158L121.02 15.6353L121.025 15.6258L119.495 14.8158ZM117.054 16.7116L116.876 14.9895L116.852 18.431L117.054 16.7116ZM119.391 18.3216L120.815 17.3362L120.812 17.3322L119.391 18.3216ZM120.404 22.4767L118.676 22.3676L118.676 22.375L120.404 22.4767ZM120.352 23.3597V25.0909H121.985L122.08 23.4613L120.352 23.3597ZM118.301 23.3597H116.569V25.0909H118.301V23.3597ZM118.301 22.6325L120.019 22.4178L116.569 22.6325H118.301ZM118.327 22.8403L116.609 23.055L116.622 23.1588L116.647 23.2602L118.327 22.8403ZM117.47 18.9968L115.952 19.8301L115.957 19.8397L117.47 18.9968ZM115.886 17.2569L116.641 15.6991L116.283 15.5256H115.886V17.2569ZM115.054 17.2569H113.323V18.9882H115.054V17.2569ZM115.054 16.6077V14.8764H113.323V16.6077H115.054ZM115.652 16.6077V18.339H116L116.32 18.2047L115.652 16.6077ZM117.548 14.5301L115.993 13.7681L115.989 13.7761L117.548 14.5301ZM118.353 11.7514L116.631 11.5654L116.631 11.567L118.353 11.7514ZM118.456 10.7906V9.05931H116.902L116.735 10.6045L118.456 10.7906ZM123.436 10.7033L123.332 11.6382L126.773 12.0205L126.877 11.0857L123.436 10.7033ZM123.333 11.6271C123.215 12.6306 122.964 13.4475 122.614 14.1096L125.674 15.7297C126.258 14.6259 126.613 13.3827 126.772 12.0316L123.333 11.6271ZM122.619 14.1002C122.175 14.926 121.788 15.0661 121.524 15.0933L121.881 18.5375C123.625 18.3571 124.866 17.2333 125.669 15.7391L122.619 14.1002ZM121.5 18.5349C121.743 18.5634 122.129 18.7109 122.619 19.4149L125.461 17.4361C124.6 16.2012 123.428 15.2752 121.905 15.096L121.5 18.5349ZM122.616 19.411C123.131 20.1545 123.409 21.1334 123.325 22.4715L126.78 22.6897C126.904 20.7383 126.507 18.9472 125.463 17.4401L122.616 19.411ZM123.324 22.4789L123.272 23.3619L126.729 23.5652L126.781 22.6822L123.324 22.4789ZM125.001 21.7323H122.949V25.1948H125.001V21.7323ZM124.68 23.4635V22.7364H121.218V23.4635H124.68ZM121.231 22.9511L121.257 23.1589L124.693 22.7294L124.667 22.5217L121.231 22.9511ZM121.296 23.3641C121.304 23.3988 121.32 23.4565 121.344 23.5253C121.361 23.5756 121.414 23.7236 121.521 23.8911C121.574 23.9757 121.682 24.1297 121.86 24.2812C122.04 24.4349 122.375 24.6535 122.851 24.6901C123.906 24.7713 124.407 23.9595 124.471 23.8528C124.596 23.6439 124.647 23.4577 124.661 23.4044C124.682 23.3248 124.694 23.2587 124.7 23.2211C124.712 23.1447 124.718 23.0796 124.721 23.0445C124.731 22.9134 124.732 22.7497 124.732 22.6066H121.27C121.27 22.7577 121.267 22.7975 121.268 22.7789C121.269 22.7719 121.272 22.7293 121.282 22.6697C121.286 22.6404 121.297 22.5813 121.317 22.5072C121.329 22.4595 121.378 22.2774 121.502 22.0713C121.564 21.9673 122.063 21.1567 123.117 21.2378C123.592 21.2743 123.926 21.4924 124.105 21.6454C124.282 21.7961 124.389 21.949 124.442 22.0321C124.547 22.1967 124.597 22.3402 124.613 22.3848C124.635 22.4477 124.648 22.4981 124.655 22.5243L121.296 23.3641ZM124.732 22.6066C124.732 21.0486 124.371 19.5871 123.63 18.2578L120.606 19.9436C121.042 20.7265 121.27 21.6022 121.27 22.6066H124.732ZM123.636 18.2675C123.072 17.2403 122.323 16.3042 121.289 15.803L119.779 18.9186C119.888 18.9714 120.195 19.1953 120.601 19.9339L123.636 18.2675ZM120.534 15.6295H119.703V19.0921H120.534V15.6295ZM121.434 17.3608V16.7116H117.972V17.3608H121.434ZM119.703 18.4428H120.3V14.9803H119.703V18.4428ZM120.969 18.3086C122.252 17.7712 123.137 16.6644 123.754 15.3881L120.638 13.8799C120.216 14.7505 119.837 15.0286 119.632 15.1146L120.969 18.3086ZM123.751 15.3961C124.271 14.3333 124.597 13.2118 124.722 12.0398L121.28 11.6709C121.197 12.4379 120.986 13.1688 120.641 13.872L123.751 15.3961ZM124.722 12.0414L124.826 11.0805L121.384 10.7084L121.28 11.6692L124.722 12.0414ZM123.105 12.6257H125.156V9.16319H123.105V12.6257ZM118.787 10.5994L118.683 11.5343L122.125 11.9167L122.229 10.9818L118.787 10.5994ZM118.685 11.5232C118.567 12.5267 118.316 13.3436 117.965 14.0058L121.025 15.6258C121.61 14.5221 121.965 13.2788 122.124 11.9278L118.685 11.5232ZM117.97 13.9964C117.526 14.8221 117.14 14.9622 116.876 14.9895L117.232 18.4336C118.977 18.2532 120.217 17.1294 121.02 15.6352L117.97 13.9964ZM116.852 18.431C117.095 18.4596 117.48 18.607 117.971 19.3111L120.812 17.3322C119.952 16.0973 118.779 15.1713 117.256 14.9921L116.852 18.431ZM117.968 19.3071C118.483 20.0506 118.761 21.0296 118.676 22.3676L122.132 22.5858C122.255 20.6344 121.858 18.8433 120.815 17.3362L117.968 19.3071ZM118.676 22.375L118.624 23.258L122.08 23.4613L122.132 22.5784L118.676 22.375ZM120.352 21.6284H118.301V25.0909H120.352V21.6284ZM120.032 23.3597V22.6325H116.569V23.3597H120.032ZM116.583 22.8473L116.609 23.055L120.045 22.6255L120.019 22.4178L116.583 22.8473ZM116.647 23.2602C116.656 23.2949 116.671 23.3526 116.695 23.4214C116.713 23.4718 116.765 23.6197 116.872 23.7872C116.926 23.8718 117.034 24.0258 117.211 24.1773C117.392 24.331 117.727 24.5496 118.203 24.5862C119.258 24.6674 119.758 23.8556 119.823 23.7489C119.948 23.5401 119.998 23.3538 120.012 23.3006C120.034 23.2209 120.046 23.1549 120.052 23.1172C120.064 23.0408 120.07 22.9758 120.072 22.9406C120.082 22.8095 120.084 22.6458 120.084 22.5027H116.621C116.621 22.6539 116.618 22.6936 116.62 22.675C116.62 22.668 116.624 22.6254 116.633 22.5658C116.638 22.5365 116.648 22.4775 116.668 22.4033C116.681 22.3556 116.73 22.1735 116.853 21.9674C116.916 21.8634 117.415 21.0528 118.468 21.1339C118.943 21.1704 119.277 21.3886 119.457 21.5415C119.634 21.6922 119.74 21.8451 119.793 21.9282C119.898 22.0928 119.949 22.2363 119.964 22.2809C119.986 22.3439 120 22.3943 120.006 22.4204L116.647 23.2602ZM120.084 22.5027C120.084 20.9447 119.723 19.4832 118.982 18.154L115.957 19.8397C116.394 20.6227 116.621 21.4984 116.621 22.5027H120.084ZM118.987 18.1636C118.423 17.1364 117.675 16.2003 116.641 15.6991L115.13 18.8147C115.239 18.8675 115.546 19.0914 115.952 19.83L118.987 18.1636ZM115.886 15.5256H115.054V18.9882H115.886V15.5256ZM116.786 17.2569V16.6077H113.323V17.2569H116.786ZM115.054 18.339H115.652V14.8764H115.054V18.339ZM116.32 18.2047C117.604 17.6673 118.488 16.5605 119.106 15.2842L115.989 13.7761C115.568 14.6466 115.188 14.9248 114.983 15.0107L116.32 18.2047ZM119.102 15.2922C119.623 14.2295 119.948 13.1079 120.074 11.9359L116.631 11.567C116.549 12.334 116.338 13.0649 115.993 13.7681L119.102 15.2922ZM120.074 11.9375L120.178 10.9767L116.735 10.6045L116.631 11.5654L120.074 11.9375ZM118.456 12.5219H120.508V9.05931H118.456V12.5219ZM133.772 26.6318V28.3631H135.503V26.6318H133.772ZM126.345 26.6318H124.614V28.3631H126.345V26.6318ZM126.345 21.412L127.584 20.2032L124.614 17.1573V21.412H126.345ZM128.397 23.5155H130.128V22.811L129.636 22.3067L128.397 23.5155ZM128.397 25.9825H126.665V27.7138H128.397V25.9825ZM131.695 25.9825V27.7138H133.426V25.9825H131.695ZM131.695 18.893H133.426V17.1617H131.695V18.893ZM130.188 19.2825V21.0138H130.518L130.824 20.8929L130.188 19.2825ZM129.981 19.2825L129.68 20.9874L129.829 21.0138H129.981V19.2825ZM128.448 18.893L127.901 20.5354L127.937 20.5473L127.973 20.5576L128.448 18.893ZM126.345 8.86887V7.13759H124.614V8.86887H126.345ZM128.397 8.86887H130.128V7.13759H128.397V8.86887ZM128.656 17.0492L126.999 17.5512L127.002 17.5584L127.004 17.5655L128.656 17.0492ZM130.085 18.7371L129.407 20.3305L130.087 20.6195L130.767 20.3284L130.085 18.7371ZM131.721 8.86887V7.13759H129.989V8.86887H131.721ZM133.772 8.86887H135.503V7.13759H133.772V8.86887ZM133.772 24.9005H126.345V28.3631H133.772V24.9005ZM128.076 26.6318V21.412H124.614V26.6318H128.076ZM125.106 22.6208L127.157 24.7243L129.636 22.3067L127.584 20.2032L125.106 22.6208ZM126.665 23.5155V25.9825H130.128V23.5155H126.665ZM128.397 27.7138H131.695V24.2513H128.397V27.7138ZM133.426 25.9825V18.893H129.963V25.9825H133.426ZM131.695 17.1617H131.669V20.6242H131.695V17.1617ZM131.669 17.1617C130.989 17.1617 130.234 17.4032 129.553 17.6721L130.824 20.8929C131.112 20.7793 131.332 20.7069 131.493 20.6646C131.665 20.6192 131.711 20.6242 131.669 20.6242V17.1617ZM130.188 17.5512H129.981V21.0138H130.188V17.5512ZM130.282 17.5776C130.086 17.5431 129.655 17.437 128.924 17.2283L127.973 20.5576C128.697 20.7645 129.287 20.918 129.68 20.9874L130.282 17.5776ZM128.996 17.2505C128.761 17.1724 128.076 16.7733 128.076 14.2445H124.614C124.614 16.9787 125.331 19.6787 127.901 20.5354L128.996 17.2505ZM128.076 14.2445V8.86887H124.614V14.2445H128.076ZM126.345 10.6001H128.397V7.13759H126.345V10.6001ZM126.665 8.86887V14.4263H130.128V8.86887H126.665ZM126.665 14.4263C126.665 15.6422 126.75 16.7267 126.999 17.5512L130.313 16.5471C130.217 16.229 130.128 15.5649 130.128 14.4263H126.665ZM127.004 17.5655C127.388 18.7966 128.172 19.8053 129.407 20.3305L130.762 17.1438C130.612 17.0803 130.443 16.9638 130.309 16.5328L127.004 17.5655ZM130.767 20.3284C132.812 19.4519 133.452 17.3822 133.452 15.2833H129.989C129.989 16.8546 129.539 17.0875 129.403 17.1459L130.767 20.3284ZM133.452 15.2833V8.86887H129.989V15.2833H133.452ZM131.721 10.6001H133.772V7.13759H131.721V10.6001ZM132.041 8.86887V26.6318H135.503V8.86887H132.041ZM143.816 18.893L143.476 17.1953L142.084 17.4737V18.893H143.816ZM143.816 25.4891L145.346 26.2992L145.547 25.9191V25.4891H143.816ZM143.582 25.9306L142.052 25.1206L140.706 27.6619H143.582V25.9306ZM145.555 25.9306H147.287V24.1993H145.555V25.9306ZM145.555 32.0593L144.293 33.2439L147.287 36.4347V32.0593H145.555ZM143.582 29.9558H141.851V30.6409L142.319 31.1404L143.582 29.9558ZM143.582 26.6318H145.313V24.9005H143.582V26.6318ZM140.362 26.6318L139.137 25.4076L136.182 28.3631H140.362V26.6318ZM140.414 26.5798L141.638 27.804L144.593 24.8486H140.414V26.5798ZM138.414 26.5798V24.8486H136.683V26.5798H138.414ZM138.414 26.6318V28.3631H140.145V26.6318H138.414ZM137.193 26.6318V24.9005H135.462V26.6318H137.193ZM137.193 32.0593L138.448 33.2522L138.925 32.7509V32.0593H137.193ZM135.194 34.1628H133.463V38.4968L136.449 35.3557L135.194 34.1628ZM135.194 25.9306V24.1993H133.463V25.9306H135.194ZM136.362 25.9306V27.6619H138.094V25.9306H136.362ZM138.414 12.2189L139.598 13.4824L139.603 13.4769L138.414 12.2189ZM141.738 10.5569L142.019 12.2652L143.469 12.0268V10.5569H141.738ZM141.738 9.72585H143.469V8.76437L142.653 8.25617L141.738 9.72585ZM140.362 8.86887V7.13759H134.306L139.447 10.3385L140.362 8.86887ZM145.218 8.86887L146.121 10.3461L151.371 7.13759H145.218V8.86887ZM143.816 9.72585L142.913 8.24858L142.084 8.75489V9.72585H143.816ZM143.816 16.348H142.084V17.7673L143.476 18.0456L143.816 16.348ZM141.738 25.4891L142.859 26.8083L143.469 26.2897V25.4891H141.738ZM141.738 18.9189H143.469V17.5208L142.103 17.2265L141.738 18.9189ZM141.738 16.348L142.103 18.0405L143.469 17.7461V16.348H141.738ZM141.738 11.5956H143.469V9.86435H141.738V11.5956ZM138.985 13.803L137.365 13.193L137.363 13.1981L138.985 13.803ZM138.414 25.9306H136.683V27.6619H138.414V25.9306ZM141.219 25.9306V27.6619H141.855L142.34 27.2497L141.219 25.9306ZM143.902 17.5685C143.902 17.4427 143.935 17.2977 144.009 17.1657C144.078 17.0426 144.151 16.9872 144.159 16.9808C144.165 16.9769 144.123 17.0076 144.001 17.0534C143.882 17.0984 143.711 17.1484 143.476 17.1953L144.155 20.5906C144.867 20.4482 145.603 20.2131 146.198 19.7794C146.862 19.296 147.365 18.5415 147.365 17.5685H143.902ZM142.084 18.893V25.4891H145.547V18.893H142.084ZM142.285 24.6791L142.052 25.1206L145.112 26.7407L145.346 26.2992L142.285 24.6791ZM143.582 27.6619H145.555V24.1993H143.582V27.6619ZM143.824 25.9306V32.0593H147.287V25.9306H143.824ZM146.818 30.8747L144.844 28.7712L142.319 31.1404L144.293 33.2439L146.818 30.8747ZM145.313 29.9558V26.6318H141.851V29.9558H145.313ZM143.582 24.9005H140.362V28.3631H143.582V24.9005ZM141.586 27.856L141.638 27.804L139.189 25.3556L139.137 25.4076L141.586 27.856ZM140.414 24.8486H138.414V28.3111H140.414V24.8486ZM136.683 26.5798V26.6318H140.145V26.5798H136.683ZM138.414 24.9005H137.193V28.3631H138.414V24.9005ZM135.462 26.6318V32.0593H138.925V26.6318H135.462ZM135.939 30.8665L133.939 32.97L136.449 35.3557L138.448 33.2522L135.939 30.8665ZM136.925 34.1628V25.9306H133.463V34.1628H136.925ZM135.194 27.6619H136.362V24.1993H135.194V27.6619ZM138.094 25.9306V17.5945H134.631V25.9306H138.094ZM138.094 17.5945C138.094 15.6532 138.657 14.3637 139.598 13.4824L137.23 10.9554C135.436 12.6363 134.631 14.9306 134.631 17.5945H138.094ZM139.603 13.4769C140.311 12.8082 141.104 12.4155 142.019 12.2652L141.457 8.84851C139.844 9.11369 138.422 9.82901 137.225 10.9609L139.603 13.4769ZM143.469 10.5569V9.72585H140.007V10.5569H143.469ZM142.653 8.25617L141.277 7.39919L139.447 10.3385L140.823 11.1955L142.653 8.25617ZM140.362 10.6001H145.218V7.13759H140.362V10.6001ZM144.315 7.3916L142.913 8.24858L144.718 11.2031L146.121 10.3461L144.315 7.3916ZM142.084 9.72585V16.348H145.547V9.72585H142.084ZM143.476 18.0456C143.718 18.0941 143.899 18.1447 144.029 18.191C144.092 18.2138 144.139 18.2337 144.17 18.2491C144.202 18.2645 144.215 18.2732 144.214 18.2723C144.212 18.2713 144.192 18.2578 144.162 18.2282C144.132 18.198 144.09 18.1503 144.048 18.0826C143.955 17.9331 143.902 17.7502 143.902 17.5685H147.365C147.365 16.5468 146.777 15.8223 146.144 15.3976C145.564 15.0084 144.851 14.7895 144.155 14.6503L143.476 18.0456ZM143.469 25.4891V18.9189H140.007V25.4891H143.469ZM142.103 17.2265C141.892 17.1812 141.743 17.1343 141.642 17.094C141.54 17.053 141.513 17.0288 141.528 17.0403C141.546 17.0547 141.618 17.1158 141.683 17.2381C141.752 17.3673 141.781 17.5046 141.781 17.6205H138.319C138.319 18.5492 138.776 19.2924 139.416 19.7848C139.99 20.2258 140.698 20.4658 141.373 20.6114L142.103 17.2265ZM141.781 17.6205C141.781 17.7492 141.748 17.8958 141.675 18.03C141.606 18.1562 141.531 18.2175 141.514 18.2304C141.501 18.2407 141.53 18.2157 141.635 18.1741C141.739 18.1334 141.89 18.0861 142.103 18.0405L141.373 14.6555C140.702 14.8001 140 15.0358 139.43 15.4654C138.795 15.9442 138.319 16.681 138.319 17.6205H141.781ZM143.469 16.348V11.5956H140.007V16.348H143.469ZM141.738 9.86435C140.741 9.86435 139.8 10.1601 139.006 10.7968C138.236 11.4138 137.716 12.2614 137.365 13.193L140.606 14.413C140.809 13.873 141.024 13.6169 141.172 13.4981C141.296 13.3991 141.454 13.3269 141.738 13.3269V9.86435ZM137.363 13.1981C136.888 14.4733 136.683 15.9664 136.683 17.6205H140.145C140.145 16.2275 140.321 15.1756 140.607 14.4079L137.363 13.1981ZM136.683 17.6205V25.9306H140.145V17.6205H136.683ZM138.414 27.6619H141.219V24.1993H138.414V27.6619ZM142.34 27.2497L142.859 26.8083L140.617 24.17L140.097 24.6115L142.34 27.2497ZM155.076 18.893L154.736 17.1953L153.344 17.4737V18.893H155.076ZM155.076 25.4891H153.344V26.3117L153.982 26.8313L155.076 25.4891ZM156.478 26.6318V28.3631H161.343L157.572 25.2896L156.478 26.6318ZM151.622 26.6318L150.516 25.2997L146.826 28.3631H151.622V26.6318ZM152.998 25.4891L154.104 26.8212L154.729 26.302V25.4891H152.998ZM152.998 20.9186H154.729V16.785L151.784 19.6848L152.998 20.9186ZM149.674 24.1907L148.459 22.9569L147.943 23.4656V24.1907H149.674ZM149.674 26.6318V28.3631H151.405V26.6318H149.674ZM147.622 26.6318H145.891V28.3631H147.622V26.6318ZM149.674 12.2189L150.858 13.4824L150.863 13.4769L149.674 12.2189ZM152.998 10.5569L153.279 12.2652L154.729 12.0268V10.5569H152.998ZM152.998 9.72585H154.729V8.76437L153.913 8.25617L152.998 9.72585ZM151.622 8.86887V7.13759H145.566L150.707 10.3385L151.622 8.86887ZM156.478 8.86887L157.381 10.3461L162.631 7.13759H156.478V8.86887ZM155.076 9.72585L154.173 8.24858L153.344 8.75489V9.72585H155.076ZM155.076 16.348H153.344V17.7673L154.736 18.0456L155.076 16.348ZM152.998 19.6461L154.232 20.8607L154.729 20.3553V19.6461H152.998ZM152.998 18.9189H154.729V17.5208L153.363 17.2265L152.998 18.9189ZM152.998 16.348L153.363 18.0405L154.729 17.7461V16.348H152.998ZM152.998 11.5956H154.729V9.86435H152.998V11.5956ZM150.245 13.803L148.625 13.193L148.623 13.1981L150.245 13.803ZM149.674 23.0221H147.943V27.248L150.908 24.2367L149.674 23.0221ZM155.162 17.5685C155.162 17.4427 155.195 17.2977 155.269 17.1657C155.338 17.0426 155.411 16.9872 155.42 16.9808C155.425 16.9769 155.383 17.0076 155.261 17.0534C155.142 17.0984 154.971 17.1484 154.736 17.1953L155.415 20.5906C156.127 20.4482 156.863 20.2131 157.458 19.7794C158.122 19.296 158.625 18.5415 158.625 17.5685H155.162ZM153.344 18.893V25.4891H156.807V18.893H153.344ZM153.982 26.8313L155.384 27.9739L157.572 25.2896L156.169 24.147L153.982 26.8313ZM156.478 24.9005H151.622V28.3631H156.478V24.9005ZM152.728 27.9638L154.104 26.8212L151.892 24.1571L150.516 25.2997L152.728 27.9638ZM154.729 25.4891V20.9186H151.267V25.4891H154.729ZM151.784 19.6848L148.459 22.9569L150.889 25.4245L154.213 22.1524L151.784 19.6848ZM147.943 24.1907V26.6318H151.405V24.1907H147.943ZM149.674 24.9005H147.622V28.3631H149.674V24.9005ZM149.354 26.6318V17.5945H145.891V26.6318H149.354ZM149.354 17.5945C149.354 15.6532 149.917 14.3637 150.858 13.4824L148.49 10.9554C146.696 12.6363 145.891 14.9306 145.891 17.5945H149.354ZM150.863 13.4769C151.571 12.8082 152.364 12.4155 153.279 12.2652L152.717 8.84851C151.104 9.11369 149.682 9.82901 148.485 10.9609L150.863 13.4769ZM154.729 10.5569V9.72585H151.267V10.5569H154.729ZM153.913 8.25617L152.537 7.39919L150.707 10.3385L152.083 11.1955L153.913 8.25617ZM151.622 10.6001H156.478V7.13759H151.622V10.6001ZM155.575 7.3916L154.173 8.24858L155.978 11.2031L157.381 10.3461L155.575 7.3916ZM153.344 9.72585V16.348H156.807V9.72585H153.344ZM154.736 18.0456C154.978 18.0941 155.159 18.1447 155.289 18.191C155.352 18.2138 155.399 18.2337 155.431 18.2491C155.463 18.2645 155.475 18.2732 155.474 18.2723C155.473 18.2713 155.453 18.2578 155.422 18.2282C155.392 18.198 155.35 18.1503 155.308 18.0826C155.215 17.9331 155.162 17.7502 155.162 17.5685H158.625C158.625 16.5468 158.037 15.8223 157.404 15.3976C156.824 15.0084 156.111 14.7895 155.415 14.6503L154.736 18.0456ZM154.729 19.6461V18.9189H151.267V19.6461H154.729ZM153.363 17.2265C153.153 17.1812 153.003 17.1343 152.903 17.094C152.8 17.053 152.773 17.0288 152.788 17.0403C152.806 17.0547 152.878 17.1158 152.944 17.2381C153.012 17.3673 153.041 17.5046 153.041 17.6205H149.579C149.579 18.5492 150.036 19.2924 150.676 19.7848C151.25 20.2258 151.958 20.4658 152.634 20.6114L153.363 17.2265ZM153.041 17.6205C153.041 17.7492 153.008 17.8958 152.935 18.03C152.866 18.1562 152.791 18.2175 152.774 18.2304C152.761 18.2407 152.79 18.2157 152.895 18.1741C152.999 18.1334 153.15 18.0861 153.363 18.0405L152.634 14.6555C151.962 14.8001 151.26 15.0358 150.69 15.4654C150.055 15.9442 149.579 16.681 149.579 17.6205H153.041ZM154.729 16.348V11.5956H151.267V16.348H154.729ZM152.998 9.86435C152.001 9.86435 151.06 10.1601 150.266 10.7968C149.497 11.4138 148.976 12.2614 148.625 13.193L151.866 14.413C152.069 13.873 152.284 13.6169 152.432 13.4981C152.556 13.3991 152.714 13.3269 152.998 13.3269V9.86435ZM148.623 13.1981C148.148 14.4733 147.943 15.9664 147.943 17.6205H151.405C151.405 16.2275 151.581 15.1756 151.868 14.4079L148.623 13.1981ZM147.943 17.6205V23.0221H151.405V17.6205H147.943ZM150.908 24.2367L154.232 20.8607L151.764 18.4314L148.44 21.8074L150.908 24.2367ZM166.056 26.6318V28.3631H167.787V26.6318H166.056ZM163.979 26.6318H162.247V28.3631H163.979V26.6318ZM163.979 18.893H165.71V17.1617H163.979V18.893ZM162.472 19.2825V21.0138H162.802L163.108 20.8929L162.472 19.2825ZM162.265 19.2825L161.964 20.9874L162.113 21.0138H162.265V19.2825ZM160.732 18.893L160.185 20.5354L160.221 20.5473L160.257 20.5576L160.732 18.893ZM158.629 8.86887V7.13759H156.898V8.86887H158.629ZM160.68 8.86887H162.412V7.13759H160.68V8.86887ZM160.94 17.0492L159.283 17.5512L159.285 17.5584L159.288 17.5655L160.94 17.0492ZM162.368 18.7371L161.691 20.3305L162.371 20.6195L163.05 20.3284L162.368 18.7371ZM164.005 8.86887V7.13759H162.273V8.86887H164.005ZM166.056 8.86887H167.787V7.13759H166.056V8.86887ZM166.056 24.9005H163.979V28.3631H166.056V24.9005ZM165.71 26.6318V18.893H162.247V26.6318H165.71ZM163.979 17.1617H163.953V20.6242H163.979V17.1617ZM163.953 17.1617C163.273 17.1617 162.518 17.4032 161.837 17.6721L163.108 20.8929C163.396 20.7793 163.616 20.7069 163.776 20.6646C163.949 20.6192 163.995 20.6242 163.953 20.6242V17.1617ZM162.472 17.5512H162.265V21.0138H162.472V17.5512ZM162.565 17.5776C162.37 17.5431 161.938 17.437 161.208 17.2283L160.257 20.5576C160.981 20.7645 161.57 20.918 161.964 20.9874L162.565 17.5776ZM161.28 17.2505C161.045 17.1724 160.36 16.7733 160.36 14.2445H156.898C156.898 16.9787 157.615 19.6787 160.185 20.5354L161.28 17.2505ZM160.36 14.2445V8.86887H156.898V14.2445H160.36ZM158.629 10.6001H160.68V7.13759H158.629V10.6001ZM158.949 8.86887V14.4263H162.412V8.86887H158.949ZM158.949 14.4263C158.949 15.6422 159.033 16.7267 159.283 17.5512L162.597 16.5471C162.501 16.229 162.412 15.5649 162.412 14.4263H158.949ZM159.288 17.5655C159.672 18.7966 160.456 19.8053 161.691 20.3305L163.046 17.1438C162.896 17.0803 162.727 16.9638 162.593 16.5328L159.288 17.5655ZM163.05 20.3284C165.096 19.4519 165.736 17.3822 165.736 15.2833H162.273C162.273 16.8546 161.823 17.0875 161.686 17.1459L163.05 20.3284ZM165.736 15.2833V8.86887H162.273V15.2833H165.736ZM164.005 10.6001H166.056V7.13759H164.005V10.6001ZM164.325 8.86887V26.6318H167.787V8.86887H164.325ZM176.203 26.6318V28.3631H177.935V26.6318H176.203ZM174.152 26.6318H172.421V28.3631H174.152V26.6318ZM174.152 16.1402H175.883V13.6922L173.575 14.5079L174.152 16.1402ZM170.698 17.3608L170.121 15.7284L168.967 16.1364V17.3608H170.698ZM170.698 26.6318V28.3631H172.429V26.6318H170.698ZM168.646 26.6318H166.915V28.3631H168.646V26.6318ZM168.646 8.86887V7.13759H166.915V8.86887H168.646ZM170.698 8.86887H172.429V7.13759H170.698V8.86887ZM170.698 16.1922H168.967V18.6576L171.286 17.8206L170.698 16.1922ZM174.152 14.9457L174.74 16.5741L175.883 16.1614V14.9457H174.152ZM174.152 8.86887V7.13759H172.421V8.86887H174.152ZM176.203 8.86887H177.935V7.13759H176.203V8.86887ZM176.203 24.9005H174.152V28.3631H176.203V24.9005ZM175.883 26.6318V16.1402H172.421V26.6318H175.883ZM173.575 14.5079L170.121 15.7284L171.275 18.9931L174.729 17.7726L173.575 14.5079ZM168.967 17.3608V26.6318H172.429V17.3608H168.967ZM170.698 24.9005H168.646V28.3631H170.698V24.9005ZM170.378 26.6318V8.86887H166.915V26.6318H170.378ZM168.646 10.6001H170.698V7.13759H168.646V10.6001ZM168.967 8.86887V16.1922H172.429V8.86887H168.967ZM171.286 17.8206L174.74 16.5741L173.564 13.3172L170.11 14.5637L171.286 17.8206ZM175.883 14.9457V8.86887H172.421V14.9457H175.883ZM174.152 10.6001H176.203V7.13759H174.152V10.6001ZM174.472 8.86887V26.6318H177.935V8.86887H174.472ZM186.244 18.893L185.904 17.1953L184.512 17.4737V18.893H186.244ZM186.244 25.4891H184.512V26.3117L185.15 26.8313L186.244 25.4891ZM187.646 26.6318V28.3631H192.512L188.74 25.2896L187.646 26.6318ZM182.79 26.6318L181.684 25.2997L177.994 28.3631H182.79V26.6318ZM184.166 25.4891L185.272 26.8212L185.897 26.302V25.4891H184.166ZM184.166 20.9186H185.897V16.785L182.952 19.6848L184.166 20.9186ZM180.842 24.1907L179.628 22.9569L179.111 23.4656V24.1907H180.842ZM180.842 26.6318V28.3631H182.573V26.6318H180.842ZM178.791 26.6318H177.059V28.3631H178.791V26.6318ZM180.842 12.2189L182.026 13.4824L182.031 13.4769L180.842 12.2189ZM184.166 10.5569L184.447 12.2652L185.897 12.0268V10.5569H184.166ZM184.166 9.72585H185.897V8.76437L185.081 8.25617L184.166 9.72585ZM182.79 8.86887V7.13759H176.734L181.875 10.3385L182.79 8.86887ZM187.646 8.86887L188.549 10.3461L193.799 7.13759H187.646V8.86887ZM186.244 9.72585L185.341 8.24858L184.512 8.75489V9.72585H186.244ZM186.244 16.348H184.512V17.7673L185.904 18.0456L186.244 16.348ZM184.166 19.6461L185.4 20.8607L185.897 20.3553V19.6461H184.166ZM184.166 18.9189H185.897V17.5208L184.531 17.2265L184.166 18.9189ZM184.166 16.348L184.531 18.0405L185.897 17.7461V16.348H184.166ZM184.166 11.5956H185.897V9.86435H184.166V11.5956ZM181.413 13.803L179.793 13.193L179.791 13.1981L181.413 13.803ZM180.842 23.0221H179.111V27.248L182.076 24.2367L180.842 23.0221ZM186.33 17.5685C186.33 17.4427 186.363 17.2977 186.437 17.1657C186.506 17.0426 186.579 16.9872 186.588 16.9808C186.593 16.9769 186.551 17.0076 186.429 17.0534C186.31 17.0984 186.139 17.1484 185.904 17.1953L186.583 20.5906C187.295 20.4482 188.031 20.2131 188.627 19.7794C189.29 19.296 189.793 18.5415 189.793 17.5685H186.33ZM184.512 18.893V25.4891H187.975V18.893H184.512ZM185.15 26.8313L186.552 27.9739L188.74 25.2896L187.337 24.147L185.15 26.8313ZM187.646 24.9005H182.79V28.3631H187.646V24.9005ZM183.896 27.9638L185.272 26.8212L183.06 24.1571L181.684 25.2997L183.896 27.9638ZM185.897 25.4891V20.9186H182.435V25.4891H185.897ZM182.952 19.6848L179.628 22.9569L182.057 25.4245L185.381 22.1524L182.952 19.6848ZM179.111 24.1907V26.6318H182.573V24.1907H179.111ZM180.842 24.9005H178.791V28.3631H180.842V24.9005ZM180.522 26.6318V17.5945H177.059V26.6318H180.522ZM180.522 17.5945C180.522 15.6532 181.085 14.3637 182.026 13.4824L179.659 10.9554C177.864 12.6363 177.059 14.9306 177.059 17.5945H180.522ZM182.031 13.4769C182.739 12.8082 183.532 12.4155 184.447 12.2652L183.885 8.84851C182.272 9.11369 180.85 9.82901 179.653 10.9609L182.031 13.4769ZM185.897 10.5569V9.72585H182.435V10.5569H185.897ZM185.081 8.25617L183.705 7.39919L181.875 10.3385L183.251 11.1955L185.081 8.25617ZM182.79 10.6001H187.646V7.13759H182.79V10.6001ZM186.743 7.3916L185.341 8.24858L187.146 11.2031L188.549 10.3461L186.743 7.3916ZM184.512 9.72585V16.348H187.975V9.72585H184.512ZM185.904 18.0456C186.146 18.0941 186.327 18.1447 186.457 18.191C186.521 18.2138 186.567 18.2337 186.599 18.2491C186.631 18.2645 186.643 18.2732 186.642 18.2723C186.641 18.2713 186.621 18.2578 186.591 18.2282C186.56 18.198 186.518 18.1503 186.476 18.0826C186.383 17.9331 186.33 17.7502 186.33 17.5685H189.793C189.793 16.5468 189.205 15.8223 188.572 15.3976C187.992 15.0084 187.279 14.7895 186.583 14.6503L185.904 18.0456ZM185.897 19.6461V18.9189H182.435V19.6461H185.897ZM184.531 17.2265C184.321 17.1812 184.171 17.1343 184.071 17.094C183.968 17.053 183.941 17.0288 183.956 17.0403C183.975 17.0547 184.046 17.1158 184.112 17.2381C184.18 17.3673 184.209 17.5046 184.209 17.6205H180.747C180.747 18.5492 181.205 19.2924 181.845 19.7848C182.418 20.2258 183.126 20.4658 183.802 20.6114L184.531 17.2265ZM184.209 17.6205C184.209 17.7492 184.176 17.8958 184.103 18.03C184.034 18.1562 183.959 18.2175 183.942 18.2304C183.929 18.2407 183.958 18.2157 184.063 18.1741C184.167 18.1334 184.319 18.0861 184.531 18.0405L183.802 14.6555C183.13 14.8001 182.428 15.0358 181.858 15.4654C181.223 15.9442 180.747 16.681 180.747 17.6205H184.209ZM185.897 16.348V11.5956H182.435V16.348H185.897ZM184.166 9.86435C183.169 9.86435 182.228 10.1601 181.434 10.7968C180.665 11.4138 180.144 12.2614 179.793 13.193L183.034 14.413C183.237 13.873 183.452 13.6169 183.6 13.4981C183.724 13.3991 183.882 13.3269 184.166 13.3269V9.86435ZM179.791 13.1981C179.316 14.4733 179.111 15.9664 179.111 17.6205H182.573C182.573 16.2275 182.749 15.1756 183.036 14.4079L179.791 13.1981ZM179.111 17.6205V23.0221H182.573V17.6205H179.111ZM182.076 24.2367L185.4 20.8607L182.932 18.4314L179.608 21.8074L182.076 24.2367ZM197.198 26.6318V28.3631H198.929V26.6318H197.198ZM195.147 26.6318H193.415V28.3631H195.147V26.6318ZM195.147 17.3608H196.878V15.6295H195.147V17.3608ZM194.316 17.3608V15.6295H193.919L193.562 15.8024L194.316 17.3608ZM192.731 19.3604L194.289 20.1168L194.29 20.1145L192.731 19.3604ZM191.849 26.6318V28.3631H193.58V26.6318H191.849ZM189.797 26.6318H188.066V28.3631H189.797V26.6318ZM190.55 19.3344L188.951 18.6698L188.947 18.6798L190.55 19.3344ZM193.147 16.8154L193.365 18.5329L193.342 15.0951L193.147 16.8154ZM190.732 14.8937L192.224 14.0159L192.223 14.0138L190.732 14.8937ZM189.979 10.2712L191.689 10.5432L191.692 10.5242L191.694 10.5051L189.979 10.2712ZM190.784 9.2584L191.682 10.7383L191.692 10.7325L191.701 10.7265L190.784 9.2584ZM197.198 8.86887H198.929V7.13759H197.198V8.86887ZM195.147 16.7116V18.4428H196.878V16.7116H195.147ZM195.147 9.5181H196.878V7.78682H195.147V9.5181ZM192.03 9.5181V7.78682H190.499L190.312 9.30707L192.03 9.5181ZM192.602 14.66L194.145 13.8756L194.145 13.8749L192.602 14.66ZM194.549 16.7116L193.894 18.3139L194.209 18.4428H194.549V16.7116ZM197.198 24.9005H195.147V28.3631H197.198V24.9005ZM196.878 26.6318V17.3608H193.415V26.6318H196.878ZM195.147 15.6295H194.316V19.0921H195.147V15.6295ZM193.562 15.8024C192.462 16.3342 191.719 17.4773 191.173 18.6063L194.29 20.1145C194.515 19.6501 194.713 19.3337 194.874 19.1305C195.04 18.9206 195.114 18.8976 195.07 18.9192L193.562 15.8024ZM191.174 18.604C190.476 20.0425 190.117 21.5555 190.117 23.1259H193.58C193.58 22.0995 193.81 21.1021 194.289 20.1168L191.174 18.604ZM190.117 23.1259V26.6318H193.58V23.1259H190.117ZM191.849 24.9005H189.797V28.3631H191.849V24.9005ZM191.528 26.6318V23.1H188.066V26.6318H191.528ZM191.528 23.1C191.528 22.0515 191.732 21.0182 192.153 19.9891L188.947 18.6798C188.364 20.1091 188.066 21.5862 188.066 23.1H191.528ZM192.149 19.999C192.685 18.7098 193.171 18.5575 193.365 18.5329L192.929 15.0979C190.941 15.3503 189.697 16.8774 188.951 18.6698L192.149 19.999ZM193.342 15.0951C193.188 15.0777 192.778 14.9582 192.224 14.0159L189.24 15.7715C190.07 17.1837 191.271 18.3454 192.952 18.5357L193.342 15.0951ZM192.223 14.0138C191.719 13.1601 191.528 12.4398 191.528 11.8294H188.066C188.066 13.1925 188.498 14.5152 189.241 15.7736L192.223 14.0138ZM191.528 11.8294C191.528 11.7094 191.565 11.3203 191.689 10.5432L188.269 9.99919C188.15 10.7457 188.066 11.3953 188.066 11.8294H191.528ZM191.694 10.5051C191.684 10.5762 191.665 10.642 191.64 10.6986C191.615 10.754 191.589 10.7908 191.574 10.8096C191.548 10.8425 191.563 10.8109 191.682 10.7383L189.885 7.77853C189.173 8.21122 188.414 8.93035 188.263 10.0373L191.694 10.5051ZM191.701 10.7265C191.892 10.6076 191.994 10.6001 192.03 10.6001V7.13759C191.236 7.13759 190.507 7.38987 189.866 7.79028L191.701 10.7265ZM192.03 10.6001H197.198V7.13759H192.03V10.6001ZM195.467 8.86887V26.6318H198.929V8.86887H195.467ZM196.878 16.7116V9.5181H193.415V16.7116H196.878ZM195.147 7.78682H192.03V11.2494H195.147V7.78682ZM190.312 9.30707C190.187 10.3209 190.117 11.1804 190.117 11.8553H193.58C193.58 11.3876 193.631 10.689 193.749 9.72912L190.312 9.30707ZM190.117 11.8553C190.117 13.0716 190.464 14.2754 191.059 15.4451L194.145 13.8749C193.736 13.0709 193.58 12.4049 193.58 11.8553H190.117ZM191.058 15.4443C191.702 16.7108 192.609 17.7883 193.894 18.3139L195.205 15.1092C194.966 15.0116 194.575 14.7213 194.145 13.8756L191.058 15.4443ZM194.549 18.4428H195.147V14.9803H194.549V18.4428ZM208.593 17.2569V18.9882H210.324V17.2569H208.593ZM207.762 17.2569V15.5256H207.364L207.006 15.6991L207.762 17.2569ZM206.177 18.9968L207.69 19.8397L207.695 19.83L206.177 18.9968ZM205.32 22.8403L207 23.2602L207.025 23.1587L207.038 23.055L205.32 22.8403ZM205.346 22.6325H207.078L203.629 22.4178L205.346 22.6325ZM205.346 23.3597V25.0909H207.078V23.3597H205.346ZM203.295 23.3597L201.567 23.4613L201.662 25.0909H203.295V23.3597ZM203.243 22.4767L204.971 22.375L204.971 22.3676L203.243 22.4767ZM204.256 18.3216L202.835 17.3322L202.832 17.3362L204.256 18.3216ZM206.593 16.7116L206.795 18.431L206.771 14.9895L206.593 16.7116ZM204.152 14.8158L202.622 15.6259L202.627 15.6352L204.152 14.8158ZM203.243 11.7255L201.522 11.9167L201.524 11.9278L203.243 11.7255ZM203.139 10.7906V9.05931H201.205L201.418 10.9818L203.139 10.7906ZM205.191 10.7906L206.912 10.6045L206.745 9.05931H205.191V10.7906ZM205.294 11.7514L207.016 11.567L207.016 11.5654L205.294 11.7514ZM206.1 14.5301L207.658 13.7761L207.654 13.7681L206.1 14.5301ZM207.995 16.6077L207.327 18.2047L207.648 18.339H207.995V16.6077ZM208.593 16.6077H210.324V14.8764H208.593V16.6077ZM203.944 17.3608V19.0921H205.675V17.3608H203.944ZM203.113 17.3608V15.6295H202.716L202.358 15.803L203.113 17.3608ZM201.529 19.1007L203.041 19.9436L203.047 19.9339L201.529 19.1007ZM200.672 22.9442L202.352 23.3641L202.377 23.2626L202.39 23.1589L200.672 22.9442ZM200.698 22.7364H202.429L198.98 22.5217L200.698 22.7364ZM200.698 23.4635V25.1948H202.429V23.4635H200.698ZM198.646 23.4635L196.918 23.5652L197.014 25.1948H198.646V23.4635ZM198.594 22.5806L200.323 22.4789L200.322 22.4715L198.594 22.5806ZM199.607 18.4255L198.187 17.4361L198.184 17.4401L199.607 18.4255ZM201.944 16.8154L202.147 18.5349L202.123 15.0933L201.944 16.8154ZM199.503 14.9197L197.973 15.7297L197.978 15.7391L199.503 14.9197ZM198.594 11.8294L196.874 12.0205L196.875 12.0316L198.594 11.8294ZM198.491 10.8945V9.16319H196.556L196.77 11.0857L198.491 10.8945ZM200.542 10.8945L202.263 10.7084L202.096 9.16319H200.542V10.8945ZM200.646 11.8553L202.367 11.6709L202.367 11.6692L200.646 11.8553ZM201.451 14.634L203.01 13.8799L203.006 13.872L201.451 14.634ZM203.347 16.7116L202.678 18.3086L202.999 18.4428H203.347V16.7116ZM203.944 16.7116H205.675V14.9803H203.944V16.7116ZM208.593 15.5256H207.762V18.9882H208.593V15.5256ZM207.006 15.6991C205.972 16.2003 205.224 17.1364 204.66 18.1636L207.695 19.83C208.101 19.0914 208.408 18.8675 208.517 18.8147L207.006 15.6991ZM204.665 18.154C203.924 19.4832 203.563 20.9447 203.563 22.5027H207.026C207.026 21.4984 207.253 20.6227 207.69 19.8397L204.665 18.154ZM203.563 22.5027C203.563 22.6458 203.565 22.8095 203.575 22.9406C203.578 22.9758 203.583 23.0408 203.595 23.1172C203.602 23.1549 203.613 23.2209 203.635 23.3006C203.649 23.3538 203.699 23.5401 203.825 23.7489C203.889 23.8556 204.389 24.6674 205.444 24.5862C205.92 24.5496 206.255 24.331 206.436 24.1773C206.614 24.0258 206.721 23.8718 206.775 23.7872C206.882 23.6197 206.934 23.4717 206.952 23.4214C206.976 23.3526 206.991 23.2949 207 23.2602L203.641 22.4204C203.647 22.3943 203.661 22.3439 203.683 22.2809C203.698 22.2363 203.749 22.0928 203.854 21.9283C203.907 21.8451 204.013 21.6922 204.19 21.5415C204.37 21.3886 204.704 21.1704 205.179 21.1339C206.232 21.0528 206.731 21.8634 206.794 21.9674C206.917 22.1735 206.966 22.3557 206.979 22.4033C206.999 22.4775 207.009 22.5365 207.014 22.5658C207.023 22.6254 207.027 22.668 207.027 22.675C207.029 22.6936 207.026 22.6539 207.026 22.5027H203.563ZM207.038 23.055L207.064 22.8473L203.629 22.4178L203.603 22.6255L207.038 23.055ZM203.615 22.6325V23.3597H207.078V22.6325H203.615ZM205.346 21.6284H203.295V25.0909H205.346V21.6284ZM205.023 23.258L204.971 22.375L201.515 22.5784L201.567 23.4613L205.023 23.258ZM204.971 22.3676C204.886 21.0296 205.164 20.0506 205.679 19.3071L202.832 17.3362C201.789 18.8433 201.392 20.6344 201.515 22.5858L204.971 22.3676ZM205.676 19.3111C206.167 18.607 206.552 18.4596 206.795 18.431L206.391 14.9921C204.868 15.1713 203.695 16.0973 202.835 17.3322L205.676 19.3111ZM206.771 14.9895C206.507 14.9622 206.121 14.8221 205.677 13.9964L202.627 15.6352C203.43 17.1294 204.67 18.2532 206.415 18.4336L206.771 14.9895ZM205.682 14.0058C205.331 13.3436 205.08 12.5267 204.962 11.5232L201.524 11.9278C201.682 13.2788 202.037 14.5221 202.622 15.6258L205.682 14.0058ZM204.964 11.5343L204.86 10.5994L201.418 10.9818L201.522 11.9167L204.964 11.5343ZM203.139 12.5219H205.191V9.05931H203.139V12.5219ZM203.469 10.9767L203.573 11.9375L207.016 11.5654L206.912 10.6045L203.469 10.9767ZM203.573 11.9359C203.699 13.1079 204.024 14.2295 204.545 15.2922L207.654 13.7681C207.309 13.0649 207.098 12.334 207.016 11.567L203.573 11.9359ZM204.541 15.2842C205.159 16.5605 206.043 17.6673 207.327 18.2047L208.664 15.0107C208.459 14.9248 208.079 14.6466 207.658 13.7761L204.541 15.2842ZM207.995 18.339H208.593V14.8764H207.995V18.339ZM206.861 16.6077V17.2569H210.324V16.6077H206.861ZM203.944 15.6295H203.113V19.0921H203.944V15.6295ZM202.358 15.803C201.324 16.3042 200.575 17.2403 200.011 18.2675L203.047 19.9339C203.452 19.1953 203.76 18.9714 203.868 18.9186L202.358 15.803ZM200.017 18.2578C199.276 19.5871 198.915 21.0486 198.915 22.6066H202.377C202.377 21.6022 202.605 20.7265 203.041 19.9436L200.017 18.2578ZM198.915 22.6066C198.915 22.7497 198.916 22.9134 198.926 23.0445C198.929 23.0796 198.935 23.1446 198.947 23.221C198.953 23.2587 198.965 23.3247 198.986 23.4044C199 23.4577 199.051 23.6439 199.176 23.8527C199.24 23.9594 199.741 24.7713 200.796 24.6901C201.272 24.6535 201.607 24.4349 201.787 24.2812C201.965 24.1297 202.073 23.9757 202.127 23.8911C202.233 23.7235 202.286 23.5756 202.304 23.5252C202.327 23.4565 202.343 23.3988 202.352 23.3641L198.992 22.5243C198.999 22.4982 199.012 22.4477 199.034 22.3848C199.05 22.3402 199.101 22.1967 199.205 22.0321C199.258 21.949 199.365 21.7961 199.542 21.6454C199.721 21.4925 200.055 21.2743 200.53 21.2378C201.584 21.1567 202.083 21.9673 202.145 22.0713C202.269 22.2774 202.318 22.4595 202.33 22.5072C202.35 22.5813 202.361 22.6404 202.365 22.6697C202.375 22.7293 202.378 22.7719 202.379 22.7789C202.38 22.7975 202.377 22.7577 202.377 22.6066H198.915ZM202.39 23.1589L202.416 22.9511L198.98 22.5217L198.954 22.7294L202.39 23.1589ZM198.967 22.7364V23.4635H202.429V22.7364H198.967ZM200.698 21.7323H198.646V25.1948H200.698V21.7323ZM200.375 23.3619L200.323 22.4789L196.866 22.6822L196.918 23.5652L200.375 23.3619ZM200.322 22.4715C200.238 21.1334 200.516 20.1545 201.031 19.411L198.184 17.4401C197.14 18.9472 196.743 20.7383 196.867 22.6897L200.322 22.4715ZM201.028 19.4149C201.518 18.7109 201.904 18.5634 202.147 18.5349L201.742 15.096C200.219 15.2752 199.047 16.2012 198.187 17.4361L201.028 19.4149ZM202.123 15.0933C201.859 15.0661 201.472 14.926 201.028 14.1002L197.978 15.7391C198.781 17.2333 200.022 18.3571 201.766 18.5375L202.123 15.0933ZM201.033 14.1096C200.683 13.4475 200.432 12.6306 200.314 11.6271L196.875 12.0316C197.034 13.3827 197.389 14.6259 197.973 15.7297L201.033 14.1096ZM200.315 11.6382L200.211 10.7033L196.77 11.0857L196.874 12.0205L200.315 11.6382ZM198.491 12.6257H200.542V9.16319H198.491V12.6257ZM198.821 11.0805L198.925 12.0414L202.367 11.6692L202.263 10.7084L198.821 11.0805ZM198.925 12.0398C199.05 13.2118 199.376 14.3333 199.896 15.3961L203.006 13.872C202.661 13.1688 202.45 12.4379 202.367 11.6709L198.925 12.0398ZM199.893 15.3881C200.51 16.6644 201.395 17.7712 202.678 18.3086L204.015 15.1146C203.81 15.0286 203.431 14.7505 203.009 13.8799L199.893 15.3881ZM203.347 18.4428H203.944V14.9803H203.347V18.4428ZM202.213 16.7116V17.3608H205.675V16.7116H202.213Z" fill="#E3DFC5"/>
</svg>
